<svg width="78" height="22" viewBox="0 0 78 22" fill="none" xmlns="http://www.w3.org/2000/svg">
<path d="M0.93 21V18.54L9.99 5.52H1.38V1.68H16.32V4.38L7.35 17.28H16.5V21H0.93Z" fill="#FD6219"/>
<path d="M19.8338 4.53V0.899999H25.0838V4.53H19.8338ZM20.2238 21V10.35H18.1238L18.5438 6.78H25.0537V21H20.2238ZM32.5556 21L26.9456 6.78H31.9856L35.1056 16.02L38.2556 6.78H43.2956L37.6856 21H32.5556ZM48.8606 21.3C47.9606 21.3 47.1206 21.14 46.3406 20.82C45.5806 20.5 44.9706 20.01 44.5106 19.35C44.0506 18.67 43.8206 17.83 43.8206 16.83C43.8206 15.37 44.3106 14.23 45.2906 13.41C46.2906 12.57 47.7806 12.15 49.7606 12.15H53.7206V11.82C53.7206 11.1 53.4806 10.59 53.0006 10.29C52.5206 9.97 51.6206 9.81 50.3006 9.81C48.6806 9.81 47.0906 10.06 45.5306 10.56V7.44C46.2306 7.16 47.0806 6.93 48.0806 6.75C49.1006 6.57 50.1706 6.48 51.2906 6.48C53.4906 6.48 55.2106 6.93 56.4506 7.83C57.7106 8.73 58.3406 10.16 58.3406 12.12V21H54.1106L53.8706 19.8C53.3506 20.28 52.6806 20.65 51.8606 20.91C51.0606 21.17 50.0606 21.3 48.8606 21.3ZM50.3906 18.33C51.1506 18.33 51.8106 18.2 52.3706 17.94C52.9306 17.68 53.3806 17.35 53.7206 16.95V14.94H50.3006C48.8806 14.94 48.1706 15.51 48.1706 16.65C48.1706 17.17 48.3506 17.58 48.7106 17.88C49.0706 18.18 49.6306 18.33 50.3906 18.33ZM61.237 21V6.78H65.737L65.887 8.01C66.467 7.61 67.197 7.26 68.077 6.96C68.957 6.64 69.897 6.48 70.897 6.48C72.737 6.48 74.077 6.92 74.917 7.8C75.757 8.68 76.177 10.04 76.177 11.88V21H71.347V12.27C71.347 11.47 71.177 10.9 70.837 10.56C70.497 10.22 69.887 10.05 69.007 10.05C68.487 10.05 67.957 10.17 67.417 10.41C66.877 10.65 66.427 10.95 66.067 11.31V21H61.237Z" fill="white"/>
</svg>