<svg width="78" height="23" viewBox="0 0 78 23" fill="none" xmlns="http://www.w3.org/2000/svg">
<path d="M0.93 22V19.54L9.99 6.52H1.38V2.68H16.32V5.38L7.35 18.28H16.5V22H0.93Z" fill="#FD6219"/>
<path d="M19.8338 5.53V1.9H25.0838V5.53H19.8338ZM20.2238 22V11.35H18.1238L18.5438 7.78H25.0537V22H20.2238ZM32.5556 22L26.9456 7.78H31.9856L35.1056 17.02L38.2556 7.78H43.2956L37.6856 22H32.5556ZM48.8606 22.3C47.9606 22.3 47.1206 22.14 46.3406 21.82C45.5806 21.5 44.9706 21.01 44.5106 20.35C44.0506 19.67 43.8206 18.83 43.8206 17.83C43.8206 16.37 44.3106 15.23 45.2906 14.41C46.2906 13.57 47.7806 13.15 49.7606 13.15H53.7206V12.82C53.7206 12.1 53.4806 11.59 53.0006 11.29C52.5206 10.97 51.6206 10.81 50.3006 10.81C48.6806 10.81 47.0906 11.06 45.5306 11.56V8.44C46.2306 8.16 47.0806 7.93 48.0806 7.75C49.1006 7.57 50.1706 7.48 51.2906 7.48C53.4906 7.48 55.2106 7.93 56.4506 8.83C57.7106 9.73 58.3406 11.16 58.3406 13.12V22H54.1106L53.8706 20.8C53.3506 21.28 52.6806 21.65 51.8606 21.91C51.0606 22.17 50.0606 22.3 48.8606 22.3ZM50.3906 19.33C51.1506 19.33 51.8106 19.2 52.3706 18.94C52.9306 18.68 53.3806 18.35 53.7206 17.95V15.94H50.3006C48.8806 15.94 48.1706 16.51 48.1706 17.65C48.1706 18.17 48.3506 18.58 48.7106 18.88C49.0706 19.18 49.6306 19.33 50.3906 19.33ZM61.237 22V7.78H65.737L65.887 9.01C66.467 8.61 67.197 8.26 68.077 7.96C68.957 7.64 69.897 7.48 70.897 7.48C72.737 7.48 74.077 7.92 74.917 8.8C75.757 9.68 76.177 11.04 76.177 12.88V22H71.347V13.27C71.347 12.47 71.177 11.9 70.837 11.56C70.497 11.22 69.887 11.05 69.007 11.05C68.487 11.05 67.957 11.17 67.417 11.41C66.877 11.65 66.427 11.95 66.067 12.31V22H61.237Z" fill="#121212"/>
</svg>

