
<svg width="244" height="218" viewBox="0 0 244 218" fill="none" xmlns="http://www.w3.org/2000/svg">
<g opacity="0.2">
<path d="M0 69.7216C0.57199 67.1794 1.01687 64.6373 1.71597 62.0951C7.37232 41.567 25.5489 27.2037 46.9032 26.9495C73.6596 26.6952 100.416 26.8224 127.236 26.8859C132.956 26.8859 137.278 31.1441 137.214 36.5462C137.151 41.9483 132.956 45.9522 127.045 45.9522C100.861 45.9522 74.6129 45.9522 48.4285 45.9522C33.3661 45.9522 21.6721 55.9939 19.3841 70.9292C19.1299 72.3909 19.1299 73.9162 19.1299 75.4415C19.1299 112.875 19.1299 150.245 19.0663 187.679C19.0663 192.255 20.5916 195.814 24.8498 197.72C29.0444 199.563 32.667 198.292 35.9718 195.305C40.5477 191.047 45.3779 186.98 49.9538 182.721C52.4324 180.433 55.2288 179.48 58.5972 179.48C91.6455 179.544 124.694 179.544 157.742 179.48C171.788 179.48 182.846 170.773 186.087 157.236C186.596 155.075 186.787 152.851 186.85 150.626C186.914 143.826 186.85 136.962 186.914 130.162C186.914 124.378 190.981 120.057 196.383 120.057C201.785 119.993 205.98 124.315 205.98 130.035C205.916 139.06 206.298 148.211 205.472 157.173C203.629 177.51 186.024 195.369 165.75 198.038C162.763 198.419 159.712 198.61 156.725 198.61C125.901 198.674 95.0775 198.674 64.2536 198.61C61.9656 198.61 60.2496 199.119 58.5337 200.771C54.784 204.33 50.9707 207.825 46.9667 211.067C29.9341 225.112 4.63948 215.833 0.508435 194.161C0.444881 193.716 0.190662 193.271 0.0635535 192.827C-9.70711e-07 151.707 0 110.714 0 69.7216Z" fill="#4F4747"/>
<path d="M103.656 129.018C104.736 109.125 112.045 92.4741 125.709 78.7464C148.78 55.6125 171.85 32.5423 194.984 9.47199C202.992 1.52768 212.715 -1.0145 223.456 2.09967C234.07 5.15029 240.807 12.5226 243.222 23.2633C245.51 33.4956 242.713 42.4568 235.341 49.8926C217.673 67.6243 200.005 85.2925 182.273 102.961C175.345 109.888 168.672 117.006 161.3 123.425C147.89 135.119 132.001 140.903 114.206 141.157C107.406 141.284 103.402 137.153 103.656 130.353C103.72 129.781 103.656 129.145 103.656 129.018ZM123.167 121.201C124.438 121.074 124.756 121.074 125.01 121.01C135.497 118.659 144.585 113.765 152.212 106.202C175.345 83.0681 198.479 59.9342 221.613 36.8004C225.871 32.5423 226.062 26.6952 222.121 22.8184C218.245 18.9416 212.334 19.1323 208.14 23.3269C184.942 46.5242 161.681 69.5945 138.674 92.9825C134.543 97.1771 131.302 102.325 128.379 107.473C126.154 111.477 125.01 116.18 123.167 121.201Z" fill="#4F4747"/>
<path d="M61.8374 103.151C57.2615 103.151 52.622 103.215 48.0461 103.151C42.3262 103.088 38.1951 99.1473 38.1316 93.8088C38.068 88.4066 42.3262 84.212 48.0461 84.1485C57.325 84.0849 66.604 84.0849 75.8829 84.1485C81.6664 84.212 85.861 88.4066 85.7974 93.8088C85.7339 99.1473 81.6028 103.151 75.8829 103.151C71.1799 103.151 66.5404 103.151 61.8374 103.151Z" fill="#4F4747"/>
<path d="M61.9647 141.284C57.2617 141.284 52.6222 141.348 47.9191 141.284C42.3899 141.22 38.2589 137.28 38.1318 132.005C38.0047 126.666 42.1357 122.345 47.6649 122.218C57.1981 122.091 66.7313 122.091 76.2009 122.218C81.7937 122.281 85.8612 126.666 85.7341 132.005C85.6069 137.28 81.4759 141.157 75.9467 141.22C71.3072 141.284 66.6042 141.284 61.9647 141.284Z" fill="#4F4747"/>
</g>
</svg>
