<svg width="30" height="31" viewBox="0 0 30 31" fill="none" xmlns="http://www.w3.org/2000/svg">
<g clip-path="url(#clip0_260_124)">
<path d="M30.0586 14.6836C30.0586 15.2695 30.0586 15.8555 30.0586 16.4414C30.041 16.5234 30.0176 16.6113 30.0117 16.6934C29.8652 18.7852 29.3145 20.7715 28.3008 22.6055C25.9688 26.8301 22.4238 29.4141 17.6719 30.3281C17.0977 30.4395 16.5176 30.4863 15.9375 30.5625C15.3516 30.5625 14.7656 30.5625 14.1797 30.5625C14.1035 30.5449 14.0273 30.5215 13.9512 30.5156C11.8477 30.375 9.85547 29.8184 8.01562 28.8047C3.79102 26.4668 1.20117 22.9219 0.292969 18.1758C0.181641 17.6016 0.134766 17.0215 0.0585938 16.4414C0.0585938 15.8555 0.0585938 15.2695 0.0585938 14.6836C0.0761719 14.6016 0.0996094 14.5137 0.105469 14.4316C0.251953 12.3398 0.808594 10.3535 1.81641 8.51953C4.14844 4.29492 7.69336 1.71094 12.4453 0.796875C13.0195 0.685547 13.5996 0.638672 14.1797 0.5625C14.7656 0.5625 15.3516 0.5625 15.9375 0.5625C16.0137 0.580078 16.0898 0.603516 16.166 0.609375C18.2695 0.75 20.2617 1.30664 22.1016 2.32031C26.3262 4.6582 28.916 8.20312 29.8242 12.9492C29.9297 13.5234 29.9824 14.1035 30.0586 14.6836ZM15.0586 28.2188C22.0371 28.2188 27.7031 22.5586 27.709 15.5742C27.7266 8.58984 22.043 2.90625 15.0586 2.90625C8.07422 2.90625 2.41406 8.56641 2.40234 15.5508C2.39062 22.5352 8.07422 28.2188 15.0586 28.2188Z" fill="white"/>
<path d="M13.061 17.8828C13.1313 17.7715 13.1782 17.6543 13.2602 17.5723C15.4751 15.3516 17.6899 13.1426 19.9048 10.9219C20.1684 10.6582 20.4614 10.459 20.8481 10.459C21.3169 10.4648 21.6743 10.6758 21.8911 11.0918C22.1079 11.5078 22.0727 11.9238 21.8032 12.3047C21.727 12.416 21.6274 12.5156 21.5337 12.6094C19.0141 15.1289 16.4946 17.6484 13.9751 20.168C13.313 20.8301 12.6802 20.8301 12.0239 20.168C10.852 18.9961 9.6743 17.8242 8.50242 16.6465C8.06297 16.207 7.96336 15.6855 8.21531 15.2109C8.59617 14.4844 9.5161 14.3613 10.143 14.9766C11.022 15.8379 11.8833 16.7168 12.7505 17.584C12.8325 17.666 12.9087 17.7363 13.061 17.8828Z" fill="white"/>
</g>
<defs>
<clipPath id="clip0_260_124">
<rect width="30" height="30" fill="white" transform="translate(0 0.503906)"/>
</clipPath>
</defs>
</svg>
