<svg width="25" height="24" viewBox="0 0 25 24" fill="none" xmlns="http://www.w3.org/2000/svg">
  <path d="M12.4996 15.0755L10.0909 16.3849L10.5508 13.6112L8.60205 11.6469L11.2953 11.2422L12.4996 8.71821L13.7039 11.2422L16.3972 11.6469L14.4484 13.6112L14.9083 16.3849L12.4996 15.0755Z" fill="#FDBF00"/>
  <path d="M12.4993 5.43213C13.1143 5.43213 13.6129 4.94177 13.6129 4.33689C13.6129 3.73201 13.1143 3.24165 12.4993 3.24165C11.8843 3.24165 11.3857 3.73201 11.3857 4.33689C11.3857 4.94177 11.8843 5.43213 12.4993 5.43213Z" fill="#FDBF00"/>
  <path d="M12.4996 20.218C12.3519 20.2208 12.2092 20.1658 12.1028 20.065C11.9964 19.9643 11.935 19.8261 11.9322 19.6808C11.9294 19.5356 11.9854 19.3952 12.0878 19.2906C12.1903 19.1859 12.3308 19.1256 12.4784 19.1228C13.778 19.0536 15.0381 18.6593 16.1394 17.9772C16.6666 17.6344 17.1496 17.2298 17.5776 16.7724C17.9929 16.321 18.3414 15.8142 18.6126 15.267C18.8893 14.7267 19.0772 14.1467 19.1694 13.5486C19.2733 12.9512 19.2819 12.3415 19.195 11.7414C19.0216 10.5323 18.4927 9.39943 17.6733 8.48201C17.6248 8.42807 17.5876 8.36527 17.5638 8.2972C17.54 8.22912 17.5301 8.1571 17.5346 8.08525C17.5391 8.0134 17.5579 7.94312 17.5901 7.87843C17.6222 7.81374 17.6669 7.7559 17.7218 7.70822C17.7766 7.66054 17.8405 7.62395 17.9097 7.60054C17.9789 7.57714 18.0521 7.56736 18.1252 7.57179C18.1982 7.57621 18.2697 7.59474 18.3355 7.62633C18.4012 7.65791 18.46 7.70193 18.5085 7.75587C19.4779 8.83129 20.1013 10.1653 20.2997 11.5892C20.4038 12.2943 20.3944 13.0112 20.2719 13.7134C20.1662 14.4141 19.9484 15.0939 19.6266 15.7276C19.3124 16.3698 18.9065 16.9645 18.4211 17.4936C17.924 18.0277 17.3619 18.4995 16.7474 18.8983C15.4768 19.6868 14.0217 20.1412 12.5213 20.218H12.4996Z" fill="#4FAD6E"/>
  <path d="M20.9317 18.1225C20.4054 18.103 19.8884 17.9809 19.4105 17.7633C18.9326 17.5456 18.5033 17.2368 18.1477 16.8548C18.0942 16.8024 18.0521 16.7398 18.024 16.6709C17.9959 16.602 17.9823 16.5282 17.984 16.4539C17.9861 16.3806 18.0028 16.3085 18.033 16.2415C18.0392 16.2261 18.0458 16.2119 18.052 16.1998L18.0553 16.1933C18.0698 16.1625 18.0874 16.1331 18.1076 16.1056C18.2989 15.8547 18.4619 15.584 18.5937 15.2985C18.6149 15.2516 18.6426 15.2079 18.6761 15.1687C19.312 14.3336 20.1632 13.6809 21.1416 13.278C22.1201 12.875 23.1902 12.7366 24.2413 12.8769C24.378 12.8887 24.5055 12.9498 24.5992 13.0485C24.6929 13.1471 24.7463 13.2764 24.7491 13.4114C24.7886 15.4189 23.7669 17.2075 22.2062 17.8624C21.8037 18.0332 21.3701 18.1217 20.9317 18.1225Z" fill="#70CC71"/>
  <path d="M20.361 12.8031C20.1517 12.803 19.9426 12.7911 19.7346 12.7675C19.5988 12.7522 19.4734 12.6882 19.3824 12.5879C19.2915 12.4875 19.2412 12.3577 19.2413 12.2232V12.2122C19.2324 12.0753 19.2168 11.911 19.1917 11.7462C19.1726 11.6002 19.1461 11.4553 19.1121 11.312C19.1016 11.2696 19.0964 11.2263 19.0965 11.1827C18.9935 9.20142 19.7469 6.7563 22.1717 5.90256C22.2802 5.86438 22.3981 5.86025 22.5091 5.89076C22.6201 5.92126 22.7187 5.98489 22.7914 6.07287C24.072 7.62264 24.3905 9.63678 23.5837 11.0852C23.2621 11.638 22.7901 12.0915 22.2208 12.395C21.6515 12.6985 21.0075 12.8398 20.361 12.8031Z" fill="#70CC71"/>
  <path d="M18.0887 8.66885C17.9624 8.66893 17.8399 8.62684 17.7412 8.54946C15.7423 6.98108 14.5068 3.24741 15.9105 0.783666C15.9714 0.676897 16.0668 0.593262 16.1817 0.546113C16.2965 0.498964 16.4241 0.491019 16.5441 0.523547C17.5029 0.794336 18.3638 1.32743 19.0265 2.06076C19.6892 2.79408 20.1265 3.69747 20.2874 4.66574C20.4137 5.43299 20.2986 6.21986 19.9576 6.92099C19.6166 7.62213 19.0659 8.20407 18.3793 8.58889C18.2918 8.64135 18.1912 8.66902 18.0887 8.66885Z" fill="#70CC71"/>
  <path d="M17.2417 22.0352C16.8987 22.0389 16.5572 21.9894 16.23 21.8884C15.8793 21.7759 15.5589 21.587 15.2928 21.3357C15.0267 21.0844 14.8218 20.7773 14.6932 20.4372L14.2584 19.4411C14.2284 19.3722 14.213 19.298 14.2134 19.223C14.2137 19.148 14.2297 19.074 14.2604 19.0053C14.291 18.9367 14.3356 18.875 14.3915 18.824C14.4474 18.773 14.5133 18.7338 14.5852 18.7089C15.0411 18.55 15.4804 18.3483 15.897 18.1066L15.9427 18.083C15.9675 18.0709 15.9932 18.0607 16.0195 18.0523C16.8278 17.8087 17.6849 17.7655 18.5143 17.9265C19.3437 18.0875 20.1198 18.4477 20.7734 18.9751L21.6086 19.7308C21.6719 19.7878 21.721 19.8585 21.752 19.9373C21.7829 20.016 21.7949 20.1008 21.787 20.1849C21.7792 20.269 21.7516 20.3502 21.7066 20.4221C21.6615 20.494 21.6002 20.5546 21.5273 20.5993C21.2534 20.7702 19.1253 22.0352 17.2417 22.0352Z" fill="#70CC71"/>
  <path d="M12.4994 20.218C12.647 20.2208 12.7898 20.1658 12.8962 20.065C13.0026 19.9643 13.0639 19.8261 13.0667 19.6808C13.0695 19.5356 13.0136 19.3952 12.9111 19.2906C12.8087 19.1859 12.6682 19.1256 12.5205 19.1228C11.221 19.0536 9.96089 18.6593 8.85961 17.9772C8.33235 17.6344 7.84941 17.2298 7.42141 16.7724C7.00605 16.321 6.65759 15.8142 6.38634 15.267C6.11035 14.7267 5.92335 14.1466 5.83233 13.5486C5.728 12.9512 5.71917 12.3415 5.80616 11.7414C5.97961 10.5323 6.50853 9.39943 7.32787 8.48201C7.42578 8.37308 7.47568 8.23036 7.46659 8.08525C7.45751 7.94014 7.39018 7.80451 7.27943 7.70822C7.22459 7.66054 7.16074 7.62395 7.09152 7.60054C7.02231 7.57714 6.94908 7.56736 6.87603 7.57179C6.72848 7.58072 6.59059 7.64694 6.49268 7.75587C5.52328 8.83129 4.89993 10.1653 4.70148 11.5892C4.59745 12.2943 4.60684 13.0112 4.72932 13.7134C4.83433 14.414 5.05138 15.0937 5.37242 15.7276C5.68653 16.3698 6.09246 16.9645 6.57787 17.4936C7.07508 18.0276 7.63721 18.4994 8.25159 18.8983C9.52217 19.6868 10.9773 20.1412 12.4777 20.218H12.4994Z" fill="#5BC980"/>
  <path d="M2.79454 17.8634C1.23552 17.2062 0.211573 15.4199 0.251106 13.4123C0.25387 13.2773 0.307238 13.1481 0.400961 13.0495C0.494684 12.9508 0.622157 12.8897 0.758901 12.8779C1.81 12.7375 2.88013 12.876 3.85856 13.2789C4.83699 13.6819 5.68818 14.3346 6.32405 15.1696C6.35756 15.2089 6.3853 15.2526 6.40645 15.2994C6.5383 15.585 6.70128 15.8557 6.89253 16.1066C6.9128 16.1342 6.9305 16.1635 6.94543 16.1942L6.94821 16.2008C6.95434 16.2129 6.96102 16.2271 6.96714 16.2424C6.99758 16.3094 7.01441 16.3816 7.0167 16.4549C7.01828 16.5291 7.0046 16.6029 6.97647 16.6718C6.94834 16.7407 6.90634 16.8032 6.853 16.8558C6.49733 17.2377 6.06812 17.5465 5.59023 17.7641C5.11234 17.9817 4.59528 18.1039 4.06904 18.1235C3.63066 18.1227 3.19704 18.0342 2.79454 17.8634Z" fill="#7FE881"/>
  <path d="M1.41544 11.0852C0.608644 9.63678 0.926572 7.62264 2.20775 6.07287C2.28043 5.98489 2.37906 5.92126 2.49006 5.89076C2.60106 5.86025 2.71895 5.86438 2.82746 5.90256C5.25286 6.7563 6.00564 9.20142 5.90319 11.1827C5.90314 11.2263 5.89772 11.2697 5.88704 11.312C5.85302 11.4553 5.82663 11.6002 5.80798 11.7462C5.78237 11.9105 5.76678 12.0748 5.75787 12.2122V12.2232C5.75794 12.3577 5.7077 12.4875 5.61672 12.5879C5.52574 12.6882 5.40039 12.7522 5.26455 12.7675C5.05658 12.7908 4.84746 12.8027 4.63816 12.8031C3.9917 12.8398 3.34766 12.6985 2.77836 12.395C2.20907 12.0915 1.73709 11.638 1.41544 11.0852Z" fill="#7FE881"/>
  <path d="M6.62012 8.58889C5.93338 8.2042 5.38256 7.62231 5.04143 6.92115C4.7003 6.21999 4.58516 5.43305 4.71144 4.66574C4.87237 3.69747 5.30965 2.79408 5.97236 2.06076C6.63507 1.32743 7.49595 0.794336 8.45476 0.523547C8.57474 0.491019 8.70234 0.498964 8.81719 0.546113C8.93204 0.593262 9.02752 0.676897 9.08839 0.783666C10.4921 3.24796 9.25542 6.98108 7.25765 8.54946C7.16834 8.61959 7.05926 8.66099 6.94521 8.66804C6.83116 8.67509 6.71766 8.64746 6.62012 8.58889Z" fill="#7FE881"/>
  <path d="M3.46961 20.6012C3.39675 20.5565 3.3354 20.4958 3.29034 20.424C3.24528 20.3521 3.21774 20.2709 3.20986 20.1868C3.20199 20.1027 3.214 20.0179 3.24496 19.9392C3.27592 19.8604 3.32498 19.7897 3.38832 19.7327L4.22351 18.977C4.87713 18.4496 5.6532 18.0894 6.48263 17.9284C7.31205 17.7674 8.16908 17.8106 8.97741 18.0542C9.00391 18.0627 9.02977 18.0729 9.0548 18.0849L9.10046 18.1084C9.51683 18.3503 9.95594 18.552 10.4117 18.7108C10.4836 18.7357 10.5495 18.7749 10.6054 18.8259C10.6613 18.8768 10.7059 18.9386 10.7366 19.0072C10.7672 19.0758 10.7832 19.1499 10.7835 19.2249C10.7839 19.2999 10.7686 19.3741 10.7385 19.443L10.3059 20.4369C10.1774 20.777 9.97242 21.0841 9.70632 21.3354C9.44023 21.5867 9.11988 21.7756 8.76917 21.8881C8.44136 21.9893 8.09935 22.0388 7.7558 22.0349C5.87384 22.0349 3.74578 20.7699 3.46961 20.6012Z" fill="#7FE881"/>
  <path d="M15.8404 23.504C15.6927 23.504 15.5511 23.4463 15.4466 23.3436C15.3422 23.2409 15.2836 23.1016 15.2836 22.9563C15.2836 22.2301 14.9903 21.5337 14.4682 21.0202C13.9461 20.5067 13.238 20.2182 12.4996 20.2182C11.7612 20.2182 11.0531 20.5067 10.531 21.0202C10.0089 21.5337 9.71564 22.2301 9.71564 22.9563C9.71564 23.1016 9.65698 23.2409 9.55256 23.3436C9.44814 23.4463 9.30651 23.504 9.15884 23.504C9.01117 23.504 8.86955 23.4463 8.76513 23.3436C8.66071 23.2409 8.60205 23.1016 8.60205 22.9563C8.60205 21.9397 9.01268 20.9646 9.74362 20.2458C10.4746 19.5269 11.4659 19.123 12.4996 19.123C13.5333 19.123 14.5247 19.5269 15.2556 20.2458C15.9865 20.9646 16.3972 21.9397 16.3972 22.9563C16.3972 23.1016 16.3385 23.2409 16.2341 23.3436C16.1297 23.4463 15.988 23.504 15.8404 23.504Z" fill="#5BC980"/>
  <path d="M12.4995 3.24165V5.43213C12.7949 5.43213 13.0781 5.31674 13.2869 5.11134C13.4958 4.90594 13.6131 4.62736 13.6131 4.33689C13.6131 4.04641 13.4958 3.76784 13.2869 3.56244C13.0781 3.35704 12.7949 3.24165 12.4995 3.24165Z" fill="#E6AD00"/>
  <path d="M12.4995 19.123V20.2182C13.2376 20.2191 13.9452 20.5079 14.4671 21.0212C14.989 21.5345 15.2826 22.2304 15.2835 22.9563C15.2835 23.1016 15.3421 23.2409 15.4466 23.3436C15.551 23.4463 15.6926 23.504 15.8403 23.504C15.9879 23.504 16.1296 23.4463 16.234 23.3436C16.3384 23.2409 16.3971 23.1016 16.3971 22.9563C16.3959 21.94 15.9849 20.9657 15.2542 20.247C14.5235 19.5284 13.5328 19.1242 12.4995 19.123Z" fill="#4FAD6E"/>
  <path d="M16.3971 11.6469L13.7039 11.2422L12.4995 8.71821V15.0755L14.9082 16.3849L14.4483 13.6112L16.3971 11.6469Z" fill="#E6AD00"/>
</svg>