<svg width="35" height="35" viewBox="0 0 35 35" fill="none" xmlns="http://www.w3.org/2000/svg">
<path d="M0 16.1281C0.0911422 15.4627 0.145828 14.7974 0.273427 14.1412C0.464825 13.2024 0.710909 12.2636 0.947879 11.2793C1.86842 11.6074 2.71604 11.8991 3.57277 12.2089C2.27855 16.1281 2.44261 19.9469 4.18343 23.6655C5.46853 26.4089 7.44632 28.5599 10.0439 30.1184C15.3392 33.2993 21.7374 32.7889 26.3583 29.5442C25.2646 29.5442 24.2347 29.5442 23.1866 29.5442C23.1866 28.6145 23.1866 27.7305 23.1866 26.819C25.8935 26.819 28.6095 26.819 31.3711 26.819C31.3711 29.5351 31.3711 32.2693 31.3711 34.9945C30.4597 34.9945 29.5483 34.9945 28.6369 34.9945C28.6369 33.7823 28.6369 32.5701 28.6369 31.3032C28.5002 31.3944 28.4181 31.44 28.3361 31.5038C26.0576 33.1717 23.5329 34.2654 20.7531 34.7302C20.106 34.8396 19.4497 34.9034 18.7935 34.9945C18.0826 34.9945 17.3808 34.9945 16.6699 34.9945C16.4329 34.9672 16.196 34.9307 15.9681 34.9125C12.8146 34.5661 9.92539 33.518 7.3734 31.6314C3.50897 28.7877 1.12105 25.0053 0.264313 20.2659C0.145828 19.6188 0.082028 18.9626 0 18.3155C0 17.5863 0 16.8572 0 16.1281Z" fill="#FD6219"/>
<path d="M23.2598 9.79379C23.916 10.45 24.5449 11.0789 25.2194 11.7533C24.8639 12.0997 24.4902 12.4643 24.1074 12.8379C23.8249 13.1205 23.3874 13.3666 23.3145 13.6947C23.2507 13.9863 23.597 14.3691 23.7429 14.7155C23.9251 15.1712 24.0801 15.636 24.2533 16.1282C25.1556 16.1282 26.1034 16.1282 27.0604 16.1282C27.0604 17.0396 27.0604 17.9237 27.0604 18.8442C26.1308 18.8442 25.192 18.8442 24.2441 18.8442C24.1074 19.2544 24.0072 19.6554 23.8522 20.0291C23.7155 20.3754 23.5424 20.7126 23.351 21.0316C23.2416 21.2139 23.2507 21.3142 23.4056 21.46C24.0163 22.0524 24.6178 22.6631 25.192 23.2373C24.5449 23.8753 23.916 24.5133 23.2507 25.1695C22.7038 24.6226 22.1114 24.0484 21.5463 23.4469C21.3458 23.2373 21.2091 23.2464 20.9539 23.374C20.2977 23.7021 19.605 23.9664 18.8759 24.2854C18.8759 25.1421 18.8759 26.0809 18.8759 27.0379C17.9644 27.0379 17.0804 27.0379 16.1598 27.0379C16.1598 26.0991 16.1598 25.1604 16.1598 24.2216C15.777 24.094 15.4216 23.9937 15.0752 23.8661C14.8018 23.7659 14.5284 23.6383 14.2641 23.5016C13.7263 23.219 13.7263 23.2099 13.3071 23.6383C12.7876 24.1578 12.2681 24.6864 11.7577 25.1968C11.1106 24.5497 10.4817 23.9117 9.81633 23.2464C10.3905 22.6813 10.9738 22.0798 11.5754 21.4964C11.7485 21.3324 11.7668 21.223 11.6483 20.9861C11.3111 20.3116 11.0285 19.6007 10.7004 18.8624C9.85279 18.8624 8.92314 18.8624 7.95703 18.8624C7.95703 17.951 7.95703 17.0578 7.95703 16.1373C8.8958 16.1373 9.83456 16.1373 10.6731 16.1373C11.0376 15.3352 11.384 14.597 11.7121 13.8496C11.7485 13.7767 11.6847 13.6218 11.6209 13.5488C11.1014 13.0111 10.5637 12.4825 10.0351 11.9447C9.95305 11.8627 9.88013 11.7807 9.81633 11.7169C10.4634 11.0698 11.1014 10.4409 11.7485 9.79379C12.3319 10.3771 12.9425 10.9786 13.5349 11.5893C13.6899 11.7533 13.7901 11.7442 13.9906 11.644C14.6833 11.3068 15.3942 11.0151 16.1416 10.687C16.1416 9.83936 16.1416 8.9006 16.1416 7.9436C17.053 7.9436 17.9462 7.9436 18.8668 7.9436C18.8668 8.89148 18.8668 9.83025 18.8668 10.6596C19.6688 11.0333 20.4071 11.3706 21.1544 11.6987C21.2273 11.726 21.3823 11.6622 21.4552 11.5984C22.0567 11.006 22.6583 10.3953 23.2598 9.79379ZM13.3982 17.4953C13.3982 19.7465 15.2484 21.5967 17.5087 21.5967C19.7508 21.5967 21.5919 19.7465 21.601 17.5135C21.6101 15.2532 19.7599 13.403 17.5087 13.3939C15.2484 13.3939 13.3982 15.2441 13.3982 17.4953Z" fill="#FD6219"/>
<path d="M33.9503 23.6748C33.1209 23.3831 32.2915 23.0914 31.4257 22.7816C32.8475 18.3521 32.492 14.0957 30.1314 10.0763C28.582 7.44233 26.3946 5.47366 23.633 4.16121C18.2009 1.591 12.2676 2.77585 8.65833 5.46455C9.72469 5.46455 10.7546 5.46455 11.8027 5.46455C11.8027 6.37597 11.8027 7.26005 11.8027 8.17147C9.09581 8.17147 6.37977 8.17147 3.64551 8.17147C3.64551 5.46454 3.64551 2.74851 3.64551 0.0142405C4.5387 0.0142405 5.42278 0.0142405 6.34332 0.0142405C6.34332 1.21732 6.34332 2.4204 6.34332 3.69639C10.2169 0.852749 14.4732 -0.405013 19.1944 0.114497C23.9155 0.634008 27.8164 2.76674 30.8697 6.38508C35.5362 11.9174 35.7549 18.99 33.9503 23.6748Z" fill="#FD6219"/>
<path d="M17.5264 16.128C18.2738 16.1463 18.8753 16.766 18.8662 17.5225C18.848 18.2699 18.2191 18.8714 17.4717 18.8623C16.7244 18.8441 16.1228 18.2243 16.1319 17.4678C16.1502 16.7113 16.7699 16.1189 17.5264 16.128Z" fill="#FD6219"/>
</svg>
