<svg width="35" height="35" viewBox="0 0 35 35" fill="none" xmlns="http://www.w3.org/2000/svg">
<path d="M16.9511 35C16.7888 34.9658 16.6264 34.9231 16.4556 34.8889C14.3452 34.3678 13.0466 33.0349 12.4912 30.9417C12.4571 30.8135 12.346 30.6512 12.2264 30.5999C10.9704 30.019 10.3467 29.0364 10.3211 27.6609C10.304 26.7723 10.3467 25.8838 10.2698 24.9952C10.1246 23.2266 9.37275 21.7058 8.21933 20.3645C6.14319 17.9637 5.1692 15.1613 5.19483 11.983C5.24609 7.29245 8.2706 2.79842 12.6023 0.995674C18.4719 -1.43931 24.9652 0.705185 28.1691 6.1903C29.5617 8.56548 30.0402 11.1457 29.6814 13.8797C29.3738 16.2805 28.4169 18.3994 26.8619 20.2534C26.0673 21.1932 25.3753 22.2014 25.0592 23.3975C24.8541 24.175 24.7601 24.9781 24.6832 25.7812C24.6234 26.4049 24.6832 27.0372 24.6661 27.6609C24.6405 29.0364 24.0168 30.019 22.7609 30.5999C22.6498 30.6512 22.5302 30.7879 22.496 30.9075C21.898 33.1716 20.4797 34.5386 18.1558 34.9487C18.1131 34.9573 18.0703 34.9829 18.0362 35C17.6773 35 17.3185 35 16.9511 35ZM22.6498 24.6705C22.778 24.1067 22.8719 23.5769 23.0172 23.0472C23.4615 21.4068 24.3927 20.0483 25.4436 18.7411C27.3489 16.3831 28.0666 13.6832 27.6052 10.6843C27.272 8.49713 26.3151 6.60895 24.743 5.06252C22.4362 2.79842 19.6253 1.77316 16.4043 2.12346C12.534 2.5421 9.69741 4.56698 8.14244 8.1212C6.43368 12.0343 7.04883 15.7337 9.7743 19.0316C10.7654 20.2363 11.5514 21.535 11.9701 23.0387C12.1153 23.5684 12.2178 24.1152 12.3374 24.662C15.7806 24.6705 19.2067 24.6705 22.6498 24.6705ZM22.6156 26.7552C19.181 26.7552 15.7806 26.7552 12.3716 26.7552C12.3716 27.0628 12.3716 27.3448 12.3716 27.6267C12.3802 28.3786 12.7817 28.7801 13.5421 28.7801C14.6614 28.7801 15.7721 28.7801 16.8913 28.7801C18.4377 28.7801 19.9841 28.7801 21.5306 28.7801C22.1372 28.7801 22.5815 28.3956 22.6156 27.8318C22.6413 27.4729 22.6156 27.1226 22.6156 26.7552ZM14.6357 30.8306C15.0287 32.1122 16.3872 33.0435 17.6859 32.9324C18.9162 32.8299 20.2063 31.8046 20.3259 30.8306C18.4377 30.8306 16.5495 30.8306 14.6357 30.8306Z" fill="#FD6219"/>
<path d="M34.9956 13.6064C34.7222 14.1959 34.2522 14.401 33.62 14.3668C33.0732 14.3326 32.5264 14.3668 31.9796 14.3583C31.3474 14.3497 30.8945 13.914 30.8945 13.333C30.8945 12.7435 31.3474 12.3163 31.9796 12.3078C32.5264 12.2992 33.0732 12.3334 33.62 12.2992C34.2608 12.2565 34.7222 12.4701 34.9956 13.0596C34.9956 13.239 34.9956 13.427 34.9956 13.6064Z" fill="#FD6219"/>
<path d="M3.80243 7.78807C3.7768 8.30924 3.60592 8.62536 3.23854 8.81333C2.87115 8.99274 2.47814 9.00129 2.17911 8.72789C1.59813 8.19817 1.04278 7.64282 0.513065 7.06185C0.171313 6.67738 0.248207 6.08785 0.607046 5.72901C0.965886 5.37872 1.56395 5.31891 1.93988 5.66066C2.50377 6.17329 3.03349 6.72009 3.55466 7.27544C3.70845 7.42923 3.75117 7.677 3.80243 7.78807Z" fill="#FD6219"/>
<path d="M34.7048 6.59195C34.6279 6.72865 34.5425 7.01059 34.3631 7.2071C33.9188 7.6941 33.4404 8.15546 32.9704 8.60828C32.5262 9.03547 31.9025 9.02693 31.5009 8.62537C31.1079 8.22381 31.0994 7.6172 31.518 7.18147C31.9879 6.68593 32.4749 6.20748 32.9704 5.72902C33.2951 5.4129 33.6881 5.34455 34.1068 5.53252C34.4827 5.70339 34.6621 6.02806 34.7048 6.59195Z" fill="#FD6219"/>
<path d="M1.42677 21.2362C0.914144 21.2105 0.598024 21.0397 0.418604 20.6637C0.239185 20.2963 0.239185 19.9033 0.512586 19.6043C1.0423 19.0233 1.59765 18.468 2.17863 17.9383C2.54601 17.605 3.13553 17.6734 3.48583 18.0237C3.83612 18.3654 3.93011 18.9635 3.60544 19.3309C3.06718 19.929 2.4862 20.4929 1.89668 21.0397C1.75998 21.1678 1.5293 21.1934 1.42677 21.2362Z" fill="#FD6219"/>
<path d="M32.3549 17.7246C32.4916 17.8015 32.7736 17.8869 32.9701 18.0749C33.4485 18.5106 33.9013 18.9805 34.3542 19.4419C34.7984 19.9033 34.807 20.527 34.3883 20.9371C33.9782 21.3386 33.3631 21.3301 32.9188 20.9029C32.4318 20.433 31.9619 19.9631 31.492 19.4761C31.1844 19.1514 31.1075 18.7584 31.2955 18.3398C31.4664 17.9467 31.791 17.7588 32.3549 17.7246Z" fill="#FD6219"/>
<path d="M2.05051 12.3075C2.39226 12.3075 2.73402 12.299 3.07577 12.3075C3.66529 12.3246 4.10102 12.7689 4.10102 13.3328C4.10102 13.8967 3.66529 14.3409 3.07577 14.3495C2.39226 14.3666 1.70876 14.3666 1.02526 14.3495C0.435734 14.3409 0 13.8881 0 13.3242C0 12.7603 0.435734 12.3246 1.02526 12.3075C1.36701 12.299 1.70876 12.3075 2.05051 12.3075Z" fill="#FD6219"/>
<path d="M25.6911 12.0597C25.6911 12.0084 25.6911 12.0341 25.6911 12.0597C25.7167 12.8116 25.3494 13.3071 24.7171 13.3327C24.0934 13.3584 23.6662 12.897 23.6406 12.1537C23.5124 8.83869 20.9578 6.27555 17.6343 6.17302C16.6945 6.14739 16.3186 5.35282 16.5236 4.80601C16.6859 4.37882 17.0448 4.10542 17.5147 4.11396C20.4452 4.1994 22.7435 5.4468 24.3754 7.88178C25.2127 9.11209 25.6228 10.5047 25.6911 12.0597Z" fill="#FD6219"/>
</svg>
