<svg width="301" height="293" viewBox="0 0 301 293" fill="none" xmlns="http://www.w3.org/2000/svg">
<g opacity="0.5">
<path d="M90.131 291.105C88.9226 288.456 88.0032 286.441 87.0838 284.425C72.2795 252.429 57.449 220.376 42.6447 188.38C42.1718 187.343 41.9606 186.118 42.001 184.986C42.1737 180.942 42.6818 177.023 44.5153 173.265C47.357 167.447 49.921 161.477 52.4849 155.507C52.887 154.559 52.8223 153.197 52.402 152.276C44.7639 136.142 36.9844 120.003 29.2888 103.895C27.3924 99.8905 27.7106 98.9106 31.6264 97.1243C73.4279 78.1948 115.229 59.2653 157.031 40.3358C159.968 38.9961 160.445 39.1265 162.303 41.8269C174.081 59.4114 184.037 78.0355 193.041 97.1637C193.961 99.1792 195.115 100.183 197.368 100.547C201.679 101.154 205.892 102.154 210.199 102.903C212.536 103.298 214.14 104.375 215.28 106.568C224.901 125.067 232.365 144.48 240.547 163.635C246.48 177.556 252.732 191.261 258.952 205.05C260.476 208.39 260.481 208.248 257.923 210.876C257.039 211.836 256.533 213.319 256.173 214.666C255.599 216.458 254.516 217.439 252.789 218.227C222.692 231.4 192.627 244.489 162.635 257.892C141.25 267.438 120.075 277.445 98.795 287.222C96.0046 288.426 93.2406 289.687 90.131 291.105ZM34.5351 102.128C34.7402 102.73 34.8927 103.217 35.1342 103.594C47.8673 130.135 60.5166 156.644 73.3073 183.158C73.7276 184.079 74.8601 184.884 75.8663 185.26C85.1791 188.595 94.5232 191.846 103.872 194.955C110.449 197.173 117.094 199.081 123.817 201.162C124.219 200.213 124.527 199.516 124.809 198.761C128.934 188.74 133.085 178.777 137.267 168.73C138.693 165.297 139.556 164.903 143.11 166.134C152.454 169.385 161.798 172.636 171.116 175.829C173.579 176.653 176.047 177.336 178.457 178.045C178.671 177.6 178.875 177.437 178.912 177.212C185.767 160.519 192.622 143.826 199.336 127.128C199.712 126.122 199.71 124.592 199.263 123.613C189.779 102.061 179.866 80.634 167.817 60.3208C164.825 55.2856 161.686 50.3869 158.578 45.4043C117.227 64.4066 75.9961 83.2148 34.5351 102.128ZM249.952 208.043C249.962 207.76 249.972 207.477 250.008 207.252C214.037 195.346 178.066 183.441 142.095 171.536C127.438 206.049 113.09 240.63 100.258 276.398C150.372 253.12 199.069 228.262 249.952 208.043ZM121.389 206.513C98.1987 198.378 75.0926 190.274 51.5935 182.071C68.2132 212.404 80.0322 244.719 94.2283 276.296C103.426 252.691 112.499 229.421 121.389 206.513ZM248.59 196.211C235.483 168.241 225.988 139.041 211.766 111.371C202.368 134.232 193.216 156.565 184.058 179.038C205.877 184.321 227.35 188.996 248.59 196.211ZM49.7445 174.358C55.3627 176.456 60.7555 178.518 65.7029 180.366C62.8396 174.089 59.7662 167.352 56.4301 160.038C54.0329 165.306 51.8286 169.929 49.7445 174.358ZM202.855 118.219C203.981 114.435 204.977 111.128 205.921 107.707C203.725 107.317 200.629 106.781 197.365 106.183C199.23 110.272 200.937 114.015 202.855 118.219Z" fill="#4F4747"/>
<path d="M189.752 12.3305C189.764 13.5772 189.875 14.4309 189.788 15.3058C188.505 27.4392 185.902 39.2705 182.146 50.8625C181.603 52.5708 180.872 54.0176 178.634 53.2296C176.48 52.473 176.221 50.9909 176.884 49.0886C180.771 37.7845 183.312 26.1209 184.726 14.2754C184.892 12.8085 185.419 11.5244 187.064 11.4698C187.97 11.4739 188.856 12.0436 189.752 12.3305Z" fill="#4F4747"/>
<path d="M195.56 65.4746C194.637 65.1301 193.369 64.9433 192.572 64.2634C191.366 63.144 191.982 61.7498 192.955 60.6799C195.722 57.7481 198.515 54.8738 201.309 51.9995C206.78 46.3034 212.252 40.6074 217.666 34.9376C219.313 33.212 220.879 32.9847 222.107 34.3031C223.581 35.8568 222.933 37.3349 221.641 38.6199C213.523 47.0539 205.462 55.4616 197.375 63.8117C197.046 64.3097 196.522 64.6876 195.56 65.4746Z" fill="#4F4747"/>
<path d="M219.167 76.2019C226.03 73.5578 233.147 71.7725 240.484 70.9297C242.391 70.6862 244.004 70.7155 244.343 73.135C244.607 75.2404 243.692 76.2841 241.162 76.5337C233.631 77.2562 226.347 78.9789 219.363 81.8169C217.609 82.5474 215.969 82.4606 215.16 80.534C214.298 78.4923 215.722 77.4951 217.36 76.8172C217.963 76.6121 218.565 76.407 219.167 76.2019Z" fill="#4F4747"/>
<path d="M104.479 94.5697C118.242 88.2916 131.947 82.0396 145.71 75.7615C146.343 75.4725 147.044 74.8744 147.636 74.9522C148.763 75.134 150.314 75.331 150.739 76.1109C151.19 76.9484 150.852 78.4941 150.335 79.4953C149.969 80.2187 148.796 80.545 147.99 80.9128C120.522 93.4429 93.0541 105.973 65.5286 118.529C65.2407 118.661 64.9527 118.792 64.6648 118.923C62.3351 119.916 60.7894 119.578 60.0014 117.851C59.2133 116.123 59.9397 114.818 62.3582 113.714C76.4352 107.362 90.4283 100.979 104.479 94.5697Z" fill="#4F4747"/>
<path d="M156.775 118.925C158.073 114.298 159.246 110.006 160.534 105.662C160.951 104.289 161.158 102.455 163.296 102.871C165.124 103.22 165.97 104.921 165.323 107.164C164.245 111.204 163.139 115.186 161.841 119.814C165.239 118.264 168.061 116.977 170.882 115.689C171.746 115.295 172.61 114.901 173.5 114.565C174.934 114.05 176.229 114.294 176.854 115.818C177.537 117.315 177.204 118.719 175.675 119.486C173.424 120.652 171.094 121.645 168.791 122.696C167.927 123.09 167.064 123.484 165.739 124.088C168.932 125.901 171.679 127.5 174.457 129.016C176.538 130.223 177.389 131.783 176.463 133.109C175.151 134.96 173.527 134.449 171.891 133.456C168.116 131.282 164.311 129.192 160.175 126.835C159.42 130.518 158.702 133.977 158.041 137.409C157.869 138.252 157.782 139.127 157.61 139.971C157.293 141.715 156.451 143.073 154.481 142.72C152.71 142.345 152.221 140.968 152.538 139.223C153.037 136.352 153.594 133.454 154.093 130.583C154.228 129.965 154.306 129.373 154.514 128.304C150.959 129.508 147.66 130.665 144.362 131.822C142.21 132.595 140.413 132.163 139.96 130.56C139.381 128.529 140.663 127.526 142.386 126.88C145.742 125.697 149.072 124.456 152.888 123.063C151.169 122.038 149.837 121.254 148.422 120.439C146.005 119.107 143.62 117.69 141.203 116.358C139.62 115.48 138.587 114.282 139.47 112.557C140.442 110.723 142.16 110.982 143.743 111.86C147.297 113.856 150.909 115.826 154.521 117.796C155.244 118.162 155.884 118.496 156.775 118.925Z" fill="#4F4747"/>
<path d="M102.638 138.264C96.0735 141.258 89.5664 144.227 83.0017 147.221C82.3683 147.51 81.6773 147.826 80.9913 147.999C79.4779 148.342 78.0524 147.81 77.8513 146.301C77.6927 145.191 78.2251 143.765 78.9363 142.884C79.6738 142.061 81.0144 141.797 82.1085 141.298C94.6044 135.598 107.158 129.871 119.654 124.171C120.287 123.882 120.988 123.284 121.58 123.362C122.764 123.517 124.483 123.777 124.934 124.615C125.386 125.452 124.791 127.045 124.243 128.13C123.939 128.686 122.939 128.933 122.248 129.249C115.71 132.301 109.145 135.296 102.638 138.264Z" fill="#4F4747"/>
</g>
</svg>
