<svg width="52" height="56" viewBox="0 0 52 56" fill="none" xmlns="http://www.w3.org/2000/svg">
<path d="M11.0156 40.3999C9.04744 41.5506 7.44261 41.1115 6.17085 39.431C6.08001 39.4461 6.0346 39.431 6.00432 39.4461C4.58116 40.6119 3.20343 40.2485 2.12849 39.0979C0.977859 37.8716 0.114883 36.4787 0.00890335 34.7527C-0.0819362 33.4053 0.523661 32.4212 1.76514 31.861C1.82569 31.8307 1.90139 31.8004 1.96195 31.755C1.97709 31.7399 1.99223 31.7247 2.02251 31.6945C1.90139 31.0889 1.74999 30.4681 1.64402 29.8323C1.38664 28.394 1.94681 27.1979 3.23371 26.5015C11.5758 22.0049 18.5099 15.7975 24.6416 8.66663C26.64 6.35023 28.4871 3.89756 30.3947 1.50545C30.5159 1.35405 30.6521 1.21779 30.7278 1.05125C31.1517 0.0822947 32.1207 -0.281064 33.3924 0.233694C34.6945 0.763591 35.724 1.68713 36.7081 2.67122C39.2667 5.24501 41.3561 8.1973 43.2183 11.301C43.4454 11.6795 43.6573 11.8763 44.1418 11.846C44.4295 11.8157 44.8231 11.9671 45.0502 12.1791C46.761 13.7688 47.8359 15.7218 48.2599 18.0382C48.3507 18.5833 48.1842 19.0072 47.8662 19.4008C47.6088 19.7188 47.624 20.0064 47.7754 20.3698C49.1985 23.8974 50.3643 27.5007 50.9396 31.2857C51.1667 32.7997 51.2121 34.2985 50.8791 35.7974C50.7428 36.4635 50.3189 36.8875 49.7587 37.2205C48.4415 37.9927 47.0184 38.0532 45.5801 37.8413C40.0237 37.0086 34.4522 36.6906 28.8353 36.9783C27.8361 37.0237 26.8369 37.0389 25.8376 37.0843C25.5197 37.0994 25.2169 37.1751 24.8687 37.2205C25.1563 38.0532 25.232 38.7951 24.7021 39.5067C24.6264 39.6126 24.7627 39.8852 24.8384 40.0668C25.9436 42.4438 27.0791 44.8208 28.1238 47.2129C28.5174 48.1213 28.7596 49.1054 29.017 50.0743C29.229 50.8768 29.1381 51.6943 28.7142 52.4362C27.5787 54.3892 25.8528 55.5096 23.6726 55.9486C22.6734 56.1455 21.8407 55.767 21.2199 54.9797C20.9323 54.6163 20.6749 54.2075 20.4478 53.7988C18.4342 50.1652 16.4357 46.5165 14.4373 42.8677C14.2404 42.5195 14.0436 42.3227 13.5894 42.2773C12.4388 42.1259 11.5607 41.5354 11.0156 40.3999ZM46.3371 35.4492C45.6255 34.6468 44.8988 33.8746 44.2478 33.0571C40.917 28.8179 38.2675 24.1548 35.9057 19.3251C33.9375 15.3131 32.1964 11.2253 31.0458 6.89526C30.7732 5.86575 30.6067 4.80595 30.3796 3.70074C30.2282 3.88242 30.0919 4.03382 29.9708 4.20036C25.8376 9.54475 21.3865 14.5712 16.2238 18.9466C15.3002 19.7188 15.0277 20.4606 15.164 21.6264C15.7696 26.9859 17.8892 31.6036 21.7044 35.434C21.871 35.6006 22.204 35.7065 22.4311 35.6763C24.5204 35.434 26.5795 35.0858 28.6688 34.889C33.0896 34.4802 37.5105 34.5711 41.9314 34.9798C43.3999 35.1161 44.8534 35.2826 46.3371 35.4492ZM13.8468 20.9905C12.9838 21.6416 12.2117 22.2926 11.379 22.8376C8.91118 24.4424 6.41309 26.0019 3.915 27.5613C3.23371 27.9852 2.74923 28.5151 2.87035 29.3478C3.40025 32.9662 4.77798 36.2062 7.38205 38.8557C8.39642 39.8852 8.8052 39.9003 10.1527 39.4007C12.5296 38.5074 14.9369 37.6596 17.3593 36.8572C18.3585 36.5241 19.388 36.3273 20.4781 36.0396C16.4963 31.8004 14.3161 26.8043 13.8468 20.9905ZM35.1033 14.4804C36.8141 18.4924 38.7823 22.3229 40.9927 25.9867C42.7338 23.8217 44.4597 21.6567 46.1857 19.4917C44.2629 17.8112 43.3091 15.7067 43.2031 13.1329C40.4779 13.6023 37.8284 14.0413 35.1033 14.4804ZM26.0193 49.3779C25.0958 50.0138 24.2934 50.574 23.4909 51.119C23.3547 51.2098 23.1881 51.2704 23.0367 51.3461C22.522 51.5732 22.1132 51.4824 21.9769 51.0887C21.8104 50.6042 22.0829 50.3469 22.4917 50.1652C23.4758 49.7413 24.3388 49.1205 25.0352 48.3181C25.1563 48.1818 25.2774 47.9245 25.2169 47.8033C24.8232 46.8041 24.3842 45.8352 23.9451 44.8208C23.7786 44.957 23.6575 45.0782 23.5212 45.1841C22.5977 45.9411 21.5682 46.4559 20.3872 46.6679C19.9936 46.7436 19.6908 46.5922 19.6 46.1985C19.5091 45.8049 19.7211 45.5475 20.0996 45.4415C20.2056 45.4112 20.3267 45.3961 20.4327 45.3658C21.4773 45.1084 22.3554 44.5937 23.0973 43.8367C23.3395 43.5945 23.3698 43.3976 23.2184 43.0948C22.9156 42.4438 22.628 41.7777 22.3857 41.1115C22.2343 40.7179 22.0224 40.6573 21.659 40.7633C21.0837 40.9298 20.4781 41.0358 19.8876 41.1721C18.4645 41.5051 17.0262 41.8231 15.5425 42.1713C15.6333 42.353 15.6787 42.4892 15.7544 42.6104C17.0262 44.9722 18.2979 47.334 19.5848 49.6807C20.3418 51.0584 21.114 52.421 21.9164 53.7685C22.4009 54.6012 22.8853 54.8888 23.6272 54.6315C24.5053 54.3287 25.3683 53.9047 26.1707 53.4354C26.8217 53.0569 27.0488 52.3756 26.8369 51.6489C26.6098 50.8616 26.2767 50.1046 26.0193 49.3779ZM42.0828 11.9974C42.0525 11.9066 42.0525 11.846 42.0222 11.8006C40.1449 8.68178 38.0404 5.72949 35.3909 3.21626C34.6793 2.5501 33.8769 1.97479 33.0442 1.46003C32.3175 1.02097 31.8028 1.32377 31.7119 2.18674C31.6665 2.65608 31.6816 3.14056 31.7422 3.59476C32.151 6.80442 33.2562 9.81727 34.4371 12.815C34.4977 12.9664 34.8156 13.1178 34.9973 13.1026C36.2236 12.9664 37.4348 12.7998 38.646 12.6182C39.7815 12.4365 40.9321 12.2094 42.0828 11.9974ZM41.7194 27.213C42.2493 28.0003 42.6429 28.6513 43.082 29.2721C44.3992 31.1797 45.7618 33.0722 47.4726 34.6619C47.8662 35.0253 48.3356 35.328 48.8049 35.6006C49.2288 35.8428 49.5467 35.6611 49.6679 35.2221C49.7738 34.8436 49.8344 34.4499 49.8344 34.0563C49.8647 31.7853 49.4105 29.59 48.7898 27.425C48.1842 25.2903 47.4423 23.1858 46.761 21.0814C46.6853 21.0814 46.6247 21.0662 46.549 21.0662C44.9291 23.1101 43.3242 25.1692 41.7194 27.213ZM12.1965 39.8095C12.681 40.7936 13.4834 41.1872 14.6341 40.9601C16.8899 40.5059 19.1306 39.9911 21.3713 39.4764C22.0224 39.325 22.6734 39.113 23.3093 38.8708C23.8694 38.6588 23.8392 38.1895 23.6423 37.7202C23.4607 37.2962 23.4152 36.7512 22.6734 36.9329C21.2956 37.2811 19.8876 37.4779 18.5402 37.8564C16.4206 38.4772 14.3464 39.1585 12.1965 39.8095ZM2.24961 33.0873C1.55318 33.3296 1.15954 33.8898 1.28066 34.7376C1.47748 36.297 2.24961 37.5839 3.47595 38.568C4.11182 39.0828 4.61144 38.9768 5.09592 38.462C4.12696 36.6452 3.18829 34.8739 2.24961 33.0873ZM44.5657 13.5871C44.6868 15.4796 45.4136 17.0844 46.8973 18.3108C46.6853 16.4486 45.8375 14.9194 44.5657 13.5871Z" fill="white"/>
<path d="M8.75969 17.902C8.63857 19.0981 8.53259 20.3092 8.39633 21.5053C8.35091 21.9292 8.09354 22.1715 7.68476 22.126C7.29112 22.0806 7.10944 21.793 7.13972 21.3993C7.26084 20.0973 7.36682 18.8104 7.51822 17.5084C7.56364 17.1147 7.82102 16.8876 8.2298 16.9482C8.78997 17.039 8.78997 17.4629 8.75969 17.902Z" fill="white"/>
<path d="M5.58038 22.0046C5.41384 22.156 5.23216 22.474 5.03534 22.4891C4.7931 22.5043 4.39946 22.3226 4.32376 22.1258C3.86957 21.0811 3.49107 19.991 3.09743 18.9312C3.06715 18.8404 3.06715 18.7496 3.03687 18.6587C2.91575 18.2197 3.02173 17.8412 3.50621 17.7352C3.97555 17.6292 4.15722 17.932 4.29348 18.3408C4.6417 19.3854 5.03534 20.4301 5.3987 21.4596C5.42898 21.611 5.4744 21.7473 5.58038 22.0046Z" fill="white"/>
<path d="M0.584193 21.2178C0.826431 21.3086 0.962691 21.3389 1.06867 21.3995C1.88623 21.7931 2.68864 22.1867 3.49106 22.5955C3.86956 22.7923 4.09666 23.0648 3.86956 23.5039C3.67274 23.8975 3.32452 23.9278 2.94602 23.7461C2.09819 23.3374 1.25035 22.9437 0.432793 22.4744C0.235974 22.3684 0.0694357 21.9899 0.0845757 21.7477C0.114856 21.5509 0.417653 21.3843 0.584193 21.2178Z" fill="white"/>
<path d="M5.77724 28.666C5.88322 28.8023 6.17087 29.0142 6.20115 29.2716C6.42825 31.0127 7.06413 32.5873 8.12392 33.9953C8.3813 34.3284 8.3813 34.6917 8.01795 34.9339C7.66973 35.1762 7.33665 35.0702 7.07927 34.7371C5.89836 33.1777 5.17164 31.4366 4.95968 29.4987C4.91426 28.9688 5.1565 28.666 5.77724 28.666Z" fill="white"/>
<path d="M8.5782 35.04C8.75988 35.2823 9.0324 35.4942 9.09296 35.7668C9.16866 36.1453 8.91128 36.4026 8.5025 36.4026C8.10886 36.4026 7.80606 36.1907 7.86662 35.797C7.8969 35.5397 8.16942 35.2974 8.32082 35.0552C8.39652 35.04 8.48736 35.04 8.5782 35.04Z" fill="white"/>
</svg>
