<svg width="29" height="30" viewBox="0 0 29 30" fill="none" xmlns="http://www.w3.org/2000/svg">
  <path d="M14.5 0.00393677C10.627 0.00393677 6.9856 1.51221 4.24694 4.25088C1.50828 6.98954 0 10.6309 0 14.5039C0 18.377 1.50828 22.0183 4.24694 24.757C6.9856 27.4957 10.627 29.0039 14.5 29.0039C18.373 29.0039 22.0144 27.4957 24.7531 24.757C27.4917 22.0183 29 18.377 29 14.5039C29 11.6418 28.1506 8.85824 26.5432 6.45433C26.1956 5.93417 25.492 5.79456 24.9719 6.14214C24.4519 6.48995 24.3121 7.19353 24.6599 7.71348C26.0171 9.74369 26.7344 12.0916 26.7344 14.5039C26.7344 21.2499 21.246 26.7383 14.5 26.7383C7.75401 26.7383 2.26562 21.2499 2.26562 14.5039C2.26562 7.75795 7.75401 2.26956 14.5 2.26956C16.7375 2.26956 18.9262 2.87889 20.8289 4.03139C21.3639 4.35553 22.0604 4.1845 22.3848 3.64929C22.7089 3.1143 22.5379 2.41758 22.0027 2.09367C19.7459 0.726547 17.1515 0.00393677 14.5 0.00393677ZM13.2685 9.16312L18.9158 12.4348C19.6618 12.8671 20.1074 13.6406 20.1074 14.5039C20.1074 15.3673 19.6618 16.1408 18.9155 16.5731L13.2685 19.8447C12.5218 20.2773 11.6295 20.2784 10.8819 19.8474C10.1327 19.4157 9.68555 18.6411 9.68555 17.7756L9.68555 11.2323C9.68555 10.3667 10.1327 9.59213 10.8819 9.16047C11.2551 8.94541 11.664 8.8381 12.0729 8.8381C12.4835 8.83788 12.8944 8.9463 13.2685 9.16312ZM12.1328 17.8845L17.7798 14.6128C17.7969 14.6028 17.8418 14.577 17.8418 14.5039C17.8418 14.4309 17.7969 14.405 17.7798 14.3951L12.1328 11.1234C12.1149 11.1132 12.0731 11.0889 12.0133 11.1234C11.9512 11.1593 11.9512 11.2104 11.9512 11.2323L11.9512 17.7756C11.9512 17.7975 11.9512 17.8486 12.0133 17.8845C12.0364 17.8977 12.0567 17.9022 12.074 17.9022C12.1016 17.9024 12.1218 17.8906 12.1328 17.8845Z" fill="url(#paint0_linear_524_389)"/>
  <defs>
  <linearGradient id="paint0_linear_524_389" x1="0" y1="14.5039" x2="29" y2="14.5039" gradientUnits="userSpaceOnUse">
  <stop stop-color="#00F2FE"/>
  <stop offset="0.0208" stop-color="#03EFFE"/>
  <stop offset="0.2931" stop-color="#24D2FE"/>
  <stop offset="0.5538" stop-color="#3CBDFE"/>
  <stop offset="0.7956" stop-color="#4AB0FE"/>
  <stop offset="1" stop-color="#4FACFE"/>
  </linearGradient>
  </defs>
</svg>