<svg width="36" height="35" viewBox="0 0 36 35" fill="none" xmlns="http://www.w3.org/2000/svg">
<path d="M0 11.9165C0.109797 11.2577 0.192145 10.5806 0.338541 9.93101C1.45481 4.91694 5.6271 0.991694 10.6778 0.177366C15.9389 -0.673562 20.9255 1.57728 23.7436 6.06981C28.3551 13.4171 24.2194 23.3811 15.7559 25.3026C8.89356 26.8581 2.15934 22.7681 0.411739 15.9607C0.247043 15.3202 0.182995 14.6614 0.0731983 14.0026C0.0548988 13.902 0.0365989 13.8014 0.00914961 13.7007C-1.39751e-07 13.106 0 12.5112 0 11.9165ZM2.86387 12.804C2.86387 18.303 7.31065 22.7407 12.8097 22.7498C18.327 22.7498 22.7829 18.2939 22.7737 12.7857C22.7646 7.27758 18.327 2.84909 12.8188 2.84909C7.30151 2.84909 2.86387 7.28673 2.86387 12.804Z" fill="#FD6219"/>
<path d="M21.4927 23.9758C22.3802 23.07 23.2311 22.2099 24.0912 21.3315C24.137 21.3681 24.2193 21.4413 24.3017 21.5237C24.8598 22.0818 25.4271 22.6308 25.9761 23.1981C26.3329 23.5641 26.6714 23.8935 27.257 23.9301C27.806 23.9575 28.2543 24.3052 28.6386 24.6895C30.5235 26.5744 32.4083 28.4501 34.284 30.3441C35.0801 31.1401 35.3454 32.11 34.9703 33.1805C34.6134 34.2052 33.854 34.8 32.7652 34.9372C31.9783 35.0379 31.2555 34.8274 30.6882 34.2601C28.7118 32.3112 26.7446 30.344 24.7774 28.386C24.3108 27.9194 24.0912 27.3521 24.018 26.7024C23.9997 26.5561 23.9265 26.4005 23.8259 26.2999C23.0481 25.5038 22.2521 24.7261 21.4927 23.9758Z" fill="#FD6219"/>
<path d="M5.69092 12.8129C5.72752 10.9006 6.37715 9.23536 7.69472 7.85374C7.91431 7.625 8.1522 7.50606 8.46329 7.6433C8.88418 7.8263 8.96653 8.32038 8.60969 8.69552C8.01496 9.31771 7.54832 10.0222 7.28298 10.8366C6.56015 13.0417 6.97188 15.0272 8.48159 16.7839C8.53649 16.848 8.59139 16.9029 8.64629 16.9578C8.90248 17.2597 8.90248 17.6165 8.65544 17.8544C8.3901 18.1106 8.03326 18.0923 7.74046 17.7995C6.3863 16.3996 5.73667 14.7344 5.69092 12.8129Z" fill="#FD6219"/>
</svg>
