<svg width="353" height="355" viewBox="0 0 353 355" fill="none" xmlns="http://www.w3.org/2000/svg">
<g opacity="0.5">
<path d="M126.952 267.78C113.15 259.005 99.5073 250.38 85.7582 241.656C82.1174 250.117 75.4824 253.842 66.9466 252.954C59.2967 252.194 54.5246 246.991 52.3899 239.738C50.4903 233.413 52.5674 228.214 58.7539 223.361C56.901 222.119 55.1518 220.874 53.3554 219.785C47.9159 216.574 42.4261 213.416 36.9394 210.361C33.9307 208.634 33.3723 207.302 35.3096 204.391C39.5273 197.883 43.9553 191.474 48.2767 184.964C48.5251 184.593 48.7736 184.223 48.9686 183.802C36.1914 178.11 32.1628 169.979 37.281 160.591C42.6445 150.73 51.7533 149.941 64.2459 158.288C68.4163 151.938 72.5333 145.537 76.6534 139.241C82.6133 130.243 88.5732 121.246 94.5331 112.249C94.9325 111.718 95.2815 111.241 95.6809 110.71C98.0361 107.89 100.326 108.134 101.93 111.459C104.794 117.082 111.796 118.742 116.873 114.96C120.174 112.527 121.17 107.62 119.136 103.789C117.106 100.061 112.797 98.217 108.894 99.578C107.2 100.199 105.343 100.565 104.565 98.8241C104.012 97.699 104.215 95.7731 104.907 94.6111C109.833 85.7482 115.023 77.033 120.053 68.167C122.126 64.5773 123.047 64.1349 126.79 66.1514C134.011 69.9328 141.131 73.8209 148.354 77.706C150.42 70.3806 155.651 66.5416 163.433 66.5186C170.126 66.476 175.307 69.7471 178.134 75.8379C181.739 83.6698 178.768 90.2437 172.98 96.2784C177.59 99.5145 182.147 102.7 186.6 105.889C187.288 106.336 187.878 106.993 188.613 107.282C194.427 109.134 194.785 114.208 195.548 118.959C195.677 119.785 195.139 120.891 194.645 121.736C191.77 126.283 188.842 130.78 185.917 135.381C197.372 140.231 197.856 149.556 193.124 159.71C188.785 169.127 177.793 171.165 166.562 165.115C163.253 170.765 159.89 176.365 156.283 182.439C161.879 185.697 167.265 188.859 172.121 191.62C174.259 188.496 175.814 184.921 178.451 182.872C183.978 178.505 190.503 178.104 196.477 181.819C202.978 185.829 206.687 191.945 205.522 199.919C204.958 203.619 203.193 207.096 201.858 211.079C206.666 213.998 211.848 217.269 217.284 220.377C219.712 221.758 220.902 223.383 219.426 226.125C219.231 226.546 219.089 227.017 219.205 227.429C220.446 232.529 217.914 236.391 215.332 240.308C213.794 242.688 212.467 245.166 210.935 247.754C211.359 248.053 211.679 248.354 212.097 248.446C221.514 251.073 224.989 265.031 221.418 272.349C216.281 282.827 202.923 285.557 194.385 277.612C193.638 276.908 192.944 276.254 192.09 275.449C189.97 279.196 187.947 282.732 185.874 286.322C183.902 289.805 181.93 293.288 180.058 296.664C173.491 297.429 169.262 293.041 164.35 290.125C161.128 288.197 158.157 286.002 154.772 283.819C152.829 290.051 149.392 294.874 142.903 296.52C137.598 297.87 132.676 296.356 128.135 293.688C121.213 289.483 117.089 278.138 126.952 267.78ZM147.879 177.239C148.473 176.288 148.819 175.707 149.115 175.179C154.012 167.095 158.806 159.015 163.863 151.082C164.555 149.92 166.337 148.777 167.685 148.737C169.759 148.676 170.128 150.637 170.391 152.497C171.164 157.559 175.921 160.531 180.808 159.089C185.025 157.823 187.899 154.988 189.278 150.744C190.512 146.868 189.11 143.329 185.284 142.042C182.715 141.132 179.764 141.375 177 140.886C175.592 140.668 173.821 140.409 172.963 139.501C171.573 138.089 172.667 136.5 173.714 135.068C175.563 132.678 177.412 130.289 179.101 127.748C182.029 123.251 184.851 118.653 187.776 114.052C180.148 108.778 172.893 103.856 165.686 98.7775C164.678 98.0291 163.749 96.4481 163.716 95.3076C163.792 94.3714 165.319 93.3922 166.334 92.6357C167.853 91.3454 169.798 90.4576 170.999 88.9691C174.198 84.8272 174.154 79.8473 171.247 76.3014C168.236 72.7585 163.219 71.558 159.024 73.5502C154.674 75.5989 153.399 79.8396 156.108 83.7027C157.297 85.3279 157.654 86.8739 156.089 88.3212C154.624 89.6618 153.154 89.0827 151.621 88.1423C143.481 83.091 135.29 78.093 127.049 73.1484C126.415 72.7521 125.63 72.516 124.945 72.173C121.054 79.1893 117.257 85.8914 113.413 92.7506C120.729 94.5056 125.37 98.7785 126.367 106.169C127.177 112.475 124.685 117.686 119.172 120.755C111.566 124.975 104.567 123.419 97.9984 117.127C93.5354 124.109 89.2202 130.826 85.1504 137.069C92.7845 142.551 99.9352 147.476 106.938 152.664C110.653 155.46 110.35 157.493 106.211 159.639C100.434 162.56 99.341 171.206 104.243 175.523C107.172 178.082 111.593 178.418 114.953 176.243C118.262 174.122 119.544 170.088 118.494 166.176C118.146 164.941 118.342 162.808 119.106 162.318C120.125 161.665 121.903 162.132 123.307 162.246C123.775 162.284 124.208 162.893 124.682 163.139C132.245 167.948 139.955 172.493 147.879 177.239ZM174.599 289.302C175.439 287.876 176.028 286.717 176.669 285.609C181.019 278.32 185.42 270.977 189.77 263.688C190.71 262.155 192.018 260.767 193.705 261.651C194.811 262.189 195.843 263.767 196.09 265.109C197.227 270.212 201.737 273.555 206.407 271.808C209.075 270.795 211.819 268.846 213.464 266.566C217.75 260.627 214.82 254.54 207.528 253.614C205.549 253.362 203.488 253.838 201.512 253.689C200.472 253.616 198.951 253.09 198.565 252.323C198.123 251.402 198.231 249.791 198.722 248.842C199.754 246.892 201.263 245.29 202.348 243.39C205.956 237.316 209.507 231.089 213.112 224.911C210.207 223.181 207.776 221.696 205.345 220.212C200.697 217.444 195.999 214.729 191.502 211.801C190.443 211.106 189.568 209.575 189.377 208.388C189.252 207.665 190.503 206.123 191.377 205.838C195.082 204.794 196.447 201.848 197.653 198.751C199.192 194.658 198.199 190.9 194.949 188.038C191.912 185.378 187.225 184.791 183.648 186.661C179.459 188.861 178.24 193.255 180.99 196.754C182.176 198.275 182.634 199.715 181.38 201.153C180.027 202.801 178.41 202.486 176.717 201.395C172.754 198.97 168.69 196.651 164.676 194.28C160.135 191.612 155.593 188.945 151.055 186.381C147.208 193.137 143.509 199.628 139.709 206.227C146.72 208.198 150.44 212.914 150.913 220.112C151.373 226.896 148.52 232.169 142.649 235.404C134.43 239.954 127.485 236.735 121.03 230.752C116.746 236.794 112.614 242.676 108.378 248.561C108.805 248.963 109.022 249.268 109.339 249.466C117.269 254.42 125.246 259.217 133.075 264.278C134.397 265.12 135.898 266.736 135.988 268.031C136.019 269.068 134.246 270.521 132.919 271.287C128.224 273.917 125.923 280.315 128.182 284.762C130.275 288.851 135.737 291.076 139.894 289.552C144.206 287.971 146.707 283.072 145.938 278.114C145.744 276.822 146.044 274.686 146.908 274.089C147.823 273.44 149.906 273.689 151.118 274.328C154.755 276.244 158.143 278.53 161.686 280.76C166.023 283.537 170.206 286.371 174.599 289.302ZM81.6371 142.829C76.5735 150.555 71.9626 157.8 67.1382 164.844C66.2923 166.062 64.6763 167.563 63.5327 167.493C62.3892 167.423 60.9891 165.7 60.2767 164.424C57.5844 159.367 50.7149 156.924 46.2296 159.652C42.3572 162.049 40.431 167.088 41.8987 171.091C43.4792 175.403 48.1715 177.91 53.0292 177.248C54.374 177.104 56.6109 177.297 57.1036 178.165C57.7595 179.287 57.5098 181.37 56.8209 182.635C54.6002 186.489 52.0119 190.198 49.5273 193.903C46.8918 197.769 44.2061 201.688 41.47 205.661C42.632 206.353 43.3167 206.696 44.0044 207.142C51.5637 211.848 59.1198 216.449 66.5282 221.315C67.6399 222.06 68.732 223.896 68.7186 225.193C68.6702 227.063 66.8161 227.533 65.0566 227.689C61.4903 228.158 58.6136 230.889 57.9831 234.125C56.8164 240.282 63.3653 247.663 69.6182 246.804C71.4784 246.541 74.0274 245.013 74.7574 243.382C75.9752 240.7 75.9302 237.433 76.5166 234.458C76.835 232.944 77.0846 230.861 78.1061 230.311C79.1276 229.762 81.2227 230.427 82.4381 231.169C85.453 233.103 88.1691 235.462 91.0833 237.503C95.0529 240.135 99.123 242.661 103.247 245.237C108.473 237.766 113.348 230.668 118.383 223.722C119.232 222.607 120.857 221.418 122.001 221.487C123.094 221.611 123.925 223.402 124.942 224.462C126.443 226.078 127.699 228.168 129.498 229.36C133.678 232.09 138.234 231.747 141.415 228.799C144.852 225.688 145.848 220.781 143.912 216.739C141.92 212.544 137.676 211.165 134.168 213.603C132.489 214.743 130.959 215.618 129.351 213.902C127.637 212.085 128.575 210.448 129.927 208.8C136.178 200.883 141.107 192.124 145.71 182.856C138.848 178.908 132.092 175.061 125.283 171.164C120.893 182.346 112.206 186.858 103.465 182.551C99.6206 180.641 96.883 177.557 95.6196 173.443C93.6009 166.602 95.4491 160.684 100.794 155.441C94.2868 151.223 88.0938 147.1 81.6371 142.829Z" fill="#4F4747"/>
<path d="M316.19 154.145C319.906 155.228 323.509 156.003 326.87 157.357C328.287 157.885 329.627 159.35 330.393 160.677C334.181 167.673 335.436 175.004 331.026 182.035C326.764 188.803 320.205 191.592 312.081 190.587C311.613 190.549 311.195 190.458 310.674 190.37C309.278 195.807 307.986 201.242 306.537 206.629C305.558 210.342 301.33 213.01 297.57 212.187C292.035 211.002 286.544 209.556 281.056 208.214C276.718 207.149 272.282 206.295 267.991 205.073C266.788 204.745 265.196 203.547 264.958 202.516C264.773 201.536 265.758 199.743 266.723 199.04C271.193 195.794 271.815 190.535 267.96 186.498C263.464 181.858 256.297 181.655 252.901 186.114C250.555 189.245 250.754 192.456 252.26 195.992C252.818 197.324 253.238 199.231 252.703 200.441C251.878 202.385 249.786 201.824 248.062 201.408C238.971 199.291 229.879 197.173 220.788 195.056C217.653 194.319 216.847 193.357 217.584 190.222C219.796 180.816 222.111 171.408 224.688 162.044C225.856 157.703 228.024 157.327 231.334 160.446C234.75 163.666 240.151 163.817 243.904 160.904C247.708 157.938 248.666 153.499 246.366 149.416C243.789 144.771 237.786 143.547 233.363 146.636C232.244 147.396 230.236 147.922 229.288 147.431C228.39 146.887 227.807 144.725 228.031 143.525C229.803 133.303 231.786 123.178 233.666 113.056C234.382 109.195 235.089 108.552 239.05 109.161C247.181 110.373 255.314 111.688 263.601 112.948C263.217 105.228 266.894 99.7226 274.345 97.2707C281.18 95.0447 286.994 96.896 292.027 102.143C298.02 108.296 299.257 115.005 295.239 123.01C302.248 124.878 309.102 126.803 316.003 128.57C318.199 129.127 318.911 130.403 319.548 132.616C321.789 139.969 317.77 146.159 316.618 152.835C316.533 153.46 316.19 154.145 316.19 154.145ZM245.16 194.542C244.427 187.299 246.545 181.736 252.884 178.539C259.327 175.339 265.434 176.559 270.857 180.964C277.184 186.121 278.314 192.729 274.853 200.252C282.226 202.16 289.337 204.025 296.66 205.988C296.972 204.266 297.139 202.912 297.411 201.555C299.188 193.252 300.912 184.899 302.897 176.59C303.172 175.337 304.681 173.736 305.765 173.548C306.799 173.413 308.497 174.712 309.153 175.834C312.157 180.882 317.799 182.168 322.143 178.199C323.81 176.645 325.146 174.478 326.018 172.377C327.327 169.277 327.229 165.959 324.764 163.334C322.457 160.756 319.236 160.644 316.041 161.361C314.083 161.834 312.348 162.82 310.396 163.5C307.725 164.41 305.756 162.756 306.296 159.938C306.658 158.163 307.385 156.429 307.851 154.651C309.622 147.853 311.288 141.059 313.055 134.157C311.538 133.735 310.596 133.452 309.654 133.168C301.964 131.061 294.277 129.058 286.584 126.847C285.485 126.516 284.204 125.309 283.912 124.228C283.677 123.301 284.461 121.721 285.322 121.021C289.776 117.257 290.607 110.28 286.997 105.769C283.711 101.663 277.056 101.238 272.649 104.845C268.798 107.968 268.751 113.366 272.664 115.844C274.407 116.882 275.329 118.256 274.452 120.15C273.527 122.201 271.758 122.046 269.772 121.586C260.527 119.525 251.182 117.57 241.889 115.666C241.107 115.534 240.328 115.505 239.499 115.53C238.123 123.405 236.795 131.124 235.417 138.896C243.018 137.996 248.753 140.68 252.22 147.375C255.088 153.101 254.324 158.831 250.158 163.573C244.382 170.022 237.246 170.856 229.042 167.156C227.243 174.733 225.384 182.052 223.632 189.472C231.156 191.221 238.001 192.834 245.16 194.542Z" fill="#4F4747"/>
<path d="M195.962 82.1583C195.199 80.9356 194.823 80.4797 194.546 79.9172C191.698 73.1006 188.903 66.3343 186.159 59.5146C185.321 57.5158 185.678 55.5335 188.044 54.8408C190.41 54.1481 191.339 55.729 192.177 57.7278C194.758 64.2929 197.547 70.8518 200.282 77.3604C201.007 79.0513 201.263 80.704 199.582 81.7397C198.51 82.3422 196.999 82.1275 195.962 82.1583Z" fill="#4F4747"/>
<path d="M245.01 75.6722C239.336 80.3026 233.661 84.933 227.984 89.4597C226.513 90.5929 224.904 90.5886 223.614 89.0703C222.324 87.5519 222.639 85.934 224.161 84.7474C229.935 80.0103 235.761 75.2198 241.642 70.5832C243.164 69.3967 244.829 69.5549 245.965 71.1297C247.211 72.9088 246.528 74.3819 245.01 75.6722Z" fill="#4F4747"/>
<path d="M208.473 82.3587C208.404 81.79 208.006 80.6084 208.286 79.5624C209.858 73.0818 211.534 66.5982 213.21 60.1145C213.723 58.1795 214.987 57.0524 217.026 57.5628C219.118 58.1234 219.632 59.7167 219.119 61.6517C217.547 68.1323 215.871 74.616 214.141 81.0493C213.448 83.9236 210.774 84.7293 208.473 82.3587Z" fill="#4F4747"/>
</g>
</svg>
