<svg width="145" height="164" viewBox="0 0 145 164" fill="none" xmlns="http://www.w3.org/2000/svg">
<path d="M123.6 12.7C115.4 4.5 104.5 0 93 0C81.4 0 70.5 4.5 62.3 12.7C55.9 19.1 51.7 27.1 50.2 35.8C50 36.7 49.9 37.6 49.8 38.5C49.7 39.4 49.6 40.3 49.6 41.2C49.6 41.9 49.5 42.6 49.5 43.3V49.2V51.9V54.6V86.7H81.7H84.4H87.1C87.1 86 87.2 85.2 87.2 84.5V78.7H84.6H57.6V54.5V49.2V43.4C57.6 42.7 57.6 41.9 57.7 41.2C57.8 40.3 57.8 39.4 58 38.6C58.1 37.7 58.3 36.8 58.5 36C60 29.3 63.3 23.2 68.1 18.5C74.5 12.1 83.3 8.1 93.1 8.1C112.6 8.1 128.4 24 128.4 43.4C128.4 53.1 124.4 62 118 68.4C113.3 73.1 107.3 76.5 100.5 78V78.7V84.6C100.5 85.1 100.5 85.6 100.5 86.2C109.2 84.7 117.3 80.5 123.7 74.1C131.9 65.9 136.4 55 136.4 43.4C136.3 31.7 131.7 20.8 123.6 12.7Z" fill="#4F4747"/>
<path d="M57.5999 49.1001H60.1999H62.7999H86.9999V73.3001V75.9001V78.5001V84.3001C86.9999 85.0001 86.9999 85.8001 86.8999 86.5001C86.7999 87.4001 86.7999 88.3001 86.5999 89.1001C86.4999 90.0001 86.2999 90.9001 86.0999 91.7001C84.5999 98.4001 81.1999 104.5 76.4999 109.2C70.0999 115.6 61.2999 119.6 51.4999 119.6C32.2999 119.8 16.3999 103.9 16.3999 84.5001C16.3999 74.8001 20.3999 65.9001 26.7999 59.5001C31.4999 54.8001 37.4999 51.4001 44.2999 49.9001V43.3001C44.2999 42.8001 44.2999 42.3001 44.2999 41.7001C35.5999 43.2001 27.4999 47.4001 21.0999 53.8001C12.8999 62.0001 8.3999 72.9001 8.3999 84.5001C8.3999 96.1001 12.8999 107 21.0999 115.1C29.2999 123.3 40.1999 127.8 51.7999 127.8C63.3999 127.8 74.2999 123.3 82.4999 115.1C90.1999 107.4 94.5999 97.4001 95.0999 86.6001C95.0999 86.3001 95.0999 85.9001 95.0999 85.6001C95.0999 85.4001 95.0999 85.2001 95.0999 85.0001C95.0999 84.8001 95.0999 84.6001 95.0999 84.5001V78.6001V41.1001H62.8999H60.1999H57.4999C57.4999 41.8001 57.3999 42.6001 57.3999 43.3001L57.5999 49.1001Z" fill="#4F4747"/>
<path d="M9.2 149C8.5 149.6 7.5 150 6.5 150C4.3 150 2.5 148.2 2.5 146C2.5 143.8 4.3 142 6.5 142C7.5 142 8.5 142.4 9.2 143.1L11.1 141.2C9.9 140.1 8.3 139.4 6.6 139.4C3 139.4 0 142.4 0 146C0 149.6 3 152.6 6.6 152.6C8.4 152.6 10 151.9 11.1 150.8L9.2 149Z" fill="#4F4747"/>
<path d="M35 146.1C35 142.5 32 139.5 28.4 139.5C24.8 139.5 21.8 142.5 21.8 146.1C21.8 149.7 24.8 152.7 28.4 152.7C32.1 152.7 35 149.8 35 146.1ZM28.4 150.1C26.2 150.1 24.4 148.3 24.4 146.1C24.4 143.9 26.2 142.1 28.4 142.1C30.6 142.1 32.3 143.9 32.3 146.1C32.4 148.3 30.6 150.1 28.4 150.1Z" fill="#4F4747"/>
<path d="M60.0999 152.7V139.5H57.2L53.3999 149.2L49.4999 139.5H46.7V152.7H49.2999V146.1L51.9999 152.7H54.7999L57.3999 146.1V152.7H60.0999Z" fill="#4F4747"/>
<path d="M75.3999 139.5H71.7V152.7H74.2999V147.4H75.3999C77.5999 147.4 79.2999 145.6 79.2999 143.5C79.3999 141.3 77.5999 139.5 75.3999 139.5ZM75.3999 144.8H74.3999V142.2H75.4999C76.1999 142.2 76.7999 142.8 76.7999 143.5C76.6999 144.2 76.0999 144.8 75.3999 144.8Z" fill="#4F4747"/>
<path d="M96.9 139.5H94.1L89.3 152.7H92.1L93.4 149H97.5L98.8 152.7H101.6L96.9 139.5ZM94.4 146.4L95.5 143.4L96.6 146.4H94.4Z" fill="#4F4747"/>
<path d="M121.3 148.3L116 139.5H112.9V152.7H115.6V143.9L120.9 152.7H123.9V139.5H121.3V148.3Z" fill="#4F4747"/>
<path d="M141.3 152.7V146.4L144.7 139.5H141.8L140 143.2L138.2 139.5H135.2L138.7 146.4V152.7H141.3Z" fill="#4F4747"/>
<path d="M10 158.4L8 164H8.9L9.3 162.8H11.4L11.8 164H12.7L10.7 158.4H10ZM9.5 162L10.3 159.6L11.1 162H9.5Z" fill="#4F4747"/>
<path d="M18.8 159.6C18.9 159.5 19 159.4 19.2 159.3C19.3 159.2 19.5 159.2 19.7 159.2C20 159.2 20.2 159.3 20.4 159.4C20.6 159.6 20.7 159.7 20.8 160H21.7C21.6 159.5 21.4 159.1 21.1 158.8C20.8 158.5 20.3 158.3 19.8 158.3C19.4 158.3 19 158.4 18.7 158.6C18.4 158.8 18.2 159 18 159.3C17.9 159.4 17.9 159.6 17.8 159.8C17.8 160 17.7 160.5 17.7 161.1C17.7 161.7 17.7 162.2 17.8 162.4C17.8 162.5 17.8 162.6 17.9 162.7C17.9 162.8 18 162.9 18 162.9C18.1 163.2 18.4 163.4 18.7 163.6C19 163.8 19.4 163.9 19.8 163.9C20.4 163.9 20.8 163.7 21.2 163.3C21.6 162.9 21.8 162.5 21.8 161.9V160.8H19.8V161.6H20.9V161.9C20.9 162.2 20.8 162.5 20.6 162.7C20.4 162.9 20.1 163 19.8 163C19.6 163 19.4 163 19.3 162.9C19.2 162.8 19 162.7 18.9 162.6C18.8 162.5 18.7 162.3 18.7 162.1C18.7 161.9 18.6 161.5 18.6 161C18.6 160.5 18.6 160.1 18.7 159.9C18.6 159.9 18.7 159.7 18.8 159.6Z" fill="#4F4747"/>
<path d="M27.3999 158.4V164H30.9999V163.2H28.1999V158.4H27.3999Z" fill="#4F4747"/>
<path d="M37.3 158.4H36.5V164H37.3V158.4Z" fill="#4F4747"/>
<path d="M46.4999 162.3L43.9999 158.4H43.2V164H43.9999V160H44.0999L46.5999 164H47.3999V158.4H46.4999V162.3Z" fill="#4F4747"/>
<path d="M56.8 159.2V158.4H53.3V164H56.8V163.2H54.1V161.5H56.4V160.8H54.1V159.2H56.8Z" fill="#4F4747"/>
<path d="M69.7 158.6C69.4 158.8 69.1999 159 68.9999 159.3C68.8999 159.4 68.8999 159.6 68.7999 159.8C68.7999 160 68.7 160.5 68.7 161.1C68.7 161.7 68.6999 162.2 68.7999 162.4C68.7999 162.5 68.7999 162.6 68.8999 162.7C68.8999 162.8 68.9999 162.9 68.9999 162.9C69.0999 163.2 69.4 163.4 69.7 163.6C70 163.8 70.3999 163.9 70.7999 163.9C71.3999 163.9 71.8 163.7 72.2 163.3C72.6 162.9 72.7999 162.5 72.7999 161.9V160.8H70.7999V161.6H71.8999V161.9C71.8999 162.2 71.7999 162.5 71.5999 162.7C71.3999 162.9 71.0999 163 70.7999 163C70.5999 163 70.3999 163 70.2999 162.9C70.1999 162.8 69.9999 162.7 69.8999 162.6C69.7999 162.5 69.7 162.3 69.7 162.1C69.7 161.9 69.5999 161.5 69.5999 161C69.5999 160.5 69.6 160.1 69.7 159.9C69.7 159.7 69.7999 159.6 69.8999 159.4C69.9999 159.3 70.0999 159.2 70.2999 159.1C70.3999 159 70.5999 159 70.7999 159C71.0999 159 71.2999 159.1 71.4999 159.2C71.6999 159.4 71.7999 159.5 71.8999 159.8H72.7999C72.6999 159.3 72.5 158.9 72.2 158.6C71.9 158.3 71.3999 158.1 70.8999 158.1C70.2999 158.3 69.9 158.4 69.7 158.6Z" fill="#4F4747"/>
<path d="M78.4999 159.3C78.3999 159.4 78.3999 159.6 78.2999 159.8C78.2999 160 78.2 160.5 78.2 161.1C78.2 161.7 78.1999 162.2 78.2999 162.4C78.2999 162.5 78.2999 162.6 78.3999 162.7C78.3999 162.8 78.4999 162.9 78.4999 162.9C78.5999 163.2 78.9 163.4 79.2 163.6C79.5 163.8 79.8999 163.9 80.2999 163.9C80.6999 163.9 81.0999 163.8 81.3999 163.6C81.6999 163.4 81.8999 163.2 81.9999 162.9C82.0999 162.8 82.2 162.6 82.2 162.4C82.2 162.2 82.2 161.7 82.2 161.1C82.2 160.5 82.2 160 82.2 159.8C82.2 159.6 82.0999 159.4 81.9999 159.3C81.8999 159 81.6999 158.8 81.3999 158.6C81.0999 158.4 80.6999 158.3 80.2999 158.3C79.8999 158.3 79.5 158.4 79.2 158.6C78.8 158.8 78.5999 159.1 78.4999 159.3ZM79.2 160C79.2 159.8 79.2999 159.7 79.3999 159.5C79.4999 159.4 79.5999 159.3 79.7999 159.2C79.8999 159.1 80.0999 159.1 80.2999 159.1C80.4999 159.1 80.6999 159.1 80.7999 159.2C80.8999 159.3 81.0999 159.4 81.0999 159.5C81.1999 159.6 81.2999 159.8 81.2999 160C81.2999 160.2 81.3999 160.6 81.3999 161.1C81.3999 161.6 81.3999 162 81.2999 162.2C81.2999 162.4 81.1999 162.6 81.0999 162.7C80.9999 162.8 80.8999 162.9 80.7999 163C80.6999 163.1 80.4999 163.1 80.2999 163.1C80.0999 163.1 79.8999 163.1 79.7999 163C79.6999 162.9 79.4999 162.8 79.3999 162.7C79.2999 162.6 79.2 162.4 79.2 162.2C79.2 162 79.0999 161.6 79.0999 161.1C79.0999 160.6 79.1 160.2 79.2 160Z" fill="#4F4747"/>
<path d="M87.8999 164H91.4999V163.2H88.7999V161.5H91.0999V160.8H88.7999V159.2H91.4999V158.4H87.8999V164Z" fill="#4F4747"/>
<path d="M98.7 163.2C98.1 163.2 97.6 163 97.1 162.6L96.5 163.2C97.1 163.7 97.8 164 98.6 164C99.9 164 100.5 163.4 100.6 162.4C100.6 162 100.5 161.7 100.2 161.4C99.9 161.1 99.6 160.9 99 160.8C98.7 160.8 98.5 160.7 98.4 160.7C98.1 160.6 97.9 160.6 97.8 160.4C97.7 160.3 97.6 160.1 97.6 160C97.6 159.7 97.7 159.5 97.9 159.4C98.1 159.3 98.3 159.2 98.6 159.2C99.1 159.2 99.6 159.4 100 159.6L100.5 158.9C100 158.5 99.4 158.3 98.7 158.3C98.1 158.3 97.7 158.5 97.4 158.8C97.1 159.1 96.9 159.5 96.9 160C96.9 160.4 97 160.8 97.3 161C97.6 161.3 97.9 161.5 98.4 161.5C98.7 161.5 98.9 161.6 99.1 161.6C99.6 161.7 99.8 161.9 99.8 162.4C99.8 162.9 99.4 163.2 98.7 163.2Z" fill="#4F4747"/>
<path d="M112.8 164H113.7V161.5H115.9V164H116.7V158.4H115.9V160.8H113.7V158.4H112.8V164Z" fill="#4F4747"/>
<path d="M126.2 159.2V158.4H122.6V164H126.2V163.2H123.5V161.5H125.8V160.8H123.5V159.2H126.2Z" fill="#4F4747"/>
<path d="M135.6 159.9C135.6 159.4 135.4 159 135 158.7C134.7 158.5 134.3 158.3 133.9 158.3H131.7V163.9H132.5V161.5H133.6L134.8 163.9H135.8L134.5 161.4C135.2 161.2 135.6 160.7 135.6 159.9ZM132.5 160.8V159.1H133.8C134.1 159.1 134.3 159.2 134.4 159.3C134.6 159.4 134.7 159.6 134.7 159.9C134.7 160.1 134.6 160.3 134.5 160.5C134.3 160.7 134.1 160.8 133.8 160.8H132.5Z" fill="#4F4747"/>
<path d="M141.2 164H144.8V163.2H142V161.5H144.4V160.8H142V159.2H144.8V158.4H141.2V164Z" fill="#4F4747"/>
</svg>
