<svg width="131" height="171" viewBox="0 0 131 171" fill="none" xmlns="http://www.w3.org/2000/svg">
<path d="M1.9001 170.2H3.1001V163.3H5.0001V162.2H0.100098V163.3H1.9001V170.2Z" fill="#4F4747"/>
<path d="M11.4 170.2L12.3 168.2H15.8L16.6 170.2H17.9L14 161.6L10 170.2H11.4ZM14.1 164.4L15.3 167.2H12.8L14.1 164.4Z" fill="#4F4747"/>
<path d="M27.8001 163.1C28.8001 163.1 29.6001 163.5 30.2001 164.4L31.1001 163.6C30.6001 163 30.1001 162.6 29.6001 162.3C29.1001 162 28.5001 161.9 27.8001 161.9C26.6001 161.9 25.6001 162.3 24.8001 163.1C24.0001 163.9 23.6001 164.9 23.6001 166.1C23.6001 167.2 24.0001 168.2 24.8001 169.1C25.6001 169.9 26.6001 170.3 27.7001 170.3C28.9001 170.3 29.8001 169.9 30.6001 169C30.9001 168.6 31.2001 168.2 31.3001 167.8C31.4001 167.3 31.5001 166.8 31.5001 166.2V165.9H28.2001V167H30.2001C30.1001 167.6 29.9001 168.1 29.4001 168.5C28.9001 168.9 28.4001 169.1 27.8001 169.1C27.1001 169.1 26.4001 168.8 25.8001 168.3C25.2001 167.7 24.8001 167 24.8001 166.1C24.8001 165.2 25.1001 164.5 25.7001 163.9C26.2001 163.4 26.9001 163.1 27.8001 163.1Z" fill="#4F4747"/>
<path d="M39.3 162.2V170.2H42.9001V169.1H40.6001V162.2H39.3Z" fill="#4F4747"/>
<path d="M50.7 162.2H49.5V170.3H50.7V162.2Z" fill="#4F4747"/>
<path d="M58 170.2H59.2V164.6L65.1 170.7V162.2H63.9V167.8L58 161.6V170.2Z" fill="#4F4747"/>
<path d="M72.3999 170.2H76.8999V169.1H73.5999V166.4H76.7999V165.2H73.5999V163.3H76.8999V162.2H72.3999V170.2Z" fill="#4F4747"/>
<path d="M94.8001 165.3H91.3001V162.2H90.1001V170.2H91.3001V166.5H94.8001V170.2H96.0001V162.2H94.8001V165.3Z" fill="#4F4747"/>
<path d="M107.8 163.3V162.2H103.3V170.2H107.8V169.1H104.5V166.4H107.7V165.2H104.5V163.3H107.8Z" fill="#4F4747"/>
<path d="M117.5 166.8C118 166.7 118.5 166.4 118.8 166C119.1 165.6 119.3 165.1 119.3 164.5C119.3 163.8 119 163.2 118.5 162.7C118 162.3 117.3 162.1 116.2 162.1H114.8V170.2H116V166.9H116.2L118.5 170.2H120L117.5 166.8ZM115.9 165.9V163.3H116.3C117.4 163.3 118 163.7 118 164.5C118 165.4 117.4 165.8 116.3 165.8H115.9V165.9Z" fill="#4F4747"/>
<path d="M131 163.3V162.2H126.6V170.2H131V169.1H127.8V166.4H130.9V165.2H127.8V163.3H131Z" fill="#4F4747"/>
<path d="M27.1001 75.1L80.8001 21.5V0L27.1001 53.7V75.1Z" fill="#4F4747"/>
<path d="M27.1001 121.8L80.8001 68.0998V50.7998L27.1001 104.5V121.8Z" fill="#4F4747"/>
<path d="M50.3 75.0999L104 21.4999V3.3999L50.3 57.0999V75.0999Z" fill="#4F4747"/>
<path d="M104 50.1001L50.3 103.8V121.8L104 68.1001V50.1001Z" fill="#4F4747"/>
<path d="M2.3 151.8C3 152.5 3.8 153 4.8 153.4C5.7 153.8 6.8 154 7.9 154C9 154 10 153.8 11 153.4C12 153 12.8 152.3 13.4 151.4L11.2 149.9C10.7 150.5 10.2 151 9.6 151.3C9 151.6 8.5 151.7 7.9 151.7C7.1 151.7 6.4 151.6 5.8 151.3C5.2 151 4.7 150.6 4.2 150.2C3.8 149.7 3.4 149.1 3.2 148.5C3 147.8 2.8 147.1 2.8 146.3C2.8 145.6 2.9 144.9 3.2 144.2C3.4 143.6 3.8 143 4.2 142.5C4.6 142 5.2 141.6 5.8 141.4C6.4 141.1 7.1 141 7.9 141C8.4 141 8.9 141.1 9.4 141.3C9.9 141.5 10.4 141.9 11 142.5L13 141C12.3 140.2 11.5 139.6 10.6 139.2C9.7 138.8 8.8 138.7 7.8 138.7C6.7 138.7 5.6 138.9 4.7 139.3C3.8 139.7 2.9 140.2 2.2 140.9C1.5 141.6 0.999998 142.4 0.599998 143.4C0.199998 144.4 0 145.4 0 146.6C0 147.7 0.199998 148.8 0.599998 149.7C1.1 150.4 1.6 151.2 2.3 151.8Z" fill="#4F4747"/>
<path d="M20.7 151.8C21.4 152.5 22.2 153 23.2 153.4C24.1 153.8 25.2 154 26.3 154C27.4 154 28.5 153.8 29.5 153.4C30.5 153 31.3 152.5 32 151.8C32.7 151.1 33.2 150.3 33.6 149.4C34 148.5 34.2 147.4 34.2 146.3C34.2 145.1 34 144.1 33.6 143.1C33.2 142.1 32.7 141.3 32 140.6C31.3 139.9 30.5 139.4 29.5 139.1C28.5 138.7 27.5 138.6 26.3 138.6C25.2 138.6 24.1 138.8 23.2 139.2C22.3 139.6 21.4 140.1 20.7 140.8C20 141.5 19.5 142.3 19.1 143.3C18.7 144.3 18.5 145.3 18.5 146.5C18.5 147.6 18.7 148.7 19.1 149.6C19.4 150.4 20 151.2 20.7 151.8ZM21.6 144.1C21.8 143.5 22.2 142.9 22.6 142.4C23 141.9 23.6 141.5 24.2 141.3C24.8 141 25.5 140.9 26.3 140.9C27.1 140.9 27.8 141 28.4 141.3C29 141.6 29.6 141.9 30 142.4C30.4 142.9 30.8 143.4 31 144.1C31.2 144.7 31.4 145.4 31.4 146.2C31.4 147 31.3 147.7 31 148.4C30.8 149.1 30.4 149.6 30 150.1C29.6 150.6 29 151 28.4 151.2C27.8 151.5 27.1 151.6 26.3 151.6C25.5 151.6 24.8 151.5 24.2 151.2C23.6 150.9 23.1 150.5 22.6 150.1C22.2 149.6 21.8 149 21.6 148.4C21.4 147.7 21.2 147 21.2 146.2C21.2 145.4 21.3 144.7 21.6 144.1Z" fill="#4F4747"/>
<path d="M44.8 138.9H40.8V153.6H43.3V141.4L47.8 153.6H49.6001L54.1001 141.4V153.6H56.6001V138.9H52.7001L48.7001 149.2L44.8 138.9Z" fill="#4F4747"/>
<path d="M66.7001 147.5H68.6001C69.4001 147.5 70.1 147.4 70.8 147.3C71.5 147.2 72.1001 147 72.7001 146.7C73.2001 146.4 73.7001 145.9 74.0001 145.4C74.3001 144.8 74.5001 144.1 74.5001 143.2C74.5001 142.4 74.4001 141.7 74.1001 141.2C73.8001 140.7 73.4001 140.2 72.9001 139.9C72.4001 139.6 71.8001 139.3 71.2001 139.2C70.5001 139.1 69.9001 139 69.2001 139H64.3V153.7H66.9001V147.5H66.7001ZM66.7001 141.1H68.6001C68.9001 141.1 69.3001 141.1 69.7001 141.2C70.1001 141.2 70.4001 141.3 70.7001 141.5C71.0001 141.6 71.3001 141.9 71.4001 142.1C71.6001 142.4 71.7001 142.7 71.7001 143.2C71.7001 143.7 71.6001 144.1 71.4001 144.4C71.2001 144.7 70.9001 144.9 70.6001 145C70.3001 145.1 69.9001 145.2 69.5001 145.2C69.1001 145.2 68.7 145.2 68.3 145.2H66.7001V141.1Z" fill="#4F4747"/>
<path d="M82.0001 150.2H88.4001L89.8 153.6H92.8L86.5001 138.9H84.2001L77.8 153.6H80.7001L82.0001 150.2ZM85.2001 142L87.5001 148H82.9001L85.2001 142Z" fill="#4F4747"/>
<path d="M98.6001 138.9V153.6H101.2V142.3L108.5 153.6H111.8V138.9H109.2V149.8L102 138.9H98.6001Z" fill="#4F4747"/>
<path d="M122.9 153.6H125.5V147.3L131 138.9H127.9L124.2 144.7L120.6 138.9H117.3L122.9 147.3V153.6Z" fill="#4F4747"/>
</svg>
