<svg width="169" height="157" viewBox="0 0 169 157" fill="none" xmlns="http://www.w3.org/2000/svg">
<path d="M50.5001 109.1L46.4001 102L13.8001 45.5H5.6001L42.3001 109.1H50.5001Z" fill="#A3A3A3"/>
<path d="M83.5 109.1L79.3 102L75.2 94.9L71.1 87.7L67 80.6L62.9 73.5L46.7 45.5H38.5L58.8 80.6L62.9 87.7L67 94.9L71.1 102L75.2 109.1H83.5Z" fill="#A3A3A3"/>
<path d="M95.7999 102L91.6999 94.9L87.5999 87.7L83.4999 80.6L79.2999 73.5L75.1999 66.4L71.0999 59.2L63.1999 45.5H54.8999L66.9999 66.4L75.1999 80.6L79.2999 87.7L83.4999 94.9L87.5999 102L91.6999 109.1H99.8999L95.7999 102Z" fill="#A3A3A3"/>
<path d="M113.5 0H105.3L75.3 52L79.4 59.2L113.5 0Z" fill="#A3A3A3"/>
<path d="M58.8 109.1H67L62.9 102L58.8 94.9L54.7 87.7L30.2 45.5H22L50.5 94.9L54.7 102L58.8 109.1Z" fill="#A3A3A3"/>
<path d="M87.6 73.4L130 0H121.8L83.5 66.3V66.4L87.6 73.4Z" fill="#A3A3A3"/>
<path d="M95.7999 87.7L146.5 0H138.2L91.7 80.5L91.7999 80.6L95.7999 87.7Z" fill="#A3A3A3"/>
<path d="M162.9 0H154.7L100 94.8V94.9L104.1 101.9L162.9 0Z" fill="#A3A3A3"/>
<path d="M10.8 138.901C10 139.601 8.9 140.101 7.7 140.101C5.2 140.101 3.1 138.101 3.1 135.501C3.1 133.001 5.2 130.901 7.7 130.901C8.9 130.901 10 131.401 10.8 132.101L13 129.901C11.6 128.601 9.8 127.801 7.7 127.801C3.5 127.801 0 131.201 0 135.501C0 139.801 3.4 143.201 7.7 143.201C9.7 143.201 11.6 142.401 13 141.101L10.8 138.901Z" fill="#A3A3A3"/>
<path d="M33.2 127.801C29 127.801 25.5 131.201 25.5 135.501C25.5 139.801 28.9 143.201 33.2 143.201C37.4 143.201 40.9 139.801 40.9 135.501C40.9 131.201 37.4 127.801 33.2 127.801ZM33.2 140.101C30.7 140.101 28.6 138.001 28.6 135.501C28.6 133.001 30.7 130.901 33.2 130.901C35.7 130.901 37.8 133.001 37.8 135.501C37.8 138.101 35.7 140.101 33.2 140.101Z" fill="#A3A3A3"/>
<path d="M62.1999 139.101L57.6999 127.801H54.3999V143.201H57.4999V135.501L60.5999 143.201H63.8999L66.8999 135.501V143.201H69.9999V127.801H66.6999L62.1999 139.101Z" fill="#A3A3A3"/>
<path d="M87.8 127.801H83.5V143.101H86.6V137.001H87.9C90.4 137.001 92.5 134.901 92.5 132.401C92.4 129.901 90.4 127.801 87.8 127.801ZM87.8 134.001H86.6V130.901H87.8C88.6 130.901 89.3 131.601 89.3 132.401C89.4 133.301 88.7 134.001 87.8 134.001Z" fill="#A3A3A3"/>
<path d="M109.5 127.801L104 143.101H107.3L108.9 138.801H113.6L115.2 143.101H118.5L113 127.801H109.5ZM109.9 135.801L111.1 132.301L112.4 135.801H109.9Z" fill="#A3A3A3"/>
<path d="M144.2 127.801H141.2V138.101L135 127.801H131.5V143.201H134.5V133.001L140.7 143.201H144.2V127.801Z" fill="#A3A3A3"/>
<path d="M164.4 143.201V135.901L168.4 127.801H165L162.9 132.101L160.8 127.801H157.4L161.4 135.901V143.201H164.4Z" fill="#A3A3A3"/>
<path d="M0 150.601H1.8V156.301H2.8V150.601H4.6V149.801H0V150.601Z" fill="#A3A3A3"/>
<path d="M11.7 149.801L9.30005 156.301H10.3L10.8 154.801H13.3L13.8 156.301H14.8L12.4 149.801H11.7ZM11.2 153.901L12.1 151.101L13 153.901H11.2Z" fill="#A3A3A3"/>
<path d="M23.0001 153.6H24.3001V153.9C24.3001 154.3 24.2001 154.6 23.9001 154.9C23.7001 155.2 23.3001 155.3 23.0001 155.3C22.8001 155.3 22.6001 155.3 22.4001 155.2C22.2001 155.1 22.1001 155 22.0001 154.9C21.9001 154.8 21.8001 154.6 21.7001 154.4C21.7001 154.2 21.6001 153.7 21.6001 153.1C21.6001 152.5 21.6001 152 21.7001 151.8C21.7001 151.6 21.8001 151.4 22.0001 151.3C22.1001 151.2 22.2001 151.1 22.4001 151C22.6001 150.9 22.8001 150.9 23.0001 150.9C23.3001 150.9 23.6001 151 23.8001 151.2C24.0001 151.4 24.2001 151.6 24.2001 151.9H25.2001C25.1001 151.4 24.8001 150.9 24.5001 150.5C24.1001 150.1 23.6001 149.9 23.0001 149.9C22.5001 149.9 22.1001 150 21.7001 150.3C21.4001 150.5 21.1001 150.8 20.9001 151.1C20.8001 151.3 20.7001 151.5 20.7001 151.7C20.7001 152 20.6001 152.5 20.6001 153.2C20.6001 153.9 20.6001 154.4 20.7001 154.7C20.7001 154.8 20.8001 155 20.8001 155C20.8001 155.1 20.9001 155.2 20.9001 155.3C21.1001 155.6 21.3001 155.9 21.7001 156.1C22.0001 156.3 22.5001 156.5 23.0001 156.5C23.7001 156.5 24.2001 156.3 24.6001 155.8C25.0001 155.4 25.3001 154.8 25.3001 154.2V152.9H23.0001V153.6Z" fill="#A3A3A3"/>
<path d="M33 149.801H32V156.301H36.1V155.301H33V149.801Z" fill="#A3A3A3"/>
<path d="M43.5 149.801H42.5V156.301H43.5V149.801Z" fill="#A3A3A3"/>
<path d="M54.1999 154.401L51.2999 149.801H50.3999V156.301H51.2999V151.601H51.3999L54.2999 156.301H55.1999V149.801H54.1999V154.401Z" fill="#A3A3A3"/>
<path d="M62.1001 156.301H66.2001V155.301H63.1001V153.401H65.8001V152.501H63.1001V150.701H66.2001V149.801H62.1001V156.301Z" fill="#A3A3A3"/>
<path d="M82.4 153.6H83.7V153.9C83.7 154.3 83.6 154.6 83.3 154.9C83.1 155.2 82.7 155.3 82.4 155.3C82.2 155.3 82 155.3 81.8 155.2C81.6 155.1 81.5 155 81.4 154.9C81.3 154.8 81.2 154.6 81.1 154.4C81.1 154.2 81 153.7 81 153.1C81 152.5 81 152 81.1 151.8C81.1 151.6 81.2 151.4 81.4 151.3C81.5 151.2 81.6 151.1 81.8 151C82 150.9 82.2 150.9 82.4 150.9C82.7 150.9 83 151 83.2 151.2C83.4 151.4 83.6 151.6 83.6 151.9H84.6C84.5 151.4 84.2 150.9 83.9 150.5C83.5 150.1 83 149.9 82.4 149.9C81.9 149.9 81.5 150 81.1 150.3C80.8 150.5 80.5 150.8 80.3 151.1C80.2 151.3 80.1 151.5 80.1 151.7C80.1 152 80 152.5 80 153.2C80 153.9 80 154.4 80.1 154.7C80.1 154.8 80.2 155 80.2 155C80.2 155.1 80.3 155.2 80.3 155.3C80.5 155.6 80.7 155.9 81.1 156.1C81.4 156.3 81.9 156.5 82.4 156.5C83.1 156.5 83.6 156.3 84 155.8C84.4 155.4 84.7 154.8 84.7 154.2V152.9H82.4V153.6Z" fill="#A3A3A3"/>
<path d="M95.5001 150.899C95.3001 150.599 95.1001 150.299 94.8001 150.099C94.5001 149.899 94.0001 149.699 93.5001 149.699C93.0001 149.699 92.6001 149.799 92.2001 150.099C91.9001 150.299 91.6001 150.599 91.4001 150.899C91.3001 151.099 91.2001 151.299 91.2001 151.499C91.2001 151.799 91.1001 152.299 91.1001 152.999C91.1001 153.699 91.1001 154.199 91.2001 154.499C91.2001 154.599 91.3001 154.799 91.3001 154.799C91.3001 154.899 91.4001 154.999 91.4001 155.099C91.6001 155.399 91.8001 155.699 92.2001 155.899C92.5001 156.099 93.0001 156.299 93.5001 156.299C94.0001 156.299 94.4001 156.199 94.8001 155.899C95.1001 155.699 95.4001 155.399 95.5001 155.099C95.6001 154.899 95.7001 154.699 95.7001 154.499C95.7001 154.199 95.8001 153.699 95.8001 152.999C95.8001 152.199 95.8001 151.699 95.7001 151.499C95.7001 151.199 95.6001 150.999 95.5001 150.899ZM94.7001 154.299C94.7001 154.499 94.6001 154.699 94.4001 154.799C94.3001 154.899 94.2001 154.999 94.0001 155.099C93.8001 155.199 93.6001 155.199 93.4001 155.199C93.2001 155.199 93.0001 155.199 92.8001 155.099C92.6001 154.999 92.5001 154.899 92.4001 154.799C92.3001 154.699 92.2001 154.499 92.1001 154.299C92.1001 154.099 92.0001 153.599 92.0001 152.999C92.0001 152.399 92.0001 151.899 92.1001 151.699C92.1001 151.499 92.2001 151.299 92.4001 151.199C92.5001 151.099 92.6001 150.999 92.8001 150.899C93.0001 150.799 93.2001 150.799 93.4001 150.799C93.6001 150.799 93.8001 150.899 94.0001 150.899C94.2001 150.999 94.3001 151.099 94.4001 151.199C94.5001 151.299 94.6001 151.499 94.7001 151.699C94.7001 151.899 94.8001 152.399 94.8001 152.999C94.8001 153.599 94.8001 154.099 94.7001 154.299Z" fill="#A3A3A3"/>
<path d="M102.4 156.301H106.5V155.301H103.4V153.401H106.1V152.501H103.4V150.701H106.5V149.801H102.4V156.301Z" fill="#A3A3A3"/>
<path d="M115.4 152.601C115.1 152.601 114.8 152.501 114.7 152.501C114.4 152.401 114.1 152.301 114 152.201C113.9 152.001 113.8 151.901 113.8 151.701C113.8 151.401 113.9 151.201 114.1 151.001C114.3 150.801 114.6 150.801 114.9 150.801C115.5 150.801 116 151.001 116.5 151.301L117 150.501C116.4 150.101 115.7 149.801 114.9 149.801C114.2 149.801 113.7 150.001 113.3 150.301C112.9 150.601 112.7 151.101 112.7 151.701C112.7 152.201 112.9 152.601 113.2 152.901C113.5 153.201 113.9 153.401 114.5 153.501C114.8 153.501 115.1 153.601 115.4 153.601C116 153.701 116.3 154.001 116.2 154.501C116.2 155.101 115.8 155.401 114.9 155.401C114.2 155.401 113.6 155.201 113.1 154.801L112.5 155.501C113.2 156.101 114 156.401 115 156.401C116.5 156.401 117.2 155.801 117.3 154.501C117.3 154.001 117.2 153.601 116.9 153.301C116.4 152.901 116 152.601 115.4 152.601Z" fill="#A3A3A3"/>
<path d="M134.9 152.501H132.3V149.801H131.3V156.301H132.3V153.401H134.9V156.301H135.9V149.801H134.9V152.501Z" fill="#A3A3A3"/>
<path d="M142.7 156.301H146.9V155.301H143.7V153.401H146.4V152.501H143.7V150.701H146.9V149.801H142.7V156.301Z" fill="#A3A3A3"/>
<path d="M157.8 151.601C157.8 151.001 157.6 150.501 157.2 150.201C156.9 149.901 156.4 149.801 155.9 149.801H153.3V156.301H154.3V153.501H155.6L156.9 156.301H158.1L156.6 153.401C157.4 153.101 157.8 152.501 157.8 151.601ZM154.3 152.601V150.601H155.8C156.1 150.601 156.4 150.701 156.5 150.801C156.7 151.001 156.8 151.201 156.8 151.501C156.8 151.801 156.7 152.001 156.5 152.201C156.3 152.401 156 152.501 155.7 152.501H154.3V152.601Z" fill="#A3A3A3"/>
<path d="M164.3 156.301H168.5V155.301H165.3V153.401H168V152.501H165.3V150.701H168.5V149.801H164.3V156.301Z" fill="#A3A3A3"/>
</svg>
