<svg width="169" height="157" viewBox="0 0 169 157" fill="none" xmlns="http://www.w3.org/2000/svg">
<path d="M50.5001 109.1L46.4001 102L13.8001 45.5H5.6001L42.3001 109.1H50.5001Z" fill="#4F4747"/>
<path d="M83.5 109.1L79.3 102L75.2 94.9L71.1 87.7L67 80.6L62.9 73.5L46.7 45.5H38.5L58.8 80.6L62.9 87.7L67 94.9L71.1 102L75.2 109.1H83.5Z" fill="#4F4747"/>
<path d="M95.7999 102L91.6999 94.9L87.5999 87.7L83.4999 80.6L79.2999 73.5L75.1999 66.4L71.0999 59.2L63.1999 45.5H54.8999L66.9999 66.4L75.1999 80.6L79.2999 87.7L83.4999 94.9L87.5999 102L91.6999 109.1H99.8999L95.7999 102Z" fill="#4F4747"/>
<path d="M113.5 0H105.3L75.3 52L79.4 59.2L113.5 0Z" fill="#4F4747"/>
<path d="M58.8 109.1H67L62.9 102L58.8 94.9L54.7 87.7L30.2 45.5H22L50.5 94.9L54.7 102L58.8 109.1Z" fill="#4F4747"/>
<path d="M87.6 73.4L130 0H121.8L83.5 66.3V66.4L87.6 73.4Z" fill="#4F4747"/>
<path d="M95.7999 87.7L146.5 0H138.2L91.7 80.5L91.7999 80.6L95.7999 87.7Z" fill="#4F4747"/>
<path d="M162.9 0H154.7L100 94.8V94.9L104.1 101.9L162.9 0Z" fill="#4F4747"/>
<path d="M10.8 138.9C10 139.6 8.9 140.1 7.7 140.1C5.2 140.1 3.1 138.1 3.1 135.5C3.1 133 5.2 130.9 7.7 130.9C8.9 130.9 10 131.4 10.8 132.1L13 129.9C11.6 128.6 9.8 127.8 7.7 127.8C3.5 127.8 0 131.2 0 135.5C0 139.8 3.4 143.2 7.7 143.2C9.7 143.2 11.6 142.4 13 141.1L10.8 138.9Z" fill="#4F4747"/>
<path d="M33.2 127.8C29 127.8 25.5 131.2 25.5 135.5C25.5 139.8 28.9 143.2 33.2 143.2C37.4 143.2 40.9 139.8 40.9 135.5C40.9 131.2 37.4 127.8 33.2 127.8ZM33.2 140.1C30.7 140.1 28.6 138 28.6 135.5C28.6 133 30.7 130.9 33.2 130.9C35.7 130.9 37.8 133 37.8 135.5C37.8 138.1 35.7 140.1 33.2 140.1Z" fill="#4F4747"/>
<path d="M62.1999 139.1L57.6999 127.8H54.3999V143.2H57.4999V135.5L60.5999 143.2H63.8999L66.8999 135.5V143.2H69.9999V127.8H66.6999L62.1999 139.1Z" fill="#4F4747"/>
<path d="M87.8 127.8H83.5V143.1H86.6V137H87.9C90.4 137 92.5 134.9 92.5 132.4C92.4 129.9 90.4 127.8 87.8 127.8ZM87.8 134H86.6V130.9H87.8C88.6 130.9 89.3 131.6 89.3 132.4C89.4 133.3 88.7 134 87.8 134Z" fill="#4F4747"/>
<path d="M109.5 127.8L104 143.1H107.3L108.9 138.8H113.6L115.2 143.1H118.5L113 127.8H109.5ZM109.9 135.8L111.1 132.3L112.4 135.8H109.9Z" fill="#4F4747"/>
<path d="M144.2 127.8H141.2V138.1L135 127.8H131.5V143.2H134.5V133L140.7 143.2H144.2V127.8Z" fill="#4F4747"/>
<path d="M164.4 143.2V135.9L168.4 127.8H165L162.9 132.1L160.8 127.8H157.4L161.4 135.9V143.2H164.4Z" fill="#4F4747"/>
<path d="M0 150.6H1.8V156.3H2.8V150.6H4.6V149.8H0V150.6Z" fill="#4F4747"/>
<path d="M11.7 149.8L9.30005 156.3H10.3L10.8 154.8H13.3L13.8 156.3H14.8L12.4 149.8H11.7ZM11.2 153.9L12.1 151.1L13 153.9H11.2Z" fill="#4F4747"/>
<path d="M23.0001 153.6H24.3001V153.9C24.3001 154.3 24.2001 154.6 23.9001 154.9C23.7001 155.2 23.3001 155.3 23.0001 155.3C22.8001 155.3 22.6001 155.3 22.4001 155.2C22.2001 155.1 22.1001 155 22.0001 154.9C21.9001 154.8 21.8001 154.6 21.7001 154.4C21.7001 154.2 21.6001 153.7 21.6001 153.1C21.6001 152.5 21.6001 152 21.7001 151.8C21.7001 151.6 21.8001 151.4 22.0001 151.3C22.1001 151.2 22.2001 151.1 22.4001 151C22.6001 150.9 22.8001 150.9 23.0001 150.9C23.3001 150.9 23.6001 151 23.8001 151.2C24.0001 151.4 24.2001 151.6 24.2001 151.9H25.2001C25.1001 151.4 24.8001 150.9 24.5001 150.5C24.1001 150.1 23.6001 149.9 23.0001 149.9C22.5001 149.9 22.1001 150 21.7001 150.3C21.4001 150.5 21.1001 150.8 20.9001 151.1C20.8001 151.3 20.7001 151.5 20.7001 151.7C20.7001 152 20.6001 152.5 20.6001 153.2C20.6001 153.9 20.6001 154.4 20.7001 154.7C20.7001 154.8 20.8001 155 20.8001 155C20.8001 155.1 20.9001 155.2 20.9001 155.3C21.1001 155.6 21.3001 155.9 21.7001 156.1C22.0001 156.3 22.5001 156.5 23.0001 156.5C23.7001 156.5 24.2001 156.3 24.6001 155.8C25.0001 155.4 25.3001 154.8 25.3001 154.2V152.9H23.0001V153.6Z" fill="#4F4747"/>
<path d="M33 149.8H32V156.3H36.1V155.3H33V149.8Z" fill="#4F4747"/>
<path d="M43.5 149.8H42.5V156.3H43.5V149.8Z" fill="#4F4747"/>
<path d="M54.1999 154.4L51.2999 149.8H50.3999V156.3H51.2999V151.6H51.3999L54.2999 156.3H55.1999V149.8H54.1999V154.4Z" fill="#4F4747"/>
<path d="M62.1001 156.3H66.2001V155.3H63.1001V153.4H65.8001V152.5H63.1001V150.7H66.2001V149.8H62.1001V156.3Z" fill="#4F4747"/>
<path d="M82.4 153.6H83.7V153.9C83.7 154.3 83.6 154.6 83.3 154.9C83.1 155.2 82.7 155.3 82.4 155.3C82.2 155.3 82 155.3 81.8 155.2C81.6 155.1 81.5 155 81.4 154.9C81.3 154.8 81.2 154.6 81.1 154.4C81.1 154.2 81 153.7 81 153.1C81 152.5 81 152 81.1 151.8C81.1 151.6 81.2 151.4 81.4 151.3C81.5 151.2 81.6 151.1 81.8 151C82 150.9 82.2 150.9 82.4 150.9C82.7 150.9 83 151 83.2 151.2C83.4 151.4 83.6 151.6 83.6 151.9H84.6C84.5 151.4 84.2 150.9 83.9 150.5C83.5 150.1 83 149.9 82.4 149.9C81.9 149.9 81.5 150 81.1 150.3C80.8 150.5 80.5 150.8 80.3 151.1C80.2 151.3 80.1 151.5 80.1 151.7C80.1 152 80 152.5 80 153.2C80 153.9 80 154.4 80.1 154.7C80.1 154.8 80.2 155 80.2 155C80.2 155.1 80.3 155.2 80.3 155.3C80.5 155.6 80.7 155.9 81.1 156.1C81.4 156.3 81.9 156.5 82.4 156.5C83.1 156.5 83.6 156.3 84 155.8C84.4 155.4 84.7 154.8 84.7 154.2V152.9H82.4V153.6Z" fill="#4F4747"/>
<path d="M95.5001 150.9C95.3001 150.6 95.1001 150.3 94.8001 150.1C94.5001 149.9 94.0001 149.7 93.5001 149.7C93.0001 149.7 92.6001 149.8 92.2001 150.1C91.9001 150.3 91.6001 150.6 91.4001 150.9C91.3001 151.1 91.2001 151.3 91.2001 151.5C91.2001 151.8 91.1001 152.3 91.1001 153C91.1001 153.7 91.1001 154.2 91.2001 154.5C91.2001 154.6 91.3001 154.8 91.3001 154.8C91.3001 154.9 91.4001 155 91.4001 155.1C91.6001 155.4 91.8001 155.7 92.2001 155.9C92.5001 156.1 93.0001 156.3 93.5001 156.3C94.0001 156.3 94.4001 156.2 94.8001 155.9C95.1001 155.7 95.4001 155.4 95.5001 155.1C95.6001 154.9 95.7001 154.7 95.7001 154.5C95.7001 154.2 95.8001 153.7 95.8001 153C95.8001 152.2 95.8001 151.7 95.7001 151.5C95.7001 151.2 95.6001 151 95.5001 150.9ZM94.7001 154.3C94.7001 154.5 94.6001 154.7 94.4001 154.8C94.3001 154.9 94.2001 155 94.0001 155.1C93.8001 155.2 93.6001 155.2 93.4001 155.2C93.2001 155.2 93.0001 155.2 92.8001 155.1C92.6001 155 92.5001 154.9 92.4001 154.8C92.3001 154.7 92.2001 154.5 92.1001 154.3C92.1001 154.1 92.0001 153.6 92.0001 153C92.0001 152.4 92.0001 151.9 92.1001 151.7C92.1001 151.5 92.2001 151.3 92.4001 151.2C92.5001 151.1 92.6001 151 92.8001 150.9C93.0001 150.8 93.2001 150.8 93.4001 150.8C93.6001 150.8 93.8001 150.9 94.0001 150.9C94.2001 151 94.3001 151.1 94.4001 151.2C94.5001 151.3 94.6001 151.5 94.7001 151.7C94.7001 151.9 94.8001 152.4 94.8001 153C94.8001 153.6 94.8001 154.1 94.7001 154.3Z" fill="#4F4747"/>
<path d="M102.4 156.3H106.5V155.3H103.4V153.4H106.1V152.5H103.4V150.7H106.5V149.8H102.4V156.3Z" fill="#4F4747"/>
<path d="M115.4 152.6C115.1 152.6 114.8 152.5 114.7 152.5C114.4 152.4 114.1 152.3 114 152.2C113.9 152 113.8 151.9 113.8 151.7C113.8 151.4 113.9 151.2 114.1 151C114.3 150.8 114.6 150.8 114.9 150.8C115.5 150.8 116 151 116.5 151.3L117 150.5C116.4 150.1 115.7 149.8 114.9 149.8C114.2 149.8 113.7 150 113.3 150.3C112.9 150.6 112.7 151.1 112.7 151.7C112.7 152.2 112.9 152.6 113.2 152.9C113.5 153.2 113.9 153.4 114.5 153.5C114.8 153.5 115.1 153.6 115.4 153.6C116 153.7 116.3 154 116.2 154.5C116.2 155.1 115.8 155.4 114.9 155.4C114.2 155.4 113.6 155.2 113.1 154.8L112.5 155.5C113.2 156.1 114 156.4 115 156.4C116.5 156.4 117.2 155.8 117.3 154.5C117.3 154 117.2 153.6 116.9 153.3C116.4 152.9 116 152.6 115.4 152.6Z" fill="#4F4747"/>
<path d="M134.9 152.5H132.3V149.8H131.3V156.3H132.3V153.4H134.9V156.3H135.9V149.8H134.9V152.5Z" fill="#4F4747"/>
<path d="M142.7 156.3H146.9V155.3H143.7V153.4H146.4V152.5H143.7V150.7H146.9V149.8H142.7V156.3Z" fill="#4F4747"/>
<path d="M157.8 151.6C157.8 151 157.6 150.5 157.2 150.2C156.9 149.9 156.4 149.8 155.9 149.8H153.3V156.3H154.3V153.5H155.6L156.9 156.3H158.1L156.6 153.4C157.4 153.1 157.8 152.5 157.8 151.6ZM154.3 152.6V150.6H155.8C156.1 150.6 156.4 150.7 156.5 150.8C156.7 151 156.8 151.2 156.8 151.5C156.8 151.8 156.7 152 156.5 152.2C156.3 152.4 156 152.5 155.7 152.5H154.3V152.6Z" fill="#4F4747"/>
<path d="M164.3 156.3H168.5V155.3H165.3V153.4H168V152.5H165.3V150.7H168.5V149.8H164.3V156.3Z" fill="#4F4747"/>
</svg>
