<svg width="133" height="176" viewBox="0 0 133 176" fill="none" xmlns="http://www.w3.org/2000/svg">
<path d="M94.5999 41.8999L77.2 59.3999L83.8999 66.0999L101.3 48.6999L94.5999 41.8999Z" fill="#4F4747"/>
<path d="M59.3999 77.2002L41.8999 94.6002L48.6999 101.3L66.0999 83.9002L59.3999 77.2002Z" fill="#4F4747"/>
<path d="M72.8001 54.9999L90.3001 37.5999L83.5001 30.8999L66.1001 48.2999L72.8001 54.9999Z" fill="#4F4747"/>
<path d="M54.9999 72.8001L48.2999 66.1001L30.8999 83.5001L37.5999 90.3001L54.9999 72.8001Z" fill="#4F4747"/>
<path d="M54.9999 59.3999L37.5999 41.8999L30.8999 48.6999L48.2999 66.0999L54.9999 59.3999Z" fill="#4F4747"/>
<path d="M59.3999 54.9999L66.0999 48.2999L48.6999 30.8999L41.8999 37.5999L59.3999 54.9999Z" fill="#4F4747"/>
<path d="M77.2 72.8001L94.5999 90.3001L101.3 83.5001L83.8999 66.1001L77.2 72.8001Z" fill="#4F4747"/>
<path d="M90.3001 94.6002L72.8001 77.2002L66.1001 83.9002L83.5001 101.3L90.3001 94.6002Z" fill="#4F4747"/>
<path d="M90.2999 108.1L83.4999 101.3L66.0999 118.8L48.6999 101.3L41.8999 108.1L66.0999 132.2L90.2999 108.1Z" fill="#4F4747"/>
<path d="M30.9 48.6999L24.1 41.8999L0 66.0999L24.1 90.2999L30.9 83.4999L13.4 66.0999L30.9 48.6999Z" fill="#4F4747"/>
<path d="M108.1 41.8999L101.3 48.6999L118.8 66.0999L101.3 83.4999L108.1 90.2999L132.2 66.0999L108.1 41.8999Z" fill="#4F4747"/>
<path d="M83.4999 30.9L90.2999 24.1L66.0999 0L41.8999 24.1L48.6999 30.9L66.0999 13.4L83.4999 30.9Z" fill="#4F4747"/>
<path d="M10.6 162.4C11.6 161.6 12.4 160.4 12.7 158.9V158.8L10.6 158.3V158.4C10.3 159.5 9.9 160.4 9.2 161C8.5 161.6 7.6 161.9 6.6 161.9C5.8 161.9 5 161.7 4.3 161.3C3.6 160.9 3.1 160.2 2.7 159.4C2.3 158.5 2.2 157.5 2.2 156.4C2.2 155.5 2.3 154.6 2.6 153.8C2.9 153 3.4 152.3 4.1 151.8C4.8 151.3 5.7 151.1 6.7 151.1C7.6 151.1 8.4 151.3 9 151.8C9.6 152.2 10.1 152.9 10.4 153.9V154L12.5 153.5V153.4C12.1 152.1 11.4 151.1 10.4 150.4C9.4 149.7 8.2 149.3 6.8 149.3C5.5 149.3 4.4 149.6 3.3 150.1C2.3 150.7 1.4 151.5 0.900002 152.6C0.300002 153.7 0 155 0 156.4C0 157.7 0.299999 159 0.799999 160.2C1.3 161.4 2.1 162.3 3 162.9C4 163.5 5.2 163.8 6.8 163.8C8.3 163.6 9.6 163.2 10.6 162.4Z" fill="#4F4747"/>
<path d="M32.1001 160.1C32.7001 159 33.0001 157.7 33.0001 156.3C33.0001 154.9 32.7001 153.7 32.2001 152.5C31.6 151.4 30.8 150.5 29.8 149.9C28.7 149.3 27.5001 149 26.2001 149C24.2001 149 22.5001 149.7 21.2001 151C19.9001 152.3 19.3 154.2 19.3 156.5C19.3 157.7 19.6001 158.9 20.1001 160C20.6001 161.1 21.5 162 22.5 162.6C23.6 163.2 24.8001 163.6 26.1001 163.6C27.4001 163.6 28.5001 163.3 29.6001 162.7C30.7001 162.1 31.5001 161.3 32.1001 160.1ZM26.1001 161.8C24.8001 161.8 23.6001 161.3 22.7001 160.4C21.8001 159.5 21.4001 158.2 21.4001 156.5C21.4001 154.5 21.9 153 22.8 152.1C23.7 151.2 24.8001 150.8 26.1001 150.8C27.0001 150.8 27.8001 151 28.6001 151.5C29.3001 151.9 29.9001 152.6 30.2001 153.4C30.6 154.2 30.8 155.2 30.8 156.3C30.8 158 30.4 159.4 29.5 160.3C28.6 161.3 27.5001 161.8 26.1001 161.8Z" fill="#4F4747"/>
<path d="M54 149.5H52V163.6H54V149.5Z" fill="#4F4747"/>
<path d="M48.1001 163.6L51.3001 154.7V149.7L47.9001 159.3C47.6001 160.1 47.4001 160.7 47.3001 161.2L46.7001 159.5L43.3001 149.6H43.1001V154.7L46.2001 163.7H48.1001V163.6Z" fill="#4F4747"/>
<path d="M42.3 149.5H40.3V163.6H42.3V149.5Z" fill="#4F4747"/>
<path d="M71.1 156.7C71.9 155.9 72.2999 154.8 72.2999 153.6C72.2999 152.9 72.1999 152.2 71.8999 151.7C71.5999 151.1 71.2 150.6 70.7 150.3C70.2 150 69.5999 149.7 68.8999 149.6C68.3999 149.5 67.7 149.5 66.7 149.5H64.2V151.4H66.8999C67.6999 151.4 68.3 151.4 68.6 151.5C69.1 151.6 69.4 151.9 69.7 152.3C70 152.7 70.1 153.2 70.1 153.7C70.1 154.5 69.8999 155 69.3999 155.5C68.8999 155.9 68.0999 156.1 66.8999 156.1H64.2V158H67C68.9 158 70.3 157.5 71.1 156.7Z" fill="#4F4747"/>
<path d="M63.4 149.5H61.3V163.6H63.4V149.5Z" fill="#4F4747"/>
<path d="M87.3001 149.5H85.1001L79.6001 163.6H81.8001L82.4001 162L84.0001 157.7L84.3001 156.8L85.5001 153.7C85.8001 153 86.0001 152.3 86.1001 151.6C86.3001 152.3 86.6001 153.1 87.0001 154L88.4001 157.7H84.8001L84.2001 159.4H89.1001L90.7001 163.6H93.1001L87.3001 149.5Z" fill="#4F4747"/>
<path d="M109.5 160V163.6H111.6V149.5H109.5V160.1V160Z" fill="#4F4747"/>
<path d="M102.2 149.5H100.2V163.6H102.2V149.5Z" fill="#4F4747"/>
<path d="M108.7 158.9L102.9 150.4V154L108.7 162.5V158.9Z" fill="#4F4747"/>
<path d="M129.8 149.5L127 153.6C126.5 154.4 126 155.2 125.6 155.9L124.4 157.7V163.6H126.5V157.7L132.2 149.6H129.8V149.5Z" fill="#4F4747"/>
<path d="M124.3 153.7L121.5 149.5H118.9L124 157L125.1 155.1L124.3 153.7Z" fill="#4F4747"/>
<path d="M2.2001 175V170.6H3.6001V169.9H0.100098V170.6H1.5001V175H2.2001Z" fill="#4F4747"/>
<path d="M9.90005 169.9H9.20005L7.30005 175H8.20005L8.60005 173.9H10.5L10.9001 175H11.7001L9.90005 169.9ZM8.80005 173.2L9.50005 171L10.2001 173.2H8.80005Z" fill="#4F4747"/>
<path d="M17.3001 171C17.4001 170.9 17.5001 170.8 17.6001 170.7C17.7001 170.6 17.9001 170.6 18.1001 170.6C18.3001 170.6 18.6001 170.7 18.7001 170.8C18.9001 170.9 19.0001 171.1 19.0001 171.3H19.8001C19.7001 170.9 19.5001 170.5 19.2001 170.2C18.9001 169.9 18.5001 169.8 18.0001 169.8C17.6001 169.8 17.3001 169.9 17.0001 170.1C16.7001 170.3 16.5001 170.5 16.4001 170.7C16.3001 170.8 16.3001 171 16.2001 171.2C16.2001 171.4 16.1001 171.8 16.1001 172.4C16.1001 173 16.1001 173.4 16.2001 173.6C16.2001 173.7 16.2001 173.8 16.3001 173.9C16.3001 174 16.4001 174 16.4001 174.1C16.5001 174.3 16.7001 174.5 17.0001 174.7C17.3001 174.9 17.6001 175 18.0001 175C18.5001 175 19.0001 174.8 19.3001 174.5C19.6001 174.2 19.8001 173.7 19.8001 173.2V172.2H18.0001V172.9H19.0001V173.2C19.0001 173.5 18.9001 173.8 18.7001 174C18.5001 174.2 18.3001 174.3 18.0001 174.3C17.8001 174.3 17.7001 174.3 17.5001 174.2C17.4001 174.1 17.3001 174 17.2001 173.9C17.1001 173.8 17.0001 173.6 17.0001 173.5C17.0001 173.3 16.9001 173 16.9001 172.5C16.9001 172 16.9001 171.7 17.0001 171.5C17.2001 171.2 17.2001 171.1 17.3001 171Z" fill="#4F4747"/>
<path d="M25.1001 169.9V175H28.4001V174.3H25.9001V169.9H25.1001Z" fill="#4F4747"/>
<path d="M34.1999 169.9H33.3999V175H34.1999V169.9Z" fill="#4F4747"/>
<path d="M40.4001 171.4L42.7001 175H43.4001V169.9H42.6001V173.5L40.3001 169.9H39.6001V175H40.4001V171.4Z" fill="#4F4747"/>
<path d="M52.0001 170.6V169.9H48.8V175H52.0001V174.3H49.6001V172.8H51.7001V172.1H49.6001V170.6H52.0001Z" fill="#4F4747"/>
<path d="M63 173.9C63 174 63.1 174 63.1 174.1C63.2 174.3 63.4 174.5 63.7 174.7C64 174.9 64.3 175 64.7 175C65.2 175 65.7 174.8 66 174.5C66.3 174.2 66.5 173.7 66.5 173.2V172.2H64.7V172.9H65.7V173.2C65.7 173.5 65.5999 173.8 65.3999 174C65.1999 174.2 65 174.3 64.7 174.3C64.5 174.3 64.4 174.3 64.2 174.2C64.1 174.1 63.9999 174 63.8999 173.9C63.7999 173.8 63.7 173.6 63.7 173.5C63.7 173.3 63.6 173 63.6 172.5C63.6 172 63.6 171.7 63.7 171.5C63.7 171.3 63.7999 171.2 63.8999 171.1C63.9999 171 64.1 170.9 64.2 170.8C64.3 170.7 64.5 170.7 64.7 170.7C64.9 170.7 65.1999 170.8 65.2999 170.9C65.4999 171 65.6 171.2 65.6 171.4H66.3999C66.2999 171 66.0999 170.6 65.7999 170.3C65.4999 170 65.1 169.9 64.6 169.9C64.2 169.9 63.9 170 63.6 170.2C63.3 170.4 63.1 170.6 63 170.8C62.9 170.9 62.8999 171.1 62.7999 171.3C62.7999 171.5 62.7 171.9 62.7 172.5C62.7 173.1 62.6999 173.5 62.7999 173.7C62.9999 173.7 63 173.8 63 173.9Z" fill="#4F4747"/>
<path d="M71.7 173.9C71.7 174 71.8 174 71.8 174.1C71.9 174.3 72.1 174.5 72.4 174.7C72.7 174.9 73 175 73.4 175C73.8 175 74.1 174.9 74.4 174.7C74.7 174.5 74.9 174.3 75 174.1C75.1 174 75.1 173.8 75.2 173.6C75.2 173.4 75.2 173 75.2 172.4C75.2 171.8 75.2 171.4 75.2 171.2C75.2 171 75.1 170.8 75 170.7C74.9 170.5 74.7 170.3 74.4 170.1C74.1 169.9 73.8 169.8 73.4 169.8C73 169.8 72.7 169.9 72.4 170.1C72.1 170.3 71.9 170.5 71.8 170.7C71.7 170.8 71.7 171 71.6 171.2C71.6 171.4 71.5 171.8 71.5 172.4C71.5 173 71.5 173.4 71.6 173.6C71.7 173.7 71.7 173.8 71.7 173.9ZM72.4 171.4C72.4 171.2 72.5 171.1 72.6 171C72.7 170.9 72.8 170.8 72.9 170.7C73 170.6 73.2 170.6 73.4 170.6C73.6 170.6 73.7 170.6 73.9 170.7C74 170.8 74.1 170.9 74.2 171C74.3 171.1 74.4 171.3 74.4 171.4C74.4 171.6 74.5 171.9 74.5 172.4C74.5 172.9 74.5 173.2 74.4 173.4C74.4 173.6 74.3 173.7 74.2 173.8C74.1 173.9 74 174 73.9 174.1C73.8 174.2 73.6 174.2 73.4 174.2C73.2 174.2 73.1 174.2 72.9 174.1C72.8 174 72.7 173.9 72.6 173.8C72.5 173.7 72.4 173.5 72.4 173.4C72.4 173.2 72.3 172.9 72.3 172.4C72.4 171.9 72.4 171.6 72.4 171.4Z" fill="#4F4747"/>
<path d="M83.6999 170.6V169.9H80.3999V175H83.6999V174.3H81.1999V172.8H83.2999V172.1H81.1999V170.6H83.6999Z" fill="#4F4747"/>
<path d="M90.2001 174.3C89.6001 174.3 89.2 174.1 88.8 173.8L88.3 174.4C88.8 174.9 89.5001 175.1 90.2001 175.1C91.4001 175.1 92.0001 174.6 92.0001 173.6C92.0001 173.2 91.9001 172.9 91.7001 172.6C91.5001 172.3 91.1001 172.2 90.6001 172.1C90.4001 172.1 90.2001 172 90.0001 172C89.7001 172 89.6001 171.9 89.5001 171.7C89.4001 171.6 89.3 171.4 89.3 171.3C89.3 171.1 89.4001 170.9 89.6001 170.7C89.8001 170.6 90.0001 170.5 90.2001 170.5C90.7001 170.5 91.1001 170.6 91.5001 170.9L91.9 170.3C91.4 170 90.9001 169.8 90.2001 169.8C89.7001 169.8 89.3001 169.9 89.0001 170.2C88.7001 170.5 88.6001 170.8 88.6001 171.3C88.6001 171.7 88.7001 172 89.0001 172.2C89.2001 172.5 89.6001 172.6 90.0001 172.7C90.2001 172.7 90.5001 172.8 90.7001 172.8C91.1001 172.9 91.4 173.1 91.4 173.5C91.2 174 90.9001 174.3 90.2001 174.3Z" fill="#4F4747"/>
<path d="M106.7 175V169.9H105.9V172.1H103.9V169.9H103.1V175H103.9V172.8H105.9V175H106.7Z" fill="#4F4747"/>
<path d="M115.3 170.6V169.9H112.1V175H115.3V174.3H112.9V172.8H115V172.1H112.9V170.6H115.3Z" fill="#4F4747"/>
<path d="M123.9 171.3C123.9 170.8 123.7 170.5 123.4 170.2C123.1 170 122.8 169.9 122.4 169.9H120.4V175H121.2V172.8H122.2L123.3 175H124.2L123 172.7C123.6 172.5 123.9 172 123.9 171.3ZM123 171.9C122.9 172.1 122.6 172.1 122.3 172.2H121.1V170.7H122.3C122.5 170.7 122.7 170.8 122.9 170.9C123.1 171 123.2 171.2 123.2 171.5C123.2 171.5 123.1 171.7 123 171.9Z" fill="#4F4747"/>
<path d="M132.3 170.6V169.9H129V175H132.3V174.3H129.8V172.8H131.9V172.1H129.8V170.6H132.3Z" fill="#4F4747"/>
</svg>
