<svg width="142" height="156" viewBox="0 0 142 156" fill="none" xmlns="http://www.w3.org/2000/svg">
<path d="M42.8999 38.6008H44.8999V40.6008V72.3008L54.2 63.0008V29.3008H21.7V95.6008L31 86.2008V40.6008V38.6008H33H42.8999Z" fill="#A3A3A3"/>
<path d="M79.4999 75.2004H81.5999V77.3004V87.1004V89.2004H79.4999H38.5999L29.2999 98.5004H90.8999V65.9004H61.8999L52.5999 75.2004H79.4999Z" fill="#A3A3A3"/>
<path d="M110.9 36.9992V39.0992H108.8H88.6999L79.3999 48.3992H120.2V7.69922L110.9 16.9992V36.9992Z" fill="#A3A3A3"/>
<path d="M107.9 9.3L117.2 0H71.7999V45.5L81.0999 36.2V11.4V9.3H83.0999H107.9Z" fill="#A3A3A3"/>
<path d="M0 149.3H1.7V154.8H2.7V149.3H4.4V148.5H0V149.3Z" fill="#A3A3A3"/>
<path d="M13.2 153.4H15.5999L16.0999 154.8H17.0999L14.7999 148.5H14L11.7 154.8H12.7L13.2 153.4ZM14.3999 149.8L15.2999 152.6H13.5L14.3999 149.8Z" fill="#A3A3A3"/>
<path d="M26.6 149.8C26.7 149.7 26.8 149.6 27 149.5C27.2 149.4 27.4 149.4 27.6 149.4C27.9 149.4 28.2 149.5 28.4 149.7C28.6 149.9 28.7 150.1 28.8 150.3H29.8C29.7 149.8 29.5 149.3 29.1 149C28.7 148.6 28.2 148.5 27.6 148.5C27.1 148.5 26.7 148.6 26.4 148.9C26.1 149.1 25.8 149.4 25.7 149.7C25.6 149.9 25.5 150.1 25.5 150.3C25.5 150.5 25.4 151 25.4 151.8C25.4 152.5 25.4 153 25.5 153.3C25.5 153.4 25.6 153.5 25.6 153.6C25.6 153.7 25.7 153.8 25.7 153.9C25.9 154.2 26.1 154.4 26.4 154.7C26.7 154.9 27.1 155.1 27.6 155.1C28.2 155.1 28.8 154.9 29.2 154.4C29.6 154 29.8 153.4 29.8 152.8V151.5H27.6V152.4H28.9V152.7C28.9 153.1 28.8 153.4 28.5 153.7C28.3 154 28 154.1 27.6 154.1C27.4 154.1 27.2 154.1 27 154C26.8 153.9 26.7 153.8 26.6 153.7C26.5 153.6 26.4 153.4 26.4 153.2C26.4 153 26.3 152.6 26.3 151.9C26.3 151.3 26.3 150.9 26.4 150.6C26.4 150.2 26.5 150 26.6 149.8Z" fill="#A3A3A3"/>
<path d="M41.2 148.5V154.8H45.2V153.9H42.1V148.5H41.2Z" fill="#A3A3A3"/>
<path d="M55.1 148.5H54.1V154.8H55.1V148.5Z" fill="#A3A3A3"/>
<path d="M68 153L65.2001 148.5H64.3V154.8H65.3V150.3L68.1001 154.8H69V148.5H68.1001V153H68Z" fill="#A3A3A3"/>
<path d="M82.3 149.4V148.5H78.3V154.8H82.3V153.9H79.3V152H81.9V151.2H79.3V149.4H82.3Z" fill="#A3A3A3"/>
<path d="M102.2 154.8V148.5H101.2V151.2H98.7001V148.5H97.8V154.8H98.7001V152H101.2V154.8H102.2Z" fill="#A3A3A3"/>
<path d="M115.5 149.4V148.5H111.5V154.8H115.5V153.9H112.4V152H115.1V151.2H112.4V149.4H115.5Z" fill="#A3A3A3"/>
<path d="M127.5 152C128.3 151.7 128.7 151.1 128.7 150.3C128.7 149.7 128.5 149.3 128.1 149C127.8 148.7 127.3 148.6 126.8 148.6H124.3V154.9H125.3V152.2H126.5L127.8 154.9H128.9L127.5 152ZM125.3 151.2V149.3H126.8C127.1 149.3 127.3 149.4 127.5 149.5C127.7 149.6 127.8 149.9 127.8 150.2C127.8 150.5 127.7 150.7 127.5 150.9C127.3 151.1 127.1 151.2 126.7 151.2H125.3Z" fill="#A3A3A3"/>
<path d="M137.7 154.8H141.8V153.9H138.7V152H141.3V151.2H138.7V149.4H141.8V148.5H137.7V154.8Z" fill="#A3A3A3"/>
<path d="M9.09998 136.701C8.59998 137.701 7.79998 138.101 6.69998 138.101C5.59998 138.101 4.79998 137.801 4.09998 137.101C3.49998 136.401 3.19998 135.501 3.19998 134.401C3.19998 133.301 3.49998 132.401 4.09998 131.701C4.69998 131.001 5.59998 130.701 6.69998 130.701C7.79998 130.701 8.59998 131.201 9.09998 132.101H12.9C12.5 130.701 11.7 129.701 10.5 128.901C9.39998 128.101 8.09998 127.801 6.69998 127.801C4.79998 127.801 3.29998 128.401 1.99998 129.701C0.699977 131.001 0.0999756 132.501 0.0999756 134.501C0.0999756 136.401 0.699977 138.001 1.99998 139.301C3.29998 140.601 4.89998 141.201 6.69998 141.201C8.09998 141.201 9.39998 140.801 10.5 140.101C11.6 139.301 12.4 138.301 12.9 136.901H9.09998V136.701Z" fill="#A3A3A3"/>
<path d="M34.8 134.399C34.8 132.499 34.2 130.899 32.9 129.599C31.6 128.299 30 127.699 28.2 127.699C26.3 127.699 24.8 128.299 23.5 129.599C22.2 130.899 21.6 132.399 21.6 134.399C21.6 136.299 22.2 137.899 23.5 139.199C24.8 140.499 26.4 141.099 28.2 141.099C30.1 141.099 31.6 140.499 32.9 139.199C34.2 137.899 34.8 136.299 34.8 134.399ZM30.7 137.099C30.1 137.799 29.2 138.099 28.2 138.099C27.2 138.099 26.3 137.799 25.7 137.099C25.1 136.399 24.8 135.499 24.8 134.399C24.8 133.299 25.1 132.399 25.7 131.699C26.3 130.999 27.2 130.699 28.2 130.699C29.2 130.699 30.1 130.999 30.7 131.699C31.3 132.399 31.6 133.299 31.6 134.399C31.6 135.599 31.3 136.499 30.7 137.099Z" fill="#A3A3A3"/>
<path d="M59 128H55.4L51.6001 136.9L47.9 128H44.3V140.9H47.4V133.6L50.5 140.9H52.8L55.8 133.6V140.9H59V128Z" fill="#A3A3A3"/>
<path d="M72.3 135.9H74.3C75.2 135.9 76 135.8 76.6 135.5C77.3 135.2 77.8 134.9 78.1 134.5C78.7 133.7 79 132.8 79 132C79 130.9 78.6 130 77.7 129.2C76.9 128.4 75.7 128 74.2 128H69.1V141H72.3V135.9ZM72.3 130.4H74.3C74.8 130.4 75.1 130.5 75.4 130.8C75.7 131.1 75.8 131.5 75.8 131.9C75.8 132.4 75.7 132.7 75.4 133C75.1 133.3 74.7 133.4 74.3 133.4H72.3V130.4Z" fill="#A3A3A3"/>
<path d="M95.5 127.9H91.6L87.1 140.9H90.5L91.2 138.7H95.9L96.6 140.9H100L95.5 127.9ZM92 136.4L93.5 131.8L95 136.4H92Z" fill="#A3A3A3"/>
<path d="M120.6 140.9V127.9H117.4V136.1L112.1 127.9H109V140.9H112.1V132.8L117.4 140.9H120.6Z" fill="#A3A3A3"/>
<path d="M135.8 133.8L133.3 128H129.7L134.2 136.8V140.9H137.3V136.8L141.8 128H138.2L135.8 133.8Z" fill="#A3A3A3"/>
</svg>
