<svg width="134" height="154" viewBox="0 0 134 154" fill="none" xmlns="http://www.w3.org/2000/svg">
<path d="M1.7 153.5H2.6V148.3H4.2V147.5H0V148.3H1.7V153.5Z" fill="#4F4747"/>
<path d="M14 147.5H13.2L11 153.4H12L12.5 152.1H14.7L15.2 153.4H16.1L14 147.5ZM12.8 151.3L13.7 148.7L14.6 151.3H12.8Z" fill="#4F4747"/>
<path d="M25.1001 148.8C25.2001 148.7 25.3 148.6 25.5 148.5C25.7 148.4 25.8 148.4 26 148.4C26.3 148.4 26.5001 148.5 26.7001 148.6C26.9001 148.8 27.0001 149 27.1001 149.2H28.1001C28.0001 148.7 27.8001 148.3 27.4001 148C27.0001 147.7 26.6 147.5 26 147.5C25.5 147.5 25.1 147.6 24.8 147.8C24.5 148 24.3001 148.3 24.1001 148.5C24.0001 148.6 23.9001 148.8 23.9001 149.1C23.9001 149.3 23.8 149.8 23.8 150.5C23.8 151.2 23.8001 151.6 23.9001 151.9C23.9001 152 23.9 152.1 24 152.2C24 152.3 24.1001 152.4 24.1001 152.5C24.2001 152.8 24.5 153 24.8 153.2C25.1 153.4 25.5 153.5 26 153.5C26.6 153.5 27.1 153.3 27.5 152.9C27.9 152.5 28.1001 152 28.1001 151.4V150.2H26V151.1H27.2001V151.4C27.2001 151.8 27.1001 152.1 26.9001 152.3C26.7001 152.5 26.4 152.7 26 152.7C25.8 152.7 25.6 152.7 25.5 152.6C25.3 152.5 25.2001 152.4 25.1001 152.3C25.0001 152.2 24.9001 152 24.9001 151.8C24.9001 151.6 24.8 151.2 24.8 150.6C24.8 150 24.8001 149.6 24.9001 149.4C24.9001 149.1 25.0001 148.9 25.1001 148.8Z" fill="#4F4747"/>
<path d="M39.4 147.5V153.5H43.2V152.6H40.3V147.5H39.4Z" fill="#4F4747"/>
<path d="M52.4 147.5H51.5V153.4H52.4V147.5Z" fill="#4F4747"/>
<path d="M61.2 147.5V153.5H62.1V149.2L64.7 153.5H65.6V147.5H64.7V151.7L62 147.5H61.2Z" fill="#4F4747"/>
<path d="M78.1 148.4V147.5H74.4V153.5H78.1V152.6H75.2V150.9H77.7V150.1H75.2V148.4H78.1Z" fill="#4F4747"/>
<path d="M96.3 153.5V147.5H95.4V150.1H93V147.5H92.1V153.5H93V150.9H95.4V153.5H96.3Z" fill="#4F4747"/>
<path d="M108.8 148.4V147.5H105V153.5H108.8V152.6H105.9V150.9H108.4V150.1H105.9V148.4H108.8Z" fill="#4F4747"/>
<path d="M120.1 150.8C120.9 150.5 121.2 150 121.3 149.2C121.3 148.7 121.1 148.2 120.7 147.9C120.4 147.6 120 147.5 119.5 147.5H117.2V153.4H118.1V150.9H119.2L120.4 153.4H121.5L120.1 150.8ZM118 150.1V148.3H119.4C119.7 148.3 119.9 148.4 120.1 148.5C120.3 148.6 120.4 148.9 120.4 149.2C120.4 149.5 120.3 149.7 120.1 149.9C119.9 150.1 119.7 150.2 119.3 150.2H118V150.1Z" fill="#4F4747"/>
<path d="M133.5 148.4V147.5H129.7V153.5H133.5V152.6H130.6V150.9H133.1V150.1H130.6V148.4H133.5Z" fill="#4F4747"/>
<path d="M6.3 140.5C7.7 140.5 8.9 140.1 9.9 139.4C11 138.7 11.7 137.7 12.1 136.4H8.5C8 137.3 7.3 137.7 6.3 137.7C5.3 137.7 4.5 137.4 3.9 136.7C3.3 136.1 3 135.2 3 134.1C3 133 3.3 132.2 3.9 131.5C4.5 130.9 5.3 130.5 6.3 130.5C7.3 130.5 8.1 130.9 8.5 131.8H12.1C11.7 130.5 10.9 129.5 9.9 128.8C8.8 128.1 7.6 127.7 6.3 127.7C4.5 127.7 3.1 128.3 1.8 129.5C0.599999 130.7 0 132.2 0 134C0 135.8 0.599999 137.3 1.8 138.5C3.1 140 4.6 140.5 6.3 140.5Z" fill="#4F4747"/>
<path d="M32.8 134.3C32.8 132.5 32.2 131 31 129.8C29.8 128.6 28.3001 128 26.6001 128C24.8001 128 23.4001 128.6 22.1001 129.8C20.9001 131 20.3 132.5 20.3 134.3C20.3 136.1 20.9001 137.6 22.1001 138.8C23.3001 140 24.8001 140.6 26.6001 140.6C28.4001 140.6 29.8 140 31 138.8C32.2 137.6 32.8 136.1 32.8 134.3ZM28.9001 136.9C28.3001 137.5 27.5 137.9 26.5 137.9C25.5 137.9 24.7001 137.6 24.1001 136.9C23.5001 136.3 23.2001 135.4 23.2001 134.3C23.2001 133.2 23.5001 132.4 24.1001 131.7C24.7001 131.1 25.5 130.7 26.5 130.7C27.5 130.7 28.3001 131 28.9001 131.7C29.5001 132.3 29.8 133.2 29.8 134.3C29.8 135.4 29.5001 136.2 28.9001 136.9Z" fill="#4F4747"/>
<path d="M55.6 128.2H52.2L48.7 136.6L45.2 128.2H41.7V140.4H44.7V133.5L47.6 140.4H49.7999L52.6 133.5V140.4H55.6V128.2Z" fill="#4F4747"/>
<path d="M68.2 135.7H70C70.8 135.7 71.6 135.6 72.2 135.3C72.8 135.1 73.3 134.7 73.6 134.3C74.2 133.5 74.5 132.7 74.5 131.9C74.5 130.9 74.0999 130 73.2999 129.3C72.4999 128.6 71.4 128.2 70 128.2H65.2V140.4H68.2V135.7ZM68.2 130.5H70C70.4 130.5 70.8 130.6 71.1 130.9C71.4 131.2 71.5 131.5 71.5 132C71.5 132.4 71.4 132.8 71.1 133.1C70.8 133.4 70.5 133.5 70 133.5H68.2V130.5Z" fill="#4F4747"/>
<path d="M86.4 128.2L82.1 140.5H85.3L86 138.4H90.4L91.1 140.5H94.3L90.1 128.2H86.4ZM86.7 136.1L88.1 131.7L89.5 136.1H86.7Z" fill="#4F4747"/>
<path d="M113.6 140.4V128.2H110.6V135.9L105.6 128.2H102.6V140.4H105.6V132.7L110.6 140.4H113.6Z" fill="#4F4747"/>
<path d="M126.4 136.5V140.4H129.3V136.5L133.6 128.2H130.2L127.9 133.7L125.5 128.2H122.1L126.4 136.5Z" fill="#4F4747"/>
<path d="M74.9999 14.7998C76.8999 17.3998 78.3999 20.3998 79.4999 23.4998C80.8999 23.6998 82.1999 23.8998 83.4999 24.1998C83.6999 24.2998 83.8999 24.2998 84.1999 24.3998C84.2999 24.3998 84.2999 24.3998 84.3999 24.3998C84.6999 24.4998 84.9999 24.4998 85.1999 24.5998C85.4999 24.6998 85.6999 24.7998 85.9999 24.7998C86.1999 24.8998 86.4999 24.8998 86.6999 24.9998C86.8999 25.0998 87.1999 25.1998 87.3999 25.1998C87.5999 25.2998 87.7999 25.3998 88.0999 25.3998C88.2999 25.4998 88.4999 25.5998 88.6999 25.5998C89.9999 26.0998 91.1999 26.5998 92.3999 27.2998C92.6999 27.3998 92.9999 27.5998 93.2999 27.7998C93.7999 28.0998 94.2999 28.2998 94.6999 28.5998C94.8999 28.6998 95.0999 28.7998 95.2999 28.9998C95.3999 29.0998 95.4999 29.0998 95.5999 29.1998C95.7999 29.2998 95.9999 29.4998 96.1999 29.5998C96.3999 29.6998 96.5999 29.8998 96.7999 29.9998C99.0999 31.5998 101.2 33.3998 103.1 35.3998C103.3 35.5998 103.5 35.8998 103.8 36.0998C104 36.2998 104.1 36.4998 104.3 36.6998C104.6 36.9998 104.9 37.2998 105.1 37.6998C105.3 37.8998 105.4 38.0998 105.6 38.2998C105.8 38.5998 106 38.7998 106.2 39.0998C106.4 39.3998 106.6 39.5998 106.8 39.8998C107 40.1998 107.2 40.3998 107.3 40.6998C107.7 41.1998 108 41.7998 108.3 42.2998C108.5 42.5998 108.6 42.7998 108.8 43.0998C109 43.3998 109.1 43.6998 109.3 43.8998C109.6 44.4998 109.9 45.0998 110.2 45.6998C110.3 45.8998 110.4 46.1998 110.5 46.3998C110.6 46.5998 110.7 46.8998 110.8 47.0998C110.9 47.2998 111 47.4998 111.1 47.7998C111.2 47.9998 111.3 48.1998 111.3 48.3998C111.5 48.8998 111.7 49.3998 111.9 49.9998C112 50.2998 112.1 50.5998 112.2 50.8998C112.3 51.1998 112.4 51.4998 112.5 51.7998C112.7 52.6998 113 53.4998 113.1 54.3998C113.1 54.5998 113.2 54.7998 113.2 55.0998C113.2 55.1998 113.2 55.3998 113.3 55.4998C113.3 55.6998 113.4 55.7998 113.4 55.9998C113.4 56.1998 113.5 56.4998 113.5 56.6998C113.5 56.8998 113.6 57.1998 113.6 57.3998C113.6 57.4998 113.6 57.5998 113.6 57.6998C113.6 57.8998 113.6 58.0998 113.7 58.2998C113.7 58.4998 113.7 58.6998 113.7 58.7998C113.7 59.0998 113.8 59.2998 113.8 59.5998C113.8 59.8998 113.8 60.1998 113.9 60.5998C113.9 60.8998 113.9 61.2998 113.9 61.5998C113.9 61.8998 113.9 62.2998 113.9 62.5998C113.9 84.5998 95.9999 102.4 74.0999 102.4C73.7999 102.4 73.3999 102.4 73.0999 102.4C72.7999 102.4 72.3999 102.4 72.0999 102.4C71.7999 102.4 71.3999 102.4 71.0999 102.3C70.7999 102.3 70.4999 102.2 70.1999 102.2C69.8999 102.2 69.6999 102.1 69.3999 102.1C69.1999 102.1 69.0999 102.1 68.8999 102C68.6999 102 68.3999 101.9 68.1999 101.9C68.1999 101.9 68.1999 101.9 68.0999 101.9C67.8999 101.9 67.5999 101.8 67.3999 101.8C67.1999 101.8 66.9999 101.7 66.7999 101.7C66.4999 101.6 66.1999 101.6 65.8999 101.5C64.2999 101.2 62.7999 100.8 61.2999 100.2C60.9999 100.1 60.6999 99.9998 60.3999 99.8998C60.0999 99.7998 59.7999 99.6998 59.5999 99.5998C59.1999 99.3998 58.7999 99.2998 58.4999 99.0998C58.2999 98.9998 57.9999 98.8998 57.7999 98.7998C57.4999 98.6998 57.2999 98.5998 56.9999 98.3998C56.6999 98.1998 56.3999 98.0998 55.9999 97.8998C55.6999 97.7998 55.4999 97.5998 55.1999 97.4998C54.8999 97.2998 54.5999 97.1998 54.2999 96.9998C53.9999 96.7998 53.6999 96.6998 53.4999 96.4998C52.9999 96.1998 52.4999 95.8998 51.9999 95.4998L51.8999 95.3998C51.5999 95.1998 51.3999 94.9998 51.0999 94.8998C50.7999 94.6998 50.5999 94.4998 50.2999 94.2998C49.9999 94.0998 49.7999 93.8998 49.4999 93.6998C49.2999 93.4998 49.0999 93.3998 48.8999 93.1998C48.5999 92.8998 48.2999 92.6998 47.8999 92.3998C47.6999 92.1998 47.4999 91.9998 47.2999 91.7998C47.0999 91.5998 46.7999 91.3998 46.5999 91.0998C46.3999 90.8998 46.0999 90.6998 45.8999 90.3998C45.4999 89.9998 44.9999 89.4998 44.5999 89.0998C44.3999 88.8998 44.1999 88.5998 43.8999 88.2998C43.4999 87.7998 43.0999 87.2998 42.6999 86.7998C42.4999 86.4998 42.1999 86.1998 41.9999 85.8998C41.8999 85.6998 41.6999 85.4998 41.5999 85.3998C41.5999 85.2998 41.4999 85.2998 41.4999 85.1998C41.2999 84.9998 41.1999 84.6998 40.9999 84.4998C40.7999 84.2998 40.6999 83.9998 40.4999 83.7998C40.2999 83.4998 40.0999 83.1998 39.8999 82.7998C39.5999 82.2998 39.2999 81.6998 38.9999 81.1998C38.3999 80.0998 37.8999 79.0998 37.3999 77.8998C37.2999 77.5998 37.1999 77.3998 37.0999 77.0998C36.9999 76.8998 36.8999 76.6998 36.8999 76.4998C36.7999 76.2998 36.7999 76.0998 36.6999 75.9998C36.5999 75.7998 36.5999 75.5998 36.4999 75.3998C36.3999 75.0998 36.2999 74.8998 36.1999 74.5998C36.0999 74.2998 35.9999 74.0998 35.8999 73.7998V73.6998C35.7999 73.3998 35.6999 73.1998 35.6999 72.8998C35.5999 72.5998 35.4999 72.2998 35.4999 71.9998C35.2999 71.0998 35.0999 70.1998 34.8999 69.2998C34.7999 68.9998 34.7999 68.6998 34.6999 68.3998C34.6999 68.0998 34.5999 67.7998 34.5999 67.4998C31.4999 66.3998 28.5999 64.8998 25.8999 62.9998C26.3999 89.1998 47.6999 110.3 74.0999 110.3C100.7 110.3 122.3 88.6998 122.3 62.0998C122.4 36.5998 101.2 15.1998 74.9999 14.7998ZM34.5999 59.1998C34.5999 58.8998 34.6999 58.5998 34.6999 58.2998C34.6999 57.9998 34.7999 57.6998 34.7999 57.3998C34.7999 57.0998 34.8999 56.7998 34.8999 56.4998C34.8999 56.1998 34.9999 55.8998 34.9999 55.5998C35.1999 54.3998 35.4999 53.2998 35.7999 52.1998C35.8999 51.8998 35.9999 51.5998 35.9999 51.3998C36.0999 51.1998 36.0999 50.9998 36.1999 50.7998C36.1999 50.6998 36.2999 50.5998 36.2999 50.4998C36.3999 50.2998 36.4999 49.9998 36.4999 49.7998C36.5999 49.5998 36.5999 49.3998 36.6999 49.1998C36.6999 49.0998 36.7999 48.8998 36.7999 48.7998C36.9999 48.2998 37.1999 47.8998 37.3999 47.3998C37.5999 46.8998 37.8999 46.2998 38.0999 45.7998C38.1999 45.4998 38.2999 45.2998 38.4999 45.0998C38.5999 44.8998 38.6999 44.7998 38.6999 44.5998C38.7999 44.3998 38.8999 44.1998 38.9999 43.9998C38.9999 43.8998 39.0999 43.8998 39.0999 43.7998C39.1999 43.4998 39.3999 43.2998 39.4999 43.0998C39.5999 42.8998 39.7999 42.6998 39.8999 42.3998C39.9999 42.1998 40.0999 41.9998 40.1999 41.7998C40.2999 41.5998 40.3999 41.4998 40.4999 41.2998C40.9999 40.5998 41.3999 39.8998 41.8999 39.1998C42.0999 38.9998 42.1999 38.6998 42.3999 38.4998C42.4999 38.2998 42.6999 38.1998 42.7999 37.9998C43.1999 37.4998 43.5999 36.9998 43.9999 36.4998C44.1999 36.2998 44.3999 36.0998 44.4999 35.8998C44.8999 35.4998 45.2999 35.0998 45.6999 34.6998C45.8999 34.4998 45.9999 34.3998 46.1999 34.1998C46.4999 33.8998 46.6999 33.6998 46.9999 33.4998C47.1999 33.2998 47.3999 33.1998 47.5999 32.9998C47.8999 32.6998 48.2999 32.3998 48.6999 32.0998C48.8999 31.9998 49.0999 31.7998 49.2999 31.6998C50.0999 31.0998 50.8999 30.4998 51.7999 29.8998C51.9999 29.6998 52.2999 29.5998 52.4999 29.3998C52.6999 29.2998 52.8999 29.0998 53.0999 28.9998C53.1999 28.8998 53.3999 28.7998 53.5999 28.6998C53.7999 28.5998 53.9999 28.3998 54.2999 28.2998C54.5999 28.0998 54.8999 27.9998 55.0999 27.7998C55.3999 27.5998 55.6999 27.4998 55.9999 27.2998C56.2999 27.1998 56.5999 26.9998 56.8999 26.8998C57.3999 26.6998 57.8999 26.3998 58.4999 26.1998C58.8999 25.9998 59.2999 25.8998 59.6999 25.6998C59.9999 25.5998 60.1999 25.4998 60.4999 25.3998C60.6999 25.2998 60.9999 25.1998 61.1999 25.0998C61.2999 25.0998 61.3999 24.9998 61.5999 24.9998C61.8999 24.8998 62.0999 24.7998 62.3999 24.6998C62.6999 24.5998 62.9999 24.4998 63.2999 24.3998C63.5999 24.2998 63.8999 24.1998 64.1999 24.0998C64.4999 23.9998 64.7999 23.9998 64.9999 23.8998C65.1999 23.8998 65.3999 23.7998 65.5999 23.7998C65.6999 23.7998 65.7999 23.7998 65.8999 23.6998C66.0999 23.6998 66.1999 23.5998 66.3999 23.5998C66.6999 23.4998 66.9999 23.4998 67.2999 23.3998C67.4999 23.3998 67.6999 23.2998 67.8999 23.2998C68.0999 23.2998 68.2999 23.1998 68.4999 23.1998C69.0999 23.0998 69.5999 23.0998 70.1999 22.9998C68.7999 20.0998 66.8999 17.5998 64.5999 15.3998C45.5999 19.1998 30.5999 34.1998 26.7999 53.2998C29.1999 55.8998 31.6999 57.7998 34.5999 59.1998Z" fill="#4F4747"/>
<path d="M80.7999 28.6C78.7 28.2 76.5 28 74.2 28C73.5 28 72.8 28 72.1 28.1C72.7 30.3 73 32.7 73 35.1C73 49.9 61 61.9 46.2 61.9C43.7999 61.9 41.5 61.6 39.2999 61C39.2999 61.7 39.2 62.3 39.2 63C39.2 65.3 39.4 67.5 39.7999 69.7C41.9 70.1 44 70.3 46.2 70.3C65.6 70.3 81.2999 54.6 81.2999 35.2C81.3999 32.9 81.2 30.7 80.7999 28.6ZM46.2999 0C26.9 0 11.2 15.7 11.2 35.1C11.2 44.7 14.9999 53.4 21.2999 59.7C21.4999 55.9 22.2 52.1 23.2 48.5C20.9 44.6 19.6 40 19.6 35.1C19.6 20.3 31.5999 8.3 46.3999 8.3C51.2999 8.3 55.7999 9.6 59.7 11.9C63.2999 10.9 67.0999 10.2 70.8999 10C64.4999 3.8 55.8999 0 46.2999 0Z" fill="#4F4747"/>
</svg>
