<svg width="133" height="135" viewBox="0 0 133 135" fill="none" xmlns="http://www.w3.org/2000/svg">
<path d="M12.7 119.1V119L10.6 118.5V118.6C10.3 119.7 9.9 120.6 9.2 121.2C8.5 121.8 7.6 122.1 6.6 122.1C5.8 122.1 5 121.9 4.3 121.5C3.6 121.1 3.1 120.4 2.7 119.6C2.3 118.7 2.2 117.7 2.2 116.6C2.2 115.7 2.3 114.8 2.6 114C2.9 113.2 3.4 112.5 4.1 112C4.8 111.5 5.7 111.3 6.8 111.3C7.7 111.3 8.5 111.5 9.1 112C9.7 112.4 10.2 113.2 10.5 114.1V114.2L12.6 113.7V113.6C12.2 112.3 11.5 111.3 10.5 110.5C9.5 109.8 8.3 109.4 6.9 109.4C5.6 109.4 4.5 109.7 3.4 110.2C2.4 110.8 1.5 111.6 0.900002 112.7C0.300002 113.8 0 115.1 0 116.5C0 117.8 0.299999 119.1 0.799999 120.3C1.3 121.5 2.1 122.4 3 123C4 123.6 5.2 123.9 6.8 123.9C8.3 123.9 9.6 123.5 10.6 122.7C11.6 121.9 12.3 120.7 12.7 119.1Z" fill="#A3A3A3"/>
<path d="M29.8 110.201C28.7 109.601 27.5001 109.301 26.2001 109.301C24.2001 109.301 22.5001 110.001 21.2001 111.301C19.9001 112.601 19.3 114.501 19.3 116.801C19.3 118.001 19.6001 119.201 20.1001 120.301C20.6001 121.401 21.5 122.301 22.5 122.901C23.6 123.601 24.8001 123.901 26.1001 123.901C27.4001 123.901 28.5001 123.601 29.6001 123.001C30.7001 122.401 31.5001 121.601 32.1001 120.401C32.7001 119.301 33.0001 118.001 33.0001 116.601C33.0001 115.201 32.7001 113.901 32.2001 112.801C31.7001 111.701 30.9 110.801 29.8 110.201ZM29.6001 120.601C28.7001 121.501 27.6 122.001 26.2001 122.001C24.9001 122.001 23.7 121.501 22.8 120.601C21.9 119.701 21.5 118.401 21.5 116.701C21.5 114.701 22.0001 113.201 22.9001 112.301C23.8001 111.401 25.0001 111.001 26.2001 111.001C27.1001 111.001 27.9001 111.201 28.7001 111.701C29.4001 112.101 30.0001 112.801 30.4001 113.601C30.8001 114.401 31.0001 115.401 31.0001 116.501C30.9001 118.301 30.5001 119.701 29.6001 120.601Z" fill="#A3A3A3"/>
<path d="M54.2 109.699H52.2V123.899H54.2V109.699Z" fill="#A3A3A3"/>
<path d="M47.3999 121.299L46.7999 119.599L43.3999 109.699H43.2V114.799L46.2999 123.799H48.2L51.3999 114.799V109.799L48 119.399C47.8 120.199 47.5999 120.899 47.3999 121.299Z" fill="#A3A3A3"/>
<path d="M42.6 109.699H40.5V123.899H42.6V109.699Z" fill="#A3A3A3"/>
<path d="M63.7 109.699H61.6V123.899H63.7V109.699Z" fill="#A3A3A3"/>
<path d="M71.0001 110.499C70.5001 110.199 69.9001 109.899 69.2001 109.799C68.7001 109.699 68.0001 109.699 67.0001 109.699H64.4V111.599H67.1001C67.9001 111.599 68.5 111.599 68.8 111.699C69.3 111.799 69.6 112.099 69.9 112.499C70.2 112.899 70.3 113.399 70.3 113.899C70.3 114.699 70.1001 115.199 69.6001 115.699C69.1001 116.099 68.3001 116.299 67.1001 116.299H64.3V118.199H67.1001C69.1001 118.199 70.6 117.799 71.3 116.899C72.1 116.099 72.5001 114.999 72.5001 113.799C72.5001 113.099 72.4001 112.399 72.1001 111.799C71.9001 111.299 71.5001 110.899 71.0001 110.499Z" fill="#A3A3A3"/>
<path d="M87.7 109.699H85.5L80 123.899H82.2L82.8 122.199L84.4 117.899L84.7 116.999L85.9 113.899C86.2 113.199 86.4 112.499 86.5 111.799C86.7 112.499 87 113.299 87.4 114.199L88.8 117.899H85.2L84.5 119.599H89.4L91.1 123.799H93.5L87.7 109.699Z" fill="#A3A3A3"/>
<path d="M103.5 114.3L109.3 122.8V119.2L103.5 110.6V114.3Z" fill="#A3A3A3"/>
<path d="M110.1 120.399V120.299V123.899H112.2V109.699H110.1V120.399Z" fill="#A3A3A3"/>
<path d="M102.8 109.699H100.8V123.899H102.8V109.699Z" fill="#A3A3A3"/>
<path d="M127.7 113.901C127.2 114.701 126.7 115.501 126.3 116.201L125.1 118.001V124.001H127.2V118.001L133 109.801H130.5L127.7 113.901Z" fill="#A3A3A3"/>
<path d="M124.9 113.999L122.1 109.699H119.5L124.6 117.199L125.8 115.399L124.9 113.999Z" fill="#A3A3A3"/>
<path d="M0 130.3H1.5V134.7H2.6V130.3H4.2V129.4H0V130.3Z" fill="#A3A3A3"/>
<path d="M14.3 129.4H13.2L11.1 134.7H12.2L12.6 133.5H14.7L15.2 134.7H16.4L14.3 129.4ZM13 132.6L13.7 130.6L14.4 132.6H13Z" fill="#A3A3A3"/>
<path d="M26.3 132.799H27.5V133.499C27.1 133.799 26.7 133.899 26.2 133.899C25.7 133.899 25.3 133.699 25.1 133.399C24.8 133.099 24.7 132.599 24.7 131.999C24.7 130.799 25.2 130.199 26.2 130.199C26.8 130.199 27.2 130.499 27.4 130.999L28.5 130.799C28.3 129.799 27.5 129.199 26.2 129.199C25.5 129.199 24.8 129.399 24.3 129.899C23.8 130.399 23.5 130.999 23.5 131.899C23.5 132.699 23.7 133.399 24.2 133.899C24.7 134.399 25.3 134.699 26.2 134.699C27.1 134.699 27.9 134.399 28.5 133.899V131.799H26.2V132.799H26.3Z" fill="#A3A3A3"/>
<path d="M40.4 129.4H39.3V134.7H43.0001V133.8H40.4V129.4Z" fill="#A3A3A3"/>
<path d="M51.7 129.4H50.6V134.7H51.7V129.4Z" fill="#A3A3A3"/>
<path d="M62.7 133L60.5 129.4H59.5V134.7H60.5V131.3L62.6 134.7H63.7V129.4H62.7V133Z" fill="#A3A3A3"/>
<path d="M72.7 132.4H75.3V131.5H72.7V130.3H75.5V129.4H71.6V134.7H75.6V133.8H72.7V132.4Z" fill="#A3A3A3"/>
<path d="M96.0999 131.5H93.9999V129.4H92.8999V134.7H93.9999V132.4H96.0999V134.7H97.1999V129.4H96.0999V131.5Z" fill="#A3A3A3"/>
<path d="M106.1 132.4H108.8V131.5H106.1V130.3H109V129.4H105.1V134.7H109.1V133.8H106.1V132.4Z" fill="#A3A3A3"/>
<path d="M119.7 132.4C120.6 132.3 121.1 131.8 121.1 130.9C121.1 130.3 120.9 129.9 120.6 129.7C120.3 129.5 119.7 129.4 119 129.4H116.7V134.7H117.8V132.5H118C118.3 132.5 118.5 132.5 118.7 132.6C118.8 132.7 119 132.8 119.1 133L120.3 134.7H121.6L121 133.7C120.5 133 120.1 132.6 119.7 132.4ZM118.7 131.7H117.9V130.4H118.7C119.3 130.4 119.6 130.4 119.8 130.5C120 130.6 120 130.8 120 131C120 131.3 119.9 131.5 119.7 131.6C119.6 131.6 119.2 131.7 118.7 131.7Z" fill="#A3A3A3"/>
<path d="M130 132.4H132.7V131.5H130V130.3H132.9V129.4H128.9V134.7H133V133.8H130V132.4Z" fill="#A3A3A3"/>
<path d="M61.8999 78.7V80.8H61.7999V80.9H59.7H33.2999H30.7999L31.2999 78.4C31.4 78 31.5 77.5 31.6 77.1C31.7 76.7 31.7999 76.3 31.8999 75.9L32 75.7L32.1 75.5C32.2 75.2 32.2999 74.9 32.3999 74.6C32.4999 74.4 32.6 74.1 32.6 73.9C32.7 73.6 32.7999 73.4 32.8999 73.1C32.9999 72.8 33.1999 72.4 33.2999 72.1C33.4 71.8 33.5 71.5 33.7 71.2C33.7 71.1 33.7999 71 33.8999 70.8C33.9999 70.5 34.0999 70.2 34.2999 70C34.4 69.9 34.4 69.8 34.5 69.7C34.6 69.4 34.7999 69.2 34.8999 68.9C34.8999 68.8 35 68.7 35.1 68.5C35.3 68.2 35.5 67.9 35.6 67.6C35.8 67.3 35.9 67 36.1 66.7L36.2 66.6C36.3 66.5 36.2999 66.4 36.3999 66.3L36.5 66.2C36.7 65.9 36.9 65.6 37.1 65.3C37.3 65 37.5999 64.6 37.7999 64.3C38 64.1 38.1999 63.8 38.3999 63.5L38.5 63.4C38.6 63.3 38.7 63.2 38.7 63.1C38.9 62.8 39.0999 62.6 39.2999 62.3C39.4 62.2 39.3999 62.2 39.3999 62.2C39.5999 61.9 39.9 61.7 40.1 61.4C40.2 61.3 40.1999 61.2 40.2999 61.2C40.5 60.9 40.8 60.7 41.1 60.3C43.7 57.7 46.6 55.6 49.7 53.9H34.2999C30.2999 58 27.0999 62.7 24.7999 68C22.3999 73.6 21.2 79.5 21.2 85.6V89.6V90.3H71V51.8V49.7V48.5V42.2V12V9.9H71.1H73.2H99.7H102.2L101.7 12.4C100.3 19.3 96.8999 25.6 91.8999 30.6C90.7999 31.7 89.7 32.6 88.6 33.5H101.7C104.3 30.3 106.5 26.7 108.1 22.8C110.5 17.2 111.7 11.3 111.7 5.2V0.5H61.8999V78.7Z" fill="#A3A3A3"/>
<path d="M30.5 40.4V38.3V12V9.5L33 10C39.9 11.4 46.2999 14.8 51.2999 19.8C51.5999 20.1 52 20.5 52.2999 20.9V8.4C49.5999 6.4 46.6 4.8 43.5 3.5C37.9 1.1 32 0 25.9 0H21.2V47H52.2999V40.4H32.6H30.5Z" fill="#A3A3A3"/>
<path d="M101.7 47.0004V49.1004V78.2004V80.7004L99.1999 80.2004C92.2999 78.8004 85.9998 75.4004 80.8998 70.4004C80.7998 70.3004 80.6999 70.2004 80.5999 70.1004V82.2004C83.0999 83.9004 85.7999 85.4004 88.6999 86.6004C94.2999 89.0004 100.2 90.1004 106.3 90.1004H111V40.4004H80.6999V47.0004H99.6999H101.7Z" fill="#A3A3A3"/>
</svg>
