<svg width="145" height="164" viewBox="0 0 145 164" fill="none" xmlns="http://www.w3.org/2000/svg">
<path d="M123.6 12.7C115.4 4.5 104.5 0 93 0C81.4 0 70.5 4.5 62.3 12.7C55.9 19.1 51.7 27.1 50.2 35.8C50 36.7 49.9 37.6 49.8 38.5C49.7 39.4 49.6 40.3 49.6 41.2C49.6 41.9 49.5 42.6 49.5 43.3V49.2V51.9V54.6V86.7H81.7H84.4H87.1C87.1 86 87.2 85.2 87.2 84.5V78.7H84.6H57.6V54.5V49.2V43.4C57.6 42.7 57.6 41.9 57.7 41.2C57.8 40.3 57.8 39.4 58 38.6C58.1 37.7 58.3 36.8 58.5 36C60 29.3 63.3 23.2 68.1 18.5C74.5 12.1 83.3 8.1 93.1 8.1C112.6 8.1 128.4 24 128.4 43.4C128.4 53.1 124.4 62 118 68.4C113.3 73.1 107.3 76.5 100.5 78V78.7V84.6C100.5 85.1 100.5 85.6 100.5 86.2C109.2 84.7 117.3 80.5 123.7 74.1C131.9 65.9 136.4 55 136.4 43.4C136.3 31.7 131.7 20.8 123.6 12.7Z" fill="#A3A3A3"/>
<path d="M57.5999 49.0996H60.1999H62.7999H86.9999V73.2996V75.8996V78.4996V84.2996C86.9999 84.9996 86.9999 85.7996 86.8999 86.4996C86.7999 87.3996 86.7999 88.2996 86.5999 89.0996C86.4999 89.9996 86.2999 90.8996 86.0999 91.6996C84.5999 98.3996 81.1999 104.5 76.4999 109.2C70.0999 115.6 61.2999 119.6 51.4999 119.6C32.2999 119.8 16.3999 103.9 16.3999 84.4996C16.3999 74.7996 20.3999 65.8996 26.7999 59.4996C31.4999 54.7996 37.4999 51.3996 44.2999 49.8996V43.2996C44.2999 42.7996 44.2999 42.2996 44.2999 41.6996C35.5999 43.1996 27.4999 47.3996 21.0999 53.7996C12.8999 61.9996 8.3999 72.8996 8.3999 84.4996C8.3999 96.0996 12.8999 107 21.0999 115.1C29.2999 123.3 40.1999 127.8 51.7999 127.8C63.3999 127.8 74.2999 123.3 82.4999 115.1C90.1999 107.4 94.5999 97.3996 95.0999 86.5996C95.0999 86.2996 95.0999 85.8996 95.0999 85.5996C95.0999 85.3996 95.0999 85.1996 95.0999 84.9996C95.0999 84.7996 95.0999 84.5996 95.0999 84.4996V78.5996V41.0996H62.8999H60.1999H57.4999C57.4999 41.7996 57.3999 42.5996 57.3999 43.2996L57.5999 49.0996Z" fill="#A3A3A3"/>
<path d="M9.2 149C8.5 149.6 7.5 150 6.5 150C4.3 150 2.5 148.2 2.5 146C2.5 143.8 4.3 142 6.5 142C7.5 142 8.5 142.4 9.2 143.1L11.1 141.2C9.9 140.1 8.3 139.4 6.6 139.4C3 139.4 0 142.4 0 146C0 149.6 3 152.6 6.6 152.6C8.4 152.6 10 151.9 11.1 150.8L9.2 149Z" fill="#A3A3A3"/>
<path d="M35 146.1C35 142.5 32 139.5 28.4 139.5C24.8 139.5 21.8 142.5 21.8 146.1C21.8 149.7 24.8 152.7 28.4 152.7C32.1 152.7 35 149.8 35 146.1ZM28.4 150.1C26.2 150.1 24.4 148.3 24.4 146.1C24.4 143.9 26.2 142.1 28.4 142.1C30.6 142.1 32.3 143.9 32.3 146.1C32.4 148.3 30.6 150.1 28.4 150.1Z" fill="#A3A3A3"/>
<path d="M60.0999 152.7V139.5H57.2L53.3999 149.2L49.4999 139.5H46.7V152.7H49.2999V146.1L51.9999 152.7H54.7999L57.3999 146.1V152.7H60.0999Z" fill="#A3A3A3"/>
<path d="M75.3999 139.5H71.7V152.7H74.2999V147.4H75.3999C77.5999 147.4 79.2999 145.6 79.2999 143.5C79.3999 141.3 77.5999 139.5 75.3999 139.5ZM75.3999 144.8H74.3999V142.2H75.4999C76.1999 142.2 76.7999 142.8 76.7999 143.5C76.6999 144.2 76.0999 144.8 75.3999 144.8Z" fill="#A3A3A3"/>
<path d="M96.9 139.5H94.1L89.3 152.7H92.1L93.4 149H97.5L98.8 152.7H101.6L96.9 139.5ZM94.4 146.4L95.5 143.4L96.6 146.4H94.4Z" fill="#A3A3A3"/>
<path d="M121.3 148.3L116 139.5H112.9V152.7H115.6V143.9L120.9 152.7H123.9V139.5H121.3V148.3Z" fill="#A3A3A3"/>
<path d="M141.3 152.7V146.4L144.7 139.5H141.8L140 143.2L138.2 139.5H135.2L138.7 146.4V152.7H141.3Z" fill="#A3A3A3"/>
<path d="M10 158.4L8 164H8.9L9.3 162.8H11.4L11.8 164H12.7L10.7 158.4H10ZM9.5 162L10.3 159.6L11.1 162H9.5Z" fill="#A3A3A3"/>
<path d="M18.8 159.601C18.9 159.501 19 159.401 19.2 159.301C19.3 159.201 19.5 159.201 19.7 159.201C20 159.201 20.2 159.301 20.4 159.401C20.6 159.601 20.7 159.701 20.8 160.001H21.7C21.6 159.501 21.4 159.101 21.1 158.801C20.8 158.501 20.3 158.301 19.8 158.301C19.4 158.301 19 158.401 18.7 158.601C18.4 158.801 18.2 159.001 18 159.301C17.9 159.401 17.9 159.601 17.8 159.801C17.8 160.001 17.7 160.501 17.7 161.101C17.7 161.701 17.7 162.201 17.8 162.401C17.8 162.501 17.8 162.601 17.9 162.701C17.9 162.801 18 162.901 18 162.901C18.1 163.201 18.4 163.401 18.7 163.601C19 163.801 19.4 163.901 19.8 163.901C20.4 163.901 20.8 163.701 21.2 163.301C21.6 162.901 21.8 162.501 21.8 161.901V160.801H19.8V161.601H20.9V161.901C20.9 162.201 20.8 162.501 20.6 162.701C20.4 162.901 20.1 163.001 19.8 163.001C19.6 163.001 19.4 163.001 19.3 162.901C19.2 162.801 19 162.701 18.9 162.601C18.8 162.501 18.7 162.301 18.7 162.101C18.7 161.901 18.6 161.501 18.6 161.001C18.6 160.501 18.6 160.101 18.7 159.901C18.6 159.901 18.7 159.701 18.8 159.601Z" fill="#A3A3A3"/>
<path d="M27.3999 158.4V164H30.9999V163.2H28.1999V158.4H27.3999Z" fill="#A3A3A3"/>
<path d="M37.3 158.4H36.5V164H37.3V158.4Z" fill="#A3A3A3"/>
<path d="M46.4999 162.3L43.9999 158.4H43.2V164H43.9999V160H44.0999L46.5999 164H47.3999V158.4H46.4999V162.3Z" fill="#A3A3A3"/>
<path d="M56.8 159.2V158.4H53.3V164H56.8V163.2H54.1V161.5H56.4V160.8H54.1V159.2H56.8Z" fill="#A3A3A3"/>
<path d="M69.7 158.6C69.4 158.8 69.1999 159 68.9999 159.3C68.8999 159.4 68.8999 159.6 68.7999 159.8C68.7999 160 68.7 160.5 68.7 161.1C68.7 161.7 68.6999 162.2 68.7999 162.4C68.7999 162.5 68.7999 162.6 68.8999 162.7C68.8999 162.8 68.9999 162.9 68.9999 162.9C69.0999 163.2 69.4 163.4 69.7 163.6C70 163.8 70.3999 163.9 70.7999 163.9C71.3999 163.9 71.8 163.7 72.2 163.3C72.6 162.9 72.7999 162.5 72.7999 161.9V160.8H70.7999V161.6H71.8999V161.9C71.8999 162.2 71.7999 162.5 71.5999 162.7C71.3999 162.9 71.0999 163 70.7999 163C70.5999 163 70.3999 163 70.2999 162.9C70.1999 162.8 69.9999 162.7 69.8999 162.6C69.7999 162.5 69.7 162.3 69.7 162.1C69.7 161.9 69.5999 161.5 69.5999 161C69.5999 160.5 69.6 160.1 69.7 159.9C69.7 159.7 69.7999 159.6 69.8999 159.4C69.9999 159.3 70.0999 159.2 70.2999 159.1C70.3999 159 70.5999 159 70.7999 159C71.0999 159 71.2999 159.1 71.4999 159.2C71.6999 159.4 71.7999 159.5 71.8999 159.8H72.7999C72.6999 159.3 72.5 158.9 72.2 158.6C71.9 158.3 71.3999 158.1 70.8999 158.1C70.2999 158.3 69.9 158.4 69.7 158.6Z" fill="#A3A3A3"/>
<path d="M78.4999 159.301C78.3999 159.401 78.3999 159.601 78.2999 159.801C78.2999 160.001 78.2 160.501 78.2 161.101C78.2 161.701 78.1999 162.201 78.2999 162.401C78.2999 162.501 78.2999 162.601 78.3999 162.701C78.3999 162.801 78.4999 162.901 78.4999 162.901C78.5999 163.201 78.9 163.401 79.2 163.601C79.5 163.801 79.8999 163.901 80.2999 163.901C80.6999 163.901 81.0999 163.801 81.3999 163.601C81.6999 163.401 81.8999 163.201 81.9999 162.901C82.0999 162.801 82.2 162.601 82.2 162.401C82.2 162.201 82.2 161.701 82.2 161.101C82.2 160.501 82.2 160.001 82.2 159.801C82.2 159.601 82.0999 159.401 81.9999 159.301C81.8999 159.001 81.6999 158.801 81.3999 158.601C81.0999 158.401 80.6999 158.301 80.2999 158.301C79.8999 158.301 79.5 158.401 79.2 158.601C78.8 158.801 78.5999 159.101 78.4999 159.301ZM79.2 160.001C79.2 159.801 79.2999 159.701 79.3999 159.501C79.4999 159.401 79.5999 159.301 79.7999 159.201C79.8999 159.101 80.0999 159.101 80.2999 159.101C80.4999 159.101 80.6999 159.101 80.7999 159.201C80.8999 159.301 81.0999 159.401 81.0999 159.501C81.1999 159.601 81.2999 159.801 81.2999 160.001C81.2999 160.201 81.3999 160.601 81.3999 161.101C81.3999 161.601 81.3999 162.001 81.2999 162.201C81.2999 162.401 81.1999 162.601 81.0999 162.701C80.9999 162.801 80.8999 162.901 80.7999 163.001C80.6999 163.101 80.4999 163.101 80.2999 163.101C80.0999 163.101 79.8999 163.101 79.7999 163.001C79.6999 162.901 79.4999 162.801 79.3999 162.701C79.2999 162.601 79.2 162.401 79.2 162.201C79.2 162.001 79.0999 161.601 79.0999 161.101C79.0999 160.601 79.1 160.201 79.2 160.001Z" fill="#A3A3A3"/>
<path d="M87.8999 164H91.4999V163.2H88.7999V161.5H91.0999V160.8H88.7999V159.2H91.4999V158.4H87.8999V164Z" fill="#A3A3A3"/>
<path d="M98.7 163.201C98.1 163.201 97.6 163.001 97.1 162.601L96.5 163.201C97.1 163.701 97.8 164.001 98.6 164.001C99.9 164.001 100.5 163.401 100.6 162.401C100.6 162.001 100.5 161.701 100.2 161.401C99.9 161.101 99.6 160.901 99 160.801C98.7 160.801 98.5 160.701 98.4 160.701C98.1 160.601 97.9 160.601 97.8 160.401C97.7 160.301 97.6 160.101 97.6 160.001C97.6 159.701 97.7 159.501 97.9 159.401C98.1 159.301 98.3 159.201 98.6 159.201C99.1 159.201 99.6 159.401 100 159.601L100.5 158.901C100 158.501 99.4 158.301 98.7 158.301C98.1 158.301 97.7 158.501 97.4 158.801C97.1 159.101 96.9 159.501 96.9 160.001C96.9 160.401 97 160.801 97.3 161.001C97.6 161.301 97.9 161.501 98.4 161.501C98.7 161.501 98.9 161.601 99.1 161.601C99.6 161.701 99.8 161.901 99.8 162.401C99.8 162.901 99.4 163.201 98.7 163.201Z" fill="#A3A3A3"/>
<path d="M112.8 164H113.7V161.5H115.9V164H116.7V158.4H115.9V160.8H113.7V158.4H112.8V164Z" fill="#A3A3A3"/>
<path d="M126.2 159.2V158.4H122.6V164H126.2V163.2H123.5V161.5H125.8V160.8H123.5V159.2H126.2Z" fill="#A3A3A3"/>
<path d="M135.6 159.901C135.6 159.401 135.4 159.001 135 158.701C134.7 158.501 134.3 158.301 133.9 158.301H131.7V163.901H132.5V161.501H133.6L134.8 163.901H135.8L134.5 161.401C135.2 161.201 135.6 160.701 135.6 159.901ZM132.5 160.801V159.101H133.8C134.1 159.101 134.3 159.201 134.4 159.301C134.6 159.401 134.7 159.601 134.7 159.901C134.7 160.101 134.6 160.301 134.5 160.501C134.3 160.701 134.1 160.801 133.8 160.801H132.5Z" fill="#A3A3A3"/>
<path d="M141.2 164H144.8V163.2H142V161.5H144.4V160.8H142V159.2H144.8V158.4H141.2V164Z" fill="#A3A3A3"/>
</svg>
