<svg width="134" height="154" viewBox="0 0 134 154" fill="none" xmlns="http://www.w3.org/2000/svg">
<path d="M1.7 153.5H2.6V148.3H4.2V147.5H0V148.3H1.7V153.5Z" fill="#A3A3A3"/>
<path d="M14 147.5H13.2L11 153.4H12L12.5 152.1H14.7L15.2 153.4H16.1L14 147.5ZM12.8 151.3L13.7 148.7L14.6 151.3H12.8Z" fill="#A3A3A3"/>
<path d="M25.1001 148.8C25.2001 148.7 25.3 148.6 25.5 148.5C25.7 148.4 25.8 148.4 26 148.4C26.3 148.4 26.5001 148.5 26.7001 148.6C26.9001 148.8 27.0001 149 27.1001 149.2H28.1001C28.0001 148.7 27.8001 148.3 27.4001 148C27.0001 147.7 26.6 147.5 26 147.5C25.5 147.5 25.1 147.6 24.8 147.8C24.5 148 24.3001 148.3 24.1001 148.5C24.0001 148.6 23.9001 148.8 23.9001 149.1C23.9001 149.3 23.8 149.8 23.8 150.5C23.8 151.2 23.8001 151.6 23.9001 151.9C23.9001 152 23.9 152.1 24 152.2C24 152.3 24.1001 152.4 24.1001 152.5C24.2001 152.8 24.5 153 24.8 153.2C25.1 153.4 25.5 153.5 26 153.5C26.6 153.5 27.1 153.3 27.5 152.9C27.9 152.5 28.1001 152 28.1001 151.4V150.2H26V151.1H27.2001V151.4C27.2001 151.8 27.1001 152.1 26.9001 152.3C26.7001 152.5 26.4 152.7 26 152.7C25.8 152.7 25.6 152.7 25.5 152.6C25.3 152.5 25.2001 152.4 25.1001 152.3C25.0001 152.2 24.9001 152 24.9001 151.8C24.9001 151.6 24.8 151.2 24.8 150.6C24.8 150 24.8001 149.6 24.9001 149.4C24.9001 149.1 25.0001 148.9 25.1001 148.8Z" fill="#A3A3A3"/>
<path d="M39.4 147.5V153.5H43.2V152.6H40.3V147.5H39.4Z" fill="#A3A3A3"/>
<path d="M52.4 147.5H51.5V153.4H52.4V147.5Z" fill="#A3A3A3"/>
<path d="M61.2 147.5V153.5H62.1V149.2L64.7 153.5H65.6V147.5H64.7V151.7L62 147.5H61.2Z" fill="#A3A3A3"/>
<path d="M78.1 148.4V147.5H74.4V153.5H78.1V152.6H75.2V150.9H77.7V150.1H75.2V148.4H78.1Z" fill="#A3A3A3"/>
<path d="M96.3 153.5V147.5H95.4V150.1H93V147.5H92.1V153.5H93V150.9H95.4V153.5H96.3Z" fill="#A3A3A3"/>
<path d="M108.8 148.4V147.5H105V153.5H108.8V152.6H105.9V150.9H108.4V150.1H105.9V148.4H108.8Z" fill="#A3A3A3"/>
<path d="M120.1 150.8C120.9 150.5 121.2 150 121.3 149.2C121.3 148.7 121.1 148.2 120.7 147.9C120.4 147.6 120 147.5 119.5 147.5H117.2V153.4H118.1V150.9H119.2L120.4 153.4H121.5L120.1 150.8ZM118 150.1V148.3H119.4C119.7 148.3 119.9 148.4 120.1 148.5C120.3 148.6 120.4 148.9 120.4 149.2C120.4 149.5 120.3 149.7 120.1 149.9C119.9 150.1 119.7 150.2 119.3 150.2H118V150.1Z" fill="#A3A3A3"/>
<path d="M133.5 148.4V147.5H129.7V153.5H133.5V152.6H130.6V150.9H133.1V150.1H130.6V148.4H133.5Z" fill="#A3A3A3"/>
<path d="M6.3 140.499C7.7 140.499 8.9 140.099 9.9 139.399C11 138.699 11.7 137.699 12.1 136.399H8.5C8 137.299 7.3 137.699 6.3 137.699C5.3 137.699 4.5 137.399 3.9 136.699C3.3 136.099 3 135.199 3 134.099C3 132.999 3.3 132.199 3.9 131.499C4.5 130.899 5.3 130.499 6.3 130.499C7.3 130.499 8.1 130.899 8.5 131.799H12.1C11.7 130.499 10.9 129.499 9.9 128.799C8.8 128.099 7.6 127.699 6.3 127.699C4.5 127.699 3.1 128.299 1.8 129.499C0.599999 130.699 0 132.199 0 133.999C0 135.799 0.599999 137.299 1.8 138.499C3.1 139.999 4.6 140.499 6.3 140.499Z" fill="#A3A3A3"/>
<path d="M32.8 134.3C32.8 132.5 32.2 131 31 129.8C29.8 128.6 28.3001 128 26.6001 128C24.8001 128 23.4001 128.6 22.1001 129.8C20.9001 131 20.3 132.5 20.3 134.3C20.3 136.1 20.9001 137.6 22.1001 138.8C23.3001 140 24.8001 140.6 26.6001 140.6C28.4001 140.6 29.8 140 31 138.8C32.2 137.6 32.8 136.1 32.8 134.3ZM28.9001 136.9C28.3001 137.5 27.5 137.9 26.5 137.9C25.5 137.9 24.7001 137.6 24.1001 136.9C23.5001 136.3 23.2001 135.4 23.2001 134.3C23.2001 133.2 23.5001 132.4 24.1001 131.7C24.7001 131.1 25.5 130.7 26.5 130.7C27.5 130.7 28.3001 131 28.9001 131.7C29.5001 132.3 29.8 133.2 29.8 134.3C29.8 135.4 29.5001 136.2 28.9001 136.9Z" fill="#A3A3A3"/>
<path d="M55.6 128.199H52.2L48.7 136.599L45.2 128.199H41.7V140.399H44.7V133.499L47.6 140.399H49.7999L52.6 133.499V140.399H55.6V128.199Z" fill="#A3A3A3"/>
<path d="M68.2 135.699H70C70.8 135.699 71.6 135.599 72.2 135.299C72.8 135.099 73.3 134.699 73.6 134.299C74.2 133.499 74.5 132.699 74.5 131.899C74.5 130.899 74.0999 129.999 73.2999 129.299C72.4999 128.599 71.4 128.199 70 128.199H65.2V140.399H68.2V135.699ZM68.2 130.499H70C70.4 130.499 70.8 130.599 71.1 130.899C71.4 131.199 71.5 131.499 71.5 131.999C71.5 132.399 71.4 132.799 71.1 133.099C70.8 133.399 70.5 133.499 70 133.499H68.2V130.499Z" fill="#A3A3A3"/>
<path d="M86.4 128.199L82.1 140.499H85.3L86 138.399H90.4L91.1 140.499H94.3L90.1 128.199H86.4ZM86.7 136.099L88.1 131.699L89.5 136.099H86.7Z" fill="#A3A3A3"/>
<path d="M113.6 140.399V128.199H110.6V135.899L105.6 128.199H102.6V140.399H105.6V132.699L110.6 140.399H113.6Z" fill="#A3A3A3"/>
<path d="M126.4 136.499V140.399H129.3V136.499L133.6 128.199H130.2L127.9 133.699L125.5 128.199H122.1L126.4 136.499Z" fill="#A3A3A3"/>
<path d="M74.9999 14.8008C76.8999 17.4008 78.3999 20.4008 79.4999 23.5008C80.8999 23.7008 82.1999 23.9008 83.4999 24.2008C83.6999 24.3008 83.8999 24.3008 84.1999 24.4008C84.2999 24.4008 84.2999 24.4008 84.3999 24.4008C84.6999 24.5008 84.9999 24.5008 85.1999 24.6008C85.4999 24.7008 85.6999 24.8008 85.9999 24.8008C86.1999 24.9008 86.4999 24.9008 86.6999 25.0008C86.8999 25.1008 87.1999 25.2008 87.3999 25.2008C87.5999 25.3008 87.7999 25.4008 88.0999 25.4008C88.2999 25.5008 88.4999 25.6008 88.6999 25.6008C89.9999 26.1008 91.1999 26.6008 92.3999 27.3008C92.6999 27.4008 92.9999 27.6008 93.2999 27.8008C93.7999 28.1008 94.2999 28.3008 94.6999 28.6008C94.8999 28.7008 95.0999 28.8008 95.2999 29.0008C95.3999 29.1008 95.4999 29.1008 95.5999 29.2008C95.7999 29.3008 95.9999 29.5008 96.1999 29.6008C96.3999 29.7008 96.5999 29.9008 96.7999 30.0008C99.0999 31.6008 101.2 33.4008 103.1 35.4008C103.3 35.6008 103.5 35.9008 103.8 36.1008C104 36.3008 104.1 36.5008 104.3 36.7008C104.6 37.0008 104.9 37.3008 105.1 37.7008C105.3 37.9008 105.4 38.1008 105.6 38.3008C105.8 38.6008 106 38.8008 106.2 39.1008C106.4 39.4008 106.6 39.6008 106.8 39.9008C107 40.2008 107.2 40.4008 107.3 40.7008C107.7 41.2008 108 41.8008 108.3 42.3008C108.5 42.6008 108.6 42.8008 108.8 43.1008C109 43.4008 109.1 43.7008 109.3 43.9008C109.6 44.5008 109.9 45.1008 110.2 45.7008C110.3 45.9008 110.4 46.2008 110.5 46.4008C110.6 46.6008 110.7 46.9008 110.8 47.1008C110.9 47.3008 111 47.5008 111.1 47.8008C111.2 48.0008 111.3 48.2008 111.3 48.4008C111.5 48.9008 111.7 49.4008 111.9 50.0008C112 50.3008 112.1 50.6008 112.2 50.9008C112.3 51.2008 112.4 51.5008 112.5 51.8008C112.7 52.7008 113 53.5008 113.1 54.4008C113.1 54.6008 113.2 54.8008 113.2 55.1008C113.2 55.2008 113.2 55.4008 113.3 55.5008C113.3 55.7008 113.4 55.8008 113.4 56.0008C113.4 56.2008 113.5 56.5008 113.5 56.7008C113.5 56.9008 113.6 57.2008 113.6 57.4008C113.6 57.5008 113.6 57.6008 113.6 57.7008C113.6 57.9008 113.6 58.1008 113.7 58.3008C113.7 58.5008 113.7 58.7008 113.7 58.8008C113.7 59.1008 113.8 59.3008 113.8 59.6008C113.8 59.9008 113.8 60.2008 113.9 60.6008C113.9 60.9008 113.9 61.3008 113.9 61.6008C113.9 61.9008 113.9 62.3008 113.9 62.6008C113.9 84.6008 95.9999 102.401 74.0999 102.401C73.7999 102.401 73.3999 102.401 73.0999 102.401C72.7999 102.401 72.3999 102.401 72.0999 102.401C71.7999 102.401 71.3999 102.401 71.0999 102.301C70.7999 102.301 70.4999 102.201 70.1999 102.201C69.8999 102.201 69.6999 102.101 69.3999 102.101C69.1999 102.101 69.0999 102.101 68.8999 102.001C68.6999 102.001 68.3999 101.901 68.1999 101.901C68.1999 101.901 68.1999 101.901 68.0999 101.901C67.8999 101.901 67.5999 101.801 67.3999 101.801C67.1999 101.801 66.9999 101.701 66.7999 101.701C66.4999 101.601 66.1999 101.601 65.8999 101.501C64.2999 101.201 62.7999 100.801 61.2999 100.201C60.9999 100.101 60.6999 100.001 60.3999 99.9008C60.0999 99.8008 59.7999 99.7008 59.5999 99.6008C59.1999 99.4008 58.7999 99.3008 58.4999 99.1008C58.2999 99.0008 57.9999 98.9008 57.7999 98.8008C57.4999 98.7008 57.2999 98.6008 56.9999 98.4008C56.6999 98.2008 56.3999 98.1008 55.9999 97.9008C55.6999 97.8008 55.4999 97.6008 55.1999 97.5008C54.8999 97.3008 54.5999 97.2008 54.2999 97.0008C53.9999 96.8008 53.6999 96.7008 53.4999 96.5008C52.9999 96.2008 52.4999 95.9008 51.9999 95.5008L51.8999 95.4008C51.5999 95.2008 51.3999 95.0008 51.0999 94.9008C50.7999 94.7008 50.5999 94.5008 50.2999 94.3008C49.9999 94.1008 49.7999 93.9008 49.4999 93.7008C49.2999 93.5008 49.0999 93.4008 48.8999 93.2008C48.5999 92.9008 48.2999 92.7008 47.8999 92.4008C47.6999 92.2008 47.4999 92.0008 47.2999 91.8008C47.0999 91.6008 46.7999 91.4008 46.5999 91.1008C46.3999 90.9008 46.0999 90.7008 45.8999 90.4008C45.4999 90.0008 44.9999 89.5008 44.5999 89.1008C44.3999 88.9008 44.1999 88.6008 43.8999 88.3008C43.4999 87.8008 43.0999 87.3008 42.6999 86.8008C42.4999 86.5008 42.1999 86.2008 41.9999 85.9008C41.8999 85.7008 41.6999 85.5008 41.5999 85.4008C41.5999 85.3008 41.4999 85.3008 41.4999 85.2008C41.2999 85.0008 41.1999 84.7008 40.9999 84.5008C40.7999 84.3008 40.6999 84.0008 40.4999 83.8008C40.2999 83.5008 40.0999 83.2008 39.8999 82.8008C39.5999 82.3008 39.2999 81.7008 38.9999 81.2008C38.3999 80.1008 37.8999 79.1008 37.3999 77.9008C37.2999 77.6008 37.1999 77.4008 37.0999 77.1008C36.9999 76.9008 36.8999 76.7008 36.8999 76.5008C36.7999 76.3008 36.7999 76.1008 36.6999 76.0008C36.5999 75.8008 36.5999 75.6008 36.4999 75.4008C36.3999 75.1008 36.2999 74.9008 36.1999 74.6008C36.0999 74.3008 35.9999 74.1008 35.8999 73.8008V73.7008C35.7999 73.4008 35.6999 73.2008 35.6999 72.9008C35.5999 72.6008 35.4999 72.3008 35.4999 72.0008C35.2999 71.1008 35.0999 70.2008 34.8999 69.3008C34.7999 69.0008 34.7999 68.7008 34.6999 68.4008C34.6999 68.1008 34.5999 67.8008 34.5999 67.5008C31.4999 66.4008 28.5999 64.9008 25.8999 63.0008C26.3999 89.2008 47.6999 110.301 74.0999 110.301C100.7 110.301 122.3 88.7008 122.3 62.1008C122.4 36.6008 101.2 15.2008 74.9999 14.8008ZM34.5999 59.2008C34.5999 58.9008 34.6999 58.6008 34.6999 58.3008C34.6999 58.0008 34.7999 57.7008 34.7999 57.4008C34.7999 57.1008 34.8999 56.8008 34.8999 56.5008C34.8999 56.2008 34.9999 55.9008 34.9999 55.6008C35.1999 54.4008 35.4999 53.3008 35.7999 52.2008C35.8999 51.9008 35.9999 51.6008 35.9999 51.4008C36.0999 51.2008 36.0999 51.0008 36.1999 50.8008C36.1999 50.7008 36.2999 50.6008 36.2999 50.5008C36.3999 50.3008 36.4999 50.0008 36.4999 49.8008C36.5999 49.6008 36.5999 49.4008 36.6999 49.2008C36.6999 49.1008 36.7999 48.9008 36.7999 48.8008C36.9999 48.3008 37.1999 47.9008 37.3999 47.4008C37.5999 46.9008 37.8999 46.3008 38.0999 45.8008C38.1999 45.5008 38.2999 45.3008 38.4999 45.1008C38.5999 44.9008 38.6999 44.8008 38.6999 44.6008C38.7999 44.4008 38.8999 44.2008 38.9999 44.0008C38.9999 43.9008 39.0999 43.9008 39.0999 43.8008C39.1999 43.5008 39.3999 43.3008 39.4999 43.1008C39.5999 42.9008 39.7999 42.7008 39.8999 42.4008C39.9999 42.2008 40.0999 42.0008 40.1999 41.8008C40.2999 41.6008 40.3999 41.5008 40.4999 41.3008C40.9999 40.6008 41.3999 39.9008 41.8999 39.2008C42.0999 39.0008 42.1999 38.7008 42.3999 38.5008C42.4999 38.3008 42.6999 38.2008 42.7999 38.0008C43.1999 37.5008 43.5999 37.0008 43.9999 36.5008C44.1999 36.3008 44.3999 36.1008 44.4999 35.9008C44.8999 35.5008 45.2999 35.1008 45.6999 34.7008C45.8999 34.5008 45.9999 34.4008 46.1999 34.2008C46.4999 33.9008 46.6999 33.7008 46.9999 33.5008C47.1999 33.3008 47.3999 33.2008 47.5999 33.0008C47.8999 32.7008 48.2999 32.4008 48.6999 32.1008C48.8999 32.0008 49.0999 31.8008 49.2999 31.7008C50.0999 31.1008 50.8999 30.5008 51.7999 29.9008C51.9999 29.7008 52.2999 29.6008 52.4999 29.4008C52.6999 29.3008 52.8999 29.1008 53.0999 29.0008C53.1999 28.9008 53.3999 28.8008 53.5999 28.7008C53.7999 28.6008 53.9999 28.4008 54.2999 28.3008C54.5999 28.1008 54.8999 28.0008 55.0999 27.8008C55.3999 27.6008 55.6999 27.5008 55.9999 27.3008C56.2999 27.2008 56.5999 27.0008 56.8999 26.9008C57.3999 26.7008 57.8999 26.4008 58.4999 26.2008C58.8999 26.0008 59.2999 25.9008 59.6999 25.7008C59.9999 25.6008 60.1999 25.5008 60.4999 25.4008C60.6999 25.3008 60.9999 25.2008 61.1999 25.1008C61.2999 25.1008 61.3999 25.0008 61.5999 25.0008C61.8999 24.9008 62.0999 24.8008 62.3999 24.7008C62.6999 24.6008 62.9999 24.5008 63.2999 24.4008C63.5999 24.3008 63.8999 24.2008 64.1999 24.1008C64.4999 24.0008 64.7999 24.0008 64.9999 23.9008C65.1999 23.9008 65.3999 23.8008 65.5999 23.8008C65.6999 23.8008 65.7999 23.8008 65.8999 23.7008C66.0999 23.7008 66.1999 23.6008 66.3999 23.6008C66.6999 23.5008 66.9999 23.5008 67.2999 23.4008C67.4999 23.4008 67.6999 23.3008 67.8999 23.3008C68.0999 23.3008 68.2999 23.2008 68.4999 23.2008C69.0999 23.1008 69.5999 23.1008 70.1999 23.0008C68.7999 20.1008 66.8999 17.6008 64.5999 15.4008C45.5999 19.2008 30.5999 34.2008 26.7999 53.3008C29.1999 55.9008 31.6999 57.8008 34.5999 59.2008Z" fill="#A3A3A3"/>
<path d="M80.7999 28.6C78.7 28.2 76.5 28 74.2 28C73.5 28 72.8 28 72.1 28.1C72.7 30.3 73 32.7 73 35.1C73 49.9 61 61.9 46.2 61.9C43.7999 61.9 41.5 61.6 39.2999 61C39.2999 61.7 39.2 62.3 39.2 63C39.2 65.3 39.4 67.5 39.7999 69.7C41.9 70.1 44 70.3 46.2 70.3C65.6 70.3 81.2999 54.6 81.2999 35.2C81.3999 32.9 81.2 30.7 80.7999 28.6ZM46.2999 0C26.9 0 11.2 15.7 11.2 35.1C11.2 44.7 14.9999 53.4 21.2999 59.7C21.4999 55.9 22.2 52.1 23.2 48.5C20.9 44.6 19.6 40 19.6 35.1C19.6 20.3 31.5999 8.3 46.3999 8.3C51.2999 8.3 55.7999 9.6 59.7 11.9C63.2999 10.9 67.0999 10.2 70.8999 10C64.4999 3.8 55.8999 0 46.2999 0Z" fill="#A3A3A3"/>
</svg>
