<svg width="148" height="164" viewBox="0 0 148 164" fill="none" xmlns="http://www.w3.org/2000/svg">
<path d="M66.0004 26.9L79.0004 49.4C80.5004 49.4 81.9004 49.4 83.4004 49.4C87.2004 49.4 91.0004 49.5 94.7004 49.7L66.0004 0L34.4004 54.6C39.9004 53.4 45.7004 52.3 51.7004 51.5L66.0004 26.9ZM42.6004 48.7L65.9004 8.3L87.3004 45.3C86.0004 45.3 84.7004 45.3 83.4004 45.3C82.7004 45.3 82.0004 45.3 81.3004 45.3L69.5004 24.8L65.9004 18.6L62.3004 24.8L49.2004 47.6C47.0004 47.9 44.8004 48.3 42.6004 48.7Z" fill="#4F4747"/>
<path d="M46.6004 123.9C30.3004 116.8 20.4004 107.2 20.4004 96.7C20.4004 93.2 21.5004 89.8 23.6004 86.6H116L99.2004 57.5C105.6 57 112.2 56.7 119 56.7C128.1 56.7 137 57.2 145.4 58.2C144.9 58 144.4 57.9 143.9 57.7C144.4 57.9 144.9 58 145.4 58.2C146 58.3 146.5 58.3 147.1 58.4C145.6 58 144.1 57.7 142.6 57.3C128.9 54.2 113.1 52.5 96.3004 52.5C96.2004 52.5 96.1004 52.5 96.0004 52.5C92.2004 52.5 88.4004 52.6 84.7004 52.8C83.5004 52.9 82.2004 52.9 81.0004 53C69.3004 53.7 58.3004 55.3 48.4004 57.6C47.5004 57.8 46.7004 58 45.9004 58.2C40.0004 59.6 34.6004 61.3 29.6004 63.2C11.4004 70.2 0.000399115 80.1 0.000399115 91C-0.0996009 104.9 18.6004 117.2 46.6004 123.9ZM84.6004 59.2L92.7004 73.2H39.3004C50.6004 66.8 66.3004 61.9 84.6004 59.2Z" fill="#4F4747"/>
<path d="M8.80034 151.5C9.30034 151.3 9.80034 151 10.1003 150.6C10.5003 150.2 10.8003 149.8 11.0003 149.2C11.2003 148.7 11.3003 148.2 11.3003 147.6V146.5H8.70034V147.4C8.70034 147.8 8.60034 148.1 8.50034 148.3C8.40034 148.5 8.30034 148.7 8.10034 148.9C7.90034 149 7.70034 149.1 7.50034 149.2C7.30034 149.3 7.10034 149.3 6.90034 149.3C6.30034 149.3 5.90034 149.1 5.60034 148.8C5.40034 148.4 5.30034 148 5.30034 147.5V138.1C5.30034 137.5 5.40034 137 5.60034 136.6C5.80034 136.2 6.30034 136 6.90034 136C7.40034 136 7.80034 136.2 8.10034 136.6C8.40034 137 8.50034 137.4 8.50034 137.9V138.8H11.1003V137.8C11.1003 137.2 11.0003 136.6 10.8003 136C10.6003 135.5 10.3003 135 9.90034 134.6C9.10034 133.8 8.10034 133.4 6.90034 133.4C6.30034 133.4 5.70034 133.5 5.20034 133.7C4.70034 133.9 4.20034 134.2 3.80034 134.6C3.40034 135 3.10034 135.4 2.90034 135.9C2.70034 136.4 2.60034 137 2.60034 137.6V147.7C2.60034 148.5 2.70034 149.2 3.00034 149.8C3.30034 150.3 3.60034 150.8 4.00034 151.1C4.40034 151.4 4.90034 151.7 5.40034 151.8C5.90034 151.9 6.40034 152 6.90034 152C7.80034 151.9 8.30034 151.8 8.80034 151.5Z" fill="#4F4747"/>
<path d="M32.5004 137.6C32.5004 136.9 32.4004 136.2 32.1004 135.6C31.8004 135 31.5004 134.6 31.1004 134.2C30.7004 133.8 30.2004 133.6 29.7004 133.4C29.2004 133.2 28.6004 133.1 28.1004 133.1C27.6004 133.1 27.0004 133.2 26.5004 133.4C26.0004 133.6 25.5004 133.9 25.1004 134.2C24.7004 134.6 24.3004 135.1 24.1004 135.6C23.8004 136.2 23.7004 136.8 23.7004 137.6V147.3C23.7004 148.1 23.8004 148.7 24.1004 149.3C24.4004 149.9 24.7004 150.3 25.1004 150.7C25.5004 151.1 26.0004 151.4 26.5004 151.6C27.0004 151.8 27.6004 151.9 28.1004 151.9C28.6004 151.9 29.2004 151.8 29.7004 151.6C30.2004 151.4 30.7004 151.1 31.1004 150.7C31.5004 150.3 31.8004 149.9 32.1004 149.3C32.4004 148.7 32.5004 148.1 32.5004 147.3V137.6ZM29.9004 147.4C29.9004 148 29.7004 148.5 29.4004 148.8C29.0004 149.1 28.6004 149.3 28.1004 149.3C27.6004 149.3 27.2004 149.1 26.8004 148.8C26.4004 148.5 26.3004 148 26.3004 147.4V137.7C26.3004 137.1 26.5004 136.6 26.8004 136.3C27.2004 136 27.6004 135.8 28.1004 135.8C28.6004 135.8 29.0004 136 29.4004 136.3C29.8004 136.6 29.9004 137.1 29.9004 137.7V147.4Z" fill="#4F4747"/>
<path d="M51.2004 143.1H51.1004L47.7004 133.3H45.2004V151.7H47.8004V140.5H47.9004L50.5004 148.4H51.8004L54.4004 140.5H54.5004V151.7H57.1004V133.3H54.5004L51.2004 143.1Z" fill="#4F4747"/>
<path d="M77.3004 134.6C76.9004 134.1 76.4004 133.8 75.8004 133.6C75.2004 133.4 74.6004 133.3 73.9004 133.3H69.9004V151.7H72.5004V144.5H73.8004C74.8004 144.5 75.6004 144.3 76.2004 144C76.8004 143.7 77.3004 143.2 77.6004 142.6C77.9004 142.1 78.1004 141.6 78.2004 141C78.3004 140.4 78.3004 139.7 78.3004 138.9C78.3004 137.8 78.2004 136.9 78.0004 136.3C78.0004 135.6 77.7004 135.1 77.3004 134.6ZM76.0004 140.2C76.0004 140.6 75.9004 140.9 75.8004 141.2C75.7004 141.5 75.4004 141.7 75.2004 141.8C74.9004 142 74.5004 142 74.0004 142H72.7004V135.7H74.1004C74.6004 135.7 75.0004 135.8 75.3004 135.9C75.6004 136.1 75.8004 136.3 75.9004 136.6C76.0004 136.9 76.1004 137.2 76.1004 137.6C76.1004 138 76.1004 138.4 76.1004 138.8C76.0004 139.4 76.0004 139.8 76.0004 140.2Z" fill="#4F4747"/>
<path d="M92.7003 133.3L88.6003 151.7H91.2003L92.0003 147.7H95.6003L96.4003 151.7H99.0003L94.9003 133.3H92.7003ZM92.5003 145.3L93.8003 138.6H93.9003L95.2003 145.3H92.5003Z" fill="#4F4747"/>
<path d="M119.8 151.7V133.3H117.2V144.4H117.1L113.1 133.3H110.6V151.7H113.2V140.6H113.3L117.3 151.7H119.8Z" fill="#4F4747"/>
<path d="M137.6 151.7V143.9L141.2 133.3H138.4L136.3 140.6L134.1 133.3H131.3L135 143.9V151.7H137.6Z" fill="#4F4747"/>
<path d="M5.00041 164V159.4H6.50041V158.6H2.80042V159.4H4.20041V164H5.00041Z" fill="#4F4747"/>
<path d="M12.4004 158.6L10.5004 163.9H11.4004L11.8004 162.7H13.8004L14.2004 163.9H15.1004L13.2004 158.6H12.4004ZM12.0004 162.1L12.8004 159.8L13.6004 162.1H12.0004Z" fill="#4F4747"/>
<path d="M20.9004 159.8C21.0004 159.7 21.1004 159.6 21.2004 159.5C21.3004 159.4 21.5004 159.4 21.7004 159.4C22.0004 159.4 22.2004 159.5 22.4004 159.6C22.6004 159.8 22.7004 159.9 22.8004 160.1H23.7004C23.6004 159.7 23.4004 159.3 23.1004 159C22.8004 158.7 22.4004 158.5 21.8004 158.5C21.4004 158.5 21.0004 158.6 20.7004 158.8C20.4004 159 20.2004 159.2 20.1004 159.5C20.0004 159.6 20.0004 159.8 19.9004 160C19.9004 160.2 19.8004 160.6 19.8004 161.2C19.8004 161.8 19.8004 162.2 19.9004 162.4C19.9004 162.5 19.9004 162.6 20.0004 162.7C20.0004 162.8 20.1004 162.9 20.1004 162.9C20.2004 163.1 20.4004 163.4 20.7004 163.6C21.0004 163.8 21.3004 163.9 21.8004 163.9C22.3004 163.9 22.8004 163.7 23.2004 163.3C23.6004 162.9 23.7004 162.5 23.7004 162V160.9H21.7004V161.7H22.8004V162C22.8004 162.3 22.7004 162.6 22.5004 162.8C22.3004 163 22.0004 163.1 21.7004 163.1C21.5004 163.1 21.3004 163.1 21.2004 163C21.1004 162.9 20.9004 162.8 20.9004 162.7C20.8004 162.6 20.7004 162.4 20.7004 162.2C20.7004 162 20.6004 161.7 20.6004 161.1C20.6004 160.6 20.6004 160.2 20.7004 160C20.7004 160.1 20.8004 159.9 20.9004 159.8Z" fill="#4F4747"/>
<path d="M29.0004 158.6V164H32.5004V163.2H29.9004V158.6H29.0004Z" fill="#4F4747"/>
<path d="M38.5004 158.6H37.7004V163.9H38.5004V158.6Z" fill="#4F4747"/>
<path d="M44.2004 158.6V164H45.0004V160.2L47.4004 164H48.2004V158.6H47.4004V162.4H47.3004L44.9004 158.6H44.2004Z" fill="#4F4747"/>
<path d="M57.2004 159.4V158.6H53.8004V164H57.2004V163.2H54.6004V161.7H56.8004V160.9H54.6004V159.4H57.2004Z" fill="#4F4747"/>
<path d="M68.8004 159.6C68.7004 159.7 68.7004 159.9 68.6004 160.1C68.6004 160.3 68.5004 160.7 68.5004 161.3C68.5004 161.9 68.5004 162.3 68.6004 162.5C68.6004 162.6 68.6004 162.7 68.7004 162.8C68.7004 162.9 68.8004 163 68.8004 163C68.9004 163.2 69.1004 163.5 69.4004 163.7C69.7004 163.9 70.0004 164 70.5004 164C71.0004 164 71.5004 163.8 71.9004 163.4C72.3004 163 72.4004 162.6 72.4004 162.1V161H70.5004V161.8H71.6004V162.1C71.6004 162.4 71.5004 162.7 71.3004 162.9C71.1004 163.1 70.8004 163.2 70.5004 163.2C70.3004 163.2 70.1004 163.2 70.0004 163.1C69.9004 163 69.7004 162.9 69.7004 162.8C69.6004 162.7 69.5004 162.5 69.5004 162.3C69.5004 162.1 69.4004 161.8 69.4004 161.2C69.4004 160.7 69.4004 160.3 69.5004 160.1C69.5004 159.9 69.6004 159.8 69.7004 159.7C69.8004 159.6 69.9004 159.5 70.0004 159.4C70.1004 159.3 70.3004 159.3 70.5004 159.3C70.8004 159.3 71.0004 159.4 71.2004 159.5C71.4004 159.7 71.5004 159.8 71.6004 160H72.5004C72.4004 159.6 72.2004 159.2 71.9004 158.9C71.6004 158.6 71.2004 158.4 70.6004 158.4C70.2004 158.4 69.8004 158.5 69.5004 158.7C69.2004 159.1 69.0004 159.3 68.8004 159.6Z" fill="#4F4747"/>
<path d="M77.9003 159.6C77.8003 159.7 77.8003 159.9 77.7003 160.1C77.7003 160.3 77.6003 160.7 77.6003 161.3C77.6003 161.9 77.6003 162.3 77.7003 162.5C77.7003 162.6 77.7003 162.7 77.8003 162.8C77.8003 162.9 77.9003 163 77.9003 163C78.0003 163.2 78.2003 163.5 78.5003 163.7C78.8003 163.9 79.1003 164 79.6003 164C80.0003 164 80.4003 163.9 80.7003 163.7C81.0003 163.5 81.2003 163.3 81.3003 163C81.4003 162.9 81.5003 162.7 81.5003 162.5C81.5003 162.3 81.5003 161.9 81.5003 161.3C81.5003 160.7 81.5003 160.3 81.5003 160.1C81.5003 159.9 81.4003 159.7 81.3003 159.6C81.2003 159.4 81.0003 159.1 80.7003 158.9C80.4003 158.7 80.1003 158.6 79.6003 158.6C79.2003 158.6 78.8003 158.7 78.5003 158.9C78.3003 159.1 78.0003 159.3 77.9003 159.6ZM78.6003 160.2C78.6003 160 78.7003 159.9 78.8003 159.8C78.9003 159.7 79.0003 159.6 79.1003 159.5C79.2003 159.4 79.4003 159.4 79.6003 159.4C79.8003 159.4 80.0003 159.4 80.1003 159.5C80.2003 159.6 80.3003 159.7 80.4003 159.8C80.5003 159.9 80.6003 160.1 80.6003 160.2C80.6003 160.4 80.7003 160.7 80.7003 161.3C80.7003 161.8 80.7003 162.2 80.6003 162.4C80.6003 162.6 80.5003 162.7 80.4003 162.9C80.3003 163 80.2003 163.1 80.1003 163.2C80.0003 163.3 79.8003 163.3 79.6003 163.3C79.4003 163.3 79.2003 163.3 79.1003 163.2C79.0003 163.1 78.8003 163 78.8003 162.9C78.7003 162.8 78.6003 162.6 78.6003 162.4C78.6003 162.2 78.5003 161.9 78.5003 161.3C78.5003 160.8 78.5003 160.4 78.6003 160.2Z" fill="#4F4747"/>
<path d="M86.9004 164H90.4004V163.2H87.8004V161.7H90.0004V160.9H87.8004V159.4H90.4004V158.6H86.9004V164Z" fill="#4F4747"/>
<path d="M97.2004 163.2C96.6004 163.2 96.1004 163 95.7004 162.7L95.2004 163.3C95.8004 163.8 96.4004 164 97.2004 164C98.4004 164 99.0004 163.5 99.1004 162.4C99.1004 162 99.0004 161.7 98.7004 161.4C98.5004 161.1 98.1004 160.9 97.6004 160.9C97.3004 160.9 97.1004 160.8 97.0004 160.8C96.7004 160.8 96.5004 160.7 96.4004 160.5C96.3004 160.4 96.2004 160.2 96.2004 160.1C96.2004 159.8 96.3004 159.7 96.5004 159.5C96.7004 159.4 96.9004 159.3 97.1004 159.3C97.6004 159.3 98.0004 159.4 98.4004 159.7L98.9004 159C98.4004 158.6 97.8004 158.5 97.2004 158.4C96.6004 158.4 96.2004 158.5 95.9004 158.8C95.6004 159.1 95.4004 159.5 95.4004 159.9C95.4004 160.3 95.5004 160.6 95.8004 160.9C96.0004 161.2 96.4004 161.3 96.8004 161.4C97.1004 161.4 97.3004 161.5 97.5004 161.5C98.0004 161.6 98.2004 161.8 98.2004 162.2C98.3004 163 97.9004 163.2 97.2004 163.2Z" fill="#4F4747"/>
<path d="M114.5 164V158.6H113.7V160.9H111.6V158.6H110.7V164H111.6V161.7H113.7V164H114.5Z" fill="#4F4747"/>
<path d="M123.5 159.4V158.6H120.1V164H123.5V163.2H120.9V161.7H123.1V160.9H120.9V159.4H123.5Z" fill="#4F4747"/>
<path d="M131.5 161.6C132.2 161.3 132.5 160.8 132.5 160.1C132.5 159.6 132.3 159.2 132 159C131.7 158.8 131.4 158.6 130.9 158.6H128.8V163.9H129.6V161.6H130.6L131.7 163.9H132.7L131.5 161.6ZM129.6 161V159.4H130.9C131.2 159.4 131.4 159.5 131.5 159.6C131.7 159.7 131.8 159.9 131.8 160.2C131.8 160.4 131.7 160.6 131.6 160.8C131.4 161 131.2 161.1 130.9 161.1H129.6V161Z" fill="#4F4747"/>
<path d="M141.3 159.4V158.6H137.9V164H141.3V163.2H138.7V161.7H140.9V160.9H138.7V159.4H141.3Z" fill="#4F4747"/>
</svg>
