<svg width="109" height="184" viewBox="0 0 109 184" fill="none" xmlns="http://www.w3.org/2000/svg">
<g clip-path="url(#clip0_640_273)">
<path opacity="0.047619" d="M96.8479 180.335C96.4796 183.267 88.01 183.633 49.7128 183.633C14.3614 183.267 0.368164 184 0.368164 180.335C0.736407 164.207 26.1452 142.582 47.8715 142.582C69.2296 142.582 97.5844 170.072 96.8479 180.335Z" fill="#F9F9F9"/>
<path opacity="0.095238" d="M96.4798 180.335C96.1116 183.267 88.0102 183.633 49.7129 183.633C14.3616 183.267 0.736572 183.633 0.736572 180.335C1.10482 164.94 26.5136 144.048 47.8717 144.048C69.2298 143.681 97.2163 170.072 96.4798 180.335Z" fill="#F2F2F2"/>
<path opacity="0.1429" d="M96.1115 179.968C95.7432 182.9 87.6419 182.9 49.7128 182.9C14.7297 182.9 0.736481 183.633 1.10472 179.968C1.47297 164.94 26.8818 144.781 47.8716 144.781C69.2297 144.781 96.848 170.438 96.1115 179.968Z" fill="#ECECEC"/>
<path opacity="0.1905" d="M96.1116 179.968C95.7433 182.534 87.642 182.9 49.7129 182.9C14.7298 182.9 1.10483 183.267 1.47307 179.968C1.84131 165.673 26.8819 145.88 48.24 145.88C68.8616 145.88 96.8481 170.438 96.1116 179.968Z" fill="#E6E6E6"/>
<path opacity="0.2381" d="M95.7432 179.968C95.3749 182.534 87.2736 182.9 49.7128 182.9C15.0979 182.534 1.4729 183.267 1.4729 179.968C1.84114 166.406 26.8817 146.98 47.8716 146.98C68.8614 146.98 96.4797 170.805 95.7432 179.968Z" fill="#DFDFDF"/>
<path opacity="0.2857" d="M95.3751 179.968C95.3751 182.534 86.9055 182.534 49.7129 182.534C15.0981 182.167 1.84131 182.9 1.84131 179.968C2.20955 167.139 27.2501 148.08 47.8717 148.08C68.8616 148.08 96.1116 170.805 95.3751 179.968Z" fill="#D9D9D9"/>
<path opacity="0.3333" d="M95.0068 179.968C95.0068 182.167 86.5372 182.534 49.7128 182.534C15.4662 182.167 2.20947 182.9 2.20947 179.968C2.57772 167.872 27.25 149.546 47.8716 149.546C68.8615 149.179 95.7433 171.171 95.0068 179.968Z" fill="#D3D3D3"/>
<path opacity="0.381" d="M94.6384 179.968C94.6384 182.167 86.5371 182.534 49.7128 182.534C15.4662 182.167 2.57764 182.9 2.57764 179.968C2.94588 168.239 27.6182 150.645 48.2398 150.645C68.8614 150.279 95.3749 171.538 94.6384 179.968Z" fill="#CCCCCC"/>
<path opacity="0.4286" d="M94.2702 179.968C94.2702 182.167 86.1689 182.167 49.3445 182.167C15.4662 181.8 2.57764 182.534 2.57764 179.968C2.94588 168.972 27.2499 151.745 47.8716 151.745C68.4932 151.378 95.0067 171.537 94.2702 179.968Z" fill="#C6C6C6"/>
<path opacity="0.4762" d="M93.9021 179.602C93.9021 181.434 85.8008 181.801 49.3447 181.801C15.8346 181.801 2.94604 182.167 2.94604 179.602C3.31429 169.339 27.6183 152.478 47.8717 152.478C68.4933 152.845 94.6386 171.904 93.9021 179.602Z" fill="#C0C0C0"/>
<path opacity="0.5238" d="M93.5337 179.601C93.5337 181.434 85.4324 181.434 49.3445 181.434C16.2026 181.434 3.68237 182.167 3.68237 179.601C3.68237 170.071 27.9864 153.944 48.2398 153.944C68.4932 153.944 94.2702 171.904 93.5337 179.601Z" fill="#B9B9B9"/>
<path opacity="0.5714" d="M93.5339 179.602C93.5339 181.434 85.4325 181.434 49.7129 181.434C16.5711 181.434 4.05078 181.801 4.05078 179.602C4.41902 170.805 28.3548 154.677 48.6082 154.677C68.4933 155.044 93.9021 172.271 93.5339 179.602Z" fill="#B3B3B3"/>
<path opacity="0.619" d="M93.1656 179.601C93.1656 181.067 85.4325 181.434 49.7129 181.434C16.571 181.434 4.41895 181.8 4.41895 179.601C4.41895 171.171 28.723 156.143 48.6081 156.143C68.4933 156.143 93.5338 172.271 93.1656 179.601Z" fill="#ADADAD"/>
<path opacity="0.6667" d="M92.7972 179.601C92.7972 181.067 85.0641 181.067 49.7128 181.067C16.9391 181.067 4.78711 181.434 4.78711 179.601C4.78711 171.904 28.7229 157.243 48.6081 157.243C68.1249 157.243 93.1655 172.637 92.7972 179.601Z" fill="#A6A6A6"/>
<path opacity="0.7143" d="M92.429 179.601C92.429 181.067 84.6959 181.067 49.3445 181.067C16.5709 181.067 4.78711 181.434 4.78711 179.601C4.78711 172.637 28.7229 158.342 48.2398 158.342C68.125 158.342 92.7973 172.637 92.429 179.601Z" fill="#A0A0A0"/>
<path opacity="0.7619" d="M92.0609 179.235C92.0609 180.335 84.3278 180.701 49.3447 180.701C16.9393 180.701 5.15552 181.068 5.15552 179.235C5.15552 173.004 29.0913 159.076 48.6082 159.076C68.1251 159.442 92.4292 173.004 92.0609 179.235Z" fill="#9A9A9A"/>
<path opacity="0.8095" d="M91.6926 179.235C91.6926 180.335 83.9595 180.335 49.3446 180.335C17.3075 180.335 5.52368 180.701 5.52368 179.235C5.52368 173.737 29.0912 160.175 48.6081 160.175C68.125 160.542 92.0608 173.004 91.6926 179.235Z" fill="#939393"/>
<path opacity="0.8571" d="M91.3243 179.235C91.3243 180.334 83.9594 180.334 49.3445 180.334C17.3074 180.334 5.89185 180.701 5.89185 179.235C5.89185 174.103 29.4594 161.641 48.6081 161.641C67.7567 161.641 91.6925 173.37 91.3243 179.235Z" fill="#8D8D8D"/>
<path opacity="0.9048" d="M90.9562 179.235C90.9562 179.968 83.5913 179.968 49.3447 179.968C17.6758 179.968 6.26025 180.334 6.26025 179.235C6.26025 174.836 29.4596 162.741 48.6082 162.741C67.7569 162.741 91.3244 173.737 90.9562 179.235Z" fill="#878787"/>
<path opacity="0.9524" d="M90.9561 179.235C90.9561 179.968 83.5913 179.968 49.3446 179.968C17.6757 179.968 6.62842 180.334 6.62842 179.235C6.62842 175.569 29.8277 163.84 48.9764 163.84C67.7568 163.84 90.9561 173.737 90.9561 179.235Z" fill="#808080"/>
<path d="M90.5878 179.235C90.5878 179.968 83.2229 179.968 49.3446 179.968C18.0439 179.968 6.99658 180.334 6.99658 179.235C6.99658 176.302 30.1959 164.94 48.9763 164.94C67.7567 164.94 90.5878 174.103 90.5878 179.235Z" fill="#7A7A7A"/>
<path d="M90.2196 151.378H6.62842V179.601H90.2196V151.378Z" fill="url(#paint0_linear_640_273)"/>
<path d="M83.9595 138.549H13.2568L6.62842 151.378H90.5879L83.9595 138.549Z" fill="url(#paint1_linear_640_273)"/>
<path opacity="0.4" d="M76.5945 157.609H20.6216V172.637H76.5945V157.609Z" fill="url(#paint2_linear_640_273)"/>
<path d="M6.62842 151.378C6.62842 151.378 41.9798 151.012 48.6081 151.012C55.2365 151.012 90.5879 151.378 90.5879 151.378C90.5879 151.378 52.6588 152.111 48.6081 152.111C44.9257 151.745 6.62842 151.378 6.62842 151.378Z" fill="#5C5C5C"/>
<path d="M76.2265 157.976H20.99V171.904H76.2265V157.976Z" fill="url(#paint3_linear_640_273)"/>
<path d="M29.0913 144.78L55.2366 148.446L87.2737 145.147L83.9595 138.549H47.8717L29.0913 144.78Z" fill="url(#paint4_linear_640_273)"/>
<path d="M72.1757 133.418C72.1757 131.952 71.4393 131.952 70.3345 131.219C67.0203 128.286 58.919 124.621 48.9764 124.621C39.4021 124.621 31.3007 128.286 27.9866 131.585C26.8818 132.685 25.7771 132.685 25.7771 134.151C25.7771 137.45 36.0879 138.916 48.9764 138.916C61.8649 138.916 72.1757 136.717 72.1757 133.418Z" fill="url(#paint5_linear_640_273)"/>
<path d="M25.7771 144.414V133.784C25.7771 133.784 27.9866 137.816 48.9764 137.816C69.9663 137.816 72.1757 133.051 72.1757 133.051V144.78C72.1757 144.78 66.2839 148.079 48.9764 148.079C31.669 148.079 25.7771 144.414 25.7771 144.414Z" fill="url(#paint6_linear_640_273)"/>
<path d="M62.6013 147.713C62.6013 147.713 62.233 141.482 62.233 139.283C62.233 137.817 62.9695 137.083 62.9695 137.083C61.8648 137.45 58.1824 137.817 54.1317 138.183C49.7128 138.183 44.5574 138.183 42.3479 138.183C42.3479 138.183 45.2938 138.916 46.3986 139.283C47.1351 139.649 47.8715 140.749 47.8715 141.848V148.813C51.554 148.446 56.3411 148.446 62.6013 147.713Z" fill="url(#paint7_linear_640_273)"/>
<path d="M66.6521 146.98C68.8615 146.613 69.9663 145.88 71.071 145.88V134.884C70.3345 135.251 67.0203 137.083 63.3379 137.45C63.3379 137.45 66.6521 137.45 66.6521 138.183C66.6521 139.649 66.6521 146.98 66.6521 146.98Z" fill="url(#paint8_linear_640_273)"/>
<path d="M27.9866 145.513C29.0913 145.88 30.5643 146.613 32.7737 146.98V136.717C30.5643 136.35 29.0913 135.617 27.9866 135.25V145.513Z" fill="url(#paint9_linear_640_273)"/>
<path d="M27.9866 135.617C27.9866 135.617 28.7231 134.518 30.196 134.884C32.0372 135.251 37.5609 127.92 47.1352 127.92C55.9731 127.92 62.6014 130.119 66.2839 131.952C67.3886 132.685 68.8616 133.418 69.5981 133.051C71.4393 132.318 72.1758 133.418 72.1758 133.418C72.1758 133.418 69.9663 138.183 48.9764 138.183C30.9325 138.183 27.9866 135.617 27.9866 135.617Z" fill="url(#paint10_linear_640_273)"/>
<path d="M29.8276 135.984C29.8276 134.884 32.7736 136.35 33.5101 135.251C38.6655 129.386 46.3986 129.02 46.3986 129.02C53.7634 127.92 59.6553 135.251 62.6013 135.251C65.5472 135.251 68.4932 134.151 68.4932 134.884C68.4932 135.617 61.4966 137.816 47.1351 137.816C33.5101 137.45 29.8276 135.984 29.8276 135.984Z" fill="url(#paint11_linear_640_273)"/>
<path d="M27.6183 132.685C27.25 132.685 27.9865 134.151 30.196 134.884C32.4054 135.617 32.4054 135.984 36.0879 136.35C39.7703 136.717 44.1892 137.083 44.1892 137.083C44.1892 137.083 35.7196 136.35 32.7737 135.251C29.8277 133.784 28.3547 132.318 27.6183 132.685Z" fill="url(#paint12_linear_640_273)"/>
<path d="M46.0305 129.386C46.0305 129.386 53.7636 129.02 54.1319 127.553C54.5001 126.454 67.3886 68.9081 67.3886 68.9081C67.3886 68.9081 63.338 63.7766 61.4967 64.5097C44.9258 69.6411 47.8717 117.657 46.0305 129.386Z" fill="url(#paint13_linear_640_273)"/>
<path d="M109 72.5734C109 72.5734 106.054 75.1391 104.213 74.406C102.372 74.0395 67.3886 68.5415 67.3886 68.5415L62.2332 65.2427L109 72.5734Z" fill="url(#paint14_linear_640_273)"/>
<path d="M32.0372 38.4858C32.0372 38.4858 8.10137 49.1153 4.78718 51.6811C3.31421 53.1472 3.31421 53.5137 3.31421 53.5137L34.6149 63.4101L32.0372 38.4858Z" fill="url(#paint15_radial_640_273)"/>
<path d="M71.8074 43.2505L78.0675 42.1509L109 72.5732C109 72.5732 106.054 72.9397 102.74 72.5732C99.0574 72.2067 71.8074 43.2505 71.8074 43.2505Z" fill="url(#paint16_linear_640_273)"/>
<path d="M93.5339 10.6293C95.3751 9.52974 97.9528 10.2628 97.9528 10.2628L77.6994 42.1513L71.071 43.2509C71.4393 43.2509 83.9596 16.4939 93.5339 10.6293Z" fill="url(#paint17_linear_640_273)"/>
<path d="M41.9797 1.83237C41.9797 1.83237 44.5574 -0.36683 45.6622 -0.000295957C46.7669 0.732772 57.8142 21.2587 58.5507 21.2587C59.2872 20.8921 94.2703 9.52958 94.2703 10.2627C94.2703 10.9957 55.2365 27.8563 53.7635 27.4897C52.2905 27.1232 41.9797 1.83237 41.9797 1.83237Z" fill="url(#paint18_linear_640_273)"/>
<path d="M46.0305 129.386C47.5034 129.02 58.919 69.6412 62.9696 67.0755C64.8109 65.9759 102.003 73.3065 102.74 72.5735C103.476 71.8404 71.8075 43.2508 71.8075 43.2508C71.8075 43.2508 92.4291 12.4619 94.2703 10.2627C96.1115 8.43005 55.2365 24.5575 55.2365 24.5575C55.2365 24.5575 44.9257 1.46591 42.348 1.83244C39.7703 2.19898 33.5102 38.1193 32.4055 38.4858C30.9325 38.8524 4.78722 51.681 5.89195 52.0476C7.36492 52.4141 32.7737 59.7448 32.7737 59.7448C32.7737 59.7448 42.7163 129.753 46.0305 129.386Z" fill="#251C0D"/>
<path d="M48.24 129.386C48.24 129.386 60.392 74.0397 62.2332 72.5736C64.0744 71.1074 66.6522 71.1074 66.6522 71.1074L54.1319 128.287C54.1319 128.287 52.6589 129.02 48.24 129.386Z" fill="url(#paint19_linear_640_273)"/>
<path d="M46.0305 129.386C47.5035 129.019 58.1825 68.1748 62.2332 65.6091C64.0744 64.5095 102.003 73.3063 102.74 72.5732C103.476 71.8402 71.4393 43.2505 71.4393 43.2505C71.4393 43.2505 90.9562 13.1948 92.7974 11.3621C94.6386 9.52941 55.2366 24.5573 55.2366 24.5573C55.2366 24.5573 43.0845 3.29834 42.3481 3.29834C41.6116 3.66487 33.8785 38.1191 32.4055 38.4856C30.9325 38.8521 10.3109 49.4816 11.4156 49.8481C12.8886 50.2147 32.4055 59.378 32.4055 59.378C32.4055 59.378 42.7163 129.753 46.0305 129.386Z" fill="url(#paint20_linear_640_273)"/>
<path opacity="0.5" d="M55.2364 24.5573C55.2364 24.5573 43.0844 3.29834 42.3479 3.29834C42.3479 3.29834 41.9797 4.39794 41.2432 5.86408C41.6114 14.6609 37.5607 37.386 60.0236 50.5812C72.1756 57.9119 99.7939 71.4736 101.635 70.7406C94.6384 63.7764 71.8074 43.2505 71.8074 43.2505C71.8074 43.2505 91.3243 13.1948 93.1655 11.3621C94.6384 9.52941 55.2364 24.5573 55.2364 24.5573Z" fill="url(#paint21_radial_640_273)"/>
<path opacity="0.2" d="M32.4055 59.3784C32.4055 59.3784 40.1386 61.9442 41.9798 70.0079C43.8211 78.4382 46.0305 129.386 46.0305 129.386C46.0305 129.386 42.3481 120.59 38.2974 96.7649C34.615 73.6732 32.4055 59.3784 32.4055 59.3784Z" fill="url(#paint22_linear_640_273)"/>
<path d="M71.8074 43.2506C71.8074 43.2506 73.6486 42.884 74.0168 42.5175C74.3851 42.151 88.7466 20.892 93.902 12.4617C95.0067 10.9956 93.902 10.2625 93.902 10.2625C95.0067 9.896 96.8479 9.896 96.8479 9.896C96.8479 9.896 75.4898 42.151 75.4898 42.5175C75.4898 42.884 104.581 71.1071 105.686 71.8402C106.79 72.5733 108.632 72.2067 108.632 72.5733C108.632 72.9398 104.581 73.3063 103.845 73.3063C89.1148 70.7406 63.706 67.0753 64.0743 66.3422C64.4425 65.2426 81.0135 67.8083 84.3277 67.4418C88.0101 67.0753 88.0101 65.9757 88.7466 65.9757C89.4831 65.9757 100.899 71.8402 101.267 71.1071C102.003 70.3741 88.7466 59.0115 88.7466 59.0115C88.7466 59.0115 90.2195 59.7446 90.5878 59.3781C90.956 59.3781 75.4898 43.6171 74.7533 43.2506C74.0168 42.884 71.8074 43.6171 71.8074 43.2506Z" fill="#251C0D"/>
<path opacity="0.5" fill-rule="evenodd" clip-rule="evenodd" d="M47.8717 133.418C47.5035 135.984 44.5576 137.816 40.8751 137.45C37.1927 137.083 34.615 134.884 34.615 132.318C34.9832 129.753 37.9292 127.92 41.6116 128.286C45.294 128.653 47.8717 130.852 47.8717 133.418Z" fill="url(#paint23_radial_640_273)"/>
<path d="M48.9764 148.446C66.2839 148.446 72.1757 145.147 72.1757 145.147V142.215C72.1757 142.215 68.1251 145.514 51.5541 145.88C34.9832 146.613 25.7771 141.115 25.7771 141.115V144.414C25.7771 144.414 31.669 148.446 48.9764 148.446Z" fill="#AB9A77"/>
</g>
<defs>
<linearGradient id="paint0_linear_640_273" x1="44.7265" y1="153.3" x2="56.5263" y2="190.199" gradientUnits="userSpaceOnUse">
<stop stop-color="#1D1D1B"/>
<stop offset="1" stop-color="#575756"/>
</linearGradient>
<linearGradient id="paint1_linear_640_273" x1="6.78713" y1="144.93" x2="90.4045" y2="144.93" gradientUnits="userSpaceOnUse">
<stop stop-color="#575756"/>
<stop offset="1" stop-color="#1D1D1B"/>
</linearGradient>
<linearGradient id="paint2_linear_640_273" x1="20.6551" y1="165.036" x2="76.5795" y2="165.036" gradientUnits="userSpaceOnUse">
<stop stop-color="#575756"/>
<stop offset="1" stop-color="#1D1D1B"/>
</linearGradient>
<linearGradient id="paint3_linear_640_273" x1="21.0415" y1="165.037" x2="76.1933" y2="165.037" gradientUnits="userSpaceOnUse">
<stop stop-color="#EAC26F"/>
<stop offset="0.5795" stop-color="#BF9339"/>
<stop offset="1" stop-color="#A47417"/>
</linearGradient>
<linearGradient id="paint4_linear_640_273" x1="29.2717" y1="143.562" x2="87.3047" y2="143.562" gradientUnits="userSpaceOnUse">
<stop stop-color="#575756"/>
<stop offset="1" stop-color="#1D1D1B"/>
</linearGradient>
<linearGradient id="paint5_linear_640_273" x1="25.8658" y1="131.771" x2="72.2339" y2="131.771" gradientUnits="userSpaceOnUse">
<stop stop-color="#EAC26F"/>
<stop offset="0.5795" stop-color="#BF9339"/>
<stop offset="1" stop-color="#A47417"/>
</linearGradient>
<linearGradient id="paint6_linear_640_273" x1="25.8658" y1="140.904" x2="72.2339" y2="140.904" gradientUnits="userSpaceOnUse">
<stop stop-color="#A47417"/>
<stop offset="0.4205" stop-color="#BF9339"/>
<stop offset="1" stop-color="#EAC26F"/>
</linearGradient>
<linearGradient id="paint7_linear_640_273" x1="42.3346" y1="142.776" x2="63.0347" y2="142.776" gradientUnits="userSpaceOnUse">
<stop stop-color="#EAC26F"/>
<stop offset="0.5795" stop-color="#BF9339"/>
<stop offset="1" stop-color="#A47417"/>
</linearGradient>
<linearGradient id="paint8_linear_640_273" x1="63.1843" y1="140.689" x2="70.9539" y2="140.689" gradientUnits="userSpaceOnUse">
<stop stop-color="#975A03"/>
<stop offset="0.2603" stop-color="#724608"/>
<stop offset="0.5843" stop-color="#4B300E"/>
<stop offset="0.8423" stop-color="#322212"/>
<stop offset="1" stop-color="#291D13"/>
</linearGradient>
<linearGradient id="paint9_linear_640_273" x1="27.9674" y1="141.213" x2="32.8345" y2="141.213" gradientUnits="userSpaceOnUse">
<stop stop-color="#291D13"/>
<stop offset="0.1577" stop-color="#322212"/>
<stop offset="0.4157" stop-color="#4B300E"/>
<stop offset="0.7397" stop-color="#724608"/>
<stop offset="1" stop-color="#975A03"/>
</linearGradient>
<linearGradient id="paint10_linear_640_273" x1="27.9674" y1="132.917" x2="72.2339" y2="132.917" gradientUnits="userSpaceOnUse">
<stop stop-color="#975A03"/>
<stop offset="0.2603" stop-color="#724608"/>
<stop offset="0.5843" stop-color="#4B300E"/>
<stop offset="0.8423" stop-color="#322212"/>
<stop offset="1" stop-color="#291D13"/>
</linearGradient>
<linearGradient id="paint11_linear_640_273" x1="29.7102" y1="133.441" x2="68.6828" y2="133.441" gradientUnits="userSpaceOnUse">
<stop stop-color="#F4E0B6"/>
<stop offset="0.2458" stop-color="#F4DFB4"/>
<stop offset="0.3343" stop-color="#F2DCAD"/>
<stop offset="0.3974" stop-color="#EFD8A2"/>
<stop offset="0.4484" stop-color="#ECD191"/>
<stop offset="0.4916" stop-color="#E7C87B"/>
<stop offset="0.5057" stop-color="#E5C472"/>
<stop offset="0.5274" stop-color="#E2C06F"/>
<stop offset="0.8436" stop-color="#BB8F47"/>
<stop offset="1" stop-color="#AC7C37"/>
</linearGradient>
<linearGradient id="paint12_linear_640_273" x1="27.4076" y1="134.841" x2="44.0802" y2="134.841" gradientUnits="userSpaceOnUse">
<stop stop-color="#EAC26F"/>
<stop offset="0.5795" stop-color="#BF9339"/>
<stop offset="1" stop-color="#A47417"/>
</linearGradient>
<linearGradient id="paint13_linear_640_273" x1="46.0239" y1="97.022" x2="67.3923" y2="97.022" gradientUnits="userSpaceOnUse">
<stop stop-color="#EAC26F"/>
<stop offset="0.2407" stop-color="#E2B969"/>
<stop offset="0.633" stop-color="#CCA157"/>
<stop offset="1" stop-color="#B28443"/>
</linearGradient>
<linearGradient id="paint14_linear_640_273" x1="62.2545" y1="70.2297" x2="109.008" y2="70.2297" gradientUnits="userSpaceOnUse">
<stop stop-color="#975A03"/>
<stop offset="0.2503" stop-color="#B27C26"/>
<stop offset="0.5787" stop-color="#D0A24D"/>
<stop offset="0.8401" stop-color="#E3B966"/>
<stop offset="1" stop-color="#EAC26F"/>
</linearGradient>
<radialGradient id="paint15_radial_640_273" cx="0" cy="0" r="1" gradientUnits="userSpaceOnUse" gradientTransform="translate(13.4969 53.9523) scale(16.698 15.821)">
<stop stop-color="#EAC26F"/>
<stop offset="0.2407" stop-color="#E2B969"/>
<stop offset="0.633" stop-color="#CCA157"/>
<stop offset="1" stop-color="#B28443"/>
</radialGradient>
<linearGradient id="paint16_linear_640_273" x1="71.7621" y1="57.5332" x2="109.008" y2="57.5332" gradientUnits="userSpaceOnUse">
<stop stop-color="#B28443"/>
<stop offset="0.367" stop-color="#CCA157"/>
<stop offset="0.7593" stop-color="#E2B969"/>
<stop offset="1" stop-color="#EAC26F"/>
</linearGradient>
<linearGradient id="paint17_linear_640_273" x1="83.0835" y1="25.8764" x2="87.9139" y2="28.4262" gradientUnits="userSpaceOnUse">
<stop stop-color="#B28443"/>
<stop offset="0.367" stop-color="#CCA157"/>
<stop offset="0.7593" stop-color="#E2B969"/>
<stop offset="1" stop-color="#EAC26F"/>
</linearGradient>
<linearGradient id="paint18_linear_640_273" x1="68.3879" y1="4.99483" x2="64.0396" y2="28.8729" gradientUnits="userSpaceOnUse">
<stop stop-color="#B28443"/>
<stop offset="0.367" stop-color="#CCA157"/>
<stop offset="0.7593" stop-color="#E2B969"/>
<stop offset="1" stop-color="#EAC26F"/>
</linearGradient>
<linearGradient id="paint19_linear_640_273" x1="48.2488" y1="100.253" x2="66.7932" y2="100.253" gradientUnits="userSpaceOnUse">
<stop stop-color="#291D13"/>
<stop offset="0.112" stop-color="#32251A"/>
<stop offset="0.2952" stop-color="#4B3C2E"/>
<stop offset="0.527" stop-color="#73624E"/>
<stop offset="0.7953" stop-color="#A9957A"/>
<stop offset="1" stop-color="#D8C1A0"/>
</linearGradient>
<linearGradient id="paint20_linear_640_273" x1="66.3553" y1="10.2577" x2="45.0256" y2="127.381" gradientUnits="userSpaceOnUse">
<stop stop-color="#F4E0B6"/>
<stop offset="0.2458" stop-color="#F4DFB4"/>
<stop offset="0.3343" stop-color="#F2DCAD"/>
<stop offset="0.3974" stop-color="#EFD8A2"/>
<stop offset="0.4484" stop-color="#ECD191"/>
<stop offset="0.4916" stop-color="#E7C87B"/>
<stop offset="0.5057" stop-color="#E5C472"/>
<stop offset="0.5274" stop-color="#E2C06F"/>
<stop offset="0.8436" stop-color="#BB8F47"/>
<stop offset="1" stop-color="#AC7C37"/>
</linearGradient>
<radialGradient id="paint21_radial_640_273" cx="0" cy="0" r="1" gradientUnits="userSpaceOnUse" gradientTransform="translate(71.153 37.0689) scale(32.0493 31.9005)">
<stop stop-color="white"/>
<stop offset="0.1314" stop-color="#FEFBF8"/>
<stop offset="0.3226" stop-color="#FAF0E5"/>
<stop offset="0.5504" stop-color="#F4DEC5"/>
<stop offset="0.8042" stop-color="#ECC699"/>
<stop offset="1" stop-color="#E5B072"/>
</radialGradient>
<linearGradient id="paint22_linear_640_273" x1="32.5016" y1="94.5188" x2="46.0239" y2="94.5188" gradientUnits="userSpaceOnUse">
<stop stop-color="#92682E"/>
<stop offset="0.5382" stop-color="#B38A47"/>
<stop offset="1" stop-color="#D3AB5E"/>
</linearGradient>
<radialGradient id="paint23_radial_640_273" cx="0" cy="0" r="1" gradientUnits="userSpaceOnUse" gradientTransform="translate(41.0994 132.917) rotate(95.1793) scale(4.57496 6.62844)">
<stop stop-color="white"/>
<stop offset="0.1193" stop-color="#EAE7E4"/>
<stop offset="0.3152" stop-color="#B4B0AB"/>
<stop offset="0.5152" stop-color="#7E776F"/>
<stop offset="1" stop-color="#000100"/>
</radialGradient>
<clipPath id="clip0_640_273">
<rect width="109" height="184" fill="white"/>
</clipPath>
</defs>
</svg>
