<svg width="85" height="85" viewBox="0 0 85 85" fill="none" xmlns="http://www.w3.org/2000/svg">
<g clip-path="url(#clip0_253_170)">
<path d="M44.8006 -0.000118628C46.4958 0.237312 48.4331 0.474742 50.1283 0.712172C50.1283 0.712172 50.3704 0.712172 50.6126 0.712172C50.6126 2.13675 50.6126 3.56133 50.6126 4.98591C50.3704 9.49709 49.8861 14.0083 48.9175 18.282C47.2223 24.4552 44.0742 29.9161 39.2308 34.1898C36.3249 36.8016 32.9345 39.4133 29.7864 42.025C25.9118 45.1116 22.5214 48.4356 19.8576 52.472C16.7095 57.2206 15.0143 62.444 14.0457 67.9049C13.8035 69.8044 13.5613 71.4664 13.3192 73.6032C12.5927 72.891 11.8662 72.4161 11.3818 71.7038C9.68668 69.5669 7.99152 67.6675 6.29636 65.5306C6.0542 65.2932 6.0542 65.0558 6.0542 64.8183C6.29636 57.9328 7.50719 51.0474 10.8975 44.8742C13.3192 40.6004 16.7095 37.2764 20.8263 34.6647C23.9744 32.5278 27.1226 30.6284 30.2707 28.4915C33.4189 26.3546 36.3249 23.9803 38.5043 20.6563C41.1682 16.8574 42.6212 12.3463 43.1055 7.83508C43.3476 5.22335 43.3477 2.37418 43.3477 -0.237549C43.5898 -0.000118628 44.3163 -0.000118628 44.8006 -0.000118628Z" fill="#A3A3A3"/>
<path d="M26.6383 81.9134C23.7323 80.7262 21.0685 79.3017 18.4047 77.8771C17.1938 77.1648 16.9517 76.2151 16.9517 74.7905C17.436 70.5167 17.9203 66.0056 19.3733 61.9692C21.3106 56.5084 24.4588 51.7598 28.8178 47.7234C32.2081 44.6368 35.8405 41.7877 39.473 38.9385C46.9802 32.7653 51.5813 24.9301 53.0343 15.4329C53.5186 11.8715 53.7608 8.0726 54.0029 4.51115C54.0029 3.56142 54.0029 2.84913 54.0029 1.89941C54.9716 2.13684 55.6981 2.37427 56.6668 2.6117C58.8462 3.56143 61.0257 4.51115 63.2052 5.46087C63.4474 5.6983 63.6896 5.93573 63.6896 6.17316C63.6896 11.8715 63.4474 17.5698 61.9944 23.2681C60.2992 30.391 56.4246 36.3268 50.6126 41.0754C47.2223 43.9246 43.832 46.5363 40.6839 49.3854C33.9032 54.8463 29.7864 61.9692 27.8491 70.2793C26.8804 73.8408 26.6383 77.6396 26.3961 81.4385C26.8804 81.4385 26.8804 81.6759 26.6383 81.9134Z" fill="#A3A3A3"/>
<path d="M68.0484 8.31006C70.9543 10.4469 73.6182 12.8212 75.7976 15.433C76.0398 15.6704 76.0398 15.9078 76.0398 16.1453C76.0398 21.3687 75.7976 26.5922 74.3447 31.8156C72.6495 38.4637 69.017 43.9246 63.9315 48.1983C60.7834 50.8101 57.6352 53.4218 54.4871 56.0335C48.1908 61.4944 44.3162 68.3799 42.8632 76.2151C42.3788 78.8268 42.1367 81.676 41.8945 84.2877C41.8945 84.5251 41.8945 84.7626 41.8945 85C40.1993 84.7626 38.5042 84.7626 37.0512 84.5251C35.1139 84.2877 33.1766 83.8129 31.4814 83.338C31.2392 83.338 30.9971 82.8631 30.9971 82.6257C31.2392 77.6397 31.7236 72.8911 33.1766 67.905C35.1139 61.9693 38.262 56.7458 43.1053 52.7095C46.4956 49.8603 50.1281 47.0112 53.5184 44.162C61.0256 37.9888 65.6267 30.1536 67.3219 20.6564C68.0484 16.6201 68.2905 12.8212 68.5327 8.78492C68.0484 8.78492 68.0484 8.54749 68.0484 8.31006Z" fill="#A3A3A3"/>
<path d="M45.769 84.7626C46.2534 77.1649 47.7063 70.042 52.3075 63.8688C54.7291 60.5448 57.8773 57.933 61.2676 55.3213C64.1736 52.947 67.3217 50.3353 69.9855 47.7235C74.3445 43.2124 77.2505 37.9889 78.4613 31.8157C79.1878 28.7291 79.43 25.6425 79.9143 22.3185C79.9143 21.8436 79.9143 21.6062 79.9143 21.1313H80.1565C80.883 22.7934 81.8516 24.4554 82.5781 26.3548C83.0625 27.3045 83.3046 28.2543 83.5468 28.9665C84.2733 30.6286 84.2733 32.528 84.2733 34.4274C84.2733 38.2263 84.0311 42.2626 82.5781 45.8241C81.3673 49.3855 79.43 52.2347 76.2818 54.1341C73.8602 55.7962 71.1964 57.4582 68.5326 59.1202C63.2049 62.4442 59.8146 67.4302 58.6038 73.366C58.1195 75.9777 57.8773 78.352 57.6351 80.9637C57.6351 81.676 57.393 81.9135 56.6665 82.1509C53.2761 83.338 49.8858 84.0503 46.2534 84.5252C46.0112 84.5252 45.769 84.5252 45.5269 84.5252C46.0112 84.7626 45.769 84.7626 45.769 84.7626Z" fill="#A3A3A3"/>
<path d="M39.4727 0.23743C39.4727 1.18715 39.4727 1.89944 39.4727 2.84916C39.4727 6.64805 38.9884 10.6844 37.7776 14.2458C36.0824 18.5196 33.4186 21.8436 29.5439 24.4553C25.9115 27.067 22.0368 29.4413 18.1622 31.8156C10.1707 37.0391 5.32742 44.3994 3.3901 53.6592C3.14793 55.0838 2.90576 56.7458 2.42143 58.4078C1.9371 57.2207 1.45277 56.0335 1.21061 54.8464C-1.21104 46.5363 0.484112 38.9385 5.32742 32.0531C7.02257 29.6788 9.44423 28.0168 11.8659 26.5922C14.0454 25.1676 16.2249 23.743 18.4043 22.3184C23.4898 18.757 26.3958 14.0084 27.1223 8.07263C27.3645 6.41061 27.3645 4.7486 27.3645 3.08659C27.3645 2.84916 27.6066 2.3743 27.8488 2.3743C31.4813 1.18715 35.1137 0.23743 38.9884 0C38.9884 0.23743 39.2306 0.23743 39.4727 0.23743Z" fill="#A3A3A3"/>
<path d="M84.9998 50.8101C82.8203 62.919 74.1024 74.7905 61.9941 80.4888C61.9941 79.5391 61.9941 78.8268 62.2363 78.1145C62.7206 74.3156 63.4471 70.7542 65.8688 67.4302C67.5639 65.0559 69.9856 63.3939 72.4072 61.7318C74.1024 60.7821 75.7976 59.595 77.4927 58.6453C80.3987 56.5084 83.0625 53.8967 84.9998 50.8101Z" fill="#A3A3A3"/>
<path d="M23.4901 4.27368C23.4901 9.25972 22.5214 14.0083 18.6468 17.5698C17.1938 18.9944 15.4986 19.9441 13.8035 21.1312C11.3818 22.7932 8.96016 24.2178 6.78067 25.6424C4.35902 27.3044 2.4217 29.2038 0.968706 31.5782C0.968706 31.8156 0.72654 31.8156 0.484375 31.8156C4.11685 19.4692 11.624 10.4469 23.4901 4.27368Z" fill="#A3A3A3"/>
</g>
<defs>
<clipPath id="clip0_253_170">
<rect width="85" height="85" fill="white"/>
</clipPath>
</defs>
</svg>
