<svg width="85" height="85" viewBox="0 0 85 85" fill="none" xmlns="http://www.w3.org/2000/svg">
<g clip-path="url(#clip0_253_200)">
<path d="M42.6108 0C45.5151 1.21745 48.4194 2.4349 51.3237 3.65234C51.9666 3.91797 52.5874 4.20573 53.2303 4.44922C53.6737 4.60417 53.7845 4.86979 53.7845 5.3125C53.7624 7.21615 53.7845 9.11979 53.7624 11.0456C53.7624 11.3333 53.6294 11.7096 53.4298 11.9089C49.9491 15.4284 46.4241 18.9258 42.9212 22.4232C42.8547 22.4896 42.7439 22.556 42.633 22.6224C42.4113 22.4232 42.2118 22.2461 42.0122 22.0469C38.5537 18.5937 35.073 15.1406 31.6145 11.6432C31.3263 11.3555 31.1046 10.8464 31.1046 10.4479C31.0381 8.78776 31.1046 7.1276 31.0602 5.46745C31.0381 4.86979 31.2376 4.60417 31.7918 4.38281C34.9622 3.09896 38.1325 1.77083 41.3028 0.464844C41.6354 0.332031 41.9457 0.154948 42.2561 0C42.3891 0 42.5 0 42.6108 0Z" fill="#A3A3A3"/>
<path d="M85 42.677C83.9358 45.1562 82.8938 47.6575 81.8297 50.1367C81.3863 51.177 80.9428 52.2174 80.5438 53.2799C80.3886 53.7226 80.1447 53.8554 79.6792 53.8333C77.9055 53.8111 76.1319 53.8333 74.3583 53.8111C74.0923 53.8111 73.7376 53.7005 73.5602 53.5234C69.88 49.8932 66.2219 46.2408 62.5195 42.5442C62.7412 42.3007 62.9186 42.1015 63.096 41.9023C66.5101 38.4934 69.9022 35.0846 73.3385 31.72C73.6267 31.4322 74.1366 31.233 74.5357 31.2109C76.1985 31.1445 77.8612 31.2109 79.524 31.1666C80.1004 31.1445 80.3886 31.3216 80.6103 31.8749C81.9183 35.1288 83.2929 38.3606 84.6452 41.5924C84.7561 41.8359 84.8891 42.0794 85 42.3229C85 42.4557 85 42.5663 85 42.677Z" fill="#A3A3A3"/>
<path d="M42.2784 85C39.6623 83.8932 37.0463 82.7865 34.4302 81.6797C33.5212 81.3034 32.6123 80.8828 31.6589 80.5508C31.2155 80.3958 31.0825 80.1523 31.0825 79.6875C31.1047 77.9167 31.0825 76.1458 31.1047 74.375C31.1047 74.1094 31.2155 73.7552 31.3929 73.5781C35.0288 69.9036 38.6868 66.2513 42.3892 62.5547C42.6109 62.7539 42.7883 62.9089 42.9657 63.0638C46.402 66.4948 49.8384 69.9036 53.2304 73.3346C53.5186 73.6224 53.7181 74.1315 53.7403 74.5299C53.8068 76.1237 53.7182 77.7396 53.7847 79.3333C53.8068 80.0417 53.5851 80.3958 52.92 80.6615C49.6832 81.9453 46.4685 83.2956 43.2539 84.6458C43.0322 84.7344 42.8105 84.8672 42.5888 84.9779C42.5001 85 42.3892 85 42.2784 85Z" fill="#A3A3A3"/>
<path d="M42.4554 26.4519C43.9186 27.935 45.2932 29.3295 46.7121 30.7019C47.0003 30.9675 47.4659 31.1667 47.8427 31.1667C49.7715 31.211 51.7225 31.1889 53.7843 31.1889C53.7843 32.2292 53.7843 33.2032 53.7843 34.1772C53.7843 35.3725 53.4739 36.7006 53.8952 37.6967C54.3386 38.7371 55.4914 39.4897 56.356 40.3529C57.0655 41.0613 57.7749 41.7253 58.5287 42.4558C57.0655 43.9167 55.7131 45.2891 54.3386 46.6394C53.9173 47.0378 53.7621 47.4363 53.7621 48.0118C53.8065 49.9154 53.7843 51.8191 53.7843 53.8113C51.8555 53.8113 50.0154 53.8334 48.1753 53.7891C47.4437 53.767 46.9338 53.9884 46.446 54.5196C45.1602 55.8477 43.83 57.1537 42.4554 58.5261C41.1252 57.198 39.8172 55.9584 38.5757 54.6082C37.9992 53.9884 37.4006 53.7449 36.5582 53.7891C34.7846 53.8556 33.011 53.8113 31.1265 53.8113C31.1265 52.8595 31.1265 51.974 31.1265 51.0665C31.1265 49.8048 31.4591 48.366 31.0157 47.3035C30.5501 46.1967 29.3086 45.3998 28.3996 44.4701C27.7567 43.8282 27.1137 43.2084 26.4043 42.5222C27.8454 41.0834 29.1977 39.711 30.5944 38.3608C31.0157 37.9623 31.1709 37.5639 31.1487 36.9884C31.1043 35.0847 31.1265 33.1811 31.1265 31.1889C33.0553 31.1889 34.8954 31.1667 36.7355 31.211C37.4672 31.2332 37.9771 31.0118 38.4648 30.4805C39.7285 29.1303 41.0587 27.8464 42.4554 26.4519Z" fill="#A3A3A3"/>
<path d="M56.6222 28.2447C56.6222 27.957 56.6222 27.7135 56.6222 27.47C56.6222 22.6666 56.6001 17.8411 56.6444 13.0377C56.6444 12.6393 56.8661 12.1302 57.1543 11.8203C58.3072 10.5807 59.5487 9.42964 60.7015 8.21219C61.0784 7.81375 61.3888 7.79162 61.8544 7.99083C65.2021 9.38537 68.5497 10.7578 71.8752 12.1744C72.23 12.3294 72.6069 12.6835 72.762 13.0377C74.2031 16.4244 75.5998 19.8111 77.0187 23.1979C77.1961 23.6184 77.1517 23.8841 76.8192 24.194C75.5333 25.4335 74.3139 26.6953 73.0503 27.9348C72.8507 28.1341 72.5403 28.3111 72.2743 28.3111C67.1752 28.3333 62.0761 28.3333 56.977 28.3111C56.9105 28.3333 56.8218 28.289 56.6222 28.2447Z" fill="#A3A3A3"/>
<path d="M56.7111 56.6888C56.9106 56.6667 57.088 56.6445 57.2432 56.6445C62.2092 56.6445 67.1532 56.6445 72.1193 56.6667C72.4296 56.6667 72.8287 56.8216 73.0504 57.043C74.3363 58.2604 75.5556 59.5443 76.8415 60.7839C77.1962 61.1159 77.1962 61.3815 77.0188 61.8021C75.5778 65.2109 74.1811 68.6419 72.74 72.0508C72.607 72.3385 72.3188 72.6484 72.0306 72.7591C68.6164 74.1979 65.18 75.6146 61.7658 77.0313C61.3446 77.2083 61.0786 77.1641 60.7682 76.832C59.5267 75.5482 58.263 74.3307 57.0215 73.069C56.8219 72.8698 56.6446 72.5599 56.6446 72.2943C56.6224 67.2031 56.6224 62.112 56.6446 57.0208C56.6224 56.9323 56.6667 56.8659 56.7111 56.6888Z" fill="#A3A3A3"/>
<path d="M28.2002 28.3111C27.912 28.3332 27.6238 28.3554 27.3578 28.3554C22.569 28.3554 17.7803 28.3775 12.9694 28.3332C12.526 28.3332 12.0161 28.0897 11.6835 27.802C10.4642 26.6731 9.33351 25.4556 8.13632 24.3046C7.75943 23.9504 7.64858 23.6626 7.87028 23.1757C9.31134 19.8111 10.6637 16.4244 12.1048 13.0819C12.26 12.7277 12.6368 12.3736 12.9916 12.2186C16.3171 10.802 19.6869 9.45171 23.0124 8.03504C23.5223 7.81369 23.8327 7.85796 24.2318 8.27853C25.4068 9.51811 26.6705 10.7134 27.8455 11.9309C28.045 12.1522 28.2446 12.4843 28.2446 12.772C28.2667 17.8632 28.2667 22.9543 28.2446 28.0455C28.2667 28.0897 28.2224 28.134 28.2002 28.3111Z" fill="#A3A3A3"/>
<path d="M28.267 56.7553C28.267 57.0873 28.267 57.3972 28.267 57.685C28.267 62.4441 28.2892 67.2032 28.2449 71.9623C28.2449 72.3829 28.0232 72.8699 27.7349 73.1798C26.5821 74.4194 25.3406 75.5704 24.1656 76.7878C23.833 77.1199 23.567 77.2306 23.1014 77.0313C19.6872 75.5925 16.2509 74.198 12.8367 72.7592C12.5485 72.6264 12.2602 72.3386 12.1272 72.0509C10.7083 68.6199 9.31162 65.1889 7.87057 61.78C7.69321 61.3595 7.73755 61.0938 8.0701 60.7839C9.35596 59.5444 10.5753 58.2826 11.839 57.0431C12.0385 56.8438 12.3489 56.6667 12.615 56.6667C17.7141 56.6446 22.8132 56.6446 27.9123 56.6667C27.9788 56.6667 28.0675 56.711 28.267 56.7553Z" fill="#A3A3A3"/>
<path d="M22.3251 42.5221C22.1477 42.7214 21.9482 42.9206 21.7708 43.1198C18.3788 46.5065 15.009 49.8932 11.5948 53.2578C11.2844 53.5677 10.7523 53.7891 10.3089 53.7891C8.62398 53.8555 6.93906 53.7891 5.23196 53.8333C4.74422 53.8333 4.50035 53.6784 4.32299 53.2357C2.92628 49.8047 1.48522 46.3958 0.0885088 42.9648C-0.0223415 42.6992 -0.0223415 42.3008 0.0885088 42.0352C1.50739 38.582 2.92628 35.1289 4.3895 31.7201C4.50035 31.4766 4.89941 31.2109 5.16545 31.2109C6.96123 31.1667 8.757 31.1667 10.5749 31.2109C10.841 31.2109 11.1957 31.3437 11.3731 31.5208C14.9868 35.1068 18.6005 38.7148 22.1921 42.3008C22.2142 42.3451 22.2586 42.4336 22.3251 42.5221Z" fill="#A3A3A3"/>
<path d="M40.3271 24.5924C39.2186 25.6991 38.0214 26.8944 36.8243 28.0676C36.6912 28.2004 36.4917 28.3111 36.3365 28.3333C34.6294 28.3554 32.9223 28.3554 31.1709 28.3554C31.1709 23.9726 31.1709 19.6783 31.1709 15.4504C34.186 18.483 37.2455 21.5155 40.3271 24.5924Z" fill="#A3A3A3"/>
<path d="M15.3638 31.2332C19.5761 31.2332 23.8771 31.2332 28.2667 31.2332C28.2667 32.9819 28.2667 34.6863 28.2667 36.4128C28.2667 36.5678 28.1781 36.7449 28.0672 36.8334C26.87 38.0509 25.6507 39.2683 24.5422 40.3751C21.4384 37.2983 18.4011 34.2436 15.3638 31.2332Z" fill="#A3A3A3"/>
<path d="M60.3915 40.3751C59.283 39.2683 58.0858 38.073 56.9108 36.8777C56.7778 36.7449 56.6447 36.5457 56.6447 36.3907C56.6226 34.6863 56.6226 32.9819 56.6226 31.2332C61.0122 31.2332 65.3132 31.2332 69.5477 31.2332C66.5104 34.2657 63.4731 37.2983 60.3915 40.3751Z" fill="#A3A3A3"/>
<path d="M24.498 44.625C25.6065 45.7318 26.8037 46.9271 28.0009 48.1224C28.1339 48.2552 28.2448 48.4544 28.2448 48.6094C28.2669 50.3138 28.2669 52.0182 28.2669 53.7669C23.8773 53.7669 19.5763 53.7669 15.3418 53.7669C18.3791 50.7344 21.4164 47.6797 24.498 44.625Z" fill="#A3A3A3"/>
<path d="M56.6226 53.7448C56.6226 52.0182 56.6226 50.3359 56.6447 48.6536C56.6447 48.4544 56.7777 48.2331 56.9329 48.1003C58.0858 46.9049 59.2608 45.7318 60.3693 44.625C63.4509 47.7018 66.4882 50.7344 69.4812 53.7448C65.3354 53.7448 61.0566 53.7448 56.6226 53.7448Z" fill="#A3A3A3"/>
<path d="M31.1934 56.6445C32.9226 56.6445 34.6076 56.6445 36.2703 56.6667C36.4698 56.6667 36.6915 56.7995 36.8246 56.9544C38.0217 58.1055 39.1968 59.2786 40.3053 60.3854C37.2236 63.4622 34.1863 66.4948 31.1934 69.4831C31.1934 65.3659 31.1934 61.0716 31.1934 56.6445Z" fill="#A3A3A3"/>
<path d="M53.7402 56.6667C53.7402 61.0495 53.7402 65.3438 53.7402 69.5495C50.7029 66.5169 47.6656 63.4844 44.584 60.4076C45.7147 59.3008 46.9118 58.0833 48.1312 56.888C48.242 56.7773 48.4194 56.6888 48.5524 56.6888C50.2595 56.6445 51.9666 56.6667 53.7402 56.6667Z" fill="#A3A3A3"/>
<path d="M53.7182 28.3334C51.9668 28.3334 50.2597 28.3334 48.5526 28.3334C48.3974 28.3334 48.2422 28.2449 48.1314 28.1342C47.0007 27.0053 45.87 25.8764 44.7837 24.8139C47.7988 21.8035 50.7696 18.8595 53.7404 15.8933C53.7182 19.9662 53.7182 24.1277 53.7182 28.3334Z" fill="#A3A3A3"/>
</g>
<defs>
<clipPath id="clip0_253_200">
<rect width="85" height="85" fill="white"/>
</clipPath>
</defs>
</svg>
