<svg width="85" height="85" viewBox="0 0 85 85" fill="none" xmlns="http://www.w3.org/2000/svg">
<g clip-path="url(#clip0_278_141)">
<path d="M84.9998 43.4575C84.7332 43.7738 84.4999 44.1235 84.1999 44.4066C80.784 47.8032 77.368 51.1999 73.9353 54.5799C73.7853 54.7298 73.6354 54.863 73.3521 55.1127C73.3521 52.6651 73.3854 50.384 73.3354 48.1029C73.3021 47.0873 73.2188 46.0383 72.9022 45.0892C72.6022 44.1568 72.019 43.3243 71.5024 42.3419C72.6522 40.9599 73.3687 39.2782 73.3521 37.3135C73.3354 35.6818 73.3521 34.05 73.3521 32.4183C73.3521 31.6024 73.3521 30.7866 73.3521 29.8042C73.6853 30.1206 73.9186 30.3037 74.1186 30.5202C77.4346 33.8169 80.7673 37.1137 84.0833 40.4105C84.4166 40.7435 84.6999 41.1264 84.9998 41.4761C84.9998 42.1255 84.9998 42.7915 84.9998 43.4575Z" fill="#A3A3A3"/>
<path d="M42.6081 30.9697C43.5579 31.9354 44.4244 32.7846 45.2409 33.6837C46.0907 34.6495 47.1072 35.099 48.407 34.9825C48.9235 34.9325 49.4568 34.9825 50.09 34.9825C50.09 35.7317 50.1066 36.4477 50.09 37.1637C50.0566 38.0794 50.3732 38.8287 51.0398 39.4614C52.0396 40.4271 53.0061 41.3928 54.1225 42.4918C53.2393 43.3409 52.4395 44.1901 51.5563 44.9227C50.4232 45.8718 49.9067 47.0373 50.09 48.5025C50.14 48.9354 50.09 49.385 50.09 49.9345C49.3401 49.9345 48.6236 49.9511 47.9237 49.9345C47.0072 49.9012 46.2574 50.2175 45.6242 50.8835C44.6577 51.8826 43.6912 52.8483 42.6081 53.9472C41.7916 53.098 40.9751 52.3654 40.2752 51.5162C39.2421 50.2841 37.9923 49.7347 36.4093 49.9345C36.0261 49.9844 35.6428 49.9345 35.1429 49.9345C35.1429 49.1852 35.1262 48.4692 35.1429 47.7699C35.1762 46.8542 34.8596 46.1049 34.1931 45.4722C33.2099 44.5065 32.2268 43.5407 31.1104 42.4418C31.8769 41.7092 32.5434 40.9599 33.3099 40.3605C34.7596 39.2116 35.3928 37.7631 35.1262 35.9149C35.0929 35.6485 35.1262 35.3654 35.1262 34.9825C35.8927 34.9825 36.5926 34.9658 37.3091 34.9825C38.2256 35.0158 38.9755 34.6828 39.6087 34.0334C40.5418 33.051 41.525 32.0686 42.6081 30.9697Z" fill="#A3A3A3"/>
<path d="M11.8143 29.8042C11.8143 32.2518 11.781 34.5329 11.831 36.814C11.8643 37.8297 11.9476 38.8786 12.2642 39.8277C12.5642 40.7601 13.1474 41.5926 13.6806 42.5584C12.5475 43.907 11.8143 45.5721 11.831 47.5035C11.831 49.052 11.831 50.6005 11.831 52.149C11.831 53.0814 11.831 54.0138 11.831 55.0961C11.531 54.813 11.3477 54.6632 11.1811 54.4967C7.78178 51.1666 4.39911 47.8199 1.0331 44.4565C-0.333299 43.0912 -0.333299 41.8091 1.0331 40.4438C4.36578 37.1303 7.71512 33.8169 11.0478 30.5035C11.2644 30.3037 11.4811 30.1039 11.8143 29.8042Z" fill="#A3A3A3"/>
<path d="M30.094 73.1949C32.2103 73.1949 34.3432 73.145 36.4594 73.2116C38.609 73.2782 40.5919 72.9118 42.2916 71.4966C42.4249 71.3967 42.8248 71.43 42.9748 71.5632C44.5078 72.7453 46.2408 73.2449 48.1571 73.2116C50.2067 73.1783 52.2563 73.1949 54.3059 73.1949C54.5725 73.1949 54.8392 73.1949 55.2557 73.1949C54.9725 73.4946 54.8225 73.6778 54.6559 73.8443C51.3065 77.2243 47.9405 80.6043 44.5912 83.9843C43.2248 85.3496 41.9417 85.333 40.5753 83.9843C37.026 80.4878 33.46 77.0078 29.894 73.5279C29.9607 73.4114 30.0274 73.3115 30.094 73.1949Z" fill="#A3A3A3"/>
<path d="M55.0892 11.7051C52.8563 11.7051 50.6234 11.7551 48.3905 11.6885C46.3743 11.6385 44.558 12.1214 42.9583 13.3535C42.7916 13.4701 42.375 13.4534 42.2084 13.3202C40.6587 12.1547 38.9424 11.6385 37.0094 11.6718C34.7099 11.7218 32.4103 11.6885 29.9941 11.6885C30.1941 11.4387 30.2941 11.2722 30.4441 11.139C33.8767 7.67576 37.3094 4.21249 40.742 0.765867C41.6752 -0.183203 43.3582 -0.299755 44.258 0.566063C47.9573 4.16254 51.6232 7.75901 55.3058 11.3721C55.2225 11.5053 55.1559 11.6052 55.0892 11.7051Z" fill="#A3A3A3"/>
<path d="M22.9624 19.3144C23.129 19.0147 23.2623 18.7649 23.3956 18.5151C24.0955 17.2997 24.9453 16.6004 26.545 16.667C30.0777 16.8168 33.627 16.7169 37.1763 16.7169C39.1092 16.7169 40.0924 17.6993 40.0924 19.6307C40.0924 21.6787 40.109 23.7267 40.0757 25.7747C40.059 26.1577 39.8758 26.6239 39.6091 26.9236C38.7926 27.8227 37.9261 28.6885 37.0263 29.5044C36.743 29.7708 36.2931 29.9206 35.8932 29.9872C34.3268 30.2703 33.1937 29.6709 32.0773 28.4887C29.1445 25.3584 26.0451 22.3947 22.9624 19.3144Z" fill="#A3A3A3"/>
<path d="M62.3045 19.2312C60.4882 21.0461 58.7885 22.7445 57.0722 24.4428C55.4058 26.1078 53.7395 27.7562 52.0898 29.4379C51.6899 29.8542 51.2566 29.9374 50.7067 30.004C49.1904 30.1872 48.1906 29.5545 47.0908 28.5554C45.5244 27.1402 44.7746 25.6416 45.0412 23.527C45.2078 22.1617 45.0579 20.7631 45.0745 19.3811C45.0912 17.7827 46.1076 16.717 47.724 16.7004C51.7399 16.6837 55.7558 16.6837 59.7716 16.717C60.0882 16.717 60.4882 16.9002 60.6881 17.1333C61.2547 17.7827 61.7379 18.482 62.3045 19.2312Z" fill="#A3A3A3"/>
<path d="M16.8301 31.3359C16.8301 29.5043 16.8801 27.6894 16.8134 25.8579C16.7801 24.9754 17.0967 24.4093 17.7466 23.8932C19.2629 22.6777 19.2463 22.661 20.596 23.9931C23.5454 26.9402 26.4949 29.9039 29.4776 32.8511C29.9442 33.3173 30.0941 33.7835 30.1608 34.4328C30.3108 35.8814 29.6942 36.8305 28.7611 37.8961C27.328 39.5445 25.7617 40.2771 23.5788 39.994C22.2457 39.8275 20.8626 39.9774 19.5129 39.9607C17.9132 39.9441 16.8634 38.9118 16.8467 37.3133C16.8134 35.3153 16.8301 33.3173 16.8301 31.3359Z" fill="#A3A3A3"/>
<path d="M65.6371 22.7776C66.0703 23.0107 66.3203 23.1439 66.5536 23.2771C67.77 23.9764 68.4532 24.8422 68.3865 26.4407C68.2366 29.9539 68.3365 33.4671 68.3365 36.9803C68.3365 39.0117 67.3701 39.9607 65.3205 39.9607C63.2709 39.9607 61.2213 39.9774 59.1717 39.9441C58.8384 39.9441 58.4218 39.7609 58.1719 39.5278C57.272 38.6953 56.4555 37.7962 55.5724 36.9637C55.1725 36.5974 55.0891 36.1811 55.0225 35.665C54.8225 34.1331 55.3891 33.0675 56.5222 32.0019C59.4383 29.2546 62.2211 26.3574 65.0539 23.5102C65.2871 23.2937 65.4371 23.0273 65.6371 22.7776Z" fill="#A3A3A3"/>
<path d="M19.4296 62.0724C19.1464 61.9225 18.9297 61.8226 18.7131 61.6894C17.4467 60.9735 16.6802 60.1076 16.7635 58.4259C16.9468 54.946 16.8135 51.4495 16.8135 47.9695C16.8135 45.9215 17.7633 44.9558 19.7962 44.9558C21.8458 44.9558 23.8954 44.9392 25.945 44.9725C26.3116 44.9725 26.7282 45.1723 27.0115 45.422C27.628 45.9382 28.1113 46.6042 28.7445 47.0871C29.8943 47.9529 30.2942 49.0352 30.1442 50.4504C30.0775 51.0831 29.9609 51.566 29.4777 52.0322C26.1283 55.3456 22.8123 58.6924 19.4296 62.0724Z" fill="#A3A3A3"/>
<path d="M65.8369 62.1392C64.3538 60.6573 62.9874 59.292 61.621 57.9266C59.6214 55.9286 57.6385 53.9306 55.6222 51.9492C55.2223 51.5496 55.1057 51.1333 55.039 50.5838C54.8557 49.0853 55.4722 48.0696 56.4721 46.9707C57.8884 45.4222 59.3715 44.6397 61.5044 44.9061C62.8708 45.0726 64.2705 44.9227 65.6536 44.9394C67.2699 44.956 68.3364 45.9717 68.3364 47.5701C68.3531 51.5829 68.3531 55.5956 68.3364 59.6083C68.3364 59.908 68.2031 60.291 67.9865 60.4741C67.3033 61.0736 66.5701 61.5897 65.8369 62.1392Z" fill="#A3A3A3"/>
<path d="M22.8789 65.6856C26.4615 62.1058 29.8942 58.6425 33.3768 55.2292C33.6268 54.9961 34.11 54.9961 34.51 54.9128C35.9763 54.6464 36.9595 55.3291 38.0426 56.2948C39.6423 57.7267 40.3921 59.2586 40.1255 61.3898C39.9589 62.7218 40.1089 64.1038 40.0922 65.4525C40.0755 67.1175 39.0591 68.1665 37.4094 68.1665C33.4268 68.1831 29.4276 68.1831 25.4451 68.1498C25.1285 68.1498 24.7119 68 24.5119 67.7669C23.9287 67.1508 23.4455 66.4182 22.8789 65.6856Z" fill="#A3A3A3"/>
<path d="M62.2209 65.6023C62.0376 65.9187 61.9043 66.2017 61.7544 66.4515C61.0712 67.6503 60.2213 68.2997 58.655 68.2331C55.1223 68.0832 51.573 68.1831 48.0237 68.1831C46.0908 68.1831 45.1076 67.2008 45.091 65.286C45.091 63.238 45.0576 61.19 45.1076 59.142C45.1243 58.7257 45.3576 58.2595 45.6242 57.9432C46.1074 57.3438 46.774 56.8942 47.2405 56.2781C48.107 55.1293 49.1902 54.7463 50.6065 54.8795C51.2564 54.9461 51.723 55.0793 52.1896 55.5455C55.4889 58.9089 58.8383 62.2223 62.2209 65.6023Z" fill="#A3A3A3"/>
<path d="M22.6957 11.9716C21.9958 12.6376 21.2126 13.237 20.6127 13.9863C19.7629 15.0686 19.0631 16.2674 18.2965 17.4163C18.1299 17.6494 17.9799 17.9824 17.7466 18.0823C15.697 18.9315 14.0807 20.3467 12.6143 21.9452C12.4144 22.1616 12.3144 22.478 12.1811 22.7444C12.0644 22.6611 11.9478 22.5779 11.8311 22.4946C11.8311 21.1792 11.8311 19.8639 11.8311 18.5485C11.8311 17.1665 11.8145 15.7845 11.8311 14.3859C11.8478 12.9873 12.7809 11.8218 14.114 11.7885C16.9301 11.7052 19.7462 11.7718 22.5624 11.7718C22.629 11.8218 22.6623 11.8884 22.6957 11.9716Z" fill="#A3A3A3"/>
<path d="M22.7624 73.1783C19.8296 73.1783 17.0802 73.2116 14.3307 73.1616C12.9476 73.145 11.8645 72.096 11.8479 70.7473C11.7979 67.9834 11.8312 65.2194 11.8312 62.239C12.1978 62.6053 12.4644 62.8218 12.681 63.0715C14.1307 64.62 15.6971 66.002 17.6967 66.8179C17.88 66.8845 18.08 67.0676 18.1466 67.2508C18.9965 69.3654 20.4962 70.9804 22.1125 72.5123C22.3291 72.6621 22.4791 72.8619 22.7624 73.1783Z" fill="#A3A3A3"/>
<path d="M73.3358 62.3057C73.3358 63.7043 73.3358 64.9697 73.3358 66.2185C73.3358 67.6504 73.3525 69.099 73.3358 70.5309C73.3191 71.9462 72.386 73.0951 71.0362 73.1284C68.2201 73.2116 65.404 73.145 62.4546 72.9619C62.8712 72.5789 63.2878 72.196 63.7043 71.813C65.0707 70.5309 66.2039 69.0824 66.937 67.3341C67.0204 67.1509 67.1703 66.9178 67.337 66.8512C69.5865 65.9521 71.2695 64.3204 72.9025 62.6054C73.0025 62.5388 73.1025 62.4722 73.3358 62.3057Z" fill="#A3A3A3"/>
<path d="M73.1024 22.6111C72.6525 22.1116 72.1859 21.5954 71.736 21.1125C70.5529 19.8471 69.1532 18.8481 67.5701 18.1488C67.3535 18.0489 67.1036 17.899 67.0202 17.6992C66.1204 15.4514 64.4874 13.7697 62.7711 12.138C62.6878 12.0714 62.6378 11.9715 62.4878 11.805C62.7211 11.7717 62.8877 11.7218 63.0543 11.7218C65.5539 11.7218 68.0367 11.7051 70.5362 11.7218C72.2859 11.7218 73.319 12.7707 73.3357 14.519C73.3523 16.9833 73.3357 19.4475 73.3357 21.9118C73.3357 22.0949 73.319 22.2781 73.319 22.4612C73.2357 22.5278 73.169 22.5778 73.1024 22.6111Z" fill="#A3A3A3"/>
</g>
<defs>
<clipPath id="clip0_278_141">
<rect width="85" height="85" fill="white"/>
</clipPath>
</defs>
</svg>
