<svg width="85" height="85" viewBox="0 0 85 85" fill="none" xmlns="http://www.w3.org/2000/svg">
<g clip-path="url(#clip0_249_105)">
<path d="M33.281 64.3564C33.281 60.1761 33.281 55.9958 33.281 51.6864C29.0182 51.6864 24.8324 51.6864 20.6466 51.6864C23.6511 48.6673 26.6043 45.6998 29.5061 42.7839C26.3731 39.6357 23.42 36.6424 20.4668 33.6491C20.5182 33.5459 20.5695 33.4427 20.5952 33.3394C24.781 33.3394 28.9925 33.3394 33.281 33.3394C33.281 28.9785 33.281 24.7724 33.281 20.3598C36.3626 23.5337 39.2644 26.5529 42.2946 29.701C45.4532 26.4238 48.4064 23.3789 51.3339 20.334C51.4366 20.4114 51.5393 20.4888 51.6677 20.5404C51.6677 24.7466 51.6677 28.9527 51.6677 33.2362C55.9562 33.2362 60.1677 33.2362 64.3021 33.2362C61.3233 36.2296 58.3701 39.2229 55.4683 42.1388C58.6012 45.2869 61.5801 48.2544 64.5333 51.2478C64.4819 51.351 64.4305 51.4542 64.3792 51.5574C60.1934 51.5574 55.9819 51.5574 51.6934 51.5574C51.6934 55.9184 51.6934 60.1245 51.6934 64.5113C48.6118 61.3631 45.6843 58.344 42.6027 55.1959C39.4698 58.4472 36.5423 61.4921 33.6148 64.5371C33.5378 64.5371 33.4094 64.4597 33.281 64.3564Z" fill="#A3A3A3"/>
<path d="M42.423 26.5529C42.0121 25.9594 41.781 25.5466 41.4728 25.2369C38.9562 22.7081 36.4139 20.205 33.923 17.6504C33.5892 17.3149 33.3324 16.7214 33.3324 16.257C33.281 13.4185 33.3324 10.58 33.281 7.74147C33.281 7.07055 33.4864 6.60607 34.0257 6.1932C36.5937 4.25786 39.136 2.32253 41.6783 0.335579C42.2689 -0.128902 42.7312 -0.103097 43.2961 0.335579C45.8641 2.32253 48.4577 4.25786 51 6.27061C51.3339 6.55446 51.642 7.12216 51.642 7.53503C51.6934 10.5026 51.6934 13.4701 51.6677 16.4376C51.6677 16.7472 51.5393 17.1601 51.3082 17.3665C48.4834 20.3599 45.6073 23.3016 42.423 26.5529Z" fill="#A3A3A3"/>
<path d="M54.0045 30.9137C54.0045 30.5524 54.0045 30.217 54.0045 29.8815C54.0045 26.2431 53.9788 22.6047 54.0301 18.9662C54.0301 18.4501 54.2869 17.8308 54.6208 17.4696C56.5981 15.4052 58.6268 13.3925 60.6812 11.4055C61.015 11.0959 61.6314 10.8378 62.0936 10.8894C65.2779 11.2507 68.4365 11.741 71.6208 12.128C72.4425 12.2313 72.7764 12.5925 72.8791 13.3925C73.29 16.5922 73.7265 19.7662 74.1117 22.9659C74.1631 23.3788 74.009 23.9465 73.7265 24.2303C71.6465 26.3721 69.515 28.4881 67.3836 30.5782C67.1525 30.8105 66.793 30.9911 66.4848 30.9911C62.4788 31.0169 58.4727 31.0169 54.4667 30.9911C54.364 30.9911 54.2356 30.9395 54.0045 30.9137Z" fill="#A3A3A3"/>
<path d="M54.1585 54.0089C57.3171 54.0089 60.45 54.1896 63.583 53.9573C66.1766 53.7767 68.0256 54.6024 69.6177 56.5894C70.799 58.0602 72.2627 59.2988 73.6238 60.6407C74.1117 61.1052 74.2914 61.5696 74.1887 62.2664C73.7265 65.3887 73.3413 68.511 72.9561 71.6592C72.8534 72.4849 72.5195 72.872 71.6464 72.9752C68.4621 73.3623 65.3035 73.8268 62.1192 74.2138C61.7083 74.2654 61.1434 74.0848 60.8609 73.801C58.7038 71.7108 56.5981 69.5948 54.518 67.4531C54.2869 67.2208 54.0815 66.8596 54.0815 66.5499C54.0558 62.4986 54.0815 58.4215 54.0815 54.3702C54.0301 54.2928 54.0815 54.2154 54.1585 54.0089Z" fill="#A3A3A3"/>
<path d="M58.8838 42.5C61.8113 39.5324 64.6874 36.5907 67.6149 33.7006C67.8203 33.4942 68.2312 33.3652 68.5394 33.3652C71.5182 33.3394 74.4971 33.3135 77.5016 33.391C77.9382 33.391 78.5031 33.7006 78.7599 34.0619C80.7629 36.5907 82.6632 39.1712 84.6406 41.7C85.1285 42.3193 85.0771 42.8096 84.6149 43.4031C82.6632 45.9061 80.7629 48.4866 78.7856 50.9638C78.4774 51.3509 77.8355 51.6605 77.3475 51.6605C74.42 51.738 71.5182 51.7122 68.5907 51.6864C68.2569 51.6864 67.846 51.5831 67.6406 51.3767C64.7388 48.435 61.837 45.4675 58.8838 42.5Z" fill="#A3A3A3"/>
<path d="M42.7055 58.7568C45.6073 61.7244 48.4834 64.6661 51.3339 67.6336C51.565 67.8658 51.6934 68.3045 51.6934 68.6658C51.7191 71.3752 51.7448 74.0847 51.6677 76.7942C51.6677 77.2587 51.3852 77.878 51.0257 78.1618C48.4834 80.3552 45.8898 82.4454 43.3475 84.6129C42.7055 85.1548 42.2176 85.1032 41.6012 84.5871C39.0846 82.4454 36.5167 80.3552 34 78.1876C33.6148 77.8522 33.3324 77.2329 33.3324 76.7426C33.2553 74.0589 33.281 71.401 33.3067 68.7174C33.3067 68.3303 33.4608 67.8658 33.6919 67.6078C36.5167 64.7435 39.3671 61.905 42.2176 59.0665C42.2946 58.9891 42.3973 58.9633 42.7055 58.7568Z" fill="#A3A3A3"/>
<path d="M30.9954 31.0171C29.7885 31.0171 28.71 31.0171 27.6057 31.0171C24.6526 31.0171 21.6994 31.0429 18.7462 30.9913C18.3353 30.9913 17.7961 30.7591 17.5136 30.4752C15.5619 28.5915 13.6616 26.7078 11.787 24.7466C11.4532 24.3853 11.2477 23.7402 11.2734 23.2241C11.5045 20.0502 11.8127 16.8762 12.0951 13.6765C12.2235 12.3088 12.3263 12.2314 13.7387 12.1024C16.8716 11.8186 20.0045 11.5347 23.1374 11.2251C23.8051 11.1476 24.293 11.2509 24.7809 11.7411C26.6556 13.6765 28.6072 15.5602 30.4819 17.4955C30.713 17.7278 30.9698 18.0632 30.9954 18.3729C30.9954 22.5274 30.9954 26.6819 30.9954 31.0171Z" fill="#A3A3A3"/>
<path d="M30.9956 54.1637C30.9956 55.7894 30.9956 57.4151 30.9956 59.0665C30.9956 61.4406 31.0212 63.8404 30.9699 66.2144C30.9699 66.6531 30.7388 67.2208 30.4049 67.5304C28.556 69.4658 26.63 71.3237 24.7811 73.2332C24.3188 73.7235 23.8309 73.8525 23.1632 73.8009C19.9533 73.4654 16.7176 73.1558 13.482 72.9236C12.5575 72.8461 12.1723 72.4849 12.0953 71.5817C11.8128 68.2529 11.4789 64.8984 11.2221 61.5696C11.1965 61.1825 11.4019 60.6664 11.6587 60.3826C13.6104 58.3698 15.5877 56.4087 17.5907 54.4475C17.7962 54.2411 18.13 54.0347 18.4125 54.0347C22.4956 54.0089 26.553 54.0347 30.636 54.0347C30.7388 54.0347 30.8158 54.0863 30.9956 54.1637Z" fill="#A3A3A3"/>
<path d="M26.1422 42.5773C24.8582 43.8675 23.5485 45.1836 22.2388 46.4996C20.6981 48.0479 19.1573 49.6219 17.5908 51.1186C17.2826 51.4025 16.7691 51.6347 16.3582 51.6347C13.6618 51.6863 10.9654 51.6863 8.26905 51.6347C7.78114 51.6347 7.13914 51.325 6.80531 50.9638C4.64821 48.4607 2.54247 45.8803 0.411048 43.3515C-0.128227 42.7063 -0.128227 42.2161 0.411048 41.5967C2.56815 39.0679 4.64821 36.5133 6.80531 33.9844C7.11346 33.6232 7.7041 33.3393 8.16634 33.3135C10.9141 33.2619 13.6875 33.2619 16.4352 33.2877C16.7434 33.2877 17.1542 33.4167 17.3854 33.6232C20.2872 36.4875 23.1633 39.4034 26.0394 42.2935C26.0908 42.3709 26.0908 42.4483 26.1422 42.5773Z" fill="#A3A3A3"/>
</g>
<defs>
<clipPath id="clip0_249_105">
<rect width="85" height="85" fill="white"/>
</clipPath>
</defs>
</svg>
