<svg width="160" height="32" viewBox="0 0 160 32" fill="none" xmlns="http://www.w3.org/2000/svg">
<g clip-path="url(#clip0_524_406)">
<path d="M42.138 25.3123C40.682 25.3123 39.2866 25.1216 37.952 24.7403C36.6173 24.3416 35.5426 23.8303 34.728 23.2063L36.158 20.0343C36.938 20.589 37.8566 21.0483 38.914 21.4123C39.9886 21.759 41.072 21.9323 42.164 21.9323C42.996 21.9323 43.6633 21.8543 44.166 21.6983C44.686 21.525 45.0673 21.291 45.31 20.9963C45.5526 20.7016 45.674 20.3636 45.674 19.9823C45.674 19.497 45.4833 19.1156 45.102 18.8383C44.7206 18.5436 44.218 18.3096 43.594 18.1363C42.97 17.9456 42.2766 17.7723 41.514 17.6163C40.7686 17.443 40.0146 17.235 39.252 16.9923C38.5066 16.7496 37.822 16.4376 37.198 16.0563C36.574 15.675 36.0626 15.1723 35.664 14.5483C35.2826 13.9243 35.092 13.127 35.092 12.1563C35.092 11.1163 35.3693 10.1716 35.924 9.32228C36.496 8.45561 37.3453 7.77095 38.472 7.26828C39.616 6.74828 41.046 6.48828 42.762 6.48828C43.906 6.48828 45.0326 6.62695 46.142 6.90428C47.2513 7.16428 48.2306 7.56295 49.08 8.10028L47.78 11.2983C46.9306 10.813 46.0813 10.4576 45.232 10.2323C44.3826 9.98961 43.5506 9.86828 42.736 9.86828C41.9213 9.86828 41.254 9.96361 40.734 10.1543C40.214 10.345 39.8413 10.5963 39.616 10.9083C39.3906 11.203 39.278 11.5496 39.278 11.9483C39.278 12.4163 39.4686 12.7976 39.85 13.0923C40.2313 13.3696 40.734 13.595 41.358 13.7683C41.982 13.9416 42.6666 14.115 43.412 14.2883C44.1746 14.4616 44.9286 14.661 45.674 14.8863C46.4366 15.1116 47.13 15.415 47.754 15.7963C48.378 16.1776 48.8806 16.6803 49.262 17.3043C49.6606 17.9283 49.86 18.717 49.86 19.6703C49.86 20.693 49.574 21.629 49.002 22.4783C48.43 23.3276 47.572 24.0123 46.428 24.5323C45.3013 25.0523 43.8713 25.3123 42.138 25.3123ZM59.394 25.2083C57.7994 25.2083 56.3954 24.8963 55.182 24.2723C53.986 23.6483 53.0587 22.799 52.4 21.7243C51.7414 20.6323 51.412 19.393 51.412 18.0063C51.412 16.6023 51.7327 15.363 52.374 14.2883C53.0327 13.1963 53.9254 12.347 55.052 11.7403C56.1787 11.1163 57.4527 10.8043 58.874 10.8043C60.2434 10.8043 61.474 11.099 62.566 11.6883C63.6754 12.2603 64.5507 13.0923 65.192 14.1843C65.8334 15.259 66.154 16.5503 66.154 18.0583C66.154 18.2143 66.1454 18.3963 66.128 18.6043C66.1107 18.795 66.0934 18.977 66.076 19.1503H54.714V16.7843H63.944L62.384 17.4863C62.384 16.7583 62.2367 16.1256 61.942 15.5883C61.6474 15.051 61.24 14.635 60.72 14.3403C60.2 14.0283 59.5934 13.8723 58.9 13.8723C58.2067 13.8723 57.5914 14.0283 57.054 14.3403C56.534 14.635 56.1267 15.0596 55.832 15.6143C55.5374 16.1516 55.39 16.793 55.39 17.5383V18.1623C55.39 18.925 55.5547 19.601 55.884 20.1903C56.2307 20.7623 56.7074 21.2043 57.314 21.5163C57.938 21.811 58.666 21.9583 59.498 21.9583C60.2434 21.9583 60.8934 21.8456 61.448 21.6203C62.02 21.395 62.54 21.057 63.008 20.6063L65.166 22.9463C64.5247 23.6743 63.7187 24.2376 62.748 24.6363C61.7774 25.0176 60.6594 25.2083 59.394 25.2083ZM75.6144 25.2083C74.1064 25.2083 72.763 24.905 71.5844 24.2983C70.4057 23.6743 69.4784 22.8163 68.8024 21.7243C68.1437 20.6323 67.8144 19.393 67.8144 18.0063C67.8144 16.6023 68.1437 15.363 68.8024 14.2883C69.4784 13.1963 70.4057 12.347 71.5844 11.7403C72.763 11.1163 74.1064 10.8043 75.6144 10.8043C77.0877 10.8043 78.3704 11.1163 79.4624 11.7403C80.5544 12.347 81.3604 13.2223 81.8804 14.3663L78.7344 16.0563C78.3704 15.3976 77.911 14.9123 77.3564 14.6003C76.819 14.2883 76.2297 14.1323 75.5884 14.1323C74.895 14.1323 74.271 14.2883 73.7164 14.6003C73.1617 14.9123 72.7197 15.3543 72.3904 15.9263C72.0784 16.4983 71.9224 17.1916 71.9224 18.0063C71.9224 18.821 72.0784 19.5143 72.3904 20.0863C72.7197 20.6583 73.1617 21.1003 73.7164 21.4123C74.271 21.7243 74.895 21.8803 75.5884 21.8803C76.2297 21.8803 76.819 21.733 77.3564 21.4383C77.911 21.1263 78.3704 20.6323 78.7344 19.9563L81.8804 21.6723C81.3604 22.799 80.5544 23.6743 79.4624 24.2983C78.3704 24.905 77.0877 25.2083 75.6144 25.2083ZM90.1177 25.2083C88.9564 25.2083 87.9164 24.983 86.9977 24.5323C86.0964 24.0816 85.3944 23.397 84.8917 22.4783C84.389 21.5423 84.1377 20.355 84.1377 18.9163V11.0123H88.1937V18.3183C88.1937 19.4796 88.4364 20.3376 88.9217 20.8923C89.4244 21.4296 90.1264 21.6983 91.0277 21.6983C91.6517 21.6983 92.2064 21.5683 92.6917 21.3083C93.177 21.031 93.5584 20.615 93.8357 20.0603C94.113 19.4883 94.2517 18.7776 94.2517 17.9283V11.0123H98.3077V25.0003H94.4597V21.1523L95.1617 22.2703C94.6937 23.241 94.0004 23.9776 93.0817 24.4803C92.1804 24.9656 91.1924 25.2083 90.1177 25.2083ZM102.065 25.0003V11.0123H105.939V14.9643L105.393 13.8203C105.809 12.8323 106.476 12.087 107.395 11.5843C108.314 11.0643 109.432 10.8043 110.749 10.8043V14.5483C110.576 14.531 110.42 14.5223 110.281 14.5223C110.142 14.505 109.995 14.4963 109.839 14.4963C108.73 14.4963 107.828 14.817 107.135 15.4583C106.459 16.0823 106.121 17.0616 106.121 18.3963V25.0003H102.065ZM120.001 25.2083C118.407 25.2083 117.003 24.8963 115.789 24.2723C114.593 23.6483 113.666 22.799 113.007 21.7243C112.349 20.6323 112.019 19.393 112.019 18.0063C112.019 16.6023 112.34 15.363 112.981 14.2883C113.64 13.1963 114.533 12.347 115.659 11.7403C116.786 11.1163 118.06 10.8043 119.481 10.8043C120.851 10.8043 122.081 11.099 123.173 11.6883C124.283 12.2603 125.158 13.0923 125.799 14.1843C126.441 15.259 126.761 16.5503 126.761 18.0583C126.761 18.2143 126.753 18.3963 126.735 18.6043C126.718 18.795 126.701 18.977 126.683 19.1503H115.321V16.7843H124.551L122.991 17.4863C122.991 16.7583 122.844 16.1256 122.549 15.5883C122.255 15.051 121.847 14.635 121.327 14.3403C120.807 14.0283 120.201 13.8723 119.507 13.8723C118.814 13.8723 118.199 14.0283 117.661 14.3403C117.141 14.635 116.734 15.0596 116.439 15.6143C116.145 16.1516 115.997 16.793 115.997 17.5383V18.1623C115.997 18.925 116.162 19.601 116.491 20.1903C116.838 20.7623 117.315 21.2043 117.921 21.5163C118.545 21.811 119.273 21.9583 120.105 21.9583C120.851 21.9583 121.501 21.8456 122.055 21.6203C122.627 21.395 123.147 21.057 123.615 20.6063L125.773 22.9463C125.132 23.6743 124.326 24.2376 123.355 24.6363C122.385 25.0176 121.267 25.2083 120.001 25.2083ZM137.111 25.0003V6.80028H141.323V25.0003H137.111ZM149.412 25.0003V10.2323H143.588V6.80028H159.448V10.2323H153.624V25.0003H149.412Z" fill="#57595B"/>
<path d="M13.2307 31.5684C13.034 31.5684 12.8315 31.5684 12.6349 31.5684C12.468 31.5147 12.2953 31.4729 12.1284 31.4132C10.4781 30.828 8.89925 30.0875 7.4336 29.1201C5.24705 27.675 3.50137 25.8238 2.25617 23.5068C0.856058 20.8972 0.236435 18.0727 0.0815287 15.1466C-0.0316718 12.9013 0.00407684 10.65 0.0100347 8.40474C0.0159927 6.67895 1.21353 5.37118 2.93537 5.16218C3.57287 5.08455 4.22229 5.03678 4.85382 4.93526C7.23699 4.55905 9.34014 3.57971 11.1275 1.94948C11.5624 1.55535 12.0033 1.17915 12.5753 1C12.8136 1 13.0519 1 13.2902 1C13.9397 1.19109 14.4103 1.64493 14.8929 2.08682C14.8989 2.0928 14.9048 2.09877 14.9167 2.10474C16.2632 3.27516 17.7944 4.10521 19.5103 4.60085C20.6602 4.93526 21.8458 5.04872 23.0255 5.17412C24.5507 5.32938 25.8138 6.6909 25.8614 8.22559C25.9389 10.7516 25.9985 13.2775 25.7482 15.8035C25.5755 17.5412 25.2835 19.2491 24.7294 20.9092C23.6213 24.2115 21.6671 26.8807 18.8013 28.8693C17.0854 30.0516 15.2206 30.9474 13.2307 31.5684ZM20.5351 16.2753C20.5112 12.0713 17.1033 8.66151 12.9328 8.66151C8.75626 8.66151 5.34833 12.0772 5.33046 16.2753C5.31258 20.4553 8.79797 23.9427 12.9506 23.9009C17.1569 23.8591 20.5589 20.4434 20.5351 16.2753Z" fill="#57595B"/>
<path d="M18.8311 16.3239C18.795 19.7001 16.1171 22.3369 12.9218 22.2876C9.63613 22.2322 7.05458 19.5276 7.0967 16.2623C7.14484 12.917 9.79861 10.2247 12.994 10.2801C16.2676 10.3356 18.8973 13.0648 18.8311 16.3239ZM11.5858 17.5253C11.2789 17.1988 11.0021 16.8846 10.7133 16.5888C10.274 16.1453 9.73844 16.1145 9.35331 16.5149C8.98021 16.8969 9.01632 17.4637 9.44357 17.9073C9.90091 18.3816 10.3643 18.8499 10.8276 19.3243C11.3692 19.8787 11.8386 19.8787 12.3802 19.3243C13.692 17.9812 15.0039 16.6381 16.3097 15.2951C16.3879 15.215 16.4661 15.1349 16.5323 15.0486C16.8994 14.5373 16.6707 13.8226 16.075 13.6255C15.6718 13.4961 15.3589 13.6501 15.0761 13.9397C13.9327 15.1164 12.7894 16.2931 11.5858 17.5253Z" fill="#57595B"/>
</g>
<defs>
<clipPath id="clip0_524_406">
<rect width="160" height="32" fill="white"/>
</clipPath>
</defs>
</svg>
