<svg width="151" height="32" viewBox="0 0 151 32" fill="none" xmlns="http://www.w3.org/2000/svg">
<path d="M35.1577 25V6.80002H38.6417L46.3897 19.644H44.5437L52.1617 6.80002H55.6197L55.6717 25H51.7197L51.6937 12.858H52.4217L46.3377 23.076H44.4397L38.2257 12.858H39.1097V25H35.1577ZM59.7037 25V11.012H63.7597V25H59.7037ZM61.7317 9.06203C60.9864 9.06203 60.3797 8.84535 59.9117 8.41202C59.4437 7.97869 59.2097 7.44135 59.2097 6.80002C59.2097 6.15869 59.4437 5.62136 59.9117 5.18802C60.3797 4.75469 60.9864 4.53802 61.7317 4.53802C62.477 4.53802 63.0837 4.74602 63.5517 5.16202C64.0197 5.56069 64.2537 6.08069 64.2537 6.72202C64.2537 7.39803 64.0197 7.96135 63.5517 8.41202C63.101 8.84535 62.4944 9.06203 61.7317 9.06203ZM76.026 10.804C77.1354 10.804 78.1234 11.0293 78.99 11.48C79.874 11.9133 80.5674 12.5893 81.07 13.508C81.5727 14.4093 81.824 15.5707 81.824 16.992V25H77.768V17.616C77.768 16.4893 77.5167 15.6573 77.014 15.12C76.5287 14.5827 75.8354 14.314 74.934 14.314C74.2927 14.314 73.712 14.4527 73.192 14.73C72.6894 14.99 72.2907 15.3973 71.996 15.952C71.7187 16.5067 71.58 17.2173 71.58 18.084V25H67.524V11.012H71.398V14.886L70.67 13.716C71.1727 12.78 71.892 12.0607 72.828 11.558C73.764 11.0553 74.83 10.804 76.026 10.804ZM85.5006 25V11.012H89.5566V25H85.5006ZM87.5286 9.06203C86.7833 9.06203 86.1766 8.84535 85.7086 8.41202C85.2406 7.97869 85.0066 7.44135 85.0066 6.80002C85.0066 6.15869 85.2406 5.62136 85.7086 5.18802C86.1766 4.75469 86.7833 4.53802 87.5286 4.53802C88.2739 4.53802 88.8806 4.74602 89.3486 5.16202C89.8166 5.56069 90.0506 6.08069 90.0506 6.72202C90.0506 7.39803 89.8166 7.96135 89.3486 8.41202C88.8979 8.84535 88.2913 9.06203 87.5286 9.06203ZM99.9769 25.208C98.4862 25.208 97.1602 24.896 95.9989 24.272C94.8549 23.648 93.9449 22.7987 93.2689 21.724C92.6102 20.632 92.2809 19.3927 92.2809 18.006C92.2809 16.602 92.6102 15.3627 93.2689 14.288C93.9449 13.196 94.8549 12.3467 95.9989 11.74C97.1602 11.116 98.4862 10.804 99.9769 10.804C101.45 10.804 102.768 11.116 103.929 11.74C105.09 12.3467 106 13.1873 106.659 14.262C107.318 15.3367 107.647 16.5847 107.647 18.006C107.647 19.3927 107.318 20.632 106.659 21.724C106 22.7987 105.09 23.648 103.929 24.272C102.768 24.896 101.45 25.208 99.9769 25.208ZM99.9769 21.88C100.653 21.88 101.26 21.724 101.797 21.412C102.334 21.1 102.759 20.658 103.071 20.086C103.383 19.4967 103.539 18.8033 103.539 18.006C103.539 17.1913 103.383 16.498 103.071 15.926C102.759 15.354 102.334 14.912 101.797 14.6C101.26 14.288 100.653 14.132 99.9769 14.132C99.3009 14.132 98.6942 14.288 98.1569 14.6C97.6196 14.912 97.1862 15.354 96.8569 15.926C96.5449 16.498 96.3889 17.1913 96.3889 18.006C96.3889 18.8033 96.5449 19.4967 96.8569 20.086C97.1862 20.658 97.6196 21.1 98.1569 21.412C98.6942 21.724 99.3009 21.88 99.9769 21.88ZM118.626 25.208C117.448 25.208 116.416 24.948 115.532 24.428C114.648 23.908 113.955 23.1193 113.452 22.062C112.967 20.9873 112.724 19.6353 112.724 18.006C112.724 16.3593 112.958 15.0073 113.426 13.95C113.894 12.8927 114.57 12.104 115.454 11.584C116.338 11.064 117.396 10.804 118.626 10.804C119.944 10.804 121.122 11.1073 122.162 11.714C123.22 12.3033 124.052 13.1353 124.658 14.21C125.282 15.2847 125.594 16.55 125.594 18.006C125.594 19.4793 125.282 20.7533 124.658 21.828C124.052 22.9027 123.22 23.7347 122.162 24.324C121.122 24.9133 119.944 25.208 118.626 25.208ZM110.358 30.044V11.012H114.232V13.872L114.154 18.032L114.414 22.166V30.044H110.358ZM117.924 21.88C118.6 21.88 119.198 21.724 119.718 21.412C120.256 21.1 120.68 20.658 120.992 20.086C121.322 19.4967 121.486 18.8033 121.486 18.006C121.486 17.1913 121.322 16.498 120.992 15.926C120.68 15.354 120.256 14.912 119.718 14.6C119.198 14.288 118.6 14.132 117.924 14.132C117.248 14.132 116.642 14.288 116.104 14.6C115.567 14.912 115.142 15.354 114.83 15.926C114.518 16.498 114.362 17.1913 114.362 18.006C114.362 18.8033 114.518 19.4967 114.83 20.086C115.142 20.658 115.567 21.1 116.104 21.412C116.642 21.724 117.248 21.88 117.924 21.88ZM136.661 25V22.27L136.401 21.672V16.784C136.401 15.9173 136.132 15.2413 135.595 14.756C135.075 14.2707 134.269 14.028 133.177 14.028C132.432 14.028 131.695 14.1493 130.967 14.392C130.256 14.6173 129.65 14.9293 129.147 15.328L127.691 12.494C128.454 11.9567 129.372 11.5407 130.447 11.246C131.522 10.9513 132.614 10.804 133.723 10.804C135.855 10.804 137.51 11.3067 138.689 12.312C139.868 13.3173 140.457 14.886 140.457 17.018V25H136.661ZM132.397 25.208C131.305 25.208 130.369 25.026 129.589 24.662C128.809 24.2807 128.211 23.7693 127.795 23.128C127.379 22.4867 127.171 21.7673 127.171 20.97C127.171 20.138 127.37 19.41 127.769 18.786C128.185 18.162 128.835 17.6767 129.719 17.33C130.603 16.966 131.756 16.784 133.177 16.784H136.895V19.15H133.619C132.666 19.15 132.007 19.306 131.643 19.618C131.296 19.93 131.123 20.32 131.123 20.788C131.123 21.308 131.322 21.724 131.721 22.036C132.137 22.3307 132.7 22.478 133.411 22.478C134.087 22.478 134.694 22.322 135.231 22.01C135.768 21.6807 136.158 21.204 136.401 20.58L137.025 22.452C136.73 23.3533 136.193 24.038 135.413 24.506C134.633 24.974 133.628 25.208 132.397 25.208ZM144.128 25V5.70802H148.184V25H144.128Z" fill="#57595B"/>
<path d="M12.7394 31.2312C8.7627 28.892 4.79365 26.5528 0.786133 24.1901C0.878436 24.1273 0.939974 24.0802 1.0092 24.0409C2.4476 23.1932 3.88599 22.3454 5.32439 21.4898C5.50131 21.3878 5.62438 21.3956 5.79361 21.4977C7.97812 22.7928 10.1703 24.0723 12.3548 25.3754C12.7856 25.6344 13.1625 25.6344 13.5932 25.3754C15.7778 24.0802 17.97 22.7928 20.1545 21.5055C20.2929 21.427 20.4006 21.3642 20.5699 21.4663C22.0544 22.3533 23.5466 23.2246 25.0312 24.1037C25.062 24.1194 25.0927 24.1508 25.1543 24.1979C21.1544 26.5528 17.1777 28.892 13.201 31.239C13.0471 31.2312 12.8933 31.2312 12.7394 31.2312Z" fill="#57595B"/>
<path d="M12.1764 1.76074C12.1764 3.51651 12.1687 5.28001 12.1841 7.03577C12.1841 7.25234 12.115 7.36063 11.9384 7.46118C9.74266 8.72966 7.55459 10.0136 5.35884 11.2743C4.95962 11.5064 4.77536 11.8158 4.77536 12.2799C4.78304 14.8246 4.77536 17.3615 4.78304 19.9062C4.78304 20.1383 4.72162 20.262 4.51433 20.3858C3.11704 21.1902 1.71974 22.0023 0.330129 22.8144C0.237999 22.8686 0.145869 22.915 0.00767555 22.9846C0.00767555 22.8377 0.00767555 22.7371 0.00767555 22.6366C0.00767555 18.2742 0.0153549 13.9196 0 9.55727C0 9.03905 0.199612 8.72192 0.637226 8.46668C4.39917 6.29324 8.14575 4.10434 11.9 1.92317C11.9768 1.87676 12.0536 1.81488 12.1227 1.76074C12.138 1.76074 12.1534 1.76074 12.1764 1.76074Z" fill="#57595B"/>
<path d="M14.2184 1.76074C14.8246 2.12414 15.4307 2.49526 16.0368 2.85093C19.2593 4.72976 22.4895 6.6086 25.7196 8.4797C26.157 8.72712 26.3335 9.05959 26.3335 9.56216C26.3258 13.9229 26.3258 18.2759 26.3258 22.6367C26.3258 22.7372 26.3258 22.8377 26.3258 22.9846C26.203 22.9228 26.1263 22.8841 26.0496 22.8454C24.6301 22.0181 23.2107 21.1908 21.7913 20.3713C21.6071 20.263 21.5458 20.147 21.5458 19.9383C21.5534 17.4177 21.5381 14.8971 21.5611 12.3688C21.5611 11.8353 21.3616 11.4874 20.9013 11.2245C18.7299 9.97968 16.5662 8.71166 14.4026 7.4591C14.2261 7.35859 14.1494 7.25034 14.1494 7.03385C14.157 5.27872 14.157 3.51587 14.157 1.76074C14.1801 1.76074 14.2031 1.76074 14.2184 1.76074Z" fill="#57595B"/>
<path d="M12.1822 23.3777C11.6471 23.0617 11.1639 22.7689 10.6733 22.476C9.41709 21.7285 8.16829 20.9733 6.91207 20.2257C6.77827 20.1487 6.68164 20.0716 6.68164 19.8789C6.68907 17.829 6.68907 15.779 6.68907 13.7214C6.68907 13.6751 6.6965 13.6289 6.70394 13.5518C6.7857 13.5904 6.84517 13.6058 6.90464 13.6443C8.59943 14.6539 10.2942 15.6712 11.989 16.6884C12.0782 16.7424 12.1748 16.8657 12.1748 16.9581C12.1897 19.0775 12.1822 21.1968 12.1822 23.3777Z" fill="#57595B"/>
<path d="M19.6296 13.5518C19.637 13.6753 19.6444 13.768 19.6444 13.8606C19.6444 15.8443 19.6444 17.8357 19.6519 19.8194C19.6519 20.0278 19.5924 20.1436 19.4139 20.2517C17.7409 21.2474 16.0678 22.2508 14.3948 23.2542C14.3278 23.2928 14.2683 23.3237 14.1717 23.3777C14.1642 23.2928 14.1494 23.2233 14.1494 23.1539C14.1494 21.1161 14.1494 19.0861 14.1494 17.0484C14.1494 16.9095 14.1642 16.8014 14.3055 16.7165C16.0455 15.6822 17.778 14.6402 19.518 13.5982C19.5329 13.5904 19.5626 13.5827 19.6296 13.5518Z" fill="#57595B"/>
<path d="M7.46777 11.9646C7.97074 11.6791 8.45823 11.4086 8.93798 11.138C10.2844 10.3866 11.6308 9.62763 12.9772 8.8837C13.07 8.8311 13.2403 8.81607 13.3331 8.86867C15.1438 9.8681 16.9468 10.8826 18.7574 11.897C18.7884 11.912 18.8193 11.9421 18.8658 11.9797C18.7729 12.0323 18.6955 12.0849 18.6104 12.13C16.8771 13.0993 15.1515 14.0687 13.4182 15.0456C13.2403 15.1508 13.1087 15.1508 12.923 15.0456C11.1897 14.0612 9.44869 13.0918 7.70765 12.1149C7.63801 12.0698 7.56836 12.0248 7.46777 11.9646Z" fill="#57595B"/>
</svg>
