<svg width="163" height="32" viewBox="0 0 163 32" fill="none" xmlns="http://www.w3.org/2000/svg">
<path d="M3.08827 19.6642C4.01156 18.6454 4.90302 17.4037 5.66713 16.0029C6.04918 15.3024 6.43124 14.5702 6.78145 13.806C7.13167 13.0419 7.48189 12.246 7.86394 11.3864C8.0868 10.9725 8.27783 10.5268 8.62805 10.0173C8.72356 9.88999 8.81907 9.76264 8.97826 9.63529C9.13745 9.50794 9.32848 9.34875 9.64685 9.25324C9.80604 9.18956 9.96524 9.15772 10.1563 9.15772C10.2518 9.15772 10.3473 9.15772 10.411 9.18956H10.4746C10.4428 9.18956 10.5702 9.2214 10.5702 9.2214H10.602C10.8249 9.28508 10.9522 9.38059 11.0796 9.44427C11.2069 9.53978 11.3024 9.60345 11.3979 9.69897C11.7163 10.0492 11.8755 10.3676 12.0029 10.6541C12.1302 10.9406 12.1939 11.1953 12.2894 11.45C12.4486 11.9595 12.5441 12.4689 12.6078 12.9464C12.958 14.8885 13.1172 16.7988 13.34 18.6772C13.4674 19.6005 13.5947 20.5238 13.7858 21.3516C13.8176 21.5108 13.8494 21.67 13.9131 21.8292C14.0405 21.7018 14.1678 21.5745 14.2952 21.4471C14.8364 20.9059 15.3458 20.2691 15.7916 19.6005C16.7149 18.2633 17.4471 16.8625 18.0202 15.4935C18.5933 14.1244 19.0072 12.7554 19.2937 11.4819C19.7076 9.60346 19.835 7.94788 19.8031 6.6107C17.7337 4.98697 15.0911 4 12.2576 4C5.4761 4 0 9.50794 0 16.2576C0 18.1042 0.413889 19.8552 1.14616 21.4153C1.81475 20.9696 2.45151 20.3646 3.08827 19.6642Z" fill="#57595B"/>
<path d="M22.2867 17.4994C21.4589 19.0913 20.4401 20.6832 19.1666 22.1796C18.5299 22.9437 17.8294 23.676 17.0016 24.3764C16.5878 24.7266 16.142 25.0768 15.6008 25.3952C15.3142 25.5544 14.9959 25.7136 14.582 25.8728C14.4546 25.9046 14.3591 25.9364 14.2318 25.9683L14.0407 26.0001C14.0089 26.0001 13.9452 26.0001 13.9134 26.0319H13.7542H13.595H13.5313H13.2766C13.0538 26.0001 12.8309 25.9683 12.6399 25.8728C12.226 25.7136 11.9076 25.4907 11.6847 25.2678C11.4619 25.045 11.3027 24.8221 11.2072 24.6311C10.9843 24.249 10.8569 23.8988 10.7614 23.6123C10.5704 23.0074 10.5067 22.4661 10.4431 21.9249C10.3157 20.8742 10.2839 19.8873 10.252 18.9003C10.2202 16.9582 10.252 15.0479 10.1247 13.265C10.0928 12.8193 10.061 12.3735 9.99736 11.9915C9.99736 11.9278 9.96553 11.8323 9.96553 11.7686C9.87001 11.9278 9.74266 12.1188 9.64715 12.278C9.20142 13.0103 8.78753 13.8062 8.37363 14.5703C7.92791 15.3344 7.48218 16.0667 7.00461 16.7672C6.04948 18.168 4.99883 19.4097 3.91634 20.3967C3.15223 21.0971 2.38813 21.702 1.62402 22.2114C3.72531 25.9683 7.73688 28.5153 12.3533 28.5153C19.1348 28.5153 24.6109 23.0074 24.6109 16.2577C24.6109 15.1434 24.4517 14.0609 24.197 13.0421C23.6876 14.5067 23.0508 16.003 22.2867 17.4994Z" fill="#57595B"/>
<path d="M14.168 20.6832C14.0089 19.9191 13.8815 19.0913 13.786 18.359C13.6905 17.7223 13.6268 17.0855 13.5631 16.4488C13.4358 15.2389 13.2766 13.9654 13.0537 12.7237C12.9582 12.278 12.8627 11.7686 12.7035 11.1955C12.6398 10.9727 12.5443 10.6861 12.417 10.3677V10.3359C12.2896 10.0494 12.1304 9.69914 11.7484 9.31708C11.6529 9.22157 11.5255 9.12606 11.3663 8.99871C11.2071 8.90319 11.0479 8.80768 10.7932 8.71217L10.7296 8.68033C10.6659 8.64849 10.6022 8.6485 10.5704 8.6485H10.5385C10.4112 8.61666 10.3157 8.61666 10.2202 8.61666C9.99733 8.61666 9.77447 8.64849 9.58344 8.71217C9.20138 8.83952 8.91485 9.03055 8.75566 9.18973C8.56463 9.34892 8.43728 9.50811 8.34177 9.63546C7.99155 10.113 7.80052 10.5269 7.57765 10.909L7.51398 11.0363C7.32295 11.4821 7.13193 11.896 6.9409 12.3098C6.78171 12.6919 6.59069 13.074 6.4315 13.4242C6.04944 14.2201 5.69922 14.9205 5.34901 15.5573C4.5849 16.8945 3.75712 18.0725 2.83382 19.0595C2.38809 19.537 1.91053 20.0146 1.43296 20.4285C0.859883 19.0276 0.541504 17.5631 0.541504 16.0349C0.541504 9.63546 5.85841 4.41406 12.3851 4.41406C14.9958 4.41406 17.4473 5.21001 19.5168 6.73823C19.5168 8.23461 19.3258 9.73098 19.0074 11.2274C18.7209 12.5327 18.307 13.8381 17.7657 15.0797C17.1608 16.5124 16.4285 17.8496 15.5689 19.0276C15.0277 19.6962 14.5819 20.2375 14.168 20.6832Z" fill="#57595B"/>
<path d="M12.3213 28.1331C8.15055 28.1331 4.29817 25.9363 2.16504 22.3705C2.86547 21.8929 3.53407 21.3198 4.17082 20.7467C5.28515 19.6961 6.3358 18.4544 7.32277 17.0217C7.7685 16.3531 8.21423 15.6209 8.72363 14.7931C8.9465 14.411 9.13752 14.029 9.36039 13.6469C9.48774 13.4559 9.58325 13.233 9.71061 13.042C9.71061 13.1375 9.7106 13.2012 9.74244 13.2967C9.80612 14.4429 9.83796 15.6527 9.83796 16.8944C9.83796 17.563 9.83796 18.2316 9.86979 18.9001C9.90163 19.8553 9.93347 20.8741 10.0608 21.9566C10.1245 22.466 10.22 23.0391 10.411 23.7077C10.5066 24.026 10.6339 24.3763 10.8886 24.822C11.0478 25.1085 11.2388 25.3314 11.4298 25.5543C11.6527 25.7771 12.0348 26.0637 12.5442 26.2547C12.7989 26.3502 13.0536 26.4139 13.2764 26.4139H13.563H13.6585H13.8495L14.0405 26.382C14.1042 26.382 14.1997 26.3502 14.2316 26.3502L14.4226 26.3184C14.5818 26.2865 14.6773 26.2547 14.8047 26.2228C15.2822 26.0637 15.6006 25.9045 15.8871 25.7134C16.5239 25.3314 16.9696 24.9812 17.3517 24.6628C18.1158 24.026 18.8162 23.2938 19.5485 22.4023C20.7265 20.9696 21.809 19.3777 22.7323 17.6266C23.2417 16.6397 23.7192 15.6209 24.1013 14.5702C24.165 15.1114 24.2286 15.6527 24.2286 16.2258C24.165 22.8162 18.8481 28.1331 12.3213 28.1331Z" fill="#57595B"/>
<path d="M32.1582 25V6.80001H35.6422L46.3802 19.904H44.6902V6.80001H48.8502V25H45.3922L34.6282 11.896H36.3182V25H32.1582ZM59.8122 25.208C58.2176 25.208 56.8136 24.896 55.6002 24.272C54.4042 23.648 53.4769 22.7987 52.8182 21.724C52.1596 20.632 51.8302 19.3927 51.8302 18.006C51.8302 16.602 52.1509 15.3627 52.7922 14.288C53.4509 13.196 54.3436 12.3467 55.4702 11.74C56.5969 11.116 57.8709 10.804 59.2922 10.804C60.6616 10.804 61.8922 11.0987 62.9842 11.688C64.0936 12.26 64.9689 13.092 65.6102 14.184C66.2516 15.2587 66.5722 16.55 66.5722 18.058C66.5722 18.214 66.5636 18.396 66.5462 18.604C66.5289 18.7947 66.5116 18.9767 66.4942 19.15H55.1322V16.784H64.3622L62.8022 17.486C62.8022 16.758 62.6549 16.1253 62.3602 15.588C62.0656 15.0507 61.6582 14.6347 61.1382 14.34C60.6182 14.028 60.0116 13.872 59.3182 13.872C58.6249 13.872 58.0096 14.028 57.4722 14.34C56.9522 14.6347 56.5449 15.0593 56.2502 15.614C55.9556 16.1513 55.8082 16.7927 55.8082 17.538V18.162C55.8082 18.9247 55.9729 19.6007 56.3022 20.19C56.6489 20.762 57.1256 21.204 57.7322 21.516C58.3562 21.8107 59.0842 21.958 59.9162 21.958C60.6616 21.958 61.3116 21.8453 61.8662 21.62C62.4382 21.3947 62.9582 21.0567 63.4262 20.606L65.5842 22.946C64.9429 23.674 64.1369 24.2373 63.1662 24.636C62.1956 25.0173 61.0776 25.208 59.8122 25.208ZM67.1237 25L73.3897 16.784L73.3117 19.02L67.3057 11.012H71.8557L75.6517 16.238L73.9357 16.29L77.8617 11.012H82.1777L76.1457 18.942V16.758L82.3857 25H77.7837L73.8057 19.436L75.4957 19.67L71.5437 25H67.1237ZM90.0746 25.208C88.428 25.208 87.1453 24.792 86.2266 23.96C85.308 23.1107 84.8486 21.854 84.8486 20.19V7.91801H88.9046V20.138C88.9046 20.7273 89.0606 21.1867 89.3726 21.516C89.6846 21.828 90.1093 21.984 90.6466 21.984C91.288 21.984 91.834 21.8107 92.2846 21.464L93.3766 24.324C92.9606 24.6187 92.458 24.844 91.8686 25C91.2966 25.1387 90.6986 25.208 90.0746 25.208ZM82.6906 14.444V11.324H92.3886V14.444H82.6906ZM113.567 10.804C114.677 10.804 115.656 11.0293 116.505 11.48C117.372 11.9133 118.048 12.5893 118.533 13.508C119.036 14.4093 119.287 15.5707 119.287 16.992V25H115.231V17.616C115.231 16.4893 114.997 15.6573 114.529 15.12C114.061 14.5827 113.403 14.314 112.553 14.314C111.964 14.314 111.435 14.4527 110.967 14.73C110.499 14.99 110.135 15.3887 109.875 15.926C109.615 16.4633 109.485 17.148 109.485 17.98V25H105.429V17.616C105.429 16.4893 105.195 15.6573 104.727 15.12C104.277 14.5827 103.627 14.314 102.777 14.314C102.188 14.314 101.659 14.4527 101.191 14.73C100.723 14.99 100.359 15.3887 100.099 15.926C99.8395 16.4633 99.7095 17.148 99.7095 17.98V25H95.6535V11.012H99.5275V14.834L98.7995 13.716C99.2848 12.7627 99.9695 12.0433 100.853 11.558C101.755 11.0553 102.777 10.804 103.921 10.804C105.204 10.804 106.322 11.1333 107.275 11.792C108.246 12.4333 108.887 13.4213 109.199 14.756L107.769 14.366C108.237 13.274 108.983 12.4073 110.005 11.766C111.045 11.1247 112.233 10.804 113.567 10.804ZM129.68 25.208C128.19 25.208 126.864 24.896 125.702 24.272C124.558 23.648 123.648 22.7987 122.972 21.724C122.314 20.632 121.984 19.3927 121.984 18.006C121.984 16.602 122.314 15.3627 122.972 14.288C123.648 13.196 124.558 12.3467 125.702 11.74C126.864 11.116 128.19 10.804 129.68 10.804C131.154 10.804 132.471 11.116 133.632 11.74C134.794 12.3467 135.704 13.1873 136.362 14.262C137.021 15.3367 137.35 16.5847 137.35 18.006C137.35 19.3927 137.021 20.632 136.362 21.724C135.704 22.7987 134.794 23.648 133.632 24.272C132.471 24.896 131.154 25.208 129.68 25.208ZM129.68 21.88C130.356 21.88 130.963 21.724 131.5 21.412C132.038 21.1 132.462 20.658 132.774 20.086C133.086 19.4967 133.242 18.8033 133.242 18.006C133.242 17.1913 133.086 16.498 132.774 15.926C132.462 15.354 132.038 14.912 131.5 14.6C130.963 14.288 130.356 14.132 129.68 14.132C129.004 14.132 128.398 14.288 127.86 14.6C127.323 14.912 126.89 15.354 126.56 15.926C126.248 16.498 126.092 17.1913 126.092 18.006C126.092 18.8033 126.248 19.4967 126.56 20.086C126.89 20.658 127.323 21.1 127.86 21.412C128.398 21.724 129.004 21.88 129.68 21.88ZM140.061 25V5.70801H144.117V25H140.061ZM156.462 25V22.27L156.202 21.672V16.784C156.202 15.9173 155.933 15.2413 155.396 14.756C154.876 14.2707 154.07 14.028 152.978 14.028C152.232 14.028 151.496 14.1493 150.768 14.392C150.057 14.6173 149.45 14.9293 148.948 15.328L147.492 12.494C148.254 11.9567 149.173 11.5407 150.248 11.246C151.322 10.9513 152.414 10.804 153.524 10.804C155.656 10.804 157.311 11.3067 158.49 12.312C159.668 13.3173 160.258 14.886 160.258 17.018V25H156.462ZM152.198 25.208C151.106 25.208 150.17 25.026 149.39 24.662C148.61 24.2807 148.012 23.7693 147.596 23.128C147.18 22.4867 146.972 21.7673 146.972 20.97C146.972 20.138 147.171 19.41 147.57 18.786C147.986 18.162 148.636 17.6767 149.52 17.33C150.404 16.966 151.556 16.784 152.978 16.784H156.696V19.15H153.42C152.466 19.15 151.808 19.306 151.444 19.618C151.097 19.93 150.924 20.32 150.924 20.788C150.924 21.308 151.123 21.724 151.522 22.036C151.938 22.3307 152.501 22.478 153.212 22.478C153.888 22.478 154.494 22.322 155.032 22.01C155.569 21.6807 155.959 21.204 156.202 20.58L156.826 22.452C156.531 23.3533 155.994 24.038 155.214 24.506C154.434 24.974 153.428 25.208 152.198 25.208Z" fill="#57595B"/>
</svg>
