<svg width="106" height="32" viewBox="0 0 106 32" fill="none" xmlns="http://www.w3.org/2000/svg">
<path d="M33.1592 25V6.79999H41.0372C42.6665 6.79999 44.0705 7.06866 45.2492 7.60599C46.4278 8.12599 47.3378 8.87999 47.9792 9.86799C48.6205 10.856 48.9412 12.0347 48.9412 13.404C48.9412 14.756 48.6205 15.926 47.9792 16.914C47.3378 17.8847 46.4278 18.63 45.2492 19.15C44.0705 19.67 42.6665 19.93 41.0372 19.93H35.4992L37.3712 18.084V25H33.1592ZM44.7292 25L40.1792 18.396H44.6772L49.2792 25H44.7292ZM37.3712 18.552L35.4992 16.576H40.8032C42.1032 16.576 43.0738 16.2987 43.7152 15.744C44.3565 15.172 44.6772 14.392 44.6772 13.404C44.6772 12.3987 44.3565 11.6187 43.7152 11.064C43.0738 10.5093 42.1032 10.232 40.8032 10.232H35.4992L37.3712 8.22999V18.552ZM58.9343 25.208C57.3397 25.208 55.9357 24.896 54.7223 24.272C53.5263 23.648 52.599 22.7987 51.9403 21.724C51.2817 20.632 50.9523 19.3927 50.9523 18.006C50.9523 16.602 51.273 15.3627 51.9143 14.288C52.573 13.196 53.4657 12.3467 54.5923 11.74C55.719 11.116 56.993 10.804 58.4143 10.804C59.7837 10.804 61.0143 11.0987 62.1063 11.688C63.2157 12.26 64.091 13.092 64.7323 14.184C65.3737 15.2587 65.6943 16.55 65.6943 18.058C65.6943 18.214 65.6857 18.396 65.6683 18.604C65.651 18.7947 65.6337 18.9767 65.6163 19.15H54.2543V16.784H63.4843L61.9243 17.486C61.9243 16.758 61.777 16.1253 61.4823 15.588C61.1877 15.0507 60.7803 14.6347 60.2603 14.34C59.7403 14.028 59.1337 13.872 58.4403 13.872C57.747 13.872 57.1317 14.028 56.5943 14.34C56.0743 14.6347 55.667 15.0593 55.3723 15.614C55.0777 16.1513 54.9303 16.7927 54.9303 17.538V18.162C54.9303 18.9247 55.095 19.6007 55.4243 20.19C55.771 20.762 56.2477 21.204 56.8543 21.516C57.4783 21.8107 58.2063 21.958 59.0383 21.958C59.7837 21.958 60.4337 21.8453 60.9883 21.62C61.5603 21.3947 62.0803 21.0567 62.5483 20.606L64.7063 22.946C64.065 23.674 63.259 24.2373 62.2883 24.636C61.3177 25.0173 60.1997 25.208 58.9343 25.208ZM74.1147 25.208C72.468 25.208 71.1853 24.792 70.2667 23.96C69.348 23.1107 68.8887 21.854 68.8887 20.19V7.91799H72.9447V20.138C72.9447 20.7273 73.1007 21.1867 73.4127 21.516C73.7247 21.828 74.1493 21.984 74.6867 21.984C75.328 21.984 75.874 21.8107 76.3247 21.464L77.4167 24.324C77.0007 24.6187 76.498 24.844 75.9087 25C75.3367 25.1387 74.7387 25.208 74.1147 25.208ZM66.7307 14.444V11.324H76.4287V14.444H66.7307ZM79.6935 25V11.012H83.5675V14.964L83.0215 13.82C83.4375 12.832 84.1048 12.0867 85.0235 11.584C85.9422 11.064 87.0602 10.804 88.3775 10.804V14.548C88.2042 14.5307 88.0482 14.522 87.9095 14.522C87.7708 14.5047 87.6235 14.496 87.4675 14.496C86.3582 14.496 85.4568 14.8167 84.7635 15.458C84.0875 16.082 83.7495 17.0613 83.7495 18.396V25H79.6935ZM97.3436 25.208C95.853 25.208 94.527 24.896 93.3656 24.272C92.2216 23.648 91.3116 22.7987 90.6356 21.724C89.977 20.632 89.6476 19.3927 89.6476 18.006C89.6476 16.602 89.977 15.3627 90.6356 14.288C91.3116 13.196 92.2216 12.3467 93.3656 11.74C94.527 11.116 95.853 10.804 97.3436 10.804C98.817 10.804 100.134 11.116 101.295 11.74C102.457 12.3467 103.367 13.1873 104.025 14.262C104.684 15.3367 105.013 16.5847 105.013 18.006C105.013 19.3927 104.684 20.632 104.025 21.724C103.367 22.7987 102.457 23.648 101.295 24.272C100.134 24.896 98.817 25.208 97.3436 25.208ZM97.3436 21.88C98.0196 21.88 98.6263 21.724 99.1636 21.412C99.701 21.1 100.125 20.658 100.437 20.086C100.749 19.4967 100.905 18.8033 100.905 18.006C100.905 17.1913 100.749 16.498 100.437 15.926C100.125 15.354 99.701 14.912 99.1636 14.6C98.6263 14.288 98.0196 14.132 97.3436 14.132C96.6676 14.132 96.061 14.288 95.5236 14.6C94.9863 14.912 94.553 15.354 94.2236 15.926C93.9116 16.498 93.7556 17.1913 93.7556 18.006C93.7556 18.8033 93.9116 19.4967 94.2236 20.086C94.553 20.658 94.9863 21.1 95.5236 21.412C96.061 21.724 96.6676 21.88 97.3436 21.88Z" fill="#57595B"/>
<path d="M7.62203 30.9996C7.15062 30.9146 6.67148 30.8528 6.2078 30.7291C2.83067 29.8481 0.450449 27.1201 0.0949612 23.6348C-0.0209588 22.5374 0.0408633 21.4169 0.0254073 20.304C0.0176793 19.8404 0.0254073 19.3767 0.0254073 18.8975C5.88323 18.8975 11.7178 18.8975 17.5447 18.8975C17.5602 18.913 17.5679 18.9207 17.5679 18.9285C17.537 20.8141 17.7534 22.7152 17.3593 24.5854C16.6792 27.8388 13.9435 30.4045 10.6514 30.876C10.4118 30.9069 10.18 30.9532 9.94043 30.9919C9.16763 30.9996 8.39483 30.9996 7.62203 30.9996Z" fill="#57595B"/>
<path d="M20.373 1.32446C21.0377 1.71859 21.1381 2.02771 20.8522 2.75414C20.4812 3.69696 20.1103 4.63205 19.7316 5.57486C19.5152 6.11582 18.9434 6.32448 18.4797 6.054C18.1165 5.84534 17.9465 5.40485 18.101 5.00299C18.5029 3.95198 18.9125 2.90098 19.3607 1.86542C19.4534 1.64904 19.7316 1.50221 19.9171 1.32446C20.0639 1.32446 20.2185 1.32446 20.373 1.32446Z" fill="#57595B"/>
<path d="M7.95404 5.08792C7.95404 5.68298 7.95404 6.2394 7.95404 6.79581C7.95404 7.44497 7.96177 8.09412 7.94631 8.73554C7.94631 8.83601 7.87676 8.97511 7.79175 9.02148C6.77165 9.56244 6.24615 10.4434 6.1225 11.5485C5.99113 12.7386 6.32343 13.7819 7.25852 14.5934C7.34352 14.6706 7.43626 14.7634 7.54445 14.7943C7.93858 14.9179 7.97722 15.1884 7.96177 15.5516C7.93086 16.0694 7.95404 16.5872 7.95404 17.1282C5.30333 17.1282 2.68354 17.1282 0.0173827 17.1282C0.0173827 17.02 0.0173827 16.9118 0.0173827 16.7958C0.0173827 14.5084 0.0637498 12.2131 0.00192577 9.92565C-0.0676262 7.41405 1.75618 5.61343 3.95093 5.2193C4.66191 5.08792 5.41153 5.11111 6.14569 5.08792C6.73302 5.07247 7.32034 5.08792 7.95404 5.08792Z" fill="#57595B"/>
<path d="M9.6928 17.1278C9.6928 16.4554 9.68508 15.7986 9.70053 15.1417C9.70053 15.0644 9.801 14.9639 9.87828 14.9253C11.988 13.7893 12.1348 10.4508 10.1024 9.19886C9.75463 8.98247 9.67735 8.76609 9.68508 8.40287C9.70826 7.31322 9.6928 6.22358 9.6928 5.14165C9.72371 5.11847 9.73917 5.09529 9.75463 5.09529C11.0684 5.11847 12.3821 4.96391 13.6881 5.20348C15.6665 5.5667 17.1426 7.0041 17.5058 8.88974C17.5599 9.15249 17.5753 9.4307 17.5831 9.69345C17.5908 12.0891 17.5831 14.4848 17.5831 16.8805C17.5831 16.9578 17.5831 17.0273 17.5831 17.1201C14.9478 17.1278 12.3435 17.1278 9.6928 17.1278Z" fill="#57595B"/>
<path d="M24.075 6.94243C24.0595 7.24383 23.9127 7.52976 23.5804 7.67659C22.5989 8.14027 21.6098 8.59623 20.6128 9.04445C20.1569 9.24538 19.67 9.05218 19.4691 8.61941C19.2682 8.18664 19.4382 7.68432 19.8941 7.47566C20.8679 7.01198 21.8493 6.55603 22.8308 6.11554C23.4336 5.85278 24.0673 6.25464 24.075 6.94243Z" fill="#57595B"/>
<path d="M25.5353 12.1821C25.5353 12.8622 24.9944 13.3027 24.4457 13.1172C23.3792 12.754 22.3205 12.3599 21.2695 11.958C20.8367 11.788 20.6512 11.2934 20.8135 10.8684C20.9758 10.4279 21.4395 10.196 21.8954 10.3506C22.931 10.7138 23.9588 11.0925 24.9866 11.4789C25.3499 11.618 25.5276 11.9039 25.5353 12.1821Z" fill="#57595B"/>
<path d="M7.83838 11.9812C7.83838 11.5716 7.93111 11.2006 8.18614 10.8761C8.54163 10.4356 9.05168 10.4278 9.42262 10.8529C9.92494 11.4325 9.91721 12.5608 9.41489 13.1326C9.05168 13.5422 8.54936 13.5422 8.19387 13.1095C7.93112 12.7849 7.83838 12.3985 7.83838 11.9812Z" fill="#57595B"/>
</svg>
