<svg width="137" height="33" viewBox="0 0 137 33" fill="none" xmlns="http://www.w3.org/2000/svg">
<path d="M42.928 25V10.232H37.104V6.80001H52.964V10.232H47.14V25H42.928ZM60.4644 25.208C58.8697 25.208 57.4657 24.896 56.2524 24.272C55.0564 23.648 54.1291 22.7987 53.4704 21.724C52.8117 20.632 52.4824 19.3927 52.4824 18.006C52.4824 16.602 52.8031 15.3627 53.4444 14.288C54.1031 13.196 54.9957 12.3467 56.1224 11.74C57.2491 11.116 58.5231 10.804 59.9444 10.804C61.3137 10.804 62.5444 11.0987 63.6364 11.688C64.7457 12.26 65.6211 13.092 66.2624 14.184C66.9037 15.2587 67.2244 16.55 67.2244 18.058C67.2244 18.214 67.2157 18.396 67.1984 18.604C67.1811 18.7947 67.1637 18.9767 67.1464 19.15H55.7844V16.784H65.0144L63.4544 17.486C63.4544 16.758 63.3071 16.1253 63.0124 15.588C62.7177 15.0507 62.3104 14.6347 61.7904 14.34C61.2704 14.028 60.6637 13.872 59.9704 13.872C59.2771 13.872 58.6617 14.028 58.1244 14.34C57.6044 14.6347 57.1971 15.0593 56.9024 15.614C56.6077 16.1513 56.4604 16.7927 56.4604 17.538V18.162C56.4604 18.9247 56.6251 19.6007 56.9544 20.19C57.3011 20.762 57.7777 21.204 58.3844 21.516C59.0084 21.8107 59.7364 21.958 60.5684 21.958C61.3137 21.958 61.9637 21.8453 62.5184 21.62C63.0904 21.3947 63.6104 21.0567 64.0784 20.606L66.2364 22.946C65.5951 23.674 64.7891 24.2373 63.8184 24.636C62.8477 25.0173 61.7297 25.208 60.4644 25.208ZM76.6847 25.208C75.1767 25.208 73.8334 24.9047 72.6547 24.298C71.4761 23.674 70.5487 22.816 69.8727 21.724C69.2141 20.632 68.8847 19.3927 68.8847 18.006C68.8847 16.602 69.2141 15.3627 69.8727 14.288C70.5487 13.196 71.4761 12.3467 72.6547 11.74C73.8334 11.116 75.1767 10.804 76.6847 10.804C78.1581 10.804 79.4407 11.116 80.5327 11.74C81.6247 12.3467 82.4307 13.222 82.9507 14.366L79.8047 16.056C79.4407 15.3973 78.9814 14.912 78.4267 14.6C77.8894 14.288 77.3001 14.132 76.6587 14.132C75.9654 14.132 75.3414 14.288 74.7867 14.6C74.2321 14.912 73.7901 15.354 73.4607 15.926C73.1487 16.498 72.9927 17.1913 72.9927 18.006C72.9927 18.8207 73.1487 19.514 73.4607 20.086C73.7901 20.658 74.2321 21.1 74.7867 21.412C75.3414 21.724 75.9654 21.88 76.6587 21.88C77.3001 21.88 77.8894 21.7327 78.4267 21.438C78.9814 21.126 79.4407 20.632 79.8047 19.956L82.9507 21.672C82.4307 22.7987 81.6247 23.674 80.5327 24.298C79.4407 24.9047 78.1581 25.208 76.6847 25.208ZM93.7119 10.804C94.8212 10.804 95.8092 11.0293 96.6759 11.48C97.5599 11.9133 98.2532 12.5893 98.7559 13.508C99.2586 14.4093 99.5099 15.5707 99.5099 16.992V25H95.4539V17.616C95.4539 16.4893 95.2026 15.6573 94.6999 15.12C94.2146 14.5827 93.5212 14.314 92.6199 14.314C91.9786 14.314 91.3979 14.4527 90.8779 14.73C90.3752 14.99 89.9766 15.3973 89.6819 15.952C89.4046 16.5067 89.2659 17.2173 89.2659 18.084V25H85.2099V5.70801H89.2659V14.886L88.3559 13.716C88.8586 12.78 89.5779 12.0607 90.5139 11.558C91.4499 11.0553 92.5159 10.804 93.7119 10.804ZM111.688 10.804C112.798 10.804 113.786 11.0293 114.652 11.48C115.536 11.9133 116.23 12.5893 116.732 13.508C117.235 14.4093 117.486 15.5707 117.486 16.992V25H113.43V17.616C113.43 16.4893 113.179 15.6573 112.676 15.12C112.191 14.5827 111.498 14.314 110.596 14.314C109.955 14.314 109.374 14.4527 108.854 14.73C108.352 14.99 107.953 15.3973 107.658 15.952C107.381 16.5067 107.242 17.2173 107.242 18.084V25H103.186V11.012H107.06V14.886L106.332 13.716C106.835 12.78 107.554 12.0607 108.49 11.558C109.426 11.0553 110.492 10.804 111.688 10.804ZM127.921 25.208C126.43 25.208 125.104 24.896 123.943 24.272C122.799 23.648 121.889 22.7987 121.213 21.724C120.554 20.632 120.225 19.3927 120.225 18.006C120.225 16.602 120.554 15.3627 121.213 14.288C121.889 13.196 122.799 12.3467 123.943 11.74C125.104 11.116 126.43 10.804 127.921 10.804C129.394 10.804 130.711 11.116 131.873 11.74C133.034 12.3467 133.944 13.1873 134.603 14.262C135.261 15.3367 135.591 16.5847 135.591 18.006C135.591 19.3927 135.261 20.632 134.603 21.724C133.944 22.7987 133.034 23.648 131.873 24.272C130.711 24.896 129.394 25.208 127.921 25.208ZM127.921 21.88C128.597 21.88 129.203 21.724 129.741 21.412C130.278 21.1 130.703 20.658 131.015 20.086C131.327 19.4967 131.483 18.8033 131.483 18.006C131.483 17.1913 131.327 16.498 131.015 15.926C130.703 15.354 130.278 14.912 129.741 14.6C129.203 14.288 128.597 14.132 127.921 14.132C127.245 14.132 126.638 14.288 126.101 14.6C125.563 14.912 125.13 15.354 124.801 15.926C124.489 16.498 124.333 17.1913 124.333 18.006C124.333 18.8033 124.489 19.4967 124.801 20.086C125.13 20.658 125.563 21.1 126.101 21.412C126.638 21.724 127.245 21.88 127.921 21.88Z" fill="#57595B"/>
<path d="M15.8647 32.0203C15.6452 32.0203 15.4182 32.0203 15.1988 32.0203C14.2377 31.7024 13.8896 31.0062 13.9425 30.0376C13.9652 29.6819 13.9425 29.3186 13.9425 28.9478C12.8982 28.9478 11.8841 28.9478 10.8322 28.9478C10.8322 29.5078 10.8474 30.0527 10.8322 30.59C10.8171 31.1197 10.5901 31.5435 10.1209 31.8084C9.96951 31.8992 9.78789 31.9522 9.62897 32.0203C9.42464 32.0203 9.22789 32.0203 9.02356 32.0203C8.00193 31.5965 7.75219 31.2181 7.75219 30.0905C7.75219 29.7122 7.75219 29.3338 7.75219 28.9251C7.22246 28.9251 6.73056 28.9327 6.23866 28.9251C5.25487 28.91 4.44513 28.5316 3.80945 27.7673C3.31755 27.177 3.09809 26.4959 3.09809 25.7316C3.09809 25.2548 3.09809 24.7705 3.09809 24.271C2.54565 24.271 2.03105 24.2862 1.51645 24.271C0.381306 24.2256 -0.330052 23.0602 0.154277 22.0234C0.404009 21.4861 0.842932 21.2137 1.42564 21.191C1.97808 21.1683 2.53052 21.1834 3.08296 21.1834C3.08296 20.124 3.08296 19.1099 3.08296 18.0504C2.50025 18.0504 1.93267 18.0883 1.37267 18.0428C0.585631 17.9823 0.00292193 17.2937 0.0104896 16.499C0.0180572 15.6666 0.540227 15.0763 1.3651 15.0082C1.80402 14.9704 2.25051 14.9855 2.697 14.978C2.82565 14.978 2.95431 14.978 3.08296 14.978C3.08296 13.926 3.08296 12.912 3.08296 11.8752C2.56079 11.8752 2.05376 11.8904 1.55429 11.8752C0.373739 11.8449 -0.345188 10.6341 0.192115 9.57465C0.472118 9.01465 0.964015 8.80275 1.55429 8.78762C2.06132 8.78005 2.57592 8.78762 3.10566 8.78762C3.10566 8.25788 3.09052 7.76599 3.10566 7.27409C3.1435 6.03299 3.7035 5.10217 4.79324 4.49676C5.27757 4.23189 5.79217 4.13351 6.33704 4.13351C6.80624 4.13351 7.27543 4.13351 7.76733 4.13351C7.76733 3.55837 7.74463 3.02107 7.7749 2.49133C7.8203 1.54538 8.55436 0.939969 9.49275 1.05348C10.2495 1.14429 10.8247 1.75727 10.8474 2.52161C10.8625 3.05134 10.8474 3.58108 10.8474 4.11081C11.9068 4.11081 12.9209 4.11081 13.9804 4.11081C13.9804 3.5281 13.9425 2.96053 13.9879 2.40052C14.0787 1.30321 15.229 0.697805 16.2053 1.2124C16.8182 1.53024 17.0604 2.06755 17.0604 2.7335C17.0604 3.19513 17.0604 3.64919 17.0604 4.11081C18.1199 4.11081 19.1264 4.11081 20.1631 4.11081C20.1631 3.56594 20.148 3.04377 20.1631 2.52161C20.201 1.48484 21.2302 0.796184 22.2064 1.13673C22.8269 1.34862 23.2356 1.92376 23.2507 2.61999C23.2583 3.11945 23.2507 3.61891 23.2507 4.14108C23.7729 4.14108 24.2572 4.13351 24.7416 4.14108C26.5351 4.16378 27.8821 5.51839 27.9048 7.31193C27.9124 7.72815 27.9048 8.1368 27.9048 8.55302C27.9048 8.6287 27.92 8.70437 27.9275 8.79519C28.4421 8.79519 28.934 8.78762 29.4259 8.79519C30.0011 8.80275 30.4551 9.05249 30.7578 9.54438C30.8562 9.7033 30.9168 9.89249 30.9924 10.059C30.9924 10.2633 30.9924 10.4601 30.9924 10.6644C30.8411 10.9368 30.7351 11.232 30.5384 11.4666C30.2584 11.7995 29.8422 11.8904 29.4184 11.8828C28.9189 11.8828 28.4194 11.8828 27.92 11.8828C27.92 12.9347 27.92 13.9488 27.92 14.9855C28.3892 14.9855 28.8432 14.9855 29.2897 14.9855C29.7362 14.9855 30.1751 15.0612 30.4778 15.4093C30.6897 15.6515 30.8259 15.9617 30.9924 16.2417C30.9924 16.4612 30.9924 16.6882 30.9924 16.9077C30.9622 16.9682 30.9319 17.0288 30.9092 17.0893C30.7049 17.672 30.2962 17.9974 29.6908 18.0656C29.4335 18.0958 29.1686 18.0958 28.9113 18.0958C28.5859 18.1034 28.2529 18.0958 27.92 18.0958C27.92 19.1477 27.92 20.1618 27.92 21.1986C28.0486 21.1986 28.1546 21.1986 28.2681 21.1986C28.6692 21.1986 29.0703 21.191 29.4789 21.2061C30.3113 21.2364 30.7578 21.7359 31 22.4775C31 22.6818 31 22.8786 31 23.0829C30.72 24.0364 30.0389 24.3543 29.1081 24.2937C28.7221 24.271 28.3286 24.2937 27.9048 24.2937C27.9048 24.8159 27.9124 25.3002 27.9048 25.7921C27.8821 27.457 26.7091 28.7586 25.0594 28.9251C24.5826 28.9705 24.0907 28.9403 23.6064 28.9478C23.4929 28.9478 23.3794 28.9478 23.2507 28.9478C23.2507 29.4927 23.2583 29.9846 23.2507 30.4765C23.2432 31.0516 22.9934 31.5057 22.5015 31.8084C22.3426 31.9068 22.161 31.9673 21.9869 32.043C21.7826 32.043 21.5859 32.043 21.3815 32.043C20.4204 31.7025 20.0799 30.9911 20.1556 30.0149C20.1858 29.6668 20.1631 29.3186 20.1631 28.9705C19.1112 28.9705 18.0972 28.9705 17.0301 28.9705C17.0301 29.5759 17.0604 30.1587 17.0226 30.7414C16.9847 31.3543 16.629 31.7554 16.0539 31.9597C15.9858 31.9597 15.9252 31.99 15.8647 32.0203ZM24.8021 25.8148C24.8021 25.6786 24.8021 25.5651 24.8021 25.4591C24.8021 19.4958 24.8021 13.5325 24.8097 7.56923C24.8097 7.29679 24.7491 7.21355 24.4616 7.21355C18.4907 7.22111 12.5122 7.22111 6.54137 7.21355C6.2538 7.21355 6.19326 7.29679 6.19326 7.56923C6.20083 13.5325 6.20082 19.4958 6.20082 25.4591C6.20082 25.5727 6.20839 25.6937 6.21596 25.8148C12.4214 25.8148 18.5815 25.8148 24.8021 25.8148Z" fill="#57595B"/>
<path d="M9.31885 22.6971C9.31885 18.5727 9.31885 14.4711 9.31885 10.3467C13.4357 10.3467 17.5449 10.3467 21.6693 10.3467C21.6693 14.4559 21.6693 18.5652 21.6693 22.6971C17.56 22.6971 13.4584 22.6971 9.31885 22.6971Z" fill="#57595B"/>
</svg>
