<svg width="82" height="83" viewBox="0 0 82 83" fill="none" xmlns="http://www.w3.org/2000/svg">
<path d="M81.9561 44.0554C81.7426 45.6136 81.5719 47.1717 81.2944 48.7085C80.1418 55.0692 77.5377 60.7896 73.5249 65.9123C73.3328 65.7629 73.1621 65.6349 73.034 65.4855C70.2165 62.6893 67.399 59.8718 64.5815 57.0757C64.24 56.7341 64.0906 56.4993 64.4107 56.0084C71.3051 45.5922 69.7682 32.2091 62.1695 23.0309C57.367 17.2251 51.177 13.9808 43.5356 13.2337C43.5356 8.83669 43.5356 4.41835 43.5356 0C43.6424 0 43.7491 0 43.8558 0C44.0906 0.0426893 44.3254 0.0853767 44.5602 0.128066C47.0575 0.55496 49.5975 0.768408 52.0095 1.43009C67.6551 5.63499 78.6476 19.1889 81.3157 34.429C81.5932 35.9658 81.7426 37.5239 81.9561 39.0821C81.9561 40.747 81.9561 42.4119 81.9561 44.0554Z" fill="#FD6219"/>
<path d="M38.4129 0.0427083C38.4129 4.43971 38.4129 8.83671 38.4129 13.2337C28.1035 14.6211 20.3554 19.7011 15.8943 29.0928C11.4333 38.4631 12.3938 47.6627 17.7086 56.4353C14.635 59.5517 11.5613 62.6893 8.42368 65.891C8.23158 65.6562 8.06082 65.4641 7.9114 65.272C1.63607 56.7768 -0.989319 47.2571 0.334051 36.7982C1.97759 23.6713 8.31695 13.3191 19.4375 6.06191C24.8804 2.51869 30.921 0.640359 37.3884 0.149432C37.6232 0.128087 37.858 0.0640517 38.0928 0.0213623C38.1995 0.042707 38.3062 0.0427083 38.4129 0.0427083Z" fill="#FD6219"/>
<path d="M39.5444 82.0062C38.0289 81.8568 36.5134 81.7501 35.0193 81.5153C26.1399 80.2346 18.4345 76.5847 12.1165 70.1599C12.0098 70.0532 11.903 69.9252 11.8604 69.8825C14.9553 66.7875 18.029 63.6925 21.1453 60.5975C26.5882 65.955 33.1837 68.8579 40.9531 68.8793C48.7226 68.9006 55.3181 65.9977 60.7823 60.6402C63.8987 63.7352 66.951 66.8088 70.174 70.0105C68.6372 71.3339 67.1217 72.764 65.4782 74.002C59.5657 78.463 52.8635 80.9177 45.5209 81.6861C44.4964 81.7928 43.4505 81.8995 42.4259 82.0062C41.4654 82.0062 40.5049 82.0062 39.5444 82.0062Z" fill="#FD6219"/>
<path d="M48.3809 51.2908C48.3809 50.9279 48.3809 50.6505 48.3809 50.3943C48.3809 43.2652 48.3809 36.1574 48.3809 29.0283C48.3809 27.4061 48.8504 26.9365 50.494 26.9365C51.6893 26.9365 52.8846 26.9365 54.1012 26.9365C55.3179 26.9365 55.8942 27.4915 55.8942 28.6868C55.8942 35.6452 55.8942 42.6035 55.8942 49.5832C55.8942 50.5864 55.4459 51.2481 54.5922 51.2908C52.5217 51.3335 50.5153 51.2908 48.3809 51.2908Z" fill="#FD6219"/>
<path d="M43.6851 51.2698C41.2731 51.2698 38.8612 51.2698 36.3425 51.2698C36.3212 51.035 36.2998 50.7789 36.2998 50.5228C36.2998 46.019 36.2998 41.5153 36.2998 37.0116C36.2998 35.6242 36.7907 35.1333 38.1781 35.1333C39.4802 35.1333 40.7822 35.1119 42.1056 35.1333C43.1514 35.1546 43.7704 35.6669 43.7704 36.6701C43.7918 41.4513 43.7704 46.2111 43.7704 50.9924C43.7704 51.0777 43.7278 51.1418 43.6851 51.2698Z" fill="#FD6219"/>
<path d="M31.6895 51.3132C29.6831 51.3132 27.7834 51.3345 25.9051 51.2918C24.9872 51.2705 24.4109 50.7155 24.4109 49.755C24.3682 47.834 24.3682 45.913 24.4109 44.0133C24.4323 43.0741 25.0086 42.5192 25.9264 42.4978C27.3565 42.4551 28.8079 42.4551 30.238 42.4978C31.0064 42.5192 31.6468 42.9461 31.6681 43.7358C31.7108 46.2332 31.6895 48.7305 31.6895 51.3132Z" fill="#FD6219"/>
</svg>
