<svg width="82" height="82" viewBox="0 0 82 82" fill="none" xmlns="http://www.w3.org/2000/svg">
<path d="M82 54.9336C81.7918 55.6703 81.6477 56.4391 81.3435 57.1437C79.9984 60.2988 77.6286 62.2047 74.2179 62.6051C70.7112 63.0215 67.941 61.6441 65.8274 58.7934C71.3197 50.7695 72.8088 42.073 70.423 32.7199C71.784 32.0473 73.1291 32.0313 76.0754 32.6238C73.7696 20.6922 62.5128 7.27109 45.6516 5.125C26.7249 2.72266 9.97579 15.1988 5.81254 32.6719C7.75005 32.1273 9.63952 31.9352 11.6251 32.6719C10.3921 37.1402 10.1519 41.6727 10.9365 46.2211C11.7211 50.7855 13.4825 54.9496 16.1886 58.7293C14.9236 60.6191 13.2103 61.8363 11.0806 62.3969C8.98301 62.9414 6.9174 62.7172 4.94786 61.8043C4.88381 61.9004 4.83578 61.9324 4.83578 61.9805C4.83578 65.7441 4.78774 69.5078 4.83578 73.2715C4.8678 75.4336 6.54911 77.1633 8.7108 77.1793C16.4448 77.2273 24.1949 77.1953 31.9289 77.1953C31.977 77.1953 32.025 77.1633 32.073 77.1473C32.5694 75.1133 33.1779 74.6328 35.2915 74.6328C39.1826 74.6328 43.0896 74.6328 46.9807 74.6328C49.2224 74.6328 50.1992 75.9461 49.5747 78.0602C49.5266 78.2043 49.5106 78.3805 49.5427 78.5086C50.007 80.4145 49.7508 81.007 48.0375 82C34.587 82 21.1365 82 7.686 82C7.57391 81.952 7.44581 81.8879 7.33373 81.8559C4.57958 81.3434 2.46593 79.8699 1.13689 77.4195C0.608476 76.4586 0.368287 75.3535 0 74.3125C0 62.4129 0 50.4973 0 38.5977C0.0480375 38.3094 0.112086 38.0371 0.144111 37.7488C0.336261 36.2754 0.448351 34.7699 0.736576 33.3125C2.28979 25.1445 6.00469 18.0977 11.8492 12.1879C17.982 6.00586 25.3318 2.11406 33.9305 0.624608C35.4677 0.352343 37.0369 0.208203 38.5901 0C40.1914 0 41.7926 0 43.3939 0C44.4507 0.128125 45.5075 0.224218 46.5643 0.384374C54.7307 1.52148 61.9523 4.78867 68.1172 10.282C75.2587 16.6402 79.7262 24.5199 81.3595 33.9531C81.6317 35.4906 81.7758 37.0602 81.984 38.6137C82 44.043 82 49.4883 82 54.9336Z" fill="#FD6219"/>
<path d="M40.9762 66.7372C26.5329 66.577 15.2761 55.0618 15.3082 40.968C15.3402 26.538 26.9493 15.263 41.0563 15.295C55.4835 15.327 66.7563 26.9383 66.7243 41.0481C66.6763 55.4942 55.0512 66.6571 40.9762 66.7372ZM41.3445 56.263C41.8249 56.2149 42.6415 56.1829 43.4581 56.0548C46.7247 55.5262 49.5109 54.0848 51.8487 51.7466C52.5853 51.0098 52.6974 49.9848 52.265 49.088C51.8327 48.1911 50.92 47.5825 49.9272 47.7907C49.2707 47.9348 48.5982 48.3192 48.0858 48.7676C46.2123 50.3692 44.0986 51.3141 41.6487 51.4423C38.5423 51.6024 35.9163 50.5614 33.6425 48.4473C32.5536 47.4223 31.0645 47.5024 30.1518 48.5274C29.239 49.5524 29.3351 50.9458 30.3919 51.9548C33.3382 54.7735 36.893 56.1989 41.3445 56.263ZM30.7282 32.1755C29.3992 32.1755 28.3424 33.2165 28.3424 34.5458C28.3424 35.8751 29.3992 36.9481 30.7122 36.9641C32.0092 36.9641 33.1141 35.8591 33.1141 34.5618C33.1301 33.2645 32.0412 32.1915 30.7282 32.1755ZM53.6741 34.5618C53.6741 33.2165 52.6173 32.1915 51.2883 32.1915C49.9752 32.1915 48.8864 33.2805 48.9024 34.5938C48.9184 35.8911 50.0233 36.9962 51.3203 36.9801C52.6333 36.9641 53.6741 35.8911 53.6741 34.5618Z" fill="#FD6219"/>
</svg>
