<svg width="82" height="82" viewBox="0 0 82 82" fill="none" xmlns="http://www.w3.org/2000/svg">
<path d="M8.01641 81.9997C7.24753 81.8075 6.45729 81.658 5.70977 81.3804C1.97214 80.0351 -0.377219 76.2981 0.0499382 72.4117C0.498453 68.2262 3.42447 65.1085 7.43975 64.532C11.8608 63.8913 15.5771 66.0481 17.1362 70.2122C17.3071 70.6606 17.5207 70.8101 17.9905 70.8101C19.6137 70.7887 21.2369 70.7887 22.8815 70.8101C23.3727 70.8101 23.6076 70.682 23.8212 70.2122C25.1668 67.2439 27.5161 65.6851 30.7625 65.7064C33.9876 65.7278 36.3369 67.2653 37.6611 70.2549C37.8106 70.5965 37.9388 70.8101 38.3873 70.8101C40.2881 70.7887 42.1676 70.7887 44.1112 70.7887C44.1752 70.6392 44.2607 70.5111 44.3034 70.383C45.6062 67.3507 47.9342 65.7492 51.202 65.7064C54.5124 65.6637 56.8832 67.2653 58.2714 70.2762C58.3782 70.5111 58.6986 70.7674 58.9122 70.7674C60.813 70.8101 62.6925 70.7887 64.6361 70.7887C65.2127 69.0377 66.1311 67.5429 67.5407 66.3684C72.7307 62.0762 80.6544 65.0018 81.8505 71.6215C81.8718 71.771 81.9573 71.9205 82 72.07C82 72.8174 82 73.5648 82 74.3122C81.9573 74.4616 81.8718 74.5898 81.8505 74.7392C81.2098 78.0918 79.2662 80.334 76.0839 81.4658C75.4218 81.7007 74.6956 81.8288 74.0122 81.9997C73.3714 81.9997 72.7307 81.9997 72.09 81.9997C71.9618 81.9569 71.855 81.8715 71.7269 81.8502C68.5873 81.3377 66.3874 79.5653 65.0846 76.6825C64.9137 76.3195 64.7856 75.9564 64.6361 75.5721C62.6925 75.5721 60.7916 75.5507 58.9122 75.5934C58.6986 75.5934 58.3782 75.871 58.2714 76.1059C56.8832 79.0955 54.5338 80.6757 51.266 80.6543C48.041 80.633 45.6917 79.0741 44.3675 76.0846C44.1752 75.6575 43.9617 75.5721 43.5345 75.5721C41.8472 75.5934 40.16 75.5934 38.4941 75.5721C38.0028 75.5721 37.8533 75.7856 37.6184 76.1486C36.9563 77.1523 36.3369 78.284 35.4185 79.0314C31.5741 82.1705 25.8502 80.6971 23.7999 76.17C23.6931 75.9351 23.4154 75.5934 23.2018 75.5934C21.2583 75.5507 19.3147 75.5721 17.3711 75.5721C17.2644 75.871 17.1576 76.1273 17.0721 76.3835C16.0256 78.9887 14.1888 80.7611 11.4764 81.5939C10.9638 81.7434 10.4512 81.8502 9.93862 81.9997C9.29788 81.9997 8.65715 81.9997 8.01641 81.9997Z" fill="#FD6219"/>
<path d="M41.5055 0C45.6703 2.37031 49.8351 4.74062 53.9785 7.13228C57.9938 9.43853 62.0091 11.7661 66.0243 14.0937C66.2379 14.2219 66.4301 14.35 66.6864 14.4995C66.4729 14.6489 66.302 14.7771 66.1311 14.8838C63.0342 16.6776 59.9587 18.4713 56.8405 20.2224C56.5842 20.3719 56.0929 20.4359 55.858 20.2864C47.5284 15.5245 39.2202 10.7198 30.912 5.9151C30.8266 5.87239 30.7412 5.78697 30.5703 5.65885C33.9235 3.75833 37.234 1.87917 40.5231 0C40.8648 0 41.1852 0 41.5055 0Z" fill="#FD6219"/>
<path d="M38.5796 63.2081C37.0418 62.3326 35.6108 61.4998 34.2012 60.6883C27.6017 56.8659 21.0021 53.0649 14.3811 49.2639C13.3773 48.6873 12.8647 47.8972 12.8647 46.7441C12.8647 37.5831 12.8647 28.4436 12.8647 19.2826C12.8647 19.1331 12.8861 18.9837 12.9075 18.7274C13.2278 18.8983 13.4841 19.0264 13.7404 19.1545C21.8137 23.8097 29.9083 28.4863 37.9816 33.1415C38.366 33.355 38.6437 33.5472 38.6437 34.081C38.6223 43.6264 38.6223 53.193 38.6223 62.7383C38.6009 62.8451 38.6009 62.9519 38.5796 63.2081Z" fill="#FD6219"/>
<path d="M43.4276 63.2086C43.4276 62.8029 43.4276 62.5466 43.4276 62.2904C43.4276 52.98 43.4276 43.6696 43.4062 34.3378C43.4062 33.7185 43.5985 33.3982 44.1324 33.0993C47.1225 31.4123 50.0913 29.6826 53.0814 27.9529C53.2949 27.8248 53.5299 27.718 53.8929 27.5258C53.8929 28.5295 53.8716 29.4264 53.8929 30.3232C53.957 32.1597 55.4734 33.2488 57.118 32.6722C58.0791 32.3305 58.6558 31.5404 58.6771 30.3873C58.6985 28.7003 58.6771 27.0133 58.6985 25.3477C58.6985 25.0488 58.8693 24.643 59.0829 24.5149C62.3507 22.593 65.6398 20.7139 68.9075 18.8133C68.9502 18.792 69.0143 18.8133 69.1211 18.792C69.1424 19.0482 69.1638 19.3045 69.1638 19.5607C69.1638 28.5081 69.1425 37.4342 69.1852 46.3816C69.1852 47.7482 68.6726 48.6665 67.4765 49.3711C59.7023 53.8128 51.9494 58.3185 44.1965 62.8029C43.9829 62.9097 43.7693 63.0164 43.4276 63.2086Z" fill="#FD6219"/>
<path d="M15.3208 14.4781C18.7594 12.4921 22.0912 10.5702 25.4444 8.64837C25.5939 8.56295 25.9143 8.58431 26.0851 8.66972C34.5001 13.5171 42.8938 18.3645 51.2874 23.2119C51.3088 23.2333 51.3301 23.2546 51.3942 23.2973C51.1806 23.4254 51.0098 23.5749 50.7962 23.6817C47.7206 25.4541 44.6451 27.2265 41.591 28.9989C41.2279 29.2124 40.9289 29.3192 40.5017 29.0629C32.2362 24.2583 23.9494 19.4749 15.6625 14.6916C15.5771 14.6702 15.513 14.6062 15.3208 14.4781Z" fill="#FD6219"/>
</svg>
