<svg width="82" height="82" viewBox="0 0 82 82" fill="none" xmlns="http://www.w3.org/2000/svg">
<path d="M66.7893 82C65.7211 82 64.6529 82 63.5847 82C63.4138 81.9573 63.2429 81.8719 63.0507 81.8505C52.7962 80.612 46.024 70.1698 49.1004 60.3255C49.2926 59.7276 49.2072 59.3859 48.7799 58.9375C40.1705 50.3745 31.5824 41.7901 23.0157 33.1844C22.5884 32.7573 22.2466 32.6932 21.7125 32.8641C19.3198 33.6328 16.8416 33.8036 14.3635 33.4406C4.62178 32.0312 -1.76588 22.5927 0.434548 12.962C0.669546 11.9156 1.11817 11.1042 2.18634 10.7839C3.23315 10.4849 4.08769 10.8693 4.85677 11.638C6.8863 13.7094 8.95854 15.7594 11.0308 17.8094C11.4367 18.2151 11.8212 18.6422 12.1203 18.9839C14.4703 16.6563 16.6921 14.4141 18.978 12.1505C16.5425 9.71614 14.043 7.21771 11.5435 4.74062C10.8172 4.01458 10.5181 3.18177 10.7958 2.19948C11.0735 1.19583 11.8212 0.683334 12.8039 0.491147C13.6158 0.341667 14.4062 0.170833 15.218 0C16.2862 0 17.3544 0 18.4225 0C18.5507 0.0427083 18.6575 0.106769 18.7857 0.128123C29.446 1.60156 35.8978 11.574 32.8215 21.888C32.6719 22.3578 32.8001 22.6141 33.0992 22.913C41.7727 31.5615 50.4249 40.2312 59.0771 48.901C59.4403 49.2641 59.718 49.3068 60.188 49.1573C69.2674 46.2958 78.9237 51.5703 81.4018 60.774C81.6582 61.6922 81.8077 62.6318 82 63.5714C82 64.6391 82 65.7068 82 66.7745C81.9573 66.9453 81.8932 67.1375 81.8504 67.3083C80.7182 74.3339 76.766 78.9891 70.0365 81.2526C68.9897 81.6156 67.8574 81.7438 66.7893 82ZM69.9083 65.1729C70.3783 63.6781 69.5665 62.7385 68.5838 61.7135C67.6011 60.6885 66.597 60.3255 65.187 60.3042C63.7343 60.2828 62.7302 60.7313 61.7261 61.7563C60.722 62.7599 60.3375 63.7422 60.3162 65.1516C60.2948 66.6036 60.7434 67.6073 61.7689 68.6109C62.7729 69.6146 63.7557 69.999 65.187 70.0203C66.6397 70.0417 67.6438 69.6146 68.6479 68.5682C69.6092 67.5859 70.3356 66.6464 69.9083 65.1729Z" fill="#FD6219"/>
<path d="M14.9613 82.0004C14.2042 81.8486 13.4261 81.6752 12.6691 81.5234C11.6597 81.3283 10.9026 80.808 10.6082 79.7674C10.3348 78.7268 10.6503 77.8813 11.4073 77.1225C13.8678 74.6293 16.2861 72.1145 18.6624 69.6647C16.4333 67.3667 14.2252 65.0903 11.9331 62.7272C11.5756 63.1175 11.134 63.5944 10.6923 64.0714C8.75767 66.0659 6.80196 68.0387 4.90933 70.0549C4.13126 70.8788 3.29009 71.3774 2.17555 71.0305C1.08203 70.7053 0.68248 69.8381 0.43013 68.7542C-1.7569 59.0851 4.63596 49.4377 14.1622 48.0285C16.6436 47.6599 19.083 47.8334 21.4803 48.6355C21.964 48.809 22.2794 48.7222 22.6369 48.332C24.0458 46.8144 25.5179 45.3402 26.9058 43.8877C30.2705 47.3564 33.5931 50.7601 36.9577 54.2505C36.0114 55.2261 35.0861 56.3318 33.9926 57.2423C32.6047 58.413 32.2893 59.5403 32.7099 61.4698C34.8128 71.204 28.2096 80.5478 18.5783 81.8269C18.4311 81.8486 18.2839 81.9137 18.1367 81.957C17.0642 82.0004 16.0127 82.0004 14.9613 82.0004Z" fill="#FD6219"/>
<path d="M82.0002 18.1628C81.7894 19.1531 81.6207 20.1645 81.3467 21.1548C78.7746 30.1098 69.3718 35.1878 60.4749 32.3854C59.9689 32.2169 59.6738 32.3433 59.3154 32.7015C57.9029 34.1554 56.4692 35.5882 55.0778 36.9577C51.7257 33.5865 48.4157 30.2573 45.0425 26.8649C46.202 25.7061 47.4459 24.3997 48.7741 23.1776C49.4909 22.5033 49.7228 21.9555 49.4277 20.902C46.7291 11.1463 53.3068 1.41172 63.3843 0.126421C63.5319 0.105351 63.6795 0.0421411 63.827 0C64.8812 0 65.9353 0 66.9894 0C67.7484 0.147494 68.5285 0.316058 69.2874 0.463551C70.2994 0.653186 71.0584 1.15888 71.3535 2.17027C71.6487 3.20272 71.2692 4.04555 70.5102 4.80409C68.2333 7.03756 65.9986 9.31318 63.7427 11.5677C63.5741 11.7363 63.4054 11.9259 63.3211 12.0313C65.5769 14.2858 67.7906 16.4982 70.0042 18.7106C72.3866 16.3297 74.8322 13.9066 77.2566 11.4413C77.9945 10.7038 78.8168 10.3667 79.8287 10.6406C80.8407 10.9356 81.3467 11.6942 81.5364 12.7055C81.684 13.4852 81.8526 14.2437 82.0002 15.0022C82.0002 16.0558 82.0002 17.1093 82.0002 18.1628Z" fill="#FD6219"/>
</svg>
