<svg width="60" height="61" viewBox="0 0 60 61" fill="none" xmlns="http://www.w3.org/2000/svg">
<path d="M60 1.17309C60 13.5168 60 25.8606 60 38.2043C59.8438 38.0481 59.6876 37.9074 59.547 37.7512C58.1724 36.2199 56.5634 34.9856 54.6889 34.1418C53.5329 33.6262 52.3301 33.2512 51.0804 32.7981C51.0804 32.6731 51.0804 32.4543 51.0804 32.2512C51.0804 30.2824 51.0804 28.3137 51.0804 26.3293C51.0804 25.2981 50.4869 24.5324 49.5184 24.4543C48.5811 24.3762 47.6438 24.3918 46.7066 24.4543C45.785 24.5168 45.1289 25.3293 45.1445 26.2043C45.1601 27.1262 45.8787 27.8449 46.8316 27.9074C47.0659 27.9231 47.2846 27.9387 47.5189 27.9387C47.5189 29.5168 47.5189 31.0481 47.5189 32.6106C44.0979 32.7512 41.0674 33.9074 38.3181 36.0637C38.3181 35.7356 38.3181 35.5324 38.3181 35.3137C38.3181 32.3137 38.3181 29.2981 38.3181 26.2981C38.3181 25.3293 37.8027 24.5637 36.9279 24.4699C35.8813 24.3762 34.8191 24.3762 33.7725 24.4699C32.9133 24.5481 32.3509 25.3918 32.4134 26.2512C32.4603 27.1106 33.1164 27.7981 33.9755 27.8918C34.2411 27.9231 34.5066 27.9231 34.8034 27.9543C34.8034 28.2199 34.8034 28.4231 34.8034 28.6418C34.8034 31.2824 34.8191 33.9231 34.7878 36.5481C34.7722 37.4387 34.8972 38.2199 35.7719 38.7199C34.4285 40.4855 33.5538 42.423 33.007 44.5168C32.7259 44.5168 32.5072 44.5168 32.3041 44.5168C27.7428 44.5168 23.1658 44.5324 18.6045 44.5012C17.9641 44.5012 17.433 44.6574 16.9018 45.0012C14.2307 46.7824 11.5282 48.548 8.84145 50.3293C8.27909 50.7043 7.71674 50.9074 7.0919 50.5637C6.46707 50.2355 6.27961 49.673 6.31086 48.9855C6.3421 48.0324 6.32648 47.0793 6.31086 46.1105C6.29524 45.0949 5.71726 44.5168 4.7019 44.5012C3.76464 44.4855 2.82739 44.5012 1.89013 44.5012C0.49987 44.5012 0 43.9855 0 42.5793C0.0156209 29.0637 0.0156209 15.5012 0 1.95434C0 1.04809 0.265556 0.40747 1.06222 0.0012207C20.3541 0.0012207 39.6459 0.0012207 58.9378 0.0012207C59.2971 0.391845 59.6407 0.78247 60 1.17309ZM15.7459 13.4543C15.7771 13.4543 15.8084 13.4543 15.8396 13.4543C15.8396 12.6106 15.8552 11.7825 15.8396 10.9387C15.7928 8.40746 13.8089 6.29809 11.3096 6.11059C8.76334 5.92309 6.40458 7.64184 6.12341 10.1575C5.90471 12.1418 5.93595 14.1731 6.02968 16.1731C6.15465 18.6731 8.24785 20.5793 10.7784 20.6887C13.1372 20.7981 15.3398 19.0481 15.699 16.6418C15.8709 15.6106 15.7459 14.5168 15.7459 13.4543ZM44.504 13.3606C44.4728 13.3606 44.4416 13.3606 44.4259 13.3606C44.4259 14.2043 44.4103 15.0325 44.4259 15.8762C44.4728 18.4543 46.441 20.4856 49.081 20.6887C51.5022 20.8762 53.861 19.0949 54.1265 16.6106C54.3452 14.6262 54.314 12.595 54.2046 10.595C54.0797 8.12621 52.0021 6.20434 49.6121 6.09496C47.0815 5.98559 44.9102 7.65746 44.5197 10.1418C44.3634 11.2043 44.504 12.2825 44.504 13.3606ZM41.3955 13.3918C41.3955 12.3918 41.4736 11.3918 41.3798 10.4075C41.1299 7.86059 38.8961 6.00121 36.2874 6.09496C33.7881 6.18871 31.7105 8.26684 31.648 10.7825C31.6011 12.5168 31.6011 14.2512 31.648 15.9856C31.7105 18.5637 33.7725 20.5637 36.3968 20.6887C38.8805 20.7981 41.1455 18.8762 41.3798 16.3762C41.4736 15.3918 41.3955 14.3918 41.3955 13.3918ZM15.7459 31.6887C15.7771 31.6887 15.8084 31.6887 15.824 31.6887C15.824 30.8449 15.8396 30.0168 15.824 29.1731C15.7615 26.6418 13.762 24.6262 11.1533 24.4387C8.76334 24.2668 6.38896 26.0324 6.12341 28.4699C5.90471 30.4387 5.92033 32.4387 6.02968 34.4231C6.15465 36.8762 8.23223 38.7824 10.6379 38.9074C13.1372 39.0324 15.3398 37.3293 15.7147 34.8449C15.8709 33.8137 15.7459 32.7356 15.7459 31.6887ZM28.6175 31.6731C28.6175 30.8137 28.6488 29.9543 28.6175 29.0949C28.5238 26.5324 26.4462 24.5168 23.8219 24.4231C21.3538 24.3293 19.0732 26.2356 18.8857 28.7199C18.7451 30.6574 18.7451 32.6262 18.8857 34.5637C19.0732 37.1262 21.3851 39.0012 23.9781 38.8918C26.4775 38.7824 28.5394 36.7199 28.6175 34.1887C28.6488 33.3606 28.6175 32.5168 28.6175 31.6731ZM21.9474 9.67309C21.9474 9.90746 21.9474 10.1418 21.9474 10.3762C21.9474 13.1418 21.9474 15.9231 21.9474 18.6887C21.9474 19.8762 22.666 20.6887 23.697 20.7043C24.7279 20.7199 25.4465 19.9074 25.4621 18.7199C25.4621 16.7512 25.4621 14.7825 25.4621 12.7981C25.4621 11.1575 25.4777 9.51684 25.4621 7.87621C25.4465 6.89184 24.7904 6.14184 23.8688 6.11059C22.9784 6.06371 22.0724 6.06371 21.182 6.11059C20.3541 6.14184 19.6668 6.82934 19.5886 7.64184C19.4949 8.48559 19.9792 9.25121 20.7758 9.50121C21.1195 9.59496 21.4944 9.61059 21.9474 9.67309Z" fill="#FD6219"/>
<path d="M46.8784 60.0021C45.7693 59.7053 44.629 59.5178 43.5824 59.0803C38.5525 57.049 35.5532 51.8771 36.2406 46.549C36.9435 41.174 41.1768 36.9397 46.5504 36.2365C53.0487 35.3772 59.0471 40.0178 59.8907 46.549C59.9063 46.6584 59.9531 46.7678 60 46.8771C60 47.6584 60 48.4396 60 49.2209C59.9688 49.3459 59.9219 49.4709 59.8907 49.6115C59.1252 54.3459 56.5009 57.5959 52.0333 59.299C51.1429 59.6428 50.1588 59.7678 49.2216 60.0021C48.4405 60.0021 47.6595 60.0021 46.8784 60.0021ZM46.691 48.8146C45.8318 47.9553 45.0351 47.1271 44.2072 46.3146C43.4106 45.5334 42.364 45.5021 41.6454 46.2053C40.9112 46.9084 40.9425 48.0178 41.7391 48.8146C42.9263 50.0178 44.1291 51.2209 45.3319 52.4084C46.1599 53.2209 47.144 53.2365 47.9875 52.4396C48.4874 51.9709 48.9716 51.4865 49.4559 51.0178C51.1273 49.3928 52.7987 47.799 54.4389 46.1584C55.4543 45.1584 55.0482 43.549 53.7048 43.174C53.0018 42.9865 52.4082 43.2209 51.9084 43.7365C50.1901 45.424 48.4717 47.0803 46.691 48.8146Z" fill="#FD6219"/>
<path d="M60.0002 1.17309C59.6409 0.78247 59.2973 0.391845 58.938 0.0012207C59.2973 0.0012207 59.6409 0.0012207 60.0002 0.0012207C60.0002 0.391845 60.0002 0.78247 60.0002 1.17309Z" fill="#FD6219"/>
<path d="M12.3093 13.3921C12.3093 14.1578 12.3249 14.9078 12.3093 15.6734C12.2937 16.5484 11.7157 17.1578 10.9191 17.1734C10.1224 17.1734 9.51318 16.564 9.51318 15.7046C9.49756 14.1578 9.49756 12.6265 9.51318 11.0796C9.5288 10.2203 10.138 9.59526 10.9347 9.61088C11.7314 9.62651 12.3093 10.2359 12.3093 11.1109C12.3249 11.8765 12.3093 12.6421 12.3093 13.3921Z" fill="#FD6219"/>
<path d="M47.9254 13.3762C47.9254 12.6106 47.9098 11.8606 47.9254 11.095C47.941 10.22 48.519 9.6106 49.3313 9.6106C50.128 9.6106 50.7215 10.22 50.7372 11.095C50.7528 12.6418 50.7528 14.1731 50.7372 15.72C50.7215 16.5793 50.0967 17.2043 49.3 17.1731C48.519 17.1575 47.941 16.5481 47.9254 15.72C47.9254 14.9387 47.9254 14.1575 47.9254 13.3762Z" fill="#FD6219"/>
<path d="M35.1315 13.3754C35.1315 12.6098 35.1158 11.8598 35.1315 11.0942C35.1471 10.2348 35.6938 9.64107 36.4749 9.62544C37.2715 9.59419 37.912 10.1879 37.9276 11.0629C37.9588 12.6254 37.9588 14.1879 37.9276 15.7504C37.912 16.6254 37.2715 17.2192 36.4905 17.2036C35.6938 17.1723 35.1471 16.5786 35.1315 15.6723C35.1158 14.8911 35.1315 14.1254 35.1315 13.3754Z" fill="#FD6219"/>
<path d="M12.3093 31.6418C12.3093 32.4075 12.3249 33.1575 12.3093 33.9231C12.2937 34.7825 11.6845 35.3918 10.8878 35.3918C10.1224 35.3762 9.51318 34.7825 9.51318 33.9387C9.49756 32.4231 9.49756 30.8918 9.51318 29.3762C9.5288 28.5481 10.1224 27.9543 10.9034 27.9387C11.7001 27.9387 12.2937 28.5481 12.3093 29.4075C12.3249 30.1575 12.3093 30.9075 12.3093 31.6418Z" fill="#FD6219"/>
<path d="M25.1028 31.6734C25.1028 32.439 25.1184 33.189 25.1028 33.9547C25.0872 34.7828 24.5404 35.3453 23.775 35.3922C23.0096 35.4234 22.3379 34.8609 22.3223 34.0328C22.2754 32.4547 22.2754 30.8765 22.3223 29.2984C22.3379 28.4859 22.9783 27.939 23.7281 27.9547C24.4936 27.9703 25.0715 28.564 25.0872 29.4078C25.1184 30.1578 25.1184 30.9078 25.1028 31.6734C25.1184 31.6734 25.1184 31.6734 25.1028 31.6734Z" fill="#FD6219"/>
</svg>
