<svg width="60" height="53" viewBox="0 0 60 53" fill="none" xmlns="http://www.w3.org/2000/svg">
<path d="M60.0002 28.0352C59.9292 28.2216 59.8493 28.4168 59.7872 28.6032C59.2015 30.3248 57.5509 31.4163 55.6873 31.2654C55.6873 31.0525 55.6873 30.8306 55.6873 30.6176C55.6873 23.8909 55.6961 17.1642 55.6873 10.4464C55.6873 7.54446 53.9124 5.21052 51.1791 4.53608C50.62 4.39409 50.0255 4.34972 49.4398 4.34972C38.0452 4.34084 26.6595 4.34084 15.2649 4.34084C15.043 4.34084 14.8211 4.34084 14.5993 4.34084C14.1999 2.29088 16.0192 0.152176 18.2023 0.0368098C18.4685 0.0190613 18.7347 0.0279355 18.9921 0.0279355C31.0256 0.0279355 43.0591 0.0545584 55.0927 0.00131267C57.3556 -0.00756162 59.2104 0.622513 59.9824 3.3203C60.0002 11.5556 60.0002 19.7999 60.0002 28.0352Z" fill="#FD6219"/>
<path d="M22.7626 14.5464C28.8858 14.5464 35.0091 14.5464 41.1323 14.5464C43.8922 14.5464 45.4807 16.1438 45.4807 18.9126C45.4807 26.438 45.4807 33.9545 45.4807 41.4799C45.4807 44.222 43.8567 45.8283 41.0968 45.8372C30.9092 45.8372 20.7215 45.8549 10.5427 45.8283C8.82104 45.8194 7.42778 46.3785 6.2475 47.6209C4.81874 49.1295 3.33673 50.5849 1.88135 52.0758C1.52638 52.4396 1.15366 52.6881 0.630075 52.4751C0.115366 52.2621 0 51.8362 0 51.3215C0.00887429 40.415 0 29.5173 0.00887429 18.6108C0.00887429 16.268 1.70386 14.5642 4.04668 14.5553C10.2942 14.5375 16.5239 14.5464 22.7626 14.5464ZM22.7448 25.515C20.0825 25.515 17.4202 25.515 14.7579 25.515C14.2521 25.515 13.7374 25.4973 13.2316 25.5328C12.4329 25.5949 11.8916 26.225 11.9093 27.0148C11.927 27.9111 12.5837 28.4702 13.6398 28.4702C19.7187 28.4702 25.7976 28.4702 31.8853 28.4702C32.0539 28.4702 32.2225 28.4613 32.3912 28.4347C33.2253 28.2661 33.7134 27.565 33.5892 26.7308C33.4738 25.9765 32.8704 25.515 31.9297 25.515C28.8592 25.5062 25.8064 25.515 22.7448 25.515ZM22.7537 32.4281C20.2068 32.4281 17.651 32.4281 15.104 32.4281C14.4828 32.4281 13.8528 32.4104 13.2316 32.4547C12.4329 32.508 11.8916 33.138 11.9004 33.9367C11.9093 34.833 12.566 35.401 13.622 35.401C19.7009 35.401 25.7798 35.401 31.8676 35.401C32.0362 35.401 32.2137 35.401 32.3734 35.3655C33.2076 35.2058 33.7046 34.5047 33.5803 33.6616C33.4738 32.9073 32.8615 32.437 31.9297 32.437C28.8681 32.4281 25.8064 32.4281 22.7537 32.4281Z" fill="#FD6219"/>
<path d="M48.4272 38.5693C48.4272 38.2498 48.4272 38.0102 48.4272 37.7618C48.4272 31.1327 48.4272 24.5036 48.4272 17.8656C48.4272 15.2388 47.309 13.2953 44.9307 12.1239C44.0255 11.6802 43.0494 11.5915 42.0643 11.5915C30.7318 11.5915 19.3905 11.5915 8.05802 11.5915C7.81842 11.5915 7.57881 11.5915 7.34808 11.5915C6.98423 9.70125 8.55498 7.64241 10.5339 7.34956C10.8889 7.29631 11.2528 7.27856 11.6077 7.27856C23.872 7.27856 36.1274 7.27856 48.3917 7.27856C50.5747 7.27856 52.11 8.36123 52.5981 10.2603C52.6868 10.6064 52.7312 10.9703 52.7312 11.3252C52.7401 19.0547 52.749 26.7754 52.7312 34.5049C52.7223 36.546 51.4888 38.0546 49.5986 38.4717C49.2436 38.5427 48.862 38.5338 48.4272 38.5693Z" fill="#FD6219"/>
</svg>
