<svg width="60" height="60" viewBox="0 0 60 60" fill="none" xmlns="http://www.w3.org/2000/svg">
<path d="M19.9214 17.7905C20.4544 15.6585 20.9874 13.2599 21.7869 11.1279C22.853 7.66328 24.1855 4.1987 25.2515 0.734113C25.2515 0.467607 25.518 0.2011 26.051 0.2011C28.7161 -0.0654059 31.1147 -0.0654059 33.7797 0.2011C34.0462 0.2011 34.3127 0.2011 34.5792 0.734113C36.1783 6.06424 38.0438 11.3944 39.6429 16.991C39.9094 17.2575 39.9094 17.524 39.9094 17.7905C33.2467 17.7905 26.584 17.7905 19.9214 17.7905Z" fill="#FD6219"/>
<path d="M30.5815 37.7785C26.8504 37.7785 23.1193 37.7785 19.3882 37.7785C18.5887 32.4483 18.5887 27.1182 19.3882 21.7881C26.5839 21.7881 33.5131 21.7881 40.7087 21.7881C40.9752 24.9862 40.9752 28.1842 41.2417 31.3823C40.9752 31.3823 40.7087 31.3823 40.4422 31.1158C37.2441 30.0498 34.0461 28.9838 30.848 27.9177C30.0485 27.6512 29.2489 27.6512 28.7159 28.1842C27.9164 28.7173 27.9164 29.5168 28.1829 30.5828C28.9824 32.7148 29.5155 34.8469 30.315 36.9789C30.315 37.512 30.315 37.512 30.5815 37.7785Z" fill="#FD6219"/>
<path d="M15.3907 21.7881C14.8577 27.1182 14.8577 32.4483 15.3907 37.7785C15.1242 37.7785 14.8577 37.7785 14.8577 37.7785C10.5936 37.7785 6.32953 37.7785 1.79892 37.7785C1.26591 37.7785 0.999399 37.512 0.999399 37.2455C-0.333133 32.4483 -0.333133 27.3847 0.999399 22.5876C0.999399 22.0546 1.26591 22.0546 1.79892 22.0546C6.06302 22.0546 10.3271 22.0546 14.5912 22.0546C14.8577 21.7881 15.1242 21.7881 15.3907 21.7881Z" fill="#FD6219"/>
<path d="M19.9214 42.0422C20.1879 42.0422 20.1879 42.0422 20.4544 42.0422C24.1855 42.0422 27.6501 42.0422 31.3812 42.0422C31.6477 42.0422 31.9142 42.0422 32.1807 42.5752C34.0462 47.9054 35.9118 53.502 37.5108 58.8321V59.0986C36.1783 59.3652 35.1122 59.6317 33.7797 59.6317C31.1147 59.8982 28.4496 59.8982 26.051 59.6317C25.7845 59.6317 25.518 59.3652 25.518 59.0986C23.6525 53.7685 22.0534 48.1719 20.1879 42.8418C19.9214 42.5752 19.9214 42.3087 19.9214 42.0422Z" fill="#FD6219"/>
<path d="M45.2396 32.9807C44.9731 29.2496 44.973 25.785 44.7065 22.054C44.7065 22.054 44.9731 22.054 45.2396 22.054C49.5037 22.054 53.7678 22.054 58.2984 22.054C58.8314 22.054 59.0979 22.054 59.0979 22.587C60.1639 27.3841 60.4304 32.1812 59.0979 37.2448C59.0979 37.2448 59.0979 37.5113 58.8314 37.7778C54.3008 35.9123 49.7702 34.3132 45.2396 32.9807Z" fill="#FD6219"/>
<path d="M20.9875 1.26685C20.4545 2.86588 19.9215 4.19842 19.3884 5.79745C18.3224 9.52854 17.2564 13.5261 15.9239 17.2572C15.9239 17.7902 15.6573 17.7902 15.1243 17.7902C11.1267 17.7902 7.12915 17.7902 2.86504 17.7902C2.59854 17.7902 2.59854 17.7902 2.33203 17.7902C3.66456 14.3257 5.79661 11.3941 8.19517 8.99553C11.9263 5.53095 16.1904 2.86588 20.9875 1.26685Z" fill="#FD6219"/>
<path d="M57.4988 17.7902C52.9682 17.7902 48.4376 17.7902 44.1735 17.7902C43.1075 12.1936 41.5084 6.59697 39.1099 1.26685C47.3716 4.19842 53.5012 9.79505 57.4988 17.7902Z" fill="#FD6219"/>
<path d="M15.924 42.0422C16.99 47.6389 18.589 53.2355 20.9876 58.5656C12.4594 55.6341 6.32972 50.3039 2.59863 42.0422C6.86273 42.0422 11.3933 42.0422 15.924 42.0422Z" fill="#FD6219"/>
<path d="M51.1029 39.9108C50.8363 40.1773 50.8363 40.4438 50.3033 40.4438C48.4378 41.2434 46.5722 42.3094 44.9732 43.1089C44.1737 43.6419 43.3742 44.1749 43.1077 44.9744C42.3081 46.84 41.5086 48.7055 40.4426 50.3046C40.1761 50.8376 39.9096 51.1041 39.3766 51.1041C38.8436 51.1041 38.5771 50.5711 38.5771 50.3046C36.978 45.241 35.1125 40.1773 33.5134 34.8472C33.2469 34.3142 33.2469 34.0477 33.7799 33.7812C34.0464 33.5147 34.5795 33.5147 34.846 33.7812C39.9096 35.3802 45.2397 37.2458 50.3033 38.8448C50.8363 38.8448 51.1029 39.1113 51.1029 39.9108Z" fill="#FD6219"/>
</svg>
