<svg width="60" height="61" viewBox="0 0 60 61" fill="none" xmlns="http://www.w3.org/2000/svg">
<path d="M42.4219 60.0012C39.7812 58.4856 37.1562 56.97 34.5 55.4856C34.2656 55.345 33.9375 55.3293 33.6562 55.3137C27.3906 55.2981 21.125 55.3137 14.8594 55.2981C11.6562 55.2981 9.10938 53.3606 8.39063 50.3293C8.26563 49.7825 8.20312 49.2043 8.20312 48.6418C8.1875 41.7512 8.1875 34.8606 8.20312 27.97C8.20312 24.1106 10.9844 21.3137 14.8438 21.3137C24.9375 21.3137 35.0312 21.3137 45.125 21.3137C49.0156 21.3137 51.7812 24.095 51.7812 28.0168C51.7812 34.845 51.7812 41.6887 51.7812 48.5168C51.7812 52.5168 49.0938 55.2356 45.0781 55.2981C44.9531 55.2981 44.8125 55.2981 44.625 55.2981C44.625 56.1106 44.5781 56.8762 44.6406 57.6262C44.7188 58.72 44.3594 59.5168 43.3438 59.9856C43.0469 60.0012 42.7344 60.0012 42.4219 60.0012ZM30 48.2825C32.5938 48.2356 34.8438 47.3606 36.7344 45.5793C37.5469 44.8137 37.625 43.72 36.9375 42.97C36.25 42.2356 35.2188 42.2356 34.375 42.97C31.625 45.3606 28.3906 45.3606 25.6562 42.9856C24.7969 42.2356 23.7344 42.2356 23.0469 43.0012C22.3906 43.7512 22.4687 44.8137 23.2656 45.5637C25.1562 47.3606 27.4062 48.2356 30 48.2825ZM21.8125 28.3606C18.9688 28.3606 16.5781 30.6731 16.5313 33.47C16.5156 34.5168 17.2031 35.3293 18.1875 35.3762C19.1719 35.4387 19.9531 34.7043 20.0469 33.6575C20.1406 32.5637 20.8437 31.845 21.8281 31.8606C22.7812 31.8762 23.4844 32.5793 23.5625 33.6262C23.6562 34.6887 24.4062 35.4075 25.3906 35.3606C26.3906 35.3137 27.0938 34.5012 27.0781 33.4231C27 30.6575 24.6406 28.3606 21.8125 28.3606ZM38.2188 28.3606C35.375 28.3606 32.9844 30.6731 32.9375 33.47C32.9219 34.5168 33.6094 35.3293 34.5937 35.3762C35.5781 35.4387 36.3594 34.7043 36.4531 33.6575C36.5469 32.5637 37.25 31.845 38.2344 31.8606C39.1875 31.8762 39.8906 32.5793 39.9844 33.6262C40.0781 34.6731 40.8281 35.4075 41.8125 35.3606C42.8125 35.3137 43.5156 34.5012 43.5 33.4231C43.4062 30.6575 41.0469 28.3762 38.2188 28.3606Z" fill="#FD6219"/>
<path d="M38.9062 0.0012207C39.625 0.282471 40.4219 0.454346 41.0469 0.876221C42.7656 1.96997 43.5781 3.6106 43.4375 5.64185C43.2969 7.6731 42.2344 9.14185 40.4062 10.0637C40.2656 10.1262 40.125 10.1887 39.9687 10.2668C39.9687 11.595 39.9687 12.9075 39.9687 14.2825C42.5469 14.2356 44.4219 15.3137 45.5 17.7825C35.1406 17.7825 24.8437 17.7825 14.5625 17.7825C14.9062 15.8762 16.9219 14.5637 20.0156 14.2668C20.0156 13.6262 20.0156 12.97 20.0156 12.3137C20.0156 11.6575 20.0156 10.9856 20.0156 10.3137C19.625 10.1106 19.2344 9.93872 18.8906 9.70435C17.125 8.46997 16.2656 6.76685 16.5625 4.62622C16.875 2.37622 18.2031 0.891846 20.4063 0.235596C20.625 0.173096 20.8437 0.110596 21.0781 0.0324707C21.5469 0.0324707 22.0156 0.0324707 22.4844 0.0324707C22.8437 0.141846 23.2031 0.219971 23.5469 0.344971C25.5625 1.06372 26.9531 2.93872 27.0469 5.03247C27.1406 7.18872 25.9531 9.15747 24.0156 10.095C23.8437 10.1731 23.5781 10.3293 23.5625 10.4543C23.5312 11.7356 23.5469 13.0168 23.5469 14.2981C27.875 14.2981 32.1406 14.2981 36.4375 14.2981C36.4375 13.1262 36.4062 12.0012 36.4531 10.8762C36.4687 10.4387 36.3125 10.2512 35.9219 10.0637C32.25 8.2981 31.8594 3.25122 35.25 0.985596C35.9062 0.548096 36.7344 0.360596 37.5 0.0480957C37.9687 0.0012207 38.4375 0.0012207 38.9062 0.0012207Z" fill="#FD6219"/>
<path d="M60 43.7201C59.9688 43.7826 59.9219 43.8451 59.8906 43.9233C59.2812 46.0795 57.6875 47.2201 55.3594 47.0951C55.3594 41.267 55.3594 35.4233 55.3594 29.5951C57.2656 29.3139 59.125 30.4389 59.7656 32.2826C59.8438 32.5014 59.9219 32.7201 60 32.9233C60 36.5326 60 40.1264 60 43.7201Z" fill="#FD6219"/>
<path d="M4.67187 29.5634C4.67187 35.4072 4.67187 41.2197 4.67187 47.0322C2.82812 47.5166 0.609375 46.0478 0.140625 44.0166C0.046875 43.6416 0.015625 43.2509 0.015625 42.8603C0 39.8447 0 36.8291 0 33.8291C0.015625 31.1728 1.92187 29.3916 4.67187 29.5634Z" fill="#FD6219"/>
</svg>
