<svg width="204" height="51" viewBox="0 0 204 51" fill="none" xmlns="http://www.w3.org/2000/svg">
<path d="M24.8 11C16.1 11 9.10001 18 9.10001 26.7C9.10001 35.4 16.1 42.4 24.8 42.4C33.5 42.4 40.5 35.4 40.5 26.7C40.5 18 33.5 11 24.8 11ZM32.1 34.5C26 40.1 17.4 40.7 12.9 35.8C8.40001 30.9 9.7 22.4 15.8 16.7C21.9 11.1 30.5 10.5 35 15.4C39.5 20.3 38.2 28.8 32.1 34.5Z" fill="url(#paint0_linear_174_631)"/>
<path d="M0 25.5C0 39.6 11.4 51 25.5 51C39.6 51 51 39.6 51 25.5C51 11.4 39.6 0 25.5 0C11.4 0 0 11.4 0 25.5ZM38.1 13.6C47.2 23.5 48.2 37.5 40.2 44.9C32.2 52.3 18.3 50.2 9.20001 40.3C0.100012 30.4 -0.899994 16.4 7.10001 9C15.1 1.7 29 3.69999 38.1 13.6Z" fill="url(#paint1_linear_174_631)"/>
<path d="M66.1875 43.0898C66.1406 43.0898 66.1094 43.069 66.0938 43.0274L64.369 37.7124L64.3612 37.6812C64.3612 37.6448 64.3846 37.6266 64.4314 37.6266H64.7046C64.7514 37.6266 64.7826 37.6474 64.7982 37.689L66.3123 42.4499C66.3175 42.4603 66.3253 42.4655 66.3358 42.4655C66.3462 42.4655 66.354 42.4603 66.3592 42.4499L67.8889 37.689C67.9045 37.6474 67.9357 37.6266 67.9825 37.6266H68.2401C68.2973 37.6266 68.3181 37.6552 68.3025 37.7124L66.5699 43.0274C66.5543 43.069 66.5231 43.0898 66.4762 43.0898H66.1875ZM69.5987 38.368C69.4843 38.368 69.3906 38.3316 69.3178 38.2587C69.2449 38.1859 69.2085 38.0922 69.2085 37.9778C69.2085 37.8633 69.2449 37.7696 69.3178 37.6968C69.3906 37.624 69.4843 37.5875 69.5987 37.5875C69.7132 37.5875 69.8069 37.624 69.8797 37.6968C69.9525 37.7696 69.989 37.8633 69.989 37.9778C69.989 38.0922 69.9525 38.1859 69.8797 38.2587C69.8069 38.3316 69.7132 38.368 69.5987 38.368ZM69.4504 43.082C69.3984 43.082 69.3724 43.056 69.3724 43.004V39.2265C69.3724 39.1745 69.3984 39.1485 69.4504 39.1485H69.708C69.76 39.1485 69.786 39.1745 69.786 39.2265V43.004C69.786 43.056 69.76 43.082 69.708 43.082H69.4504ZM72.7585 39.1251C72.9354 39.1251 73.0863 39.1563 73.2112 39.2187C73.2528 39.2343 73.2684 39.2681 73.258 39.3202L73.1878 39.5699C73.1722 39.622 73.1384 39.6376 73.0863 39.6168C72.9823 39.5751 72.8522 39.5569 72.6961 39.5621C72.4047 39.5673 72.1628 39.6792 71.9703 39.8977C71.7829 40.111 71.6893 40.3738 71.6893 40.686V43.0118C71.6893 43.0638 71.6633 43.0898 71.6112 43.0898H71.3537C71.3017 43.0898 71.2756 43.0638 71.2756 43.0118V39.2343C71.2756 39.1823 71.3017 39.1563 71.3537 39.1563H71.6112C71.6633 39.1563 71.6893 39.1823 71.6893 39.2343V39.765C71.6893 39.7807 71.6919 39.7911 71.6971 39.7963C71.7075 39.7963 71.7153 39.7885 71.7205 39.7728C71.8298 39.5699 71.9703 39.4112 72.142 39.2968C72.3189 39.1823 72.5244 39.1251 72.7585 39.1251ZM75.8414 39.4294C75.8414 39.4815 75.8154 39.5075 75.7633 39.5075H74.8502C74.8294 39.5075 74.819 39.5179 74.819 39.5387V42.005C74.819 42.2704 74.8788 42.4577 74.9985 42.5669C75.1182 42.671 75.3107 42.723 75.576 42.723H75.7555C75.8076 42.723 75.8336 42.749 75.8336 42.8011V43.0118C75.8336 43.0638 75.8076 43.0898 75.7555 43.0898L75.5214 43.0976C75.1572 43.0976 74.8814 43.0274 74.6941 42.8869C74.512 42.7464 74.4183 42.4889 74.4131 42.1143V39.5387C74.4131 39.5179 74.4027 39.5075 74.3819 39.5075H73.9136C73.8616 39.5075 73.8356 39.4815 73.8356 39.4294V39.2343C73.8356 39.1823 73.8616 39.1563 73.9136 39.1563H74.3819C74.4027 39.1563 74.4131 39.1459 74.4131 39.1251V38.2353C74.4131 38.1833 74.4391 38.1573 74.4912 38.1573H74.7409C74.793 38.1573 74.819 38.1833 74.819 38.2353V39.1251C74.819 39.1459 74.8294 39.1563 74.8502 39.1563H75.7633C75.8154 39.1563 75.8414 39.1823 75.8414 39.2343V39.4294ZM79.4189 39.2343C79.4189 39.1823 79.4449 39.1563 79.4969 39.1563H79.7467C79.7987 39.1563 79.8247 39.1823 79.8247 39.2343V43.0118C79.8247 43.0638 79.7987 43.0898 79.7467 43.0898H79.4969C79.4449 43.0898 79.4189 43.0638 79.4189 43.0118V42.6294C79.4189 42.6138 79.4137 42.606 79.4033 42.606C79.3929 42.6007 79.385 42.606 79.3798 42.6216C79.2706 42.7933 79.1223 42.9233 78.935 43.0118C78.7529 43.1003 78.5369 43.1445 78.2872 43.1445C77.9022 43.1445 77.5822 43.03 77.3272 42.8011C77.0723 42.5721 76.9448 42.2573 76.9448 41.8567V39.2343C76.9448 39.1823 76.9708 39.1563 77.0228 39.1563H77.2726C77.3246 39.1563 77.3506 39.1823 77.3506 39.2343V41.7474C77.3506 42.0596 77.4417 42.3094 77.6238 42.4967C77.8111 42.684 78.0582 42.7777 78.3652 42.7777C78.6826 42.7777 78.9376 42.684 79.1301 42.4967C79.3226 42.3042 79.4189 42.0544 79.4189 41.7474V39.2343ZM82.4873 39.0938C82.9452 39.0938 83.2938 39.2135 83.5332 39.4529C83.7725 39.687 83.8922 40.0044 83.8922 40.405V43.0118C83.8922 43.0638 83.8662 43.0898 83.8141 43.0898H83.5566C83.5045 43.0898 83.4785 43.0638 83.4785 43.0118V42.645C83.4785 42.6346 83.4733 42.6268 83.4629 42.6216C83.4577 42.6164 83.4499 42.619 83.4395 42.6294C83.3042 42.8011 83.1273 42.9311 82.9088 43.0196C82.6955 43.1081 82.4561 43.1523 82.1908 43.1523C81.8317 43.1523 81.5274 43.0612 81.2776 42.8791C81.0279 42.697 80.903 42.4186 80.903 42.044C80.903 41.659 81.0461 41.3546 81.3322 41.1309C81.6184 40.9071 82.0112 40.7953 82.5107 40.7953H83.4473C83.4681 40.7953 83.4785 40.7849 83.4785 40.764V40.4128C83.4785 40.1215 83.3953 39.8899 83.2288 39.7182C83.0675 39.5465 82.8177 39.4607 82.4795 39.4607C82.2142 39.4607 81.9956 39.5153 81.8239 39.6246C81.6522 39.7338 81.5456 39.8795 81.5039 40.0616C81.4883 40.1137 81.4571 40.1371 81.4103 40.1319L81.1371 40.0928C81.0799 40.0824 81.0565 40.0616 81.0669 40.0304C81.1137 39.7494 81.2646 39.5231 81.5196 39.3514C81.7797 39.1797 82.1023 39.0938 82.4873 39.0938ZM82.261 42.7933C82.5888 42.7933 82.8724 42.7126 83.1117 42.5513C83.3563 42.39 83.4785 42.1663 83.4785 41.8801V41.1699C83.4785 41.1491 83.4681 41.1387 83.4473 41.1387H82.5498C82.1803 41.1387 81.8812 41.2167 81.6522 41.3728C81.4285 41.5289 81.3166 41.7448 81.3166 42.0206C81.3166 42.2756 81.4051 42.4681 81.582 42.5981C81.7589 42.7282 81.9852 42.7933 82.261 42.7933ZM85.2101 43.0898C85.158 43.0898 85.132 43.0638 85.132 43.0118V37.7046C85.132 37.6526 85.158 37.6266 85.2101 37.6266H85.4676C85.5197 37.6266 85.5457 37.6526 85.5457 37.7046V43.0118C85.5457 43.0638 85.5197 43.0898 85.4676 43.0898H85.2101ZM91.8111 43.0898C91.7643 43.0898 91.7331 43.0716 91.7175 43.0352L90.5234 40.5533C90.5182 40.5377 90.5078 40.5299 90.4922 40.5299H89.0171C88.9963 40.5299 88.9858 40.5403 88.9858 40.5611V43.0118C88.9858 43.0638 88.9598 43.0898 88.9078 43.0898H88.6502C88.5982 43.0898 88.5722 43.0638 88.5722 43.0118V37.7046C88.5722 37.6526 88.5982 37.6266 88.6502 37.6266H90.617C91.0541 37.6266 91.4053 37.7618 91.6707 38.0324C91.9412 38.303 92.0765 38.6568 92.0765 39.0938C92.0765 39.4633 91.975 39.7754 91.7721 40.0304C91.5692 40.2802 91.296 40.4362 90.9526 40.4987C90.9266 40.5091 90.9188 40.5221 90.9292 40.5377L92.1233 42.9962C92.1285 43.0066 92.1311 43.0196 92.1311 43.0352C92.1311 43.0716 92.1103 43.0898 92.0687 43.0898H91.8111ZM89.0171 37.9934C88.9963 37.9934 88.9858 38.0038 88.9858 38.0246V40.1553C88.9858 40.1761 88.9963 40.1865 89.0171 40.1865H90.578C90.9006 40.1865 91.1608 40.085 91.3585 39.8821C91.5614 39.6792 91.6629 39.4164 91.6629 39.0938C91.6629 38.766 91.5614 38.5007 91.3585 38.2978C91.1608 38.0948 90.9006 37.9934 90.578 37.9934H89.0171ZM94.686 42.7855C94.9306 42.7855 95.1387 42.7308 95.3104 42.6216C95.4873 42.5071 95.6252 42.351 95.724 42.1533C95.7501 42.1065 95.7839 42.0934 95.8255 42.1143L96.0284 42.2157C96.0753 42.2417 96.0883 42.2756 96.0675 42.3172C95.953 42.5721 95.7709 42.7751 95.5211 42.9259C95.2766 43.0768 94.9878 43.1523 94.6548 43.1523C94.2906 43.1523 93.981 43.0638 93.726 42.8869C93.4711 42.71 93.2968 42.4681 93.2031 42.1611C93.1615 42.031 93.1329 41.8853 93.1173 41.724C93.1017 41.5627 93.0939 41.3598 93.0939 41.1153C93.0939 40.8603 93.0965 40.6678 93.1017 40.5377C93.1121 40.4076 93.1303 40.288 93.1563 40.1787C93.2395 39.8509 93.4086 39.5881 93.6636 39.3904C93.9238 39.1927 94.2412 39.0938 94.6158 39.0938C95.0424 39.0938 95.3832 39.2057 95.6382 39.4294C95.8931 39.648 96.0518 39.9524 96.1143 40.3426C96.1299 40.4414 96.1403 40.5585 96.1455 40.6938C96.1507 40.8239 96.1533 40.9878 96.1533 41.1855C96.1533 41.2375 96.1273 41.2635 96.0753 41.2635H93.5309C93.5101 41.2635 93.4997 41.274 93.4997 41.2948C93.4997 41.6278 93.5127 41.8489 93.5387 41.9582C93.596 42.2131 93.7234 42.416 93.9212 42.5669C94.1241 42.7126 94.379 42.7855 94.686 42.7855ZM93.5543 40.2723C93.5283 40.3712 93.5101 40.5741 93.4997 40.8811C93.4997 40.9019 93.5101 40.9123 93.5309 40.9123H95.7084C95.7292 40.9123 95.7397 40.9019 95.7397 40.8811C95.7397 40.621 95.7266 40.4258 95.7006 40.2958C95.6434 40.046 95.5185 39.8457 95.326 39.6948C95.1335 39.5387 94.8967 39.4607 94.6158 39.4607C94.3348 39.4607 94.1007 39.5361 93.9134 39.687C93.726 39.8327 93.6064 40.0278 93.5543 40.2723ZM98.6303 39.0938C99.0881 39.0938 99.4367 39.2135 99.6761 39.4529C99.9154 39.687 100.035 40.0044 100.035 40.405V43.0118C100.035 43.0638 100.009 43.0898 99.9571 43.0898H99.6995C99.6475 43.0898 99.6215 43.0638 99.6215 43.0118V42.645C99.6215 42.6346 99.6163 42.6268 99.6058 42.6216C99.6006 42.6164 99.5928 42.619 99.5824 42.6294C99.4472 42.8011 99.2702 42.9311 99.0517 43.0196C98.8384 43.1081 98.599 43.1523 98.3337 43.1523C97.9747 43.1523 97.6703 43.0612 97.4205 42.8791C97.1708 42.697 97.0459 42.4186 97.0459 42.044C97.0459 41.659 97.189 41.3546 97.4752 41.1309C97.7613 40.9071 98.1542 40.7953 98.6537 40.7953H99.5902C99.611 40.7953 99.6215 40.7849 99.6215 40.764V40.4128C99.6215 40.1215 99.5382 39.8899 99.3717 39.7182C99.2104 39.5465 98.9607 39.4607 98.6225 39.4607C98.3571 39.4607 98.1386 39.5153 97.9669 39.6246C97.7952 39.7338 97.6885 39.8795 97.6469 40.0616C97.6313 40.1137 97.6 40.1371 97.5532 40.1319L97.28 40.0928C97.2228 40.0824 97.1994 40.0616 97.2098 40.0304C97.2566 39.7494 97.4075 39.5231 97.6625 39.3514C97.9226 39.1797 98.2452 39.0938 98.6303 39.0938ZM98.4039 42.7933C98.7317 42.7933 99.0153 42.7126 99.2546 42.5513C99.4992 42.39 99.6215 42.1663 99.6215 41.8801V41.1699C99.6215 41.1491 99.611 41.1387 99.5902 41.1387H98.6927C98.3233 41.1387 98.0241 41.2167 97.7952 41.3728C97.5714 41.5289 97.4596 41.7448 97.4596 42.0206C97.4596 42.2756 97.548 42.4681 97.7249 42.5981C97.9018 42.7282 98.1282 42.7933 98.4039 42.7933ZM101.353 43.0898C101.301 43.0898 101.275 43.0638 101.275 43.0118V37.7046C101.275 37.6526 101.301 37.6266 101.353 37.6266H101.611C101.663 37.6266 101.689 37.6526 101.689 37.7046V43.0118C101.689 43.0638 101.663 43.0898 101.611 43.0898H101.353ZM103.356 38.368C103.241 38.368 103.147 38.3316 103.075 38.2587C103.002 38.1859 102.965 38.0922 102.965 37.9778C102.965 37.8633 103.002 37.7696 103.075 37.6968C103.147 37.624 103.241 37.5875 103.356 37.5875C103.47 37.5875 103.564 37.624 103.637 37.6968C103.709 37.7696 103.746 37.8633 103.746 37.9778C103.746 38.0922 103.709 38.1859 103.637 38.2587C103.564 38.3316 103.47 38.368 103.356 38.368ZM103.207 43.082C103.155 43.082 103.129 43.056 103.129 43.004V39.2265C103.129 39.1745 103.155 39.1485 103.207 39.1485H103.465C103.517 39.1485 103.543 39.1745 103.543 39.2265V43.004C103.543 43.056 103.517 43.082 103.465 43.082H103.207ZM106.671 39.4294C106.671 39.4815 106.645 39.5075 106.593 39.5075H105.68C105.659 39.5075 105.649 39.5179 105.649 39.5387V42.005C105.649 42.2704 105.709 42.4577 105.829 42.5669C105.948 42.671 106.141 42.723 106.406 42.723H106.586C106.638 42.723 106.664 42.749 106.664 42.8011V43.0118C106.664 43.0638 106.638 43.0898 106.586 43.0898L106.351 43.0976C105.987 43.0976 105.711 43.0274 105.524 42.8869C105.342 42.7464 105.248 42.4889 105.243 42.1143V39.5387C105.243 39.5179 105.233 39.5075 105.212 39.5075H104.744C104.692 39.5075 104.666 39.4815 104.666 39.4294V39.2343C104.666 39.1823 104.692 39.1563 104.744 39.1563H105.212C105.233 39.1563 105.243 39.1459 105.243 39.1251V38.2353C105.243 38.1833 105.269 38.1573 105.321 38.1573H105.571C105.623 38.1573 105.649 38.1833 105.649 38.2353V39.1251C105.649 39.1459 105.659 39.1563 105.68 39.1563H106.593C106.645 39.1563 106.671 39.1823 106.671 39.2343V39.4294ZM107.619 44.6508C107.582 44.6508 107.564 44.6248 107.564 44.5727V44.3698C107.564 44.3178 107.59 44.2918 107.642 44.2918H107.673C107.871 44.2866 108.025 44.2527 108.134 44.1903C108.248 44.1331 108.345 44.0238 108.423 43.8625C108.506 43.7012 108.602 43.4515 108.711 43.1133C108.722 43.0924 108.722 43.0768 108.711 43.0664L107.377 39.2421L107.369 39.2109C107.369 39.1745 107.392 39.1563 107.439 39.1563H107.705C107.751 39.1563 107.783 39.1771 107.798 39.2187L108.907 42.5279C108.912 42.5383 108.92 42.5435 108.93 42.5435C108.94 42.5435 108.948 42.5383 108.953 42.5279L110.03 39.2187C110.046 39.1771 110.077 39.1563 110.124 39.1563H110.389C110.447 39.1563 110.467 39.1849 110.452 39.2421L108.977 43.4879C108.857 43.8261 108.745 44.0758 108.641 44.2371C108.537 44.3984 108.412 44.5077 108.267 44.5649C108.126 44.6222 107.928 44.6508 107.673 44.6508H107.619ZM116.192 37.6266C116.244 37.6266 116.27 37.6526 116.27 37.7046V37.9153C116.27 37.9674 116.244 37.9934 116.192 37.9934H114.631C114.61 37.9934 114.599 38.0038 114.599 38.0246V43.0118C114.599 43.0638 114.573 43.0898 114.521 43.0898H114.264C114.212 43.0898 114.186 43.0638 114.186 43.0118V38.0246C114.186 38.0038 114.175 37.9934 114.155 37.9934H112.672C112.62 37.9934 112.594 37.9674 112.594 37.9153V37.7046C112.594 37.6526 112.62 37.6266 112.672 37.6266H116.192ZM118.268 42.7855C118.512 42.7855 118.72 42.7308 118.892 42.6216C119.069 42.5071 119.207 42.351 119.306 42.1533C119.332 42.1065 119.366 42.0934 119.407 42.1143L119.61 42.2157C119.657 42.2417 119.67 42.2756 119.649 42.3172C119.535 42.5721 119.353 42.7751 119.103 42.9259C118.858 43.0768 118.57 43.1523 118.237 43.1523C117.872 43.1523 117.563 43.0638 117.308 42.8869C117.053 42.71 116.879 42.4681 116.785 42.1611C116.743 42.031 116.715 41.8853 116.699 41.724C116.683 41.5627 116.676 41.3598 116.676 41.1153C116.676 40.8603 116.678 40.6678 116.683 40.5377C116.694 40.4076 116.712 40.288 116.738 40.1787C116.821 39.8509 116.99 39.5881 117.245 39.3904C117.506 39.1927 117.823 39.0938 118.198 39.0938C118.624 39.0938 118.965 39.2057 119.22 39.4294C119.475 39.648 119.634 39.9524 119.696 40.3426C119.712 40.4414 119.722 40.5585 119.727 40.6938C119.732 40.8239 119.735 40.9878 119.735 41.1855C119.735 41.2375 119.709 41.2635 119.657 41.2635H117.113C117.092 41.2635 117.081 41.274 117.081 41.2948C117.081 41.6278 117.094 41.8489 117.121 41.9582C117.178 42.2131 117.305 42.416 117.503 42.5669C117.706 42.7126 117.961 42.7855 118.268 42.7855ZM117.136 40.2723C117.11 40.3712 117.092 40.5741 117.081 40.8811C117.081 40.9019 117.092 40.9123 117.113 40.9123H119.29C119.311 40.9123 119.321 40.9019 119.321 40.8811C119.321 40.621 119.308 40.4258 119.282 40.2958C119.225 40.046 119.1 39.8457 118.908 39.6948C118.715 39.5387 118.479 39.4607 118.198 39.4607C117.917 39.4607 117.682 39.5361 117.495 39.687C117.308 39.8327 117.188 40.0278 117.136 40.2723ZM122.367 43.1523C121.998 43.1523 121.683 43.056 121.423 42.8635C121.168 42.671 120.996 42.4134 120.908 42.0908C120.84 41.8411 120.806 41.5159 120.806 41.1153C120.806 40.7302 120.84 40.4076 120.908 40.1475C120.991 39.8301 121.163 39.5751 121.423 39.3826C121.683 39.1901 121.998 39.0938 122.367 39.0938C122.737 39.0938 123.054 39.1875 123.32 39.3748C123.59 39.5621 123.762 39.7963 123.835 40.0772C123.855 40.1501 123.871 40.2229 123.882 40.2958V40.3114C123.882 40.3478 123.858 40.3712 123.811 40.3816L123.562 40.4128H123.546C123.509 40.4128 123.486 40.3894 123.476 40.3426L123.452 40.2333C123.405 40.0148 123.283 39.8327 123.085 39.687C122.888 39.5361 122.648 39.4607 122.367 39.4607C122.081 39.4607 121.842 39.5361 121.649 39.687C121.462 39.8379 121.342 40.0382 121.29 40.288C121.244 40.4857 121.22 40.764 121.22 41.1231C121.22 41.4873 121.244 41.763 121.29 41.9504C121.342 42.2053 121.462 42.4082 121.649 42.5591C121.842 42.71 122.081 42.7855 122.367 42.7855C122.648 42.7855 122.888 42.7126 123.085 42.5669C123.288 42.416 123.411 42.2287 123.452 42.005L123.46 41.966C123.47 41.9087 123.502 41.8853 123.554 41.8957L123.796 41.9347C123.848 41.9452 123.871 41.9738 123.866 42.0206L123.835 42.1611C123.762 42.4525 123.59 42.6918 123.32 42.8791C123.054 43.0612 122.737 43.1523 122.367 43.1523ZM126.509 39.1016C126.909 39.1016 127.232 39.2239 127.477 39.4685C127.726 39.713 127.851 40.0356 127.851 40.4362V43.0118C127.851 43.0638 127.825 43.0898 127.773 43.0898H127.516C127.464 43.0898 127.438 43.0638 127.438 43.0118V40.5143C127.438 40.2073 127.344 39.9576 127.157 39.765C126.969 39.5673 126.725 39.4685 126.423 39.4685C126.111 39.4685 125.858 39.5647 125.666 39.7572C125.473 39.9445 125.377 40.1917 125.377 40.4987V43.0118C125.377 43.0638 125.351 43.0898 125.299 43.0898H125.041C124.989 43.0898 124.963 43.0638 124.963 43.0118V37.7046C124.963 37.6526 124.989 37.6266 125.041 37.6266H125.299C125.351 37.6266 125.377 37.6526 125.377 37.7046V39.6168C125.377 39.6324 125.38 39.6428 125.385 39.648C125.395 39.648 125.403 39.6428 125.408 39.6324C125.523 39.4607 125.674 39.3306 125.861 39.2421C126.048 39.1485 126.264 39.1016 126.509 39.1016ZM130.701 39.1016C131.101 39.1016 131.424 39.2239 131.669 39.4685C131.918 39.713 132.043 40.0356 132.043 40.4362V43.0118C132.043 43.0638 132.017 43.0898 131.965 43.0898H131.708C131.656 43.0898 131.63 43.0638 131.63 43.0118V40.5143C131.63 40.2073 131.536 39.9576 131.349 39.765C131.161 39.5673 130.917 39.4685 130.615 39.4685C130.303 39.4685 130.05 39.5647 129.858 39.7572C129.665 39.9445 129.569 40.1917 129.569 40.4987V43.0118C129.569 43.0638 129.543 43.0898 129.491 43.0898H129.233C129.181 43.0898 129.155 43.0638 129.155 43.0118V39.2343C129.155 39.1823 129.181 39.1563 129.233 39.1563H129.491C129.543 39.1563 129.569 39.1823 129.569 39.2343V39.6168C129.569 39.6324 129.572 39.6428 129.577 39.648C129.587 39.648 129.595 39.6428 129.6 39.6324C129.715 39.4607 129.866 39.3306 130.053 39.2421C130.24 39.1485 130.456 39.1016 130.701 39.1016ZM134.707 43.1523C134.343 43.1523 134.03 43.056 133.77 42.8635C133.51 42.671 133.333 42.4134 133.24 42.0908C133.182 41.8827 133.154 41.5575 133.154 41.1153C133.154 40.673 133.182 40.3504 133.24 40.1475C133.333 39.8249 133.508 39.5699 133.763 39.3826C134.023 39.1901 134.34 39.0938 134.715 39.0938C135.079 39.0938 135.391 39.1901 135.651 39.3826C135.917 39.5751 136.094 39.8301 136.182 40.1475C136.213 40.2671 136.234 40.4024 136.244 40.5533C136.255 40.699 136.26 40.8863 136.26 41.1153C136.26 41.3546 136.255 41.5471 136.244 41.6928C136.234 41.8385 136.213 41.9712 136.182 42.0908C136.094 42.4134 135.917 42.671 135.651 42.8635C135.391 43.056 135.076 43.1523 134.707 43.1523ZM134.707 42.7855C134.983 42.7855 135.217 42.71 135.409 42.5591C135.607 42.403 135.734 42.2001 135.792 41.9504C135.828 41.8099 135.846 41.5341 135.846 41.1231C135.846 40.7068 135.831 40.431 135.8 40.2958C135.742 40.0408 135.615 39.8379 135.417 39.687C135.225 39.5361 134.988 39.4607 134.707 39.4607C134.426 39.4607 134.189 39.5361 133.997 39.687C133.804 39.8379 133.679 40.0408 133.622 40.2958C133.586 40.4571 133.567 40.7328 133.567 41.1231C133.567 41.5133 133.586 41.7891 133.622 41.9504C133.679 42.2053 133.804 42.4082 133.997 42.5591C134.189 42.71 134.426 42.7855 134.707 42.7855ZM137.572 43.0898C137.52 43.0898 137.494 43.0638 137.494 43.0118V37.7046C137.494 37.6526 137.52 37.6266 137.572 37.6266H137.829C137.881 37.6266 137.907 37.6526 137.907 37.7046V43.0118C137.907 43.0638 137.881 43.0898 137.829 43.0898H137.572ZM140.675 43.1523C140.311 43.1523 139.998 43.056 139.738 42.8635C139.478 42.671 139.301 42.4134 139.207 42.0908C139.15 41.8827 139.122 41.5575 139.122 41.1153C139.122 40.673 139.15 40.3504 139.207 40.1475C139.301 39.8249 139.475 39.5699 139.73 39.3826C139.991 39.1901 140.308 39.0938 140.683 39.0938C141.047 39.0938 141.359 39.1901 141.619 39.3826C141.884 39.5751 142.061 39.8301 142.15 40.1475C142.181 40.2671 142.202 40.4024 142.212 40.5533C142.223 40.699 142.228 40.8863 142.228 41.1153C142.228 41.3546 142.223 41.5471 142.212 41.6928C142.202 41.8385 142.181 41.9712 142.15 42.0908C142.061 42.4134 141.884 42.671 141.619 42.8635C141.359 43.056 141.044 43.1523 140.675 43.1523ZM140.675 42.7855C140.95 42.7855 141.185 42.71 141.377 42.5591C141.575 42.403 141.702 42.2001 141.76 41.9504C141.796 41.8099 141.814 41.5341 141.814 41.1231C141.814 40.7068 141.799 40.431 141.767 40.2958C141.71 40.0408 141.583 39.8379 141.385 39.687C141.192 39.5361 140.956 39.4607 140.675 39.4607C140.394 39.4607 140.157 39.5361 139.965 39.687C139.772 39.8379 139.647 40.0408 139.59 40.2958C139.553 40.4571 139.535 40.7328 139.535 41.1231C139.535 41.5133 139.553 41.7891 139.59 41.9504C139.647 42.2053 139.772 42.4082 139.965 42.5591C140.157 42.71 140.394 42.7855 140.675 42.7855ZM145.897 39.2343C145.897 39.1823 145.923 39.1563 145.975 39.1563H146.232C146.284 39.1563 146.31 39.1823 146.31 39.2343V43.004C146.31 43.5919 146.133 44.0186 145.779 44.284C145.426 44.5493 144.926 44.669 144.281 44.643C144.229 44.6378 144.203 44.6092 144.203 44.5571L144.211 44.3308C144.211 44.2788 144.237 44.2527 144.289 44.2527C144.846 44.2736 145.251 44.1799 145.506 43.9718C145.766 43.7689 145.897 43.4437 145.897 42.9962V42.606C145.897 42.5903 145.891 42.5825 145.881 42.5825C145.876 42.5773 145.868 42.5799 145.858 42.5903C145.623 42.9494 145.267 43.1289 144.788 43.1289C144.45 43.1289 144.154 43.0378 143.899 42.8557C143.644 42.6684 143.474 42.4134 143.391 42.0908C143.334 41.8775 143.305 41.5575 143.305 41.1309C143.305 40.673 143.337 40.3374 143.399 40.1241C143.482 39.8171 143.646 39.5699 143.891 39.3826C144.135 39.1901 144.429 39.0938 144.773 39.0938C145.251 39.0938 145.613 39.2707 145.858 39.6246C145.863 39.635 145.871 39.6376 145.881 39.6324C145.891 39.6272 145.897 39.6194 145.897 39.6089V39.2343ZM145.858 41.9426C145.873 41.8645 145.884 41.7682 145.889 41.6538C145.894 41.5393 145.897 41.3624 145.897 41.1231C145.897 40.8837 145.894 40.7068 145.889 40.5923C145.884 40.4779 145.873 40.3764 145.858 40.288C145.816 40.0486 145.704 39.8509 145.522 39.6948C145.345 39.5387 145.121 39.4607 144.851 39.4607C144.58 39.4607 144.351 39.5387 144.164 39.6948C143.982 39.8509 143.857 40.0486 143.789 40.288C143.742 40.4441 143.719 40.7198 143.719 41.1153C143.719 41.5003 143.742 41.7761 143.789 41.9426C143.847 42.1819 143.969 42.3796 144.156 42.5357C144.349 42.6918 144.58 42.7699 144.851 42.7699C145.132 42.7699 145.358 42.6918 145.53 42.5357C145.707 42.3796 145.816 42.1819 145.858 41.9426ZM147.382 44.6508C147.345 44.6508 147.327 44.6248 147.327 44.5727V44.3698C147.327 44.3178 147.353 44.2918 147.405 44.2918H147.436C147.634 44.2866 147.787 44.2527 147.897 44.1903C148.011 44.1331 148.107 44.0238 148.185 43.8625C148.269 43.7012 148.365 43.4515 148.474 43.1133C148.485 43.0924 148.485 43.0768 148.474 43.0664L147.14 39.2421L147.132 39.2109C147.132 39.1745 147.155 39.1563 147.202 39.1563H147.467C147.514 39.1563 147.545 39.1771 147.561 39.2187L148.669 42.5279C148.675 42.5383 148.682 42.5435 148.693 42.5435C148.703 42.5435 148.711 42.5383 148.716 42.5279L149.793 39.2187C149.809 39.1771 149.84 39.1563 149.887 39.1563H150.152C150.209 39.1563 150.23 39.1849 150.215 39.2421L148.74 43.4879C148.62 43.8261 148.508 44.0758 148.404 44.2371C148.3 44.3984 148.175 44.5077 148.029 44.5649C147.889 44.6222 147.691 44.6508 147.436 44.6508H147.382Z" fill="white"/>
<path d="M72.8513 29.1599C71.3573 29.1599 69.9713 28.9169 68.6933 28.4309C67.4333 27.9449 66.3353 27.2609 65.3993 26.3789C64.4813 25.4969 63.7613 24.4619 63.2393 23.2739C62.7353 22.0859 62.4833 20.7899 62.4833 19.3859C62.4833 17.9819 62.7353 16.6859 63.2393 15.4979C63.7613 14.3099 64.4903 13.2749 65.4263 12.3929C66.3623 11.5109 67.4603 10.8269 68.7203 10.3409C69.9803 9.85494 71.3483 9.61194 72.8243 9.61194C74.3183 9.61194 75.6863 9.85494 76.9283 10.3409C78.1883 10.8269 79.2773 11.5109 80.1953 12.3929C81.1313 13.2749 81.8603 14.3099 82.3823 15.4979C82.9043 16.6679 83.1653 17.9639 83.1653 19.3859C83.1653 20.7899 82.9043 22.0949 82.3823 23.3009C81.8603 24.4889 81.1313 25.5239 80.1953 26.4059C79.2773 27.2699 78.1883 27.9449 76.9283 28.4309C75.6863 28.9169 74.3273 29.1599 72.8513 29.1599ZM72.8243 25.4339C73.6703 25.4339 74.4443 25.2899 75.1463 25.0019C75.8663 24.7139 76.4963 24.2999 77.0363 23.7599C77.5763 23.2199 77.9903 22.5809 78.2783 21.8429C78.5843 21.1049 78.7373 20.2859 78.7373 19.3859C78.7373 18.4859 78.5843 17.6669 78.2783 16.9289C77.9903 16.1909 77.5763 15.5519 77.0363 15.0119C76.5143 14.4719 75.8933 14.0579 75.1733 13.7699C74.4533 13.4819 73.6703 13.3379 72.8243 13.3379C71.9783 13.3379 71.1953 13.4819 70.4753 13.7699C69.7733 14.0579 69.1523 14.4719 68.6123 15.0119C68.0723 15.5519 67.6493 16.1909 67.3433 16.9289C67.0553 17.6669 66.9113 18.4859 66.9113 19.3859C66.9113 20.2679 67.0553 21.0869 67.3433 21.8429C67.6493 22.5809 68.0633 23.2199 68.5853 23.7599C69.1253 24.2999 69.7553 24.7139 70.4753 25.0019C71.1953 25.2899 71.9783 25.4339 72.8243 25.4339ZM86.1555 28.8359V14.3099H90.1785V18.4139L89.6115 17.2259C90.0435 16.1999 90.7365 15.4259 91.6905 14.9039C92.6445 14.3639 93.8055 14.0939 95.1735 14.0939V17.9819C94.9935 17.9639 94.8315 17.9549 94.6875 17.9549C94.5435 17.9369 94.3905 17.9279 94.2285 17.9279C93.0765 17.9279 92.1405 18.2609 91.4205 18.9269C90.7185 19.5749 90.3675 20.5919 90.3675 21.9779V28.8359H86.1555ZM97.7044 28.8359V14.3099H101.916V28.8359H97.7044ZM99.8104 12.2849C99.0364 12.2849 98.4064 12.0599 97.9204 11.6099C97.4344 11.1599 97.1914 10.6019 97.1914 9.93594C97.1914 9.26994 97.4344 8.71194 97.9204 8.26194C98.4064 7.81194 99.0364 7.58694 99.8104 7.58694C100.584 7.58694 101.214 7.80294 101.7 8.23494C102.186 8.64894 102.429 9.18894 102.429 9.85494C102.429 10.5569 102.186 11.1419 101.7 11.6099C101.232 12.0599 100.602 12.2849 99.8104 12.2849ZM112.737 29.0519C111.189 29.0519 109.812 28.7279 108.606 28.0799C107.418 27.4319 106.473 26.5499 105.771 25.4339C105.087 24.2999 104.745 23.0129 104.745 21.5729C104.745 20.1149 105.087 18.8279 105.771 17.7119C106.473 16.5779 107.418 15.6959 108.606 15.0659C109.812 14.4179 111.189 14.0939 112.737 14.0939C114.267 14.0939 115.635 14.4179 116.841 15.0659C118.047 15.6959 118.992 16.5689 119.676 17.6849C120.36 18.8009 120.702 20.0969 120.702 21.5729C120.702 23.0129 120.36 24.2999 119.676 25.4339C118.992 26.5499 118.047 27.4319 116.841 28.0799C115.635 28.7279 114.267 29.0519 112.737 29.0519ZM112.737 25.5959C113.439 25.5959 114.069 25.4339 114.627 25.1099C115.185 24.7859 115.626 24.3269 115.95 23.7329C116.274 23.1209 116.436 22.4009 116.436 21.5729C116.436 20.7269 116.274 20.0069 115.95 19.4129C115.626 18.8189 115.185 18.3599 114.627 18.0359C114.069 17.7119 113.439 17.5499 112.737 17.5499C112.035 17.5499 111.405 17.7119 110.847 18.0359C110.289 18.3599 109.839 18.8189 109.497 19.4129C109.173 20.0069 109.011 20.7269 109.011 21.5729C109.011 22.4009 109.173 23.1209 109.497 23.7329C109.839 24.3269 110.289 24.7859 110.847 25.1099C111.405 25.4339 112.035 25.5959 112.737 25.5959ZM132.347 14.0939C133.499 14.0939 134.525 14.3279 135.425 14.7959C136.343 15.2459 137.063 15.9479 137.585 16.9019C138.107 17.8379 138.368 19.0439 138.368 20.5199V28.8359H134.156V21.1679C134.156 19.9979 133.895 19.1339 133.373 18.5759C132.869 18.0179 132.149 17.7389 131.213 17.7389C130.547 17.7389 129.944 17.8829 129.404 18.1709C128.882 18.4409 128.468 18.8639 128.162 19.4399C127.874 20.0159 127.73 20.7539 127.73 21.6539V28.8359H123.518V14.3099H127.541V18.3329L126.785 17.1179C127.307 16.1459 128.054 15.3989 129.026 14.8769C129.998 14.3549 131.105 14.0939 132.347 14.0939Z" fill="white"/>
<path d="M155.443 9.93594H159.817V28.8359H155.443V9.93594ZM146.857 28.8359H142.483V9.93594H146.857V28.8359ZM155.767 21.0869H146.533V17.3879H155.767V21.0869ZM163.991 28.8359V14.3099H168.203V28.8359H163.991ZM166.097 12.2849C165.323 12.2849 164.693 12.0599 164.207 11.6099C163.721 11.1599 163.478 10.6019 163.478 9.93594C163.478 9.26994 163.721 8.71194 164.207 8.26194C164.693 7.81194 165.323 7.58694 166.097 7.58694C166.871 7.58694 167.501 7.80294 167.987 8.23494C168.473 8.64894 168.716 9.18894 168.716 9.85494C168.716 10.5569 168.473 11.1419 167.987 11.6099C167.519 12.0599 166.889 12.2849 166.097 12.2849ZM176.055 28.8359L169.953 14.3099H174.3L179.376 26.8109H177.216L182.481 14.3099H186.531L180.402 28.8359H176.055ZM195.063 29.0519C193.407 29.0519 191.949 28.7279 190.689 28.0799C189.447 27.4319 188.484 26.5499 187.8 25.4339C187.116 24.2999 186.774 23.0129 186.774 21.5729C186.774 20.1149 187.107 18.8279 187.773 17.7119C188.457 16.5779 189.384 15.6959 190.554 15.0659C191.724 14.4179 193.047 14.0939 194.523 14.0939C195.945 14.0939 197.223 14.3999 198.357 15.0119C199.509 15.6059 200.418 16.4699 201.084 17.6039C201.75 18.7199 202.083 20.0609 202.083 21.6269C202.083 21.7889 202.074 21.9779 202.056 22.1939C202.038 22.3919 202.02 22.5809 202.002 22.7609H190.203V20.3039H199.788L198.168 21.0329C198.168 20.2769 198.015 19.6199 197.709 19.0619C197.403 18.5039 196.98 18.0719 196.44 17.7659C195.9 17.4419 195.27 17.2799 194.55 17.2799C193.83 17.2799 193.191 17.4419 192.633 17.7659C192.093 18.0719 191.67 18.5129 191.364 19.0889C191.058 19.6469 190.905 20.3129 190.905 21.0869V21.7349C190.905 22.5269 191.076 23.2289 191.418 23.8409C191.778 24.4349 192.273 24.8939 192.903 25.2179C193.551 25.5239 194.307 25.6769 195.171 25.6769C195.945 25.6769 196.62 25.5599 197.196 25.3259C197.79 25.0919 198.33 24.7409 198.816 24.2729L201.057 26.7029C200.391 27.4589 199.554 28.0439 198.546 28.4579C197.538 28.8539 196.377 29.0519 195.063 29.0519Z" fill="#00A4B4"/>
<defs>
<linearGradient id="paint0_linear_174_631" x1="24.6177" y1="51.7081" x2="24.9199" y2="6.387" gradientUnits="userSpaceOnUse">
<stop stop-color="#0072FF"/>
<stop offset="1" stop-color="#06F98F"/>
</linearGradient>
<linearGradient id="paint1_linear_174_631" x1="9.0556" y1="59.4137" x2="39.6172" y2="-3.5505" gradientUnits="userSpaceOnUse">
<stop stop-color="#2A3BE1"/>
<stop offset="1" stop-color="#E412F1"/>
</linearGradient>
</defs>
</svg>
