<svg width="186" height="45" viewBox="0 0 186 45" fill="none" xmlns="http://www.w3.org/2000/svg">
<path d="M65.5987 20.8723H76.712V24.2893H65.5987V20.8723ZM65.918 30.4527H78.5322V33.9336H61.7665V11.5792H78.0852V15.0601H65.918V30.4527ZM92.4533 16.6888C93.8159 16.6888 95.0294 16.9549 96.0939 17.4872C97.1797 18.0194 98.0313 18.8391 98.6487 19.9462C99.2661 21.0319 99.5748 22.4371 99.5748 24.1615V33.9336H95.5829V24.6725C95.5829 23.1609 95.221 22.0326 94.4971 21.2874C93.7946 20.5423 92.8046 20.1697 91.5272 20.1697C90.5905 20.1697 89.7602 20.3613 89.0363 20.7445C88.3124 21.1277 87.7483 21.7026 87.3438 22.469C86.9605 23.2141 86.7689 24.1615 86.7689 25.3112V33.9336H82.7771V16.8804H86.5773V21.479L85.9067 20.0739C86.5028 18.9881 87.365 18.1578 88.4934 17.583C89.6431 16.9869 90.963 16.6888 92.4533 16.6888ZM108.862 33.9336L101.549 16.8804H105.7L111.991 31.9217H109.947L116.462 16.8804H120.294L112.981 33.9336H108.862ZM122.789 33.9336V16.8804H126.781V33.9336H122.789ZM124.801 14.0701C124.056 14.0701 123.438 13.836 122.949 13.3676C122.48 12.8992 122.246 12.335 122.246 11.675C122.246 10.9938 122.48 10.4296 122.949 9.98249C123.438 9.51412 124.056 9.27993 124.801 9.27993C125.546 9.27993 126.153 9.50347 126.621 9.95056C127.111 10.3764 127.356 10.9192 127.356 11.5792C127.356 12.2818 127.122 12.8779 126.653 13.3676C126.185 13.836 125.567 14.0701 124.801 14.0701ZM132.02 33.9336V16.8804H135.821V21.5748L135.373 20.2016C135.884 19.052 136.683 18.1791 137.769 17.583C138.876 16.9869 140.249 16.6888 141.888 16.6888V20.489C141.718 20.4465 141.558 20.4252 141.409 20.4252C141.26 20.4039 141.111 20.3932 140.962 20.3932C139.45 20.3932 138.248 20.8403 137.353 21.7345C136.459 22.6074 136.012 23.9167 136.012 25.6625V33.9336H132.02ZM152.783 34.1571C151.037 34.1571 149.483 33.7846 148.12 33.0394C146.758 32.273 145.683 31.2298 144.895 29.9098C144.107 28.5898 143.713 27.0889 143.713 25.407C143.713 23.7038 144.107 22.2029 144.895 20.9042C145.683 19.5842 146.758 18.5517 148.12 17.8065C149.483 17.0614 151.037 16.6888 152.783 16.6888C154.55 16.6888 156.115 17.0614 157.477 17.8065C158.861 18.5517 159.936 19.5736 160.703 20.8723C161.49 22.1709 161.884 23.6825 161.884 25.407C161.884 27.0889 161.49 28.5898 160.703 29.9098C159.936 31.2298 158.861 32.273 157.477 33.0394C156.115 33.7846 154.55 34.1571 152.783 34.1571ZM152.783 30.7401C153.762 30.7401 154.635 30.5272 155.402 30.1014C156.168 29.6756 156.764 29.0582 157.19 28.2492C157.637 27.4402 157.861 26.4928 157.861 25.407C157.861 24.2999 157.637 23.3525 157.19 22.5648C156.764 21.7558 156.168 21.1384 155.402 20.7126C154.635 20.2868 153.773 20.0739 152.815 20.0739C151.835 20.0739 150.963 20.2868 150.196 20.7126C149.451 21.1384 148.855 21.7558 148.408 22.5648C147.961 23.3525 147.737 24.2999 147.737 25.407C147.737 26.4928 147.961 27.4402 148.408 28.2492C148.855 29.0582 149.451 29.6756 150.196 30.1014C150.963 30.5272 151.825 30.7401 152.783 30.7401ZM175.378 16.6888C176.74 16.6888 177.954 16.9549 179.018 17.4872C180.104 18.0194 180.956 18.8391 181.573 19.9462C182.191 21.0319 182.499 22.4371 182.499 24.1615V33.9336H178.507V24.6725C178.507 23.1609 178.145 22.0326 177.422 21.2874C176.719 20.5423 175.729 20.1697 174.452 20.1697C173.515 20.1697 172.685 20.3613 171.961 20.7445C171.237 21.1277 170.673 21.7026 170.268 22.469C169.885 23.2141 169.693 24.1615 169.693 25.3112V33.9336H165.702V16.8804H169.502V21.479L168.831 20.0739C169.427 18.9881 170.289 18.1578 171.418 17.583C172.567 16.9869 173.887 16.6888 175.378 16.6888Z" fill="white"/>
<path d="M27.6 44.4C15.3 44.4 5.40001 34.4 5.40001 22.2C5.40001 9.9 15.4 0 27.6 0C35.4 0 42.4 4 46.5 10.6C47.8 12.7 47.1 15.4 45.1 16.7C43 18 40.3 17.3 39 15.3C36.5 11.3 32.3 8.9 27.6 8.9C20.2 8.9 14.2 14.9 14.2 22.3C14.2 29.7 20.2 35.7 27.6 35.7C31.9 35.7 35.9 33.6 38.4 30.2C39.8 28.2 42.6 27.8 44.6 29.2C46.6 30.6 47 33.4 45.6 35.4C41.4 41 34.6 44.4 27.6 44.4Z" fill="#66D694"/>
<path d="M28.6 26.6008H4.40001C2.00001 26.6008 0 24.6008 0 22.2008C0 19.8008 2.00001 17.8008 4.40001 17.8008H28.6C31 17.8008 33 19.8008 33 22.2008C33 24.6008 31.1 26.6008 28.6 26.6008Z" fill="#FFB200"/>
</svg>
