<svg width="157" height="44" viewBox="0 0 157 44" fill="none" xmlns="http://www.w3.org/2000/svg">
<path d="M54.8821 22.2509H65.6441V26.2746H54.8821V22.2509ZM55.2653 31.4481H67.4325V35.5996H50.1238V13.2452H67.0173V17.3968H55.2653V31.4481ZM78.0049 35.8551C75.9823 35.8551 74.4069 35.3441 73.2785 34.3222C72.1502 33.279 71.586 31.7355 71.586 29.6917V14.6184H76.5678V29.6278C76.5678 30.3517 76.7594 30.9158 77.1426 31.3203C77.5258 31.7036 78.0475 31.8952 78.7074 31.8952C79.4952 31.8952 80.1658 31.6823 80.7193 31.2565L82.0606 34.7693C81.5496 35.1312 80.9322 35.408 80.2084 35.5996C79.5058 35.7699 78.7713 35.8551 78.0049 35.8551ZM68.9354 22.6341V18.8019H80.8471V22.6341H68.9354ZM95.2998 18.1632C96.6624 18.1632 97.8759 18.44 98.9404 18.9935C100.026 19.5258 100.878 20.3561 101.495 21.4844C102.113 22.5915 102.421 24.0179 102.421 25.7637V35.5996H97.4394V26.5301C97.4394 25.1463 97.1307 24.1244 96.5133 23.4644C95.9172 22.8044 95.0656 22.4744 93.9585 22.4744C93.1708 22.4744 92.4576 22.6447 91.8189 22.9854C91.2015 23.3047 90.7118 23.805 90.3499 24.4863C90.0093 25.1676 89.839 26.0405 89.839 27.105V35.5996H84.8571V11.904H89.839V23.177L88.7212 21.7399C89.3386 20.5903 90.2222 19.7067 91.3718 19.0893C92.5215 18.4719 93.8308 18.1632 95.2998 18.1632ZM115.588 35.8551C113.63 35.8551 111.905 35.4719 110.415 34.7054C108.946 33.939 107.807 32.8958 106.998 31.5758C106.189 30.2346 105.784 28.7123 105.784 27.0091C105.784 25.2847 106.178 23.7624 106.966 22.4425C107.775 21.1012 108.871 20.058 110.255 19.3129C111.639 18.5464 113.204 18.1632 114.95 18.1632C116.632 18.1632 118.143 18.5251 119.484 19.249C120.847 19.9516 121.922 20.9735 122.71 22.3147C123.498 23.6347 123.891 25.2208 123.891 27.073C123.891 27.2646 123.881 27.4882 123.86 27.7436C123.838 27.9778 123.817 28.2014 123.796 28.4143H109.84V25.5082H121.177L119.261 26.3705C119.261 25.4763 119.08 24.6992 118.718 24.0392C118.356 23.3792 117.856 22.8683 117.217 22.5063C116.578 22.1231 115.833 21.9315 114.982 21.9315C114.13 21.9315 113.374 22.1231 112.714 22.5063C112.076 22.8683 111.575 23.3899 111.213 24.0711C110.851 24.7311 110.67 25.5189 110.67 26.4343V27.2008C110.67 28.1375 110.873 28.9678 111.277 29.6917C111.703 30.3942 112.288 30.9371 113.034 31.3203C113.8 31.6823 114.694 31.8632 115.716 31.8632C116.632 31.8632 117.43 31.7249 118.111 31.4481C118.814 31.1713 119.452 30.7562 120.027 30.2026L122.678 33.0768C121.89 33.9709 120.9 34.6629 119.708 35.1525C118.516 35.6209 117.143 35.8551 115.588 35.8551ZM127.208 35.5996V18.4187H131.966V23.2728L131.296 21.8676C131.807 20.6541 132.626 19.7387 133.755 19.1213C134.883 18.4826 136.256 18.1632 137.874 18.1632V22.7618C137.661 22.7405 137.47 22.7299 137.3 22.7299C137.129 22.7086 136.948 22.698 136.757 22.698C135.394 22.698 134.287 23.0918 133.435 23.8795C132.605 24.646 132.19 25.8488 132.19 27.4882V35.5996H127.208ZM146.742 35.8551C145.273 35.8551 143.857 35.6848 142.494 35.3441C141.153 34.9822 140.088 34.5351 139.301 34.0029L140.961 30.4262C141.749 30.9158 142.675 31.3203 143.74 31.6397C144.825 31.9378 145.89 32.0868 146.933 32.0868C148.083 32.0868 148.892 31.9484 149.36 31.6716C149.85 31.3949 150.095 31.0116 150.095 30.522C150.095 30.1175 149.903 29.8194 149.52 29.6278C149.158 29.4149 148.668 29.2552 148.051 29.1488C147.433 29.0423 146.752 28.9359 146.007 28.8294C145.283 28.723 144.549 28.5846 143.804 28.4143C143.058 28.2227 142.377 27.9459 141.76 27.584C141.142 27.222 140.642 26.7324 140.259 26.115C139.897 25.4976 139.716 24.6992 139.716 23.7199C139.716 22.6341 140.025 21.676 140.642 20.8457C141.281 20.0154 142.196 19.3661 143.388 18.8977C144.581 18.408 146.007 18.1632 147.668 18.1632C148.839 18.1632 150.031 18.2909 151.244 18.5464C152.458 18.8019 153.469 19.1745 154.278 19.6641L152.618 23.2089C151.787 22.7192 150.946 22.3892 150.095 22.2189C149.264 22.0273 148.455 21.9315 147.668 21.9315C146.561 21.9315 145.752 22.0805 145.241 22.3786C144.73 22.6767 144.474 23.0599 144.474 23.5283C144.474 23.9541 144.655 24.2734 145.017 24.4863C145.4 24.6992 145.901 24.8695 146.518 24.9973C147.135 25.125 147.806 25.2421 148.53 25.3485C149.275 25.4337 150.02 25.5721 150.765 25.7637C151.51 25.9553 152.181 26.2321 152.777 26.594C153.395 26.9346 153.895 27.4137 154.278 28.0311C154.661 28.6272 154.853 29.4149 154.853 30.3942C154.853 31.4587 154.534 32.4061 153.895 33.2364C153.256 34.0454 152.33 34.6841 151.117 35.1525C149.924 35.6209 148.466 35.8551 146.742 35.8551Z" fill="#121212"/>
<path d="M17.2 34.2002H0V43.5002H17.2V34.2002Z" fill="#FF6C00"/>
<path d="M20.9 9.3V0L0 8.3V17.6V21.6V30.9V34.2V38.4V43.5L20.9 35.3V26L9.29999 30.6V27.3L20.9 22.7V13.4L9.29999 18V13.9L20.9 9.3Z" fill="#FFB200"/>
<path d="M38.1 26H20.9V35.3H38.1V26Z" fill="#FF6C00"/>
<path d="M33.2 13.4004H20.9V22.7004H33.2V13.4004Z" fill="#FF6C00"/>
<path d="M38.1 0H20.9V9.3H38.1V0Z" fill="#FF6C00"/>
</svg>
