<svg width="193" height="51" viewBox="0 0 193 51" fill="none" xmlns="http://www.w3.org/2000/svg">
<path d="M43 25.3004C48.081 25.3004 52.2 21.1814 52.2 16.1004C52.2 11.0194 48.081 6.90039 43 6.90039C37.919 6.90039 33.8 11.0194 33.8 16.1004C33.8 21.1814 37.919 25.3004 43 25.3004Z" fill="url(#paint0_linear_174_621)"/>
<path d="M43 27.9C42 27.9 41 27.8 40 27.5C38.9 34.7 32.7 40.3 25.2 40.3C16.9 40.3 10.2 33.6 10.2 25.3C10.2 17 16.9 10.3 25.2 10.3C27.7 10.3 30 10.9 32 11.9C33.3 8.4 36.2 5.7 39.8 4.7C35.7 1.8 30.6 0 25.2 0C11.3 0 0 11.3 0 25.2C0 39.1 11.3 50.4 25.2 50.4C39.1 50.4 50.4 39.1 50.4 25.2C48.4 26.9 45.8 27.9 43 27.9Z" fill="url(#paint1_linear_174_621)"/>
<path d="M28.3 25.2992C28.3 26.9992 26.9 28.3992 25.2 28.3992C23.5 28.3992 22.1 26.9992 22.1 25.2992C22.1 23.5992 23.5 22.1992 25.2 22.1992C26.9 22.1992 28.3 23.5992 28.3 25.2992Z" fill="url(#paint2_linear_174_621)"/>
<path d="M69.5484 39.2437C69.5744 39.2073 69.6057 39.1891 69.6421 39.1891H69.9074C69.9595 39.1891 69.9855 39.2151 69.9855 39.2671V44.5743C69.9855 44.6263 69.9595 44.6523 69.9074 44.6523H69.6499C69.5979 44.6523 69.5718 44.6263 69.5718 44.5743V39.9929C69.5718 39.9773 69.5666 39.9695 69.5562 39.9695C69.5458 39.9643 69.538 39.9695 69.5328 39.9851L68.1592 42.108C68.1332 42.1444 68.1019 42.1626 68.0655 42.1626H67.9328C67.8964 42.1626 67.8652 42.1444 67.8392 42.108L66.45 39.9929C66.4448 39.9773 66.4369 39.9721 66.4265 39.9773C66.4161 39.9825 66.4109 39.9929 66.4109 40.0085V44.5743C66.4109 44.6263 66.3849 44.6523 66.3329 44.6523H66.0753C66.0233 44.6523 65.9973 44.6263 65.9973 44.5743V39.2671C65.9973 39.2151 66.0233 39.1891 66.0753 39.1891H66.3485C66.3849 39.1891 66.4161 39.2073 66.4421 39.2437L67.9719 41.5851C67.9771 41.5903 67.9849 41.5929 67.9953 41.5929C68.0057 41.5929 68.0135 41.5903 68.0187 41.5851L69.5484 39.2437ZM72.8874 44.7148C72.5232 44.7148 72.211 44.6185 71.9509 44.426C71.6907 44.2335 71.5138 43.9759 71.4201 43.6533C71.3629 43.4452 71.3343 43.12 71.3343 42.6778C71.3343 42.2355 71.3629 41.9129 71.4201 41.71C71.5138 41.3874 71.6881 41.1324 71.9431 40.9451C72.2032 40.7526 72.5206 40.6563 72.8952 40.6563C73.2595 40.6563 73.5716 40.7526 73.8318 40.9451C74.0972 41.1376 74.2741 41.3926 74.3625 41.71C74.3937 41.8296 74.4145 41.9649 74.425 42.1158C74.4354 42.2615 74.4406 42.4488 74.4406 42.6778C74.4406 42.9171 74.4354 43.1096 74.425 43.2553C74.4145 43.401 74.3937 43.5337 74.3625 43.6533C74.2741 43.9759 74.0972 44.2335 73.8318 44.426C73.5716 44.6185 73.2569 44.7148 72.8874 44.7148ZM72.8874 44.348C73.1632 44.348 73.3973 44.2725 73.5899 44.1216C73.7876 43.9655 73.915 43.7626 73.9723 43.5129C74.0087 43.3724 74.0269 43.0966 74.0269 42.6856C74.0269 42.2693 74.0113 41.9935 73.9801 41.8583C73.9229 41.6033 73.7954 41.4004 73.5977 41.2495C73.4051 41.0986 73.1684 41.0232 72.8874 41.0232C72.6065 41.0232 72.3697 41.0986 72.1772 41.2495C71.9847 41.4004 71.8598 41.6033 71.8026 41.8583C71.7662 42.0196 71.7479 42.2953 71.7479 42.6856C71.7479 43.0758 71.7662 43.3516 71.8026 43.5129C71.8598 43.7678 71.9847 43.9707 72.1772 44.1216C72.3697 44.2725 72.6065 44.348 72.8874 44.348ZM77.2827 40.9919C77.2827 41.044 77.2567 41.07 77.2046 41.07H76.2915C76.2707 41.07 76.2603 41.0804 76.2603 41.1012V43.5675C76.2603 43.8329 76.3201 44.0202 76.4398 44.1294C76.5595 44.2335 76.752 44.2855 77.0173 44.2855H77.1968C77.2489 44.2855 77.2749 44.3115 77.2749 44.3636V44.5743C77.2749 44.6263 77.2489 44.6523 77.1968 44.6523L76.9627 44.6601C76.5985 44.6601 76.3227 44.5899 76.1354 44.4494C75.9533 44.3089 75.8596 44.0514 75.8544 43.6768V41.1012C75.8544 41.0804 75.844 41.07 75.8232 41.07H75.3549C75.3029 41.07 75.2769 41.044 75.2769 40.9919V40.7968C75.2769 40.7448 75.3029 40.7188 75.3549 40.7188H75.8232C75.844 40.7188 75.8544 40.7084 75.8544 40.6876V39.7978C75.8544 39.7458 75.8805 39.7198 75.9325 39.7198H76.1822C76.2343 39.7198 76.2603 39.7458 76.2603 39.7978V40.6876C76.2603 40.7084 76.2707 40.7188 76.2915 40.7188H77.2046C77.2567 40.7188 77.2827 40.7448 77.2827 40.7968V40.9919ZM78.7685 39.9305C78.654 39.9305 78.5604 39.8941 78.4875 39.8212C78.4147 39.7484 78.3783 39.6547 78.3783 39.5403C78.3783 39.4258 78.4147 39.3321 78.4875 39.2593C78.5604 39.1865 78.654 39.15 78.7685 39.15C78.883 39.15 78.9766 39.1865 79.0495 39.2593C79.1223 39.3321 79.1587 39.4258 79.1587 39.5403C79.1587 39.6547 79.1223 39.7484 79.0495 39.8212C78.9766 39.8941 78.883 39.9305 78.7685 39.9305ZM78.6202 44.6445C78.5682 44.6445 78.5422 44.6185 78.5422 44.5665V40.789C78.5422 40.737 78.5682 40.711 78.6202 40.711H78.8778C78.9298 40.711 78.9558 40.737 78.9558 40.789V44.5665C78.9558 44.6185 78.9298 44.6445 78.8778 44.6445H78.6202ZM81.8659 44.7148C81.5017 44.7148 81.1895 44.6185 80.9293 44.426C80.6692 44.2335 80.4923 43.9759 80.3986 43.6533C80.3414 43.4452 80.3127 43.12 80.3127 42.6778C80.3127 42.2355 80.3414 41.9129 80.3986 41.71C80.4923 41.3874 80.6666 41.1324 80.9215 40.9451C81.1817 40.7526 81.4991 40.6563 81.8737 40.6563C82.2379 40.6563 82.5501 40.7526 82.8103 40.9451C83.0756 41.1376 83.2525 41.3926 83.341 41.71C83.3722 41.8296 83.393 41.9649 83.4034 42.1158C83.4138 42.2615 83.419 42.4488 83.419 42.6778C83.419 42.9171 83.4138 43.1096 83.4034 43.2553C83.393 43.401 83.3722 43.5337 83.341 43.6533C83.2525 43.9759 83.0756 44.2335 82.8103 44.426C82.5501 44.6185 82.2353 44.7148 81.8659 44.7148ZM81.8659 44.348C82.1416 44.348 82.3758 44.2725 82.5683 44.1216C82.766 43.9655 82.8935 43.7626 82.9507 43.5129C82.9872 43.3724 83.0054 43.0966 83.0054 42.6856C83.0054 42.2693 82.9898 41.9935 82.9585 41.8583C82.9013 41.6033 82.7738 41.4004 82.5761 41.2495C82.3836 41.0986 82.1469 41.0232 81.8659 41.0232C81.5849 41.0232 81.3482 41.0986 81.1557 41.2495C80.9631 41.4004 80.8383 41.6033 80.781 41.8583C80.7446 42.0196 80.7264 42.2953 80.7264 42.6856C80.7264 43.0758 80.7446 43.3516 80.781 43.5129C80.8383 43.7678 80.9631 43.9707 81.1557 44.1216C81.3482 44.2725 81.5849 44.348 81.8659 44.348ZM86.198 40.6641C86.5986 40.6641 86.9212 40.7864 87.1658 41.031C87.4155 41.2755 87.5404 41.5981 87.5404 41.9987V44.5743C87.5404 44.6263 87.5144 44.6523 87.4623 44.6523H87.2048C87.1528 44.6523 87.1267 44.6263 87.1267 44.5743V42.0768C87.1267 41.7698 87.0331 41.5201 86.8458 41.3275C86.6585 41.1298 86.4139 41.031 86.1121 41.031C85.7999 41.031 85.5476 41.1272 85.3551 41.3197C85.1626 41.507 85.0663 41.7542 85.0663 42.0612V44.5743C85.0663 44.6263 85.0403 44.6523 84.9883 44.6523H84.7307C84.6787 44.6523 84.6526 44.6263 84.6526 44.5743V40.7968C84.6526 40.7448 84.6787 40.7188 84.7307 40.7188H84.9883C85.0403 40.7188 85.0663 40.7448 85.0663 40.7968V41.1793C85.0663 41.1949 85.0689 41.2053 85.0741 41.2105C85.0845 41.2105 85.0923 41.2053 85.0975 41.1949C85.212 41.0232 85.3629 40.8931 85.5502 40.8046C85.7375 40.711 85.9534 40.6641 86.198 40.6641ZM92.8422 40.7968C92.8422 40.7448 92.8682 40.7188 92.9202 40.7188H93.1778C93.2298 40.7188 93.2558 40.7448 93.2558 40.7968V44.5665C93.2558 45.1544 93.0789 45.5811 92.7251 45.8465C92.3713 46.1118 91.8718 46.2315 91.2266 46.2055C91.1746 46.2003 91.1485 46.1717 91.1485 46.1196L91.1563 45.8933C91.1563 45.8413 91.1824 45.8152 91.2344 45.8152C91.7911 45.8361 92.197 45.7424 92.4519 45.5343C92.7121 45.3314 92.8422 45.0062 92.8422 44.5587V44.1685C92.8422 44.1528 92.837 44.145 92.8265 44.145C92.8213 44.1398 92.8135 44.1424 92.8031 44.1528C92.569 44.5119 92.2126 44.6914 91.7339 44.6914C91.3957 44.6914 91.0991 44.6003 90.8442 44.4182C90.5892 44.2309 90.4201 43.9759 90.3368 43.6533C90.2796 43.44 90.251 43.12 90.251 42.6934C90.251 42.2355 90.2822 41.8999 90.3447 41.6866C90.4279 41.3796 90.5918 41.1324 90.8364 40.9451C91.0809 40.7526 91.3749 40.6563 91.7183 40.6563C92.197 40.6563 92.5586 40.8332 92.8031 41.1871C92.8083 41.1975 92.8161 41.2001 92.8265 41.1949C92.837 41.1897 92.8422 41.1819 92.8422 41.1714V40.7968ZM92.8031 43.5051C92.8187 43.427 92.8292 43.3307 92.8344 43.2163C92.8396 43.1018 92.8422 42.9249 92.8422 42.6856C92.8422 42.4462 92.8396 42.2693 92.8344 42.1548C92.8292 42.0404 92.8187 41.9389 92.8031 41.8505C92.7615 41.6111 92.6496 41.4134 92.4675 41.2573C92.2906 41.1012 92.0669 41.0232 91.7963 41.0232C91.5258 41.0232 91.2968 41.1012 91.1095 41.2573C90.9274 41.4134 90.8025 41.6111 90.7349 41.8505C90.6881 42.0066 90.6646 42.2823 90.6646 42.6778C90.6646 43.0628 90.6881 43.3386 90.7349 43.5051C90.7921 43.7444 90.9144 43.9421 91.1017 44.0982C91.2942 44.2543 91.5258 44.3324 91.7963 44.3324C92.0773 44.3324 92.3036 44.2543 92.4753 44.0982C92.6522 43.9421 92.7615 43.7444 92.8031 43.5051ZM96.0286 40.6876C96.2055 40.6876 96.3564 40.7188 96.4813 40.7812C96.5229 40.7968 96.5385 40.8306 96.5281 40.8827L96.4579 41.1324C96.4423 41.1845 96.4084 41.2001 96.3564 41.1793C96.2523 41.1376 96.1223 41.1194 95.9662 41.1246C95.6748 41.1298 95.4329 41.2417 95.2403 41.4602C95.053 41.6735 94.9594 41.9363 94.9594 42.2485V44.5743C94.9594 44.6263 94.9333 44.6523 94.8813 44.6523H94.6238C94.5717 44.6523 94.5457 44.6263 94.5457 44.5743V40.7968C94.5457 40.7448 94.5717 40.7188 94.6238 40.7188H94.8813C94.9333 40.7188 94.9594 40.7448 94.9594 40.7968V41.3275C94.9594 41.3432 94.962 41.3536 94.9672 41.3588C94.9776 41.3588 94.9854 41.351 94.9906 41.3353C95.0998 41.1324 95.2403 40.9737 95.412 40.8593C95.5889 40.7448 95.7945 40.6876 96.0286 40.6876ZM98.6463 40.6563C99.1042 40.6563 99.4528 40.776 99.6921 41.0154C99.9315 41.2495 100.051 41.5669 100.051 41.9675V44.5743C100.051 44.6263 100.025 44.6523 99.9731 44.6523H99.7155C99.6635 44.6523 99.6375 44.6263 99.6375 44.5743V44.2075C99.6375 44.1971 99.6323 44.1893 99.6219 44.1841C99.6167 44.1789 99.6089 44.1815 99.5985 44.1919C99.4632 44.3636 99.2863 44.4936 99.0677 44.5821C98.8544 44.6706 98.6151 44.7148 98.3497 44.7148C97.9907 44.7148 97.6863 44.6237 97.4366 44.4416C97.1868 44.2595 97.0619 43.9811 97.0619 43.6065C97.0619 43.2215 97.205 42.9171 97.4912 42.6934C97.7774 42.4696 98.1702 42.3578 98.6697 42.3578H99.6063C99.6271 42.3578 99.6375 42.3474 99.6375 42.3265V41.9753C99.6375 41.684 99.5542 41.4524 99.3877 41.2807C99.2264 41.109 98.9767 41.0232 98.6385 41.0232C98.3731 41.0232 98.1546 41.0778 97.9829 41.1871C97.8112 41.2963 97.7045 41.442 97.6629 41.6241C97.6473 41.6762 97.6161 41.6996 97.5692 41.6944L97.2961 41.6553C97.2388 41.6449 97.2154 41.6241 97.2258 41.5929C97.2727 41.3119 97.4236 41.0856 97.6785 40.9139C97.9387 40.7422 98.2613 40.6563 98.6463 40.6563ZM98.42 44.3558C98.7478 44.3558 99.0313 44.2751 99.2707 44.1138C99.5152 43.9525 99.6375 43.7288 99.6375 43.4426V42.7324C99.6375 42.7116 99.6271 42.7012 99.6063 42.7012H98.7087C98.3393 42.7012 98.0401 42.7792 97.8112 42.9353C97.5875 43.0914 97.4756 43.3073 97.4756 43.5831C97.4756 43.8381 97.564 44.0306 97.7409 44.1606C97.9179 44.2907 98.1442 44.3558 98.42 44.3558ZM104.249 41.6944C104.285 41.814 104.309 41.9493 104.319 42.1002C104.33 42.2459 104.335 42.4384 104.335 42.6778C104.335 42.9171 104.33 43.1122 104.319 43.2631C104.309 43.4088 104.288 43.5415 104.257 43.6611C104.179 43.9837 104.015 44.2413 103.765 44.4338C103.521 44.6211 103.216 44.7148 102.852 44.7148C102.623 44.7148 102.417 44.6706 102.235 44.5821C102.058 44.4884 101.915 44.3558 101.806 44.1841C101.796 44.1737 101.785 44.1711 101.775 44.1763C101.77 44.1763 101.767 44.1841 101.767 44.1997V46.104C101.767 46.156 101.741 46.1821 101.689 46.1821H101.431C101.379 46.1821 101.353 46.156 101.353 46.104V40.7968C101.353 40.7448 101.379 40.7188 101.431 40.7188H101.689C101.741 40.7188 101.767 40.7448 101.767 40.7968V41.1714C101.767 41.1871 101.77 41.1975 101.775 41.2027C101.785 41.2027 101.796 41.1975 101.806 41.1871C101.915 41.0154 102.058 40.8853 102.235 40.7968C102.417 40.7032 102.623 40.6563 102.852 40.6563C103.206 40.6563 103.505 40.75 103.749 40.9373C103.994 41.1246 104.161 41.377 104.249 41.6944ZM103.812 43.5987C103.854 43.5051 103.882 43.3958 103.898 43.2709C103.913 43.146 103.921 42.9509 103.921 42.6856C103.921 42.415 103.913 42.2199 103.898 42.1002C103.882 41.9753 103.856 41.8609 103.82 41.7568C103.768 41.5383 103.651 41.3614 103.469 41.2261C103.286 41.0908 103.068 41.0232 102.813 41.0232C102.568 41.0232 102.363 41.0934 102.196 41.2339C102.035 41.3692 101.926 41.5435 101.869 41.7568C101.832 41.8505 101.806 41.9597 101.79 42.0846C101.775 42.2095 101.767 42.4098 101.767 42.6856C101.767 42.9613 101.775 43.1616 101.79 43.2865C101.806 43.4114 101.832 43.5259 101.869 43.6299C101.926 43.8433 102.035 44.0176 102.196 44.1528C102.363 44.2829 102.568 44.348 102.813 44.348C103.052 44.348 103.258 44.2881 103.429 44.1685C103.601 44.0436 103.718 43.8823 103.781 43.6846L103.812 43.5987ZM107.097 40.6641C107.498 40.6641 107.82 40.7864 108.065 41.031C108.314 41.2755 108.439 41.5981 108.439 41.9987V44.5743C108.439 44.6263 108.413 44.6523 108.361 44.6523H108.104C108.052 44.6523 108.026 44.6263 108.026 44.5743V42.0768C108.026 41.7698 107.932 41.5201 107.745 41.3275C107.557 41.1298 107.313 41.031 107.011 41.031C106.699 41.031 106.447 41.1272 106.254 41.3197C106.061 41.507 105.965 41.7542 105.965 42.0612V44.5743C105.965 44.6263 105.939 44.6523 105.887 44.6523H105.63C105.578 44.6523 105.552 44.6263 105.552 44.5743V39.2671C105.552 39.2151 105.578 39.1891 105.63 39.1891H105.887C105.939 39.1891 105.965 39.2151 105.965 39.2671V41.1793C105.965 41.1949 105.968 41.2053 105.973 41.2105C105.983 41.2105 105.991 41.2053 105.996 41.1949C106.111 41.0232 106.262 40.8931 106.449 40.8046C106.636 40.711 106.852 40.6641 107.097 40.6641ZM110.064 39.9305C109.949 39.9305 109.855 39.8941 109.783 39.8212C109.71 39.7484 109.673 39.6547 109.673 39.5403C109.673 39.4258 109.71 39.3321 109.783 39.2593C109.855 39.1865 109.949 39.15 110.064 39.15C110.178 39.15 110.272 39.1865 110.345 39.2593C110.417 39.3321 110.454 39.4258 110.454 39.5403C110.454 39.6547 110.417 39.7484 110.345 39.8212C110.272 39.8941 110.178 39.9305 110.064 39.9305ZM109.915 44.6445C109.863 44.6445 109.837 44.6185 109.837 44.5665V40.789C109.837 40.737 109.863 40.711 109.915 40.711H110.173C110.225 40.711 110.251 40.737 110.251 40.789V44.5665C110.251 44.6185 110.225 44.6445 110.173 44.6445H109.915ZM113.169 44.7148C112.799 44.7148 112.484 44.6185 112.224 44.426C111.969 44.2335 111.798 43.9759 111.709 43.6533C111.642 43.4036 111.608 43.0784 111.608 42.6778C111.608 42.2927 111.642 41.9701 111.709 41.71C111.792 41.3926 111.964 41.1376 112.224 40.9451C112.484 40.7526 112.799 40.6563 113.169 40.6563C113.538 40.6563 113.856 40.75 114.121 40.9373C114.391 41.1246 114.563 41.3588 114.636 41.6397C114.657 41.7126 114.672 41.7854 114.683 41.8583V41.8739C114.683 41.9103 114.659 41.9337 114.613 41.9441L114.363 41.9753H114.347C114.311 41.9753 114.287 41.9519 114.277 41.9051L114.254 41.7958C114.207 41.5773 114.084 41.3952 113.887 41.2495C113.689 41.0986 113.45 41.0232 113.169 41.0232C112.883 41.0232 112.643 41.0986 112.451 41.2495C112.263 41.4004 112.144 41.6007 112.092 41.8505C112.045 42.0482 112.021 42.3265 112.021 42.6856C112.021 43.0498 112.045 43.3255 112.092 43.5129C112.144 43.7678 112.263 43.9707 112.451 44.1216C112.643 44.2725 112.883 44.348 113.169 44.348C113.45 44.348 113.689 44.2751 113.887 44.1294C114.09 43.9785 114.212 43.7912 114.254 43.5675L114.261 43.5285C114.272 43.4712 114.303 43.4478 114.355 43.4582L114.597 43.4972C114.649 43.5077 114.672 43.5363 114.667 43.5831L114.636 43.7236C114.563 44.015 114.391 44.2543 114.121 44.4416C113.856 44.6237 113.538 44.7148 113.169 44.7148ZM118.553 44.6914C118.272 44.6914 118.022 44.6471 117.803 44.5587C117.59 44.465 117.423 44.3402 117.304 44.1841C117.184 44.028 117.124 43.8563 117.124 43.669V43.5675C117.124 43.5155 117.15 43.4894 117.202 43.4894H117.444C117.496 43.4894 117.522 43.5155 117.522 43.5675V43.6533C117.522 43.8459 117.619 44.0124 117.811 44.1528C118.004 44.2881 118.248 44.3558 118.545 44.3558C118.836 44.3558 119.073 44.2855 119.255 44.145C119.437 44.0046 119.528 43.8302 119.528 43.6221C119.528 43.4764 119.481 43.3568 119.388 43.2631C119.294 43.1695 119.182 43.0992 119.052 43.0524C118.927 43.0003 118.737 42.9353 118.482 42.8573C118.191 42.7688 117.957 42.6856 117.78 42.6075C117.603 42.5295 117.452 42.4202 117.327 42.2797C117.208 42.134 117.148 41.9519 117.148 41.7334C117.148 41.416 117.273 41.1636 117.522 40.9763C117.777 40.7838 118.11 40.6876 118.521 40.6876C118.797 40.6876 119.039 40.7344 119.247 40.828C119.46 40.9165 119.624 41.0388 119.739 41.1949C119.859 41.351 119.918 41.5279 119.918 41.7256V41.749C119.918 41.801 119.892 41.827 119.84 41.827H119.598C119.546 41.827 119.52 41.801 119.52 41.749V41.7256C119.52 41.5279 119.427 41.364 119.239 41.2339C119.057 41.0986 118.815 41.031 118.514 41.031C118.222 41.031 117.988 41.0934 117.811 41.2183C117.634 41.3379 117.546 41.5018 117.546 41.71C117.546 41.9077 117.626 42.056 117.788 42.1548C117.954 42.2537 118.212 42.3552 118.56 42.4592C118.862 42.5477 119.101 42.6309 119.278 42.709C119.46 42.787 119.617 42.8989 119.747 43.0446C119.877 43.1851 119.942 43.3698 119.942 43.5987C119.942 43.9265 119.814 44.1919 119.559 44.3948C119.31 44.5925 118.974 44.6914 118.553 44.6914ZM122.686 40.9919C122.686 41.044 122.66 41.07 122.608 41.07H121.694C121.674 41.07 121.663 41.0804 121.663 41.1012V43.5675C121.663 43.8329 121.723 44.0202 121.843 44.1294C121.962 44.2335 122.155 44.2855 122.42 44.2855H122.6C122.652 44.2855 122.678 44.3115 122.678 44.3636V44.5743C122.678 44.6263 122.652 44.6523 122.6 44.6523L122.366 44.6601C122.001 44.6601 121.726 44.5899 121.538 44.4494C121.356 44.3089 121.263 44.0514 121.257 43.6768V41.1012C121.257 41.0804 121.247 41.07 121.226 41.07H120.758C120.706 41.07 120.68 41.044 120.68 40.9919V40.7968C120.68 40.7448 120.706 40.7188 120.758 40.7188H121.226C121.247 40.7188 121.257 40.7084 121.257 40.6876V39.7978C121.257 39.7458 121.283 39.7198 121.335 39.7198H121.585C121.637 39.7198 121.663 39.7458 121.663 39.7978V40.6876C121.663 40.7084 121.674 40.7188 121.694 40.7188H122.608C122.66 40.7188 122.686 40.7448 122.686 40.7968V40.9919ZM126.263 40.7968C126.263 40.7448 126.289 40.7188 126.341 40.7188H126.591C126.643 40.7188 126.669 40.7448 126.669 40.7968V44.5743C126.669 44.6263 126.643 44.6523 126.591 44.6523H126.341C126.289 44.6523 126.263 44.6263 126.263 44.5743V44.1919C126.263 44.1763 126.258 44.1685 126.247 44.1685C126.237 44.1632 126.229 44.1685 126.224 44.1841C126.115 44.3558 125.967 44.4858 125.779 44.5743C125.597 44.6628 125.381 44.707 125.131 44.707C124.746 44.707 124.426 44.5925 124.171 44.3636C123.916 44.1346 123.789 43.8198 123.789 43.4192V40.7968C123.789 40.7448 123.815 40.7188 123.867 40.7188H124.117C124.169 40.7188 124.195 40.7448 124.195 40.7968V43.3099C124.195 43.6221 124.286 43.8719 124.468 44.0592C124.655 44.2465 124.902 44.3402 125.209 44.3402C125.527 44.3402 125.782 44.2465 125.974 44.0592C126.167 43.8667 126.263 43.6169 126.263 43.3099V40.7968ZM130.479 39.2671C130.479 39.2151 130.505 39.1891 130.557 39.1891H130.814C130.866 39.1891 130.893 39.2151 130.893 39.2671V44.5743C130.893 44.6263 130.866 44.6523 130.814 44.6523H130.557C130.505 44.6523 130.479 44.6263 130.479 44.5743V44.1919C130.479 44.1763 130.474 44.1685 130.463 44.1685C130.458 44.1632 130.45 44.1659 130.44 44.1763C130.331 44.348 130.185 44.4806 130.003 44.5743C129.821 44.668 129.615 44.7148 129.386 44.7148C129.032 44.7148 128.733 44.6211 128.489 44.4338C128.244 44.2465 128.078 43.9941 127.989 43.6768C127.953 43.5571 127.929 43.4244 127.919 43.2787C127.909 43.1278 127.903 42.9327 127.903 42.6934C127.903 42.4592 127.909 42.2667 127.919 42.1158C127.929 41.9649 127.95 41.8296 127.981 41.71C128.059 41.3874 128.221 41.1324 128.465 40.9451C128.715 40.7526 129.022 40.6563 129.386 40.6563C129.615 40.6563 129.821 40.7032 130.003 40.7968C130.185 40.8905 130.331 41.0232 130.44 41.1949C130.445 41.2105 130.453 41.2183 130.463 41.2183C130.474 41.2131 130.479 41.2027 130.479 41.1871V39.2671ZM130.377 43.6143C130.414 43.5155 130.437 43.4036 130.448 43.2787C130.463 43.1538 130.471 42.9587 130.471 42.6934C130.471 42.4176 130.463 42.2173 130.448 42.0924C130.432 41.9623 130.406 41.8453 130.37 41.7412C130.312 41.5279 130.2 41.3562 130.034 41.2261C129.873 41.0908 129.672 41.0232 129.433 41.0232C129.188 41.0232 128.978 41.0908 128.801 41.2261C128.624 41.3562 128.504 41.5253 128.442 41.7334C128.395 41.8322 128.361 41.9467 128.34 42.0768C128.325 42.2017 128.317 42.4046 128.317 42.6856C128.317 42.9561 128.325 43.1538 128.34 43.2787C128.356 43.3984 128.382 43.5103 128.418 43.6143C128.47 43.8329 128.588 44.0098 128.77 44.145C128.952 44.2803 129.17 44.348 129.425 44.348C129.67 44.348 129.873 44.2803 130.034 44.145C130.2 44.0098 130.315 43.8329 130.377 43.6143ZM132.571 39.9305C132.456 39.9305 132.363 39.8941 132.29 39.8212C132.217 39.7484 132.18 39.6547 132.18 39.5403C132.18 39.4258 132.217 39.3321 132.29 39.2593C132.363 39.1865 132.456 39.15 132.571 39.15C132.685 39.15 132.779 39.1865 132.852 39.2593C132.924 39.3321 132.961 39.4258 132.961 39.5403C132.961 39.6547 132.924 39.7484 132.852 39.8212C132.779 39.8941 132.685 39.9305 132.571 39.9305ZM132.422 44.6445C132.37 44.6445 132.344 44.6185 132.344 44.5665V40.789C132.344 40.737 132.37 40.711 132.422 40.711H132.68C132.732 40.711 132.758 40.737 132.758 40.789V44.5665C132.758 44.6185 132.732 44.6445 132.68 44.6445H132.422ZM135.668 44.7148C135.304 44.7148 134.992 44.6185 134.731 44.426C134.471 44.2335 134.294 43.9759 134.201 43.6533C134.143 43.4452 134.115 43.12 134.115 42.6778C134.115 42.2355 134.143 41.9129 134.201 41.71C134.294 41.3874 134.469 41.1324 134.724 40.9451C134.984 40.7526 135.301 40.6563 135.676 40.6563C136.04 40.6563 136.352 40.7526 136.612 40.9451C136.878 41.1376 137.055 41.3926 137.143 41.71C137.174 41.8296 137.195 41.9649 137.206 42.1158C137.216 42.2615 137.221 42.4488 137.221 42.6778C137.221 42.9171 137.216 43.1096 137.206 43.2553C137.195 43.401 137.174 43.5337 137.143 43.6533C137.055 43.9759 136.878 44.2335 136.612 44.426C136.352 44.6185 136.037 44.7148 135.668 44.7148ZM135.668 44.348C135.944 44.348 136.178 44.2725 136.37 44.1216C136.568 43.9655 136.696 43.7626 136.753 43.5129C136.789 43.3724 136.807 43.0966 136.807 42.6856C136.807 42.2693 136.792 41.9935 136.761 41.8583C136.703 41.6033 136.576 41.4004 136.378 41.2495C136.186 41.0986 135.949 41.0232 135.668 41.0232C135.387 41.0232 135.15 41.0986 134.958 41.2495C134.765 41.4004 134.64 41.6033 134.583 41.8583C134.547 42.0196 134.529 42.2953 134.529 42.6856C134.529 43.0758 134.547 43.3516 134.583 43.5129C134.64 43.7678 134.765 43.9707 134.958 44.1216C135.15 44.2725 135.387 44.348 135.668 44.348Z" fill="white"/>
<path d="M77.8912 32.2467C76.2312 32.2467 74.6912 31.9767 73.2712 31.4367C71.8712 30.8967 70.6512 30.1367 69.6112 29.1567C68.5912 28.1767 67.7912 27.0267 67.2112 25.7067C66.6512 24.3867 66.3712 22.9467 66.3712 21.3867C66.3712 19.8267 66.6512 18.3867 67.2112 17.0667C67.7912 15.7467 68.6012 14.5967 69.6412 13.6167C70.6812 12.6367 71.9012 11.8767 73.3012 11.3367C74.7012 10.7967 76.2212 10.5267 77.8612 10.5267C79.5212 10.5267 81.0412 10.7967 82.4212 11.3367C83.8212 11.8767 85.0312 12.6367 86.0512 13.6167C87.0912 14.5967 87.9012 15.7467 88.4812 17.0667C89.0612 18.3667 89.3512 19.8067 89.3512 21.3867C89.3512 22.9467 89.0612 24.3967 88.4812 25.7367C87.9012 27.0567 87.0912 28.2067 86.0512 29.1867C85.0312 30.1467 83.8212 30.8967 82.4212 31.4367C81.0412 31.9767 79.5312 32.2467 77.8912 32.2467ZM77.8612 28.1067C78.8012 28.1067 79.6612 27.9467 80.4412 27.6267C81.2412 27.3067 81.9412 26.8467 82.5412 26.2467C83.1412 25.6467 83.6012 24.9367 83.9212 24.1167C84.2612 23.2967 84.4312 22.3867 84.4312 21.3867C84.4312 20.3867 84.2612 19.4767 83.9212 18.6567C83.6012 17.8367 83.1412 17.1267 82.5412 16.5267C81.9612 15.9267 81.2712 15.4667 80.4712 15.1467C79.6712 14.8267 78.8012 14.6667 77.8612 14.6667C76.9212 14.6667 76.0512 14.8267 75.2512 15.1467C74.4712 15.4667 73.7812 15.9267 73.1812 16.5267C72.5812 17.1267 72.1112 17.8367 71.7712 18.6567C71.4512 19.4767 71.2912 20.3867 71.2912 21.3867C71.2912 22.3667 71.4512 23.2767 71.7712 24.1167C72.1112 24.9367 72.5712 25.6467 73.1512 26.2467C73.7512 26.8467 74.4512 27.3067 75.2512 27.6267C76.0512 27.9467 76.9212 28.1067 77.8612 28.1067Z" fill="#FF9200"/>
<path d="M97.0537 31.8867L90.2737 15.7467H95.1037L100.744 29.6367H98.3437L104.194 15.7467H108.694L101.884 31.8867H97.0537ZM119.976 31.8867V28.7367L119.676 28.0467V22.4067C119.676 21.4067 119.366 20.6267 118.746 20.0667C118.146 19.5067 117.216 19.2267 115.956 19.2267C115.096 19.2267 114.246 19.3667 113.406 19.6467C112.586 19.9067 111.886 20.2667 111.306 20.7267L109.626 17.4567C110.506 16.8367 111.566 16.3567 112.806 16.0167C114.046 15.6767 115.306 15.5067 116.586 15.5067C119.046 15.5067 120.956 16.0867 122.316 17.2467C123.676 18.4067 124.356 20.2167 124.356 22.6767V31.8867H119.976ZM115.056 32.1267C113.796 32.1267 112.716 31.9167 111.816 31.4967C110.916 31.0567 110.226 30.4667 109.746 29.7267C109.266 28.9867 109.026 28.1567 109.026 27.2367C109.026 26.2767 109.256 25.4367 109.716 24.7167C110.196 23.9967 110.946 23.4367 111.966 23.0367C112.986 22.6167 114.316 22.4067 115.956 22.4067H120.246V25.1367H116.466C115.366 25.1367 114.606 25.3167 114.186 25.6767C113.786 26.0367 113.586 26.4867 113.586 27.0267C113.586 27.6267 113.816 28.1067 114.276 28.4667C114.756 28.8067 115.406 28.9767 116.226 28.9767C117.006 28.9767 117.706 28.7967 118.326 28.4367C118.946 28.0567 119.396 27.5067 119.676 26.7867L120.396 28.9467C120.056 29.9867 119.436 30.7767 118.536 31.3167C117.636 31.8567 116.476 32.1267 115.056 32.1267ZM128.592 31.8867V9.62672H133.272V31.8867H128.592ZM137.615 31.8867V15.7467H142.295V31.8867H137.615ZM139.955 13.4967C139.095 13.4967 138.395 13.2467 137.855 12.7467C137.315 12.2467 137.045 11.6267 137.045 10.8867C137.045 10.1467 137.315 9.52672 137.855 9.02672C138.395 8.52672 139.095 8.27672 139.955 8.27672C140.815 8.27672 141.515 8.51672 142.055 8.99672C142.595 9.45672 142.865 10.0567 142.865 10.7967C142.865 11.5767 142.595 12.2267 142.055 12.7467C141.535 13.2467 140.835 13.4967 139.955 13.4967ZM152.069 32.1267C150.689 32.1267 149.359 31.9667 148.079 31.6467C146.819 31.3067 145.819 30.8867 145.079 30.3867L146.639 27.0267C147.379 27.4867 148.249 27.8667 149.249 28.1667C150.269 28.4467 151.269 28.5867 152.249 28.5867C153.329 28.5867 154.089 28.4567 154.529 28.1967C154.989 27.9367 155.219 27.5767 155.219 27.1167C155.219 26.7367 155.039 26.4567 154.679 26.2767C154.339 26.0767 153.879 25.9267 153.299 25.8267C152.719 25.7267 152.079 25.6267 151.379 25.5267C150.699 25.4267 150.009 25.2967 149.309 25.1367C148.609 24.9567 147.969 24.6967 147.389 24.3567C146.809 24.0167 146.339 23.5567 145.979 22.9767C145.639 22.3967 145.469 21.6467 145.469 20.7267C145.469 19.7067 145.759 18.8067 146.339 18.0267C146.939 17.2467 147.799 16.6367 148.919 16.1967C150.039 15.7367 151.379 15.5067 152.939 15.5067C154.039 15.5067 155.159 15.6267 156.299 15.8667C157.439 16.1067 158.389 16.4567 159.149 16.9167L157.589 20.2467C156.809 19.7867 156.019 19.4767 155.219 19.3167C154.439 19.1367 153.679 19.0467 152.939 19.0467C151.899 19.0467 151.139 19.1867 150.659 19.4667C150.179 19.7467 149.939 20.1067 149.939 20.5467C149.939 20.9467 150.109 21.2467 150.449 21.4467C150.809 21.6467 151.279 21.8067 151.859 21.9267C152.439 22.0467 153.069 22.1567 153.749 22.2567C154.449 22.3367 155.149 22.4667 155.849 22.6467C156.549 22.8267 157.179 23.0867 157.739 23.4267C158.319 23.7467 158.789 24.1967 159.149 24.7767C159.509 25.3367 159.689 26.0767 159.689 26.9967C159.689 27.9967 159.389 28.8867 158.789 29.6667C158.189 30.4267 157.319 31.0267 156.179 31.4667C155.059 31.9067 153.689 32.1267 152.069 32.1267ZM183.246 15.5067C184.526 15.5067 185.656 15.7667 186.636 16.2867C187.636 16.7867 188.416 17.5667 188.976 18.6267C189.556 19.6667 189.846 21.0067 189.846 22.6467V31.8867H185.166V23.3667C185.166 22.0667 184.896 21.1067 184.356 20.4867C183.816 19.8667 183.056 19.5567 182.076 19.5567C181.396 19.5567 180.786 19.7167 180.246 20.0367C179.706 20.3367 179.286 20.7967 178.986 21.4167C178.686 22.0367 178.536 22.8267 178.536 23.7867V31.8867H173.856V23.3667C173.856 22.0667 173.586 21.1067 173.046 20.4867C172.526 19.8667 171.776 19.5567 170.796 19.5567C170.116 19.5567 169.506 19.7167 168.966 20.0367C168.426 20.3367 168.006 20.7967 167.706 21.4167C167.406 22.0367 167.256 22.8267 167.256 23.7867V31.8867H162.576V15.7467H167.046V20.1567L166.206 18.8667C166.766 17.7667 167.556 16.9367 168.576 16.3767C169.616 15.7967 170.796 15.5067 172.116 15.5067C173.596 15.5067 174.886 15.8867 175.986 16.6467C177.106 17.3867 177.846 18.5267 178.206 20.0667L176.556 19.6167C177.096 18.3567 177.956 17.3567 179.136 16.6167C180.336 15.8767 181.706 15.5067 183.246 15.5067Z" fill="white"/>
<defs>
<linearGradient id="paint0_linear_174_621" x1="43.722" y1="14.9786" x2="20.3677" y2="50.01" gradientUnits="userSpaceOnUse">
<stop stop-color="#FF9200"/>
<stop offset="1" stop-color="#E412F1"/>
</linearGradient>
<linearGradient id="paint1_linear_174_621" x1="-0.0111" y1="25.2647" x2="50.3709" y2="25.2647" gradientUnits="userSpaceOnUse">
<stop stop-color="#2A3BE1"/>
<stop offset="1" stop-color="#E412F1"/>
</linearGradient>
<linearGradient id="paint2_linear_174_621" x1="25.4287" y1="24.8908" x2="17.5621" y2="36.6906" gradientUnits="userSpaceOnUse">
<stop stop-color="#FF9200"/>
<stop offset="1" stop-color="#E412F1"/>
</linearGradient>
</defs>
</svg>
