<svg width="186" height="45" viewBox="0 0 186 45" fill="none" xmlns="http://www.w3.org/2000/svg">
<path d="M65.5987 20.8713H76.712V24.2883H65.5987V20.8713ZM65.918 30.4517H78.5322V33.9326H61.7665V11.5783H78.0852V15.0592H65.918V30.4517ZM92.4533 16.6878C93.8159 16.6878 95.0294 16.9539 96.0939 17.4862C97.1797 18.0184 98.0313 18.8381 98.6487 19.9452C99.2661 21.031 99.5748 22.4361 99.5748 24.1606V33.9326H95.5829V24.6715C95.5829 23.1599 95.221 22.0316 94.4971 21.2864C93.7946 20.5413 92.8046 20.1687 91.5272 20.1687C90.5905 20.1687 89.7602 20.3603 89.0363 20.7435C88.3124 21.1268 87.7483 21.7016 87.3438 22.468C86.9605 23.2132 86.7689 24.1606 86.7689 25.3102V33.9326H82.7771V16.8794H86.5773V21.478L85.9067 20.0729C86.5028 18.9871 87.365 18.1568 88.4934 17.582C89.6431 16.9859 90.963 16.6878 92.4533 16.6878ZM108.862 33.9326L101.549 16.8794H105.7L111.991 31.9207H109.947L116.462 16.8794H120.294L112.981 33.9326H108.862ZM122.789 33.9326V16.8794H126.781V33.9326H122.789ZM124.801 14.0692C124.056 14.0692 123.438 13.835 122.949 13.3666C122.48 12.8982 122.246 12.334 122.246 11.6741C122.246 10.9928 122.48 10.4286 122.949 9.98152C123.438 9.51314 124.056 9.27895 124.801 9.27895C125.546 9.27895 126.153 9.50249 126.621 9.94958C127.111 10.3754 127.356 10.9183 127.356 11.5783C127.356 12.2808 127.122 12.8769 126.653 13.3666C126.185 13.835 125.567 14.0692 124.801 14.0692ZM132.02 33.9326V16.8794H135.821V21.5738L135.373 20.2007C135.884 19.051 136.683 18.1781 137.769 17.582C138.876 16.9859 140.249 16.6878 141.888 16.6878V20.4881C141.718 20.4455 141.558 20.4242 141.409 20.4242C141.26 20.4029 141.111 20.3923 140.962 20.3923C139.45 20.3923 138.248 20.8393 137.353 21.7335C136.459 22.6064 136.012 23.9157 136.012 25.6615V33.9326H132.02ZM152.783 34.1562C151.037 34.1562 149.483 33.7836 148.12 33.0384C146.758 32.272 145.683 31.2288 144.895 29.9088C144.107 28.5889 143.713 27.0879 143.713 25.406C143.713 23.7028 144.107 22.2019 144.895 20.9032C145.683 19.5832 146.758 18.5507 148.12 17.8055C149.483 17.0604 151.037 16.6878 152.783 16.6878C154.55 16.6878 156.115 17.0604 157.477 17.8055C158.861 18.5507 159.936 19.5726 160.703 20.8713C161.49 22.17 161.884 23.6815 161.884 25.406C161.884 27.0879 161.49 28.5889 160.703 29.9088C159.936 31.2288 158.861 32.272 157.477 33.0384C156.115 33.7836 154.55 34.1562 152.783 34.1562ZM152.783 30.7391C153.762 30.7391 154.635 30.5262 155.402 30.1004C156.168 29.6746 156.764 29.0572 157.19 28.2482C157.637 27.4392 157.861 26.4918 157.861 25.406C157.861 24.299 157.637 23.3516 157.19 22.5638C156.764 21.7548 156.168 21.1374 155.402 20.7116C154.635 20.2858 153.773 20.0729 152.815 20.0729C151.835 20.0729 150.963 20.2858 150.196 20.7116C149.451 21.1374 148.855 21.7548 148.408 22.5638C147.961 23.3516 147.737 24.299 147.737 25.406C147.737 26.4918 147.961 27.4392 148.408 28.2482C148.855 29.0572 149.451 29.6746 150.196 30.1004C150.963 30.5262 151.825 30.7391 152.783 30.7391ZM175.378 16.6878C176.74 16.6878 177.954 16.9539 179.018 17.4862C180.104 18.0184 180.956 18.8381 181.573 19.9452C182.191 21.031 182.499 22.4361 182.499 24.1606V33.9326H178.507V24.6715C178.507 23.1599 178.145 22.0316 177.422 21.2864C176.719 20.5413 175.729 20.1687 174.452 20.1687C173.515 20.1687 172.685 20.3603 171.961 20.7435C171.237 21.1268 170.673 21.7016 170.268 22.468C169.885 23.2132 169.693 24.1606 169.693 25.3102V33.9326H165.702V16.8794H169.502V21.478L168.831 20.0729C169.427 18.9871 170.289 18.1568 171.418 17.582C172.567 16.9859 173.887 16.6878 175.378 16.6878Z" fill="#121212"/>
<path d="M27.6 44.4C15.3 44.4 5.40001 34.4 5.40001 22.2C5.40001 9.9 15.4 0 27.6 0C35.4 0 42.4 4 46.5 10.6C47.8 12.7 47.1 15.4 45.1 16.7C43 18 40.3 17.3 39 15.3C36.5 11.3 32.3 8.9 27.6 8.9C20.2 8.9 14.2 14.9 14.2 22.3C14.2 29.7 20.2 35.7 27.6 35.7C31.9 35.7 35.9 33.6 38.4 30.2C39.8 28.2 42.6 27.8 44.6 29.2C46.6 30.6 47 33.4 45.6 35.4C41.4 41 34.6 44.4 27.6 44.4Z" fill="#66D694"/>
<path d="M28.6 26.5998H4.40001C2.00001 26.5998 0 24.5998 0 22.1998C0 19.7998 2.00001 17.7998 4.40001 17.7998H28.6C31 17.7998 33 19.7998 33 22.1998C33 24.5998 31.1 26.5998 28.6 26.5998Z" fill="#FFB200"/>
</svg>
