<svg width="157" height="44" viewBox="0 0 157 44" fill="none" xmlns="http://www.w3.org/2000/svg">
<path d="M54.8821 22.2509H65.6441V26.2746H54.8821V22.2509ZM55.2653 31.4481H67.4325V35.5996H50.1238V13.2452H67.0173V17.3968H55.2653V31.4481ZM78.0361 35.8551C76.0135 35.8551 74.4381 35.3441 73.3097 34.3222C72.1813 33.279 71.6172 31.7355 71.6172 29.6917V14.6184H76.599V29.6278C76.599 30.3517 76.7906 30.9158 77.1738 31.3203C77.557 31.7036 78.0786 31.8952 78.7386 31.8952C79.5263 31.8952 80.197 31.6823 80.7505 31.2565L82.0918 34.7693C81.5808 35.1312 80.9634 35.408 80.2396 35.5996C79.537 35.7699 78.8025 35.8551 78.0361 35.8551ZM68.9666 22.6341V18.8019H80.8783V22.6341H68.9666ZM95.331 18.1632C96.6935 18.1632 97.9071 18.44 98.9716 18.9935C100.057 19.5258 100.909 20.3561 101.526 21.4844C102.144 22.5915 102.452 24.0179 102.452 25.7637V35.5996H97.4706V26.5301C97.4706 25.1463 97.1619 24.1244 96.5445 23.4644C95.9484 22.8044 95.0968 22.4744 93.9897 22.4744C93.202 22.4744 92.4888 22.6447 91.8501 22.9854C91.2327 23.3047 90.743 23.805 90.3811 24.4863C90.0405 25.1676 89.8701 26.0405 89.8701 27.105V35.5996H84.8883V11.904H89.8701V23.177L88.7524 21.7399C89.3698 20.5903 90.2534 19.7067 91.403 19.0893C92.5527 18.4719 93.862 18.1632 95.331 18.1632ZM115.62 35.8551C113.661 35.8551 111.936 35.4719 110.446 34.7054C108.977 33.939 107.838 32.8958 107.029 31.5758C106.22 30.2346 105.816 28.7123 105.816 27.0091C105.816 25.2847 106.209 23.7624 106.997 22.4425C107.806 21.1012 108.903 20.058 110.286 19.3129C111.67 18.5464 113.235 18.1632 114.981 18.1632C116.663 18.1632 118.174 18.5251 119.516 19.249C120.878 19.9516 121.953 20.9735 122.741 22.3147C123.529 23.6347 123.923 25.2208 123.923 27.073C123.923 27.2646 123.912 27.4882 123.891 27.7436C123.869 27.9778 123.848 28.2014 123.827 28.4143H109.871V25.5082H121.208L119.292 26.3705C119.292 25.4763 119.111 24.6992 118.749 24.0392C118.387 23.3792 117.887 22.8683 117.248 22.5063C116.61 22.1231 115.864 21.9315 115.013 21.9315C114.161 21.9315 113.405 22.1231 112.745 22.5063C112.107 22.8683 111.606 23.3899 111.245 24.0711C110.883 24.7311 110.702 25.5189 110.702 26.4343V27.2008C110.702 28.1375 110.904 28.9678 111.308 29.6917C111.734 30.3942 112.32 30.9371 113.065 31.3203C113.831 31.6823 114.725 31.8632 115.747 31.8632C116.663 31.8632 117.461 31.7249 118.142 31.4481C118.845 31.1713 119.484 30.7562 120.059 30.2026L122.709 33.0768C121.921 33.9709 120.931 34.6629 119.739 35.1525C118.547 35.6209 117.174 35.8551 115.62 35.8551ZM127.239 35.5996V18.4187H131.998V23.2728L131.327 21.8676C131.838 20.6541 132.658 19.7387 133.786 19.1213C134.914 18.4826 136.288 18.1632 137.906 18.1632V22.7618C137.693 22.7405 137.501 22.7299 137.331 22.7299C137.16 22.7086 136.979 22.698 136.788 22.698C135.425 22.698 134.318 23.0918 133.467 23.8795C132.636 24.646 132.221 25.8488 132.221 27.4882V35.5996H127.239ZM146.773 35.8551C145.304 35.8551 143.888 35.6848 142.525 35.3441C141.184 34.9822 140.12 34.5351 139.332 34.0029L140.993 30.4262C141.78 30.9158 142.706 31.3203 143.771 31.6397C144.857 31.9378 145.921 32.0868 146.964 32.0868C148.114 32.0868 148.923 31.9484 149.391 31.6716C149.881 31.3949 150.126 31.0116 150.126 30.522C150.126 30.1175 149.934 29.8194 149.551 29.6278C149.189 29.4149 148.699 29.2552 148.082 29.1488C147.465 29.0423 146.783 28.9359 146.038 28.8294C145.314 28.723 144.58 28.5846 143.835 28.4143C143.09 28.2227 142.408 27.9459 141.791 27.584C141.173 27.222 140.673 26.7324 140.29 26.115C139.928 25.4976 139.747 24.6992 139.747 23.7199C139.747 22.6341 140.056 21.676 140.673 20.8457C141.312 20.0154 142.227 19.3661 143.42 18.8977C144.612 18.408 146.038 18.1632 147.699 18.1632C148.87 18.1632 150.062 18.2909 151.276 18.5464C152.489 18.8019 153.5 19.1745 154.309 19.6641L152.649 23.2089C151.818 22.7192 150.977 22.3892 150.126 22.2189C149.296 22.0273 148.487 21.9315 147.699 21.9315C146.592 21.9315 145.783 22.0805 145.272 22.3786C144.761 22.6767 144.505 23.0599 144.505 23.5283C144.505 23.9541 144.686 24.2734 145.048 24.4863C145.431 24.6992 145.932 24.8695 146.549 24.9973C147.167 25.125 147.837 25.2421 148.561 25.3485C149.306 25.4337 150.051 25.5721 150.797 25.7637C151.542 25.9553 152.212 26.2321 152.808 26.594C153.426 26.9346 153.926 27.4137 154.309 28.0311C154.693 28.6272 154.884 29.4149 154.884 30.3942C154.884 31.4587 154.565 32.4061 153.926 33.2364C153.287 34.0454 152.361 34.6841 151.148 35.1525C149.956 35.6209 148.497 35.8551 146.773 35.8551Z" fill="white"/>
<path d="M17.2 34.1992H0V43.4992H17.2V34.1992Z" fill="#FF6C00"/>
<path d="M20.9 9.3V0L0 8.3V17.6V21.6V30.9V34.2V38.4V43.5L20.9 35.3V26L9.29999 30.6V27.3L20.9 22.7V13.4L9.29999 18V13.9L20.9 9.3Z" fill="#FFB200"/>
<path d="M38.1 26H20.9V35.3H38.1V26Z" fill="#FF6C00"/>
<path d="M33.2 13.4004H20.9V22.7004H33.2V13.4004Z" fill="#FF6C00"/>
<path d="M38.1 0H20.9V9.3H38.1V0Z" fill="#FF6C00"/>
</svg>
