<svg width="45" height="42" viewBox="0 0 45 42" fill="none" xmlns="http://www.w3.org/2000/svg">
<path d="M44.9912 20.486C44.956 20.5828 44.912 20.6709 44.8767 20.7677C44.551 21.5601 43.7321 22.018 42.9309 21.8683C42.0857 21.7098 41.487 21.0142 41.4782 20.1338C41.4694 18.0999 41.4782 16.0661 41.4782 14.0234C41.4782 11.7695 41.4782 9.51551 41.4782 7.26154C41.4782 5.00758 39.9902 3.52842 37.7275 3.52842C27.5758 3.52842 17.433 3.52842 7.28135 3.52842C4.99217 3.52842 3.51301 4.99878 3.51301 7.28796C3.51301 14.7982 3.51301 22.3085 3.51301 29.8276C3.51301 32.1168 4.99217 33.5871 7.27255 33.5871C11.7805 33.5871 16.2972 33.5871 20.8051 33.5871C22.1082 33.5871 22.9622 34.7141 22.5748 35.8939C22.3283 36.6511 21.6592 37.1001 20.7787 37.1001C17.0016 37.1001 13.2244 37.1089 9.44727 37.1001C8.32029 37.1001 7.1845 37.1441 6.07513 37.0121C3.01996 36.6599 0.537077 34.1858 0.0792409 31.1483C0.0616318 31.0514 0.0264136 30.9546 0 30.8577C0 22.6519 0 14.4549 0 6.24902C0.0264136 6.16978 0.0704363 6.09054 0.0792409 6.0025C0.589904 2.57753 3.51301 0.0154079 6.9908 0.0066034C17.3273 -0.00220113 27.6639 -0.00220113 38.0092 0.0066034C41.1876 0.0066034 43.9347 2.15491 44.7535 5.22769C44.8415 5.56227 44.912 5.90564 45 6.24022C44.9912 10.9947 44.9912 15.7403 44.9912 20.486Z" fill="white"/>
<path d="M44.9913 35.0751C44.7007 35.6738 44.419 36.2813 44.1108 36.88C43.6794 37.7252 42.8958 38.0598 41.9801 37.8133C41.443 37.6724 40.9059 37.5315 40.3777 37.3555C40.0959 37.2586 39.8846 37.285 39.6557 37.4787C39.4092 37.6812 39.1362 37.8837 38.8457 37.9982C38.4231 38.1567 38.2822 38.4384 38.247 38.8522C38.203 39.3013 38.1149 39.7503 38.0445 40.1993C37.886 41.159 37.1992 41.7489 36.2219 41.7577C35.7377 41.7665 35.2534 41.7665 34.7692 41.7577C33.8359 41.7489 33.1491 41.1766 32.9643 40.2786C32.9202 40.0761 32.8938 39.8736 32.8586 39.671C32.6297 38.2711 32.6297 38.2623 31.4058 37.558C31.2914 37.4963 31.0977 37.4963 30.9656 37.5403C30.4373 37.7164 29.9179 37.9189 29.3984 38.1038C28.4563 38.4384 27.6463 38.1391 27.1444 37.285C26.8891 36.8448 26.625 36.4046 26.3873 35.9467C25.9558 35.1455 26.1231 34.2739 26.8275 33.6928C27.2765 33.3142 27.7432 32.962 28.201 32.5922C28.6148 32.2576 28.5884 31.5445 28.1394 31.2275C27.7079 30.9281 27.2677 30.6376 26.8451 30.3294C26.0879 29.7659 25.8678 28.9295 26.264 28.0755C26.4929 27.5736 26.7394 27.0718 26.9948 26.5787C27.4174 25.7687 28.2186 25.4165 29.0991 25.663C29.689 25.8303 30.2701 26.0328 30.86 26.1913C31.0184 26.2353 31.221 26.1825 31.3706 26.1121C31.6172 25.9888 31.8285 25.7775 32.0838 25.6806C32.5416 25.5133 32.6649 25.1876 32.6913 24.7385C32.7177 24.2983 32.797 23.8669 32.8674 23.4355C33.0083 22.511 33.7038 21.8947 34.6459 21.8859C35.1742 21.8771 35.7025 21.8771 36.2307 21.8859C37.1552 21.8947 37.8508 22.467 38.0269 23.3738C38.0709 23.6028 38.1061 23.8317 38.1413 24.0694C38.379 25.3989 38.3702 25.4077 39.55 26.068C39.6645 26.1297 39.8582 26.1209 39.9903 26.0768C40.545 25.8831 41.082 25.663 41.6367 25.4605C42.5788 25.1171 43.3976 25.3989 43.8907 26.2617C44.2781 26.9309 44.6215 27.6264 44.9913 28.3044C44.9913 28.5421 44.9913 28.771 44.9913 29.0087C44.8064 29.6163 44.4013 30.0301 43.8731 30.3646C43.5385 30.576 43.2303 30.8225 42.9046 31.0514C42.3411 31.4564 42.3411 31.9495 42.9134 32.3545C43.2215 32.5746 43.5209 32.8123 43.8467 33.0148C44.4013 33.3582 44.8152 33.8072 44.9824 34.4588C44.9913 34.6613 44.9913 34.8638 44.9913 35.0751ZM39.0218 31.8438C39.0394 29.9244 37.4722 28.3308 35.5616 28.3132C33.6158 28.2956 32.0134 29.854 31.9958 31.7822C31.9781 33.728 33.5453 35.3128 35.4735 35.348C37.3577 35.3744 39.0394 33.6928 39.0218 31.8438Z" fill="white"/>
<path d="M16.174 18.7339C16.174 17.2987 16.1652 15.8636 16.174 14.4284C16.1828 11.6726 18.9738 10.035 21.3686 11.3997C23.8427 12.8172 26.3168 14.2435 28.7733 15.6963C31.2297 17.1402 31.2033 20.3451 28.7468 21.7802C26.3256 23.1978 23.8955 24.6065 21.4567 26.0064C18.965 27.4415 16.1828 25.8215 16.174 22.9424C16.1652 21.5425 16.174 20.1338 16.174 18.7339ZM26.9947 18.7251C24.5207 17.2899 22.1346 15.9076 19.7134 14.4989C19.7134 17.3339 19.7134 20.1162 19.7134 22.9512C22.1434 21.5425 24.5295 20.1602 26.9947 18.7251Z" fill="white"/>
</svg>
