<svg width="45" height="42" viewBox="0 0 45 42" fill="none" xmlns="http://www.w3.org/2000/svg">
<path d="M44.9912 16.7025C44.956 16.7816 44.9209 16.8607 44.8857 16.9398C44.5518 17.7658 43.7434 18.2403 42.9262 18.0822C42.065 17.9152 41.4763 17.2122 41.4763 16.2983C41.4675 13.3106 41.4763 10.3229 41.4763 7.33523C41.4763 4.96265 40.0263 3.51274 37.6362 3.51274C27.5307 3.51274 17.4253 3.51274 7.32864 3.51274C4.98242 3.52153 3.51494 4.98023 3.51494 7.31766C3.51494 15.3229 3.51494 23.337 3.51494 31.3423C3.51494 33.6885 4.97364 35.1472 7.31986 35.1472C11.3005 35.1472 15.2812 35.1472 19.2706 35.1472C20.0088 35.1472 20.5712 35.4723 20.9051 36.1314C21.2214 36.764 21.1511 37.3879 20.7293 37.9503C20.3954 38.3985 19.9385 38.6533 19.3761 38.6533C15.1318 38.6621 10.8787 38.706 6.63444 38.6357C3.4007 38.583 0.579965 35.9732 0.0878734 32.7658C0.0702987 32.6516 0.026362 32.5461 0 32.4319C0 23.7061 0 14.9714 0 6.2456C0.026362 6.16652 0.0702987 6.08743 0.0790861 5.99956C0.588752 2.57249 3.51494 0.0153778 6.98594 0.00659051C17.3199 -0.00219684 27.6626 -0.00219684 37.9965 0.00659051C41.1775 0.00659051 43.9191 2.1507 44.7451 5.22627C44.833 5.56019 44.9033 5.9029 44.9912 6.23682C44.9912 9.73418 44.9912 13.214 44.9912 16.7025Z" fill="white"/>
<path d="M44.9911 26.632C44.8681 27.0626 44.8242 27.5371 44.6133 27.9238C44.2618 28.574 43.9015 29.2507 43.3918 29.7691C40.2548 32.9501 37.0913 36.096 33.9103 39.2419C33.6203 39.5231 33.2161 39.7427 32.8295 39.857C30.6151 40.4985 28.3831 41.096 26.1511 41.7199C25.4305 41.922 24.7803 41.8517 24.2442 41.3069C23.6994 40.7533 23.6379 40.0855 23.8664 39.3561C24.543 37.1944 25.1757 35.0152 25.8611 32.8535C25.9841 32.4493 26.2302 32.045 26.5289 31.7463C29.6484 28.6092 32.7767 25.4897 35.9138 22.3702C37.4252 20.8675 39.2354 20.3579 41.2741 20.9906C43.3479 21.632 44.5518 23.0995 44.9296 25.2348C44.9384 25.2876 44.9736 25.3403 44.9999 25.393C44.9911 25.8148 44.9911 26.219 44.9911 26.632ZM28.0931 37.5283C29.2091 37.2208 30.246 36.9484 31.2741 36.6408C31.5114 36.5705 31.7574 36.4299 31.9332 36.2542C33.9103 34.3034 35.8787 32.335 37.847 30.3667C37.9349 30.2788 38.014 30.1821 38.0667 30.1294C37.2319 29.2946 36.4147 28.4774 35.5711 27.6338C33.4797 29.734 31.3708 31.8605 29.253 33.987C29.2003 34.0398 29.1476 34.0925 29.1212 34.1628C28.7873 35.2524 28.4534 36.3508 28.0931 37.5283ZM38.2073 25.0591C39.0245 25.8851 39.8418 26.7111 40.659 27.5371C41.6256 26.676 41.7486 25.5512 40.9578 24.7603C40.1581 23.9783 39.0245 24.1101 38.2073 25.0591Z" fill="white"/>
<path d="M33.2425 13.7148C32.4165 14.7605 31.5993 15.7887 30.7908 16.8256C27.1617 21.4389 23.5325 26.0523 19.9033 30.6656C18.9631 31.8607 17.7416 31.8607 16.7926 30.6656C15.3954 28.8994 13.9982 27.1331 12.601 25.3669C12.522 25.2614 12.4341 25.1648 12.3286 25.0417C11.5905 26.0171 10.8612 26.9662 10.1406 27.924C10.0264 28.0734 9.91212 28.2315 9.78909 28.3721C9.16519 29.1015 8.14586 29.2245 7.38136 28.6533C6.62565 28.0909 6.42354 27.0365 6.99472 26.2632C8.30403 24.4969 9.62214 22.7482 10.9754 21.0171C11.6784 20.1208 12.9701 20.1823 13.717 21.105C15.0615 22.7834 16.3884 24.4793 17.7241 26.1665C17.9174 26.4126 18.1195 26.6674 18.348 26.9486C18.7082 26.5004 19.0334 26.0874 19.3585 25.6744C23.4095 20.525 27.4692 15.3669 31.5202 10.2175C31.6432 10.0593 31.7662 9.89235 31.9068 9.73418C32.6098 8.94332 33.8225 8.89938 34.5079 9.70782C35.949 11.4038 37.3638 13.1261 38.7522 14.8572C39.3585 15.6129 39.1915 16.6674 38.4622 17.2561C37.7153 17.8625 36.6608 17.7834 36.0193 17.0365C35.1581 16.0259 34.3234 14.989 33.471 13.9609C33.4007 13.8906 33.3304 13.8203 33.2425 13.7148Z" fill="white"/>
<path d="M17.5747 11.6059C17.5747 14.5057 15.1933 16.8783 12.2935 16.8783C9.39366 16.8783 7.02108 14.4881 7.02987 11.5795C7.03866 8.70608 9.41124 6.3335 12.2935 6.3335C15.1933 6.3335 17.5747 8.70608 17.5747 11.6059ZM14.0597 11.6059C14.0597 10.6393 13.2689 9.84843 12.3023 9.84843C11.3357 9.84843 10.5448 10.6393 10.5536 11.6059C10.5536 12.5725 11.3445 13.3634 12.3111 13.3634C13.2689 13.3634 14.0597 12.5637 14.0597 11.6059Z" fill="white"/>
</svg>
