<svg width="45" height="45" viewBox="0 0 45 45" fill="none" xmlns="http://www.w3.org/2000/svg">
<path d="M-6.10352e-05 21.0979C0.114219 20.2715 0.210918 19.4452 0.34278 18.6276C1.81963 9.66983 9.12478 2.20645 18.0474 0.518613C21.3792 -0.114324 24.6845 -0.0527885 27.9722 0.773546C29.0535 1.04606 29.6513 1.94272 29.4139 2.9185C29.1678 3.92065 28.2184 4.4481 27.1107 4.17558C23.3395 3.24376 19.5946 3.34925 15.9728 4.76457C9.23906 7.38422 5.05465 12.2719 3.80635 19.4012C2.33829 27.7701 6.54908 35.7697 14.1707 39.5673C20.8253 42.8815 29.115 41.8353 34.7412 36.9565C38.3014 33.8709 40.4728 30.0029 41.2024 25.3526C41.5804 22.9527 41.4749 20.5704 40.9123 18.1969C40.8332 17.8629 40.7804 17.4936 40.8332 17.1596C40.965 16.3333 41.6771 15.7531 42.4946 15.7267C43.2946 15.7003 44.0682 16.2014 44.2176 17.0101C44.4989 18.5749 44.833 20.1572 44.8857 21.7396C45.2023 31.2864 39.708 39.7256 30.8908 43.3649C28.7634 44.244 26.5481 44.7539 24.2537 44.9209C24.1131 44.9297 23.9724 44.9737 23.823 45C22.9175 45 22.0033 45 21.0978 45C20.9836 44.9737 20.8693 44.9473 20.755 44.9297C19.7265 44.7803 18.6892 44.6836 17.6782 44.4726C9.13357 42.732 2.06578 35.5763 0.448269 27.0141C0.254872 25.9943 0.149382 24.9482 -6.10352e-05 23.9109C-6.10352e-05 22.9703 -6.10352e-05 22.0385 -6.10352e-05 21.0979Z" fill="white"/>
<path d="M40.3496 0C41.0177 0.246142 41.7297 0.404377 42.3363 0.756008C45.2548 2.43505 45.8262 6.47882 43.4703 8.8787C40.2793 12.1225 37.0355 15.3224 33.8004 18.531C33.5543 18.7771 33.2027 18.9617 32.8598 19.0584C30.6006 19.709 28.3238 20.3155 26.0558 20.9485C25.3525 21.1419 24.7108 21.0627 24.1921 20.5265C23.6734 19.9991 23.5855 19.3573 23.7965 18.6541C24.4734 16.4476 25.1327 14.2323 25.8272 12.0258C25.9415 11.6654 26.1612 11.2962 26.425 11.0324C29.5721 7.86776 32.7368 4.71187 35.9014 1.56476C36.7102 0.756008 37.686 0.246142 38.82 0.0703264C38.8903 0.0615356 38.9518 0.0175816 39.0222 0C39.4705 0 39.91 0 40.3496 0ZM28.0601 16.7201C28.2447 16.6849 28.3501 16.6673 28.4644 16.641C29.3787 16.3948 30.3017 16.1575 31.2072 15.8762C31.4621 15.7971 31.717 15.6564 31.9016 15.4718C33.862 13.5378 35.8047 11.5951 37.7475 9.6435C37.8442 9.5468 37.9409 9.43252 38.0024 9.37099C37.1673 8.53586 36.3586 7.72711 35.5322 6.90956C35.5322 6.90956 35.4971 6.92715 35.4707 6.96231C33.3961 9.02815 31.3302 11.094 29.2556 13.1686C29.1941 13.2301 29.1149 13.2917 29.0974 13.3708C28.7545 14.4609 28.4205 15.5597 28.0601 16.7201ZM40.5957 6.78649C41.1847 6.31179 41.5363 5.70523 41.3693 4.89647C41.2111 4.17563 40.7452 3.70972 40.0243 3.55148C39.2244 3.37567 38.609 3.7273 38.1343 4.32507C38.9518 5.14261 39.7518 5.94258 40.5957 6.78649Z" fill="white"/>
<path d="M6.92706 22.5395C7.02376 14.9882 12.3861 8.63243 19.8583 7.3226C20.3067 7.24348 20.755 7.20832 21.2121 7.15557C22.2582 7.0325 23.1285 7.7006 23.2428 8.70275C23.3571 9.73127 22.6362 10.5576 21.5549 10.6455C16.3684 11.0851 12.14 14.6717 10.8653 19.7088C9.1863 26.3371 13.6432 33.1587 20.3946 34.2928C26.891 35.3828 32.9214 31.2248 34.1785 24.7811C34.284 24.2361 34.3368 23.6823 34.3719 23.1284C34.451 22.0911 35.2246 21.3615 36.218 21.4142C37.2113 21.467 37.9322 22.2845 37.8882 23.3043C37.6069 29.5985 33.317 35.251 27.3481 37.1937C18.5133 40.0595 9.31816 34.7938 7.35781 25.7129C7.11167 24.6756 7.05892 23.5944 6.92706 22.5395Z" fill="white"/>
<path d="M13.9422 21.9946C14.0565 19.2958 15.4454 16.808 18.2497 15.1466C19.2167 14.5752 20.254 14.8037 20.7726 15.6916C21.3001 16.5883 20.9836 17.5992 19.9991 18.1882C17.7047 19.5508 16.808 22.2671 17.9068 24.6055C18.7156 26.3285 20.0958 27.3394 22.0034 27.5064C23.9813 27.6822 25.546 26.8911 26.6537 25.2472C27.0581 24.6494 27.5328 24.2275 28.28 24.2275C28.9481 24.2275 29.4755 24.5264 29.8008 25.1065C30.1436 25.7219 30.1173 26.3373 29.7393 26.935C28.4998 28.9305 26.7416 30.2316 24.4648 30.803C19.1288 32.1392 13.8719 27.9899 13.9422 21.9946Z" fill="white"/>
</svg>
