<svg width="45" height="45" viewBox="0 0 45 45" fill="none" xmlns="http://www.w3.org/2000/svg">
<path d="M2.20124 0.00878906C3.22257 0.360971 3.60997 1.08294 3.60997 2.1571C3.59236 9.66737 3.60116 17.1865 3.60116 24.6967C3.60116 24.8728 3.60116 25.0489 3.60116 25.2954C3.72443 25.1898 3.82128 25.137 3.89171 25.0577C4.56966 24.371 5.23881 23.6754 5.92556 22.9887C6.70917 22.1962 7.77452 22.1522 8.5053 22.8742C9.23607 23.5962 9.20966 24.6527 8.42605 25.4539C6.90287 27.0123 5.37088 28.5707 3.84769 30.1379C3.72443 30.27 3.61877 30.4813 3.61877 30.6574C3.60116 34.1616 3.60997 37.657 3.60997 41.1612C3.60997 41.2229 3.61877 41.2757 3.62758 41.3725C4.74575 41.3725 5.86393 41.3725 7.03494 41.3725C7.03494 41.2053 7.03494 41.0292 7.03494 40.8619C7.03494 38.1677 7.02613 35.4735 7.03494 32.7793C7.03494 31.5467 8.1179 30.7278 9.26249 31.0448C10.0461 31.2649 10.5391 31.9517 10.5391 32.885C10.5391 35.5351 10.5391 38.1853 10.5391 40.8355C10.5391 41.0116 10.5391 41.1788 10.5391 41.3813C11.6485 41.3813 12.7315 41.3813 13.8761 41.3813C13.8761 41.2141 13.8761 41.0468 13.8761 40.8707C13.8761 35.7993 13.8761 30.7367 13.8761 25.6652C13.8761 25.3747 13.8849 25.0753 13.9729 24.8024C14.2194 24.0276 14.9414 23.5786 15.7779 23.6314C16.5615 23.6842 17.2042 24.2741 17.3363 25.0665C17.3715 25.2954 17.3803 25.5332 17.3803 25.7621C17.3803 30.7719 17.3803 35.7817 17.3803 40.7914C17.3803 40.9763 17.3803 41.17 17.3803 41.3813C18.4985 41.3813 19.5726 41.3813 20.7084 41.3813C20.7084 41.1876 20.7084 41.0028 20.7084 40.8179C20.7084 35.7817 20.7084 30.7455 20.7084 25.7004C20.7084 25.4099 20.7172 25.1105 20.7964 24.8288C21.0166 24.0364 21.8002 23.5433 22.619 23.6138C23.473 23.693 24.1158 24.3269 24.195 25.1722C24.2126 25.3747 24.2126 25.586 24.2126 25.7885C24.2126 30.7807 24.2126 35.7729 24.2126 40.7738C24.2126 40.9587 24.2126 41.1524 24.2126 41.3725C25.3484 41.3725 26.4578 41.3725 27.6288 41.3725C27.6288 41.1964 27.6288 41.0204 27.6288 40.8355C27.6288 35.6056 27.6288 30.3757 27.6288 25.1546C27.6288 24.01 28.2539 23.2616 29.2576 23.1824C30.2349 23.1031 31.0713 23.8339 31.1242 24.8112C31.133 24.9873 31.133 25.1634 31.133 25.3395C31.133 30.5077 31.133 35.676 31.133 40.8531C31.133 41.0292 31.133 41.1964 31.133 41.3901C32.2864 41.3901 33.3957 41.3901 34.5579 41.3901C34.5579 41.1964 34.5579 41.0116 34.5579 40.8267C34.5579 33.5453 34.5579 26.2727 34.5579 18.9914C34.5579 18.7889 34.5491 18.5776 34.5844 18.3751C34.734 17.4154 35.5176 16.8079 36.4861 16.8783C37.3754 16.9487 38.0622 17.6883 38.0622 18.6216C38.071 21.7384 38.0622 24.864 38.0622 27.9808C38.0622 32.2686 38.0622 36.5653 38.0622 40.8531C38.0622 41.0292 38.0622 41.1964 38.0622 41.3901C39.2155 41.3901 40.3161 41.3901 41.4871 41.3901C41.4871 41.2053 41.4871 41.0204 41.4871 40.8355C41.4871 31.1681 41.4871 21.5007 41.4871 11.8333C41.4871 11.6308 41.4783 11.4195 41.5135 11.217C41.6456 10.4598 42.2443 9.86988 42.9751 9.77303C43.8027 9.66737 44.5159 10.0636 44.8593 10.8296C44.9033 10.9176 44.9561 11.0057 45.0001 11.0937C45.0001 21.9057 45.0001 32.7089 45.0001 43.5209C44.648 44.5774 43.8996 44.9384 42.8078 44.9384C29.2664 44.9208 15.725 44.9296 2.18363 44.9296C0.739687 44.912 0.0881503 44.2604 0.0881503 42.8253C0.0881503 29.2663 0.0969548 15.7073 0.0793457 2.1571C0.0793457 1.07414 0.457941 0.352166 1.49688 0.00878906C1.7258 0.00878906 1.96352 0.00878906 2.20124 0.00878906Z" fill="white"/>
<path d="M44.9912 2.02503C44.7006 2.43884 44.4717 2.90548 44.1195 3.25767C39.0657 8.41713 34.0031 13.559 28.9405 18.7008C27.0299 20.6378 24.3885 20.99 22.2314 19.5813C21.8528 19.3348 21.5182 19.0266 21.1925 18.7096C20.5585 18.1021 19.951 17.4682 19.3259 16.8519C18.4719 16.0155 17.6002 16.0155 16.7462 16.8607C15.9274 17.6795 15.1173 18.4983 14.2985 19.3172C13.5061 20.1096 12.4496 20.1536 11.7188 19.4316C10.988 18.7096 11.0144 17.6531 11.798 16.8519C12.6257 16.0066 13.4621 15.1614 14.3073 14.325C16.4556 12.2119 19.4756 12.1679 21.6679 14.2369C22.3283 14.8621 22.9534 15.5136 23.5961 16.1563C24.6351 17.1953 25.4979 17.1953 26.5368 16.1387C31.441 11.1641 36.3451 6.17197 41.258 1.1886C41.663 0.774784 42.1033 0.396189 42.5347 0.00878906C43.0013 0.00878906 43.468 0.00878906 43.9434 0.00878906C44.4453 0.334557 44.8239 0.748371 45 1.32947C44.9912 1.55839 44.9912 1.79611 44.9912 2.02503Z" fill="white"/>
</svg>
